G04 #@! TF.GenerationSoftware,KiCad,Pcbnew,(5.1.0)-1*
G04 #@! TF.CreationDate,2019-10-20T16:55:30+02:00*
G04 #@! TF.ProjectId,GTIA Fix,47544941-2046-4697-982e-6b696361645f,rev?*
G04 #@! TF.SameCoordinates,PX989b620PY8062360*
G04 #@! TF.FileFunction,Copper,L1,Top*
G04 #@! TF.FilePolarity,Positive*
%FSLAX46Y46*%
G04 Gerber Fmt 4.6, Leading zero omitted, Abs format (unit mm)*
G04 Created by KiCad (PCBNEW (5.1.0)-1) date 2019-10-20 16:55:30*
%MOMM*%
%LPD*%
G04 APERTURE LIST*
%ADD10R,1.000000X1.200000*%
%ADD11R,0.600000X1.500000*%
%ADD12C,0.100000*%
%ADD13C,1.250000*%
%ADD14O,1.700000X1.700000*%
%ADD15R,1.700000X1.700000*%
%ADD16C,0.800000*%
%ADD17C,0.812800*%
%ADD18C,0.406400*%
%ADD19C,0.304800*%
%ADD20C,0.254000*%
G04 APERTURE END LIST*
D10*
X15110000Y13130000D03*
X15110000Y11150000D03*
D11*
X22562200Y14988000D03*
X23832200Y14988000D03*
X25102200Y14988000D03*
X26372200Y14988000D03*
X27642200Y14988000D03*
X28912200Y14988000D03*
X30182200Y14988000D03*
X30182200Y9588000D03*
X28912200Y9588000D03*
X27642200Y9588000D03*
X26372200Y9588000D03*
X25102200Y9588000D03*
X23832200Y9588000D03*
X22562200Y9588000D03*
D12*
G36*
X21103504Y12934196D02*
G01*
X21127773Y12930596D01*
X21151571Y12924635D01*
X21174671Y12916370D01*
X21196849Y12905880D01*
X21217893Y12893267D01*
X21237598Y12878653D01*
X21255777Y12862177D01*
X21272253Y12843998D01*
X21286867Y12824293D01*
X21299480Y12803249D01*
X21309970Y12781071D01*
X21318235Y12757971D01*
X21324196Y12734173D01*
X21327796Y12709904D01*
X21329000Y12685400D01*
X21329000Y11935400D01*
X21327796Y11910896D01*
X21324196Y11886627D01*
X21318235Y11862829D01*
X21309970Y11839729D01*
X21299480Y11817551D01*
X21286867Y11796507D01*
X21272253Y11776802D01*
X21255777Y11758623D01*
X21237598Y11742147D01*
X21217893Y11727533D01*
X21196849Y11714920D01*
X21174671Y11704430D01*
X21151571Y11696165D01*
X21127773Y11690204D01*
X21103504Y11686604D01*
X21079000Y11685400D01*
X19829000Y11685400D01*
X19804496Y11686604D01*
X19780227Y11690204D01*
X19756429Y11696165D01*
X19733329Y11704430D01*
X19711151Y11714920D01*
X19690107Y11727533D01*
X19670402Y11742147D01*
X19652223Y11758623D01*
X19635747Y11776802D01*
X19621133Y11796507D01*
X19608520Y11817551D01*
X19598030Y11839729D01*
X19589765Y11862829D01*
X19583804Y11886627D01*
X19580204Y11910896D01*
X19579000Y11935400D01*
X19579000Y12685400D01*
X19580204Y12709904D01*
X19583804Y12734173D01*
X19589765Y12757971D01*
X19598030Y12781071D01*
X19608520Y12803249D01*
X19621133Y12824293D01*
X19635747Y12843998D01*
X19652223Y12862177D01*
X19670402Y12878653D01*
X19690107Y12893267D01*
X19711151Y12905880D01*
X19733329Y12916370D01*
X19756429Y12924635D01*
X19780227Y12930596D01*
X19804496Y12934196D01*
X19829000Y12935400D01*
X21079000Y12935400D01*
X21103504Y12934196D01*
X21103504Y12934196D01*
G37*
D13*
X20454000Y12310400D03*
D12*
G36*
X21103504Y15734196D02*
G01*
X21127773Y15730596D01*
X21151571Y15724635D01*
X21174671Y15716370D01*
X21196849Y15705880D01*
X21217893Y15693267D01*
X21237598Y15678653D01*
X21255777Y15662177D01*
X21272253Y15643998D01*
X21286867Y15624293D01*
X21299480Y15603249D01*
X21309970Y15581071D01*
X21318235Y15557971D01*
X21324196Y15534173D01*
X21327796Y15509904D01*
X21329000Y15485400D01*
X21329000Y14735400D01*
X21327796Y14710896D01*
X21324196Y14686627D01*
X21318235Y14662829D01*
X21309970Y14639729D01*
X21299480Y14617551D01*
X21286867Y14596507D01*
X21272253Y14576802D01*
X21255777Y14558623D01*
X21237598Y14542147D01*
X21217893Y14527533D01*
X21196849Y14514920D01*
X21174671Y14504430D01*
X21151571Y14496165D01*
X21127773Y14490204D01*
X21103504Y14486604D01*
X21079000Y14485400D01*
X19829000Y14485400D01*
X19804496Y14486604D01*
X19780227Y14490204D01*
X19756429Y14496165D01*
X19733329Y14504430D01*
X19711151Y14514920D01*
X19690107Y14527533D01*
X19670402Y14542147D01*
X19652223Y14558623D01*
X19635747Y14576802D01*
X19621133Y14596507D01*
X19608520Y14617551D01*
X19598030Y14639729D01*
X19589765Y14662829D01*
X19583804Y14686627D01*
X19580204Y14710896D01*
X19579000Y14735400D01*
X19579000Y15485400D01*
X19580204Y15509904D01*
X19583804Y15534173D01*
X19589765Y15557971D01*
X19598030Y15581071D01*
X19608520Y15603249D01*
X19621133Y15624293D01*
X19635747Y15643998D01*
X19652223Y15662177D01*
X19670402Y15678653D01*
X19690107Y15693267D01*
X19711151Y15705880D01*
X19733329Y15716370D01*
X19756429Y15724635D01*
X19780227Y15730596D01*
X19804496Y15734196D01*
X19829000Y15735400D01*
X21079000Y15735400D01*
X21103504Y15734196D01*
X21103504Y15734196D01*
G37*
D13*
X20454000Y15110400D03*
D12*
G36*
X36267304Y12959596D02*
G01*
X36291573Y12955996D01*
X36315371Y12950035D01*
X36338471Y12941770D01*
X36360649Y12931280D01*
X36381693Y12918667D01*
X36401398Y12904053D01*
X36419577Y12887577D01*
X36436053Y12869398D01*
X36450667Y12849693D01*
X36463280Y12828649D01*
X36473770Y12806471D01*
X36482035Y12783371D01*
X36487996Y12759573D01*
X36491596Y12735304D01*
X36492800Y12710800D01*
X36492800Y11960800D01*
X36491596Y11936296D01*
X36487996Y11912027D01*
X36482035Y11888229D01*
X36473770Y11865129D01*
X36463280Y11842951D01*
X36450667Y11821907D01*
X36436053Y11802202D01*
X36419577Y11784023D01*
X36401398Y11767547D01*
X36381693Y11752933D01*
X36360649Y11740320D01*
X36338471Y11729830D01*
X36315371Y11721565D01*
X36291573Y11715604D01*
X36267304Y11712004D01*
X36242800Y11710800D01*
X34992800Y11710800D01*
X34968296Y11712004D01*
X34944027Y11715604D01*
X34920229Y11721565D01*
X34897129Y11729830D01*
X34874951Y11740320D01*
X34853907Y11752933D01*
X34834202Y11767547D01*
X34816023Y11784023D01*
X34799547Y11802202D01*
X34784933Y11821907D01*
X34772320Y11842951D01*
X34761830Y11865129D01*
X34753565Y11888229D01*
X34747604Y11912027D01*
X34744004Y11936296D01*
X34742800Y11960800D01*
X34742800Y12710800D01*
X34744004Y12735304D01*
X34747604Y12759573D01*
X34753565Y12783371D01*
X34761830Y12806471D01*
X34772320Y12828649D01*
X34784933Y12849693D01*
X34799547Y12869398D01*
X34816023Y12887577D01*
X34834202Y12904053D01*
X34853907Y12918667D01*
X34874951Y12931280D01*
X34897129Y12941770D01*
X34920229Y12950035D01*
X34944027Y12955996D01*
X34968296Y12959596D01*
X34992800Y12960800D01*
X36242800Y12960800D01*
X36267304Y12959596D01*
X36267304Y12959596D01*
G37*
D13*
X35617800Y12335800D03*
D12*
G36*
X36267304Y15759596D02*
G01*
X36291573Y15755996D01*
X36315371Y15750035D01*
X36338471Y15741770D01*
X36360649Y15731280D01*
X36381693Y15718667D01*
X36401398Y15704053D01*
X36419577Y15687577D01*
X36436053Y15669398D01*
X36450667Y15649693D01*
X36463280Y15628649D01*
X36473770Y15606471D01*
X36482035Y15583371D01*
X36487996Y15559573D01*
X36491596Y15535304D01*
X36492800Y15510800D01*
X36492800Y14760800D01*
X36491596Y14736296D01*
X36487996Y14712027D01*
X36482035Y14688229D01*
X36473770Y14665129D01*
X36463280Y14642951D01*
X36450667Y14621907D01*
X36436053Y14602202D01*
X36419577Y14584023D01*
X36401398Y14567547D01*
X36381693Y14552933D01*
X36360649Y14540320D01*
X36338471Y14529830D01*
X36315371Y14521565D01*
X36291573Y14515604D01*
X36267304Y14512004D01*
X36242800Y14510800D01*
X34992800Y14510800D01*
X34968296Y14512004D01*
X34944027Y14515604D01*
X34920229Y14521565D01*
X34897129Y14529830D01*
X34874951Y14540320D01*
X34853907Y14552933D01*
X34834202Y14567547D01*
X34816023Y14584023D01*
X34799547Y14602202D01*
X34784933Y14621907D01*
X34772320Y14642951D01*
X34761830Y14665129D01*
X34753565Y14688229D01*
X34747604Y14712027D01*
X34744004Y14736296D01*
X34742800Y14760800D01*
X34742800Y15510800D01*
X34744004Y15535304D01*
X34747604Y15559573D01*
X34753565Y15583371D01*
X34761830Y15606471D01*
X34772320Y15628649D01*
X34784933Y15649693D01*
X34799547Y15669398D01*
X34816023Y15687577D01*
X34834202Y15704053D01*
X34853907Y15718667D01*
X34874951Y15731280D01*
X34897129Y15741770D01*
X34920229Y15750035D01*
X34944027Y15755996D01*
X34968296Y15759596D01*
X34992800Y15760800D01*
X36242800Y15760800D01*
X36267304Y15759596D01*
X36267304Y15759596D01*
G37*
D13*
X35617800Y15135800D03*
D11*
X37675200Y15013400D03*
X38945200Y15013400D03*
X40215200Y15013400D03*
X41485200Y15013400D03*
X42755200Y15013400D03*
X44025200Y15013400D03*
X45295200Y15013400D03*
X46565200Y15013400D03*
X46565200Y9613400D03*
X45295200Y9613400D03*
X44025200Y9613400D03*
X42755200Y9613400D03*
X41485200Y9613400D03*
X40215200Y9613400D03*
X38945200Y9613400D03*
X37675200Y9613400D03*
D12*
G36*
X18030104Y11181596D02*
G01*
X18054373Y11177996D01*
X18078171Y11172035D01*
X18101271Y11163770D01*
X18123449Y11153280D01*
X18144493Y11140667D01*
X18164198Y11126053D01*
X18182377Y11109577D01*
X18198853Y11091398D01*
X18213467Y11071693D01*
X18226080Y11050649D01*
X18236570Y11028471D01*
X18244835Y11005371D01*
X18250796Y10981573D01*
X18254396Y10957304D01*
X18255600Y10932800D01*
X18255600Y10182800D01*
X18254396Y10158296D01*
X18250796Y10134027D01*
X18244835Y10110229D01*
X18236570Y10087129D01*
X18226080Y10064951D01*
X18213467Y10043907D01*
X18198853Y10024202D01*
X18182377Y10006023D01*
X18164198Y9989547D01*
X18144493Y9974933D01*
X18123449Y9962320D01*
X18101271Y9951830D01*
X18078171Y9943565D01*
X18054373Y9937604D01*
X18030104Y9934004D01*
X18005600Y9932800D01*
X16755600Y9932800D01*
X16731096Y9934004D01*
X16706827Y9937604D01*
X16683029Y9943565D01*
X16659929Y9951830D01*
X16637751Y9962320D01*
X16616707Y9974933D01*
X16597002Y9989547D01*
X16578823Y10006023D01*
X16562347Y10024202D01*
X16547733Y10043907D01*
X16535120Y10064951D01*
X16524630Y10087129D01*
X16516365Y10110229D01*
X16510404Y10134027D01*
X16506804Y10158296D01*
X16505600Y10182800D01*
X16505600Y10932800D01*
X16506804Y10957304D01*
X16510404Y10981573D01*
X16516365Y11005371D01*
X16524630Y11028471D01*
X16535120Y11050649D01*
X16547733Y11071693D01*
X16562347Y11091398D01*
X16578823Y11109577D01*
X16597002Y11126053D01*
X16616707Y11140667D01*
X16637751Y11153280D01*
X16659929Y11163770D01*
X16683029Y11172035D01*
X16706827Y11177996D01*
X16731096Y11181596D01*
X16755600Y11182800D01*
X18005600Y11182800D01*
X18030104Y11181596D01*
X18030104Y11181596D01*
G37*
D13*
X17380600Y10557800D03*
D12*
G36*
X18030104Y13981596D02*
G01*
X18054373Y13977996D01*
X18078171Y13972035D01*
X18101271Y13963770D01*
X18123449Y13953280D01*
X18144493Y13940667D01*
X18164198Y13926053D01*
X18182377Y13909577D01*
X18198853Y13891398D01*
X18213467Y13871693D01*
X18226080Y13850649D01*
X18236570Y13828471D01*
X18244835Y13805371D01*
X18250796Y13781573D01*
X18254396Y13757304D01*
X18255600Y13732800D01*
X18255600Y12982800D01*
X18254396Y12958296D01*
X18250796Y12934027D01*
X18244835Y12910229D01*
X18236570Y12887129D01*
X18226080Y12864951D01*
X18213467Y12843907D01*
X18198853Y12824202D01*
X18182377Y12806023D01*
X18164198Y12789547D01*
X18144493Y12774933D01*
X18123449Y12762320D01*
X18101271Y12751830D01*
X18078171Y12743565D01*
X18054373Y12737604D01*
X18030104Y12734004D01*
X18005600Y12732800D01*
X16755600Y12732800D01*
X16731096Y12734004D01*
X16706827Y12737604D01*
X16683029Y12743565D01*
X16659929Y12751830D01*
X16637751Y12762320D01*
X16616707Y12774933D01*
X16597002Y12789547D01*
X16578823Y12806023D01*
X16562347Y12824202D01*
X16547733Y12843907D01*
X16535120Y12864951D01*
X16524630Y12887129D01*
X16516365Y12910229D01*
X16510404Y12934027D01*
X16506804Y12958296D01*
X16505600Y12982800D01*
X16505600Y13732800D01*
X16506804Y13757304D01*
X16510404Y13781573D01*
X16516365Y13805371D01*
X16524630Y13828471D01*
X16535120Y13850649D01*
X16547733Y13871693D01*
X16562347Y13891398D01*
X16578823Y13909577D01*
X16597002Y13926053D01*
X16616707Y13940667D01*
X16637751Y13953280D01*
X16659929Y13963770D01*
X16683029Y13972035D01*
X16706827Y13977996D01*
X16731096Y13981596D01*
X16755600Y13982800D01*
X18005600Y13982800D01*
X18030104Y13981596D01*
X18030104Y13981596D01*
G37*
D13*
X17380600Y13357800D03*
D12*
G36*
X13407304Y11206996D02*
G01*
X13431573Y11203396D01*
X13455371Y11197435D01*
X13478471Y11189170D01*
X13500649Y11178680D01*
X13521693Y11166067D01*
X13541398Y11151453D01*
X13559577Y11134977D01*
X13576053Y11116798D01*
X13590667Y11097093D01*
X13603280Y11076049D01*
X13613770Y11053871D01*
X13622035Y11030771D01*
X13627996Y11006973D01*
X13631596Y10982704D01*
X13632800Y10958200D01*
X13632800Y10208200D01*
X13631596Y10183696D01*
X13627996Y10159427D01*
X13622035Y10135629D01*
X13613770Y10112529D01*
X13603280Y10090351D01*
X13590667Y10069307D01*
X13576053Y10049602D01*
X13559577Y10031423D01*
X13541398Y10014947D01*
X13521693Y10000333D01*
X13500649Y9987720D01*
X13478471Y9977230D01*
X13455371Y9968965D01*
X13431573Y9963004D01*
X13407304Y9959404D01*
X13382800Y9958200D01*
X12132800Y9958200D01*
X12108296Y9959404D01*
X12084027Y9963004D01*
X12060229Y9968965D01*
X12037129Y9977230D01*
X12014951Y9987720D01*
X11993907Y10000333D01*
X11974202Y10014947D01*
X11956023Y10031423D01*
X11939547Y10049602D01*
X11924933Y10069307D01*
X11912320Y10090351D01*
X11901830Y10112529D01*
X11893565Y10135629D01*
X11887604Y10159427D01*
X11884004Y10183696D01*
X11882800Y10208200D01*
X11882800Y10958200D01*
X11884004Y10982704D01*
X11887604Y11006973D01*
X11893565Y11030771D01*
X11901830Y11053871D01*
X11912320Y11076049D01*
X11924933Y11097093D01*
X11939547Y11116798D01*
X11956023Y11134977D01*
X11974202Y11151453D01*
X11993907Y11166067D01*
X12014951Y11178680D01*
X12037129Y11189170D01*
X12060229Y11197435D01*
X12084027Y11203396D01*
X12108296Y11206996D01*
X12132800Y11208200D01*
X13382800Y11208200D01*
X13407304Y11206996D01*
X13407304Y11206996D01*
G37*
D13*
X12757800Y10583200D03*
D12*
G36*
X13407304Y14006996D02*
G01*
X13431573Y14003396D01*
X13455371Y13997435D01*
X13478471Y13989170D01*
X13500649Y13978680D01*
X13521693Y13966067D01*
X13541398Y13951453D01*
X13559577Y13934977D01*
X13576053Y13916798D01*
X13590667Y13897093D01*
X13603280Y13876049D01*
X13613770Y13853871D01*
X13622035Y13830771D01*
X13627996Y13806973D01*
X13631596Y13782704D01*
X13632800Y13758200D01*
X13632800Y13008200D01*
X13631596Y12983696D01*
X13627996Y12959427D01*
X13622035Y12935629D01*
X13613770Y12912529D01*
X13603280Y12890351D01*
X13590667Y12869307D01*
X13576053Y12849602D01*
X13559577Y12831423D01*
X13541398Y12814947D01*
X13521693Y12800333D01*
X13500649Y12787720D01*
X13478471Y12777230D01*
X13455371Y12768965D01*
X13431573Y12763004D01*
X13407304Y12759404D01*
X13382800Y12758200D01*
X12132800Y12758200D01*
X12108296Y12759404D01*
X12084027Y12763004D01*
X12060229Y12768965D01*
X12037129Y12777230D01*
X12014951Y12787720D01*
X11993907Y12800333D01*
X11974202Y12814947D01*
X11956023Y12831423D01*
X11939547Y12849602D01*
X11924933Y12869307D01*
X11912320Y12890351D01*
X11901830Y12912529D01*
X11893565Y12935629D01*
X11887604Y12959427D01*
X11884004Y12983696D01*
X11882800Y13008200D01*
X11882800Y13758200D01*
X11884004Y13782704D01*
X11887604Y13806973D01*
X11893565Y13830771D01*
X11901830Y13853871D01*
X11912320Y13876049D01*
X11924933Y13897093D01*
X11939547Y13916798D01*
X11956023Y13934977D01*
X11974202Y13951453D01*
X11993907Y13966067D01*
X12014951Y13978680D01*
X12037129Y13989170D01*
X12060229Y13997435D01*
X12084027Y14003396D01*
X12108296Y14006996D01*
X12132800Y14008200D01*
X13382800Y14008200D01*
X13407304Y14006996D01*
X13407304Y14006996D01*
G37*
D13*
X12757800Y13383200D03*
D14*
X50800000Y21137600D03*
X48260000Y21137600D03*
X45720000Y21137600D03*
X43180000Y21137600D03*
X40640000Y21137600D03*
X38100000Y21137600D03*
X35560000Y21137600D03*
X33020000Y21137600D03*
X30480000Y21137600D03*
X27940000Y21137600D03*
X25400000Y21137600D03*
X22860000Y21137600D03*
X20320000Y21137600D03*
X17780000Y21137600D03*
X15240000Y21137600D03*
X12700000Y21137600D03*
X10160000Y21137600D03*
X7620000Y21137600D03*
X5080000Y21137600D03*
D15*
X2540000Y21137600D03*
D14*
X50800000Y5897600D03*
X48260000Y5897600D03*
X45720000Y5897600D03*
X43180000Y5897600D03*
X40640000Y5897600D03*
X38100000Y5897600D03*
X35560000Y5897600D03*
X33020000Y5897600D03*
X30480000Y5897600D03*
X27940000Y5897600D03*
X25400000Y5897600D03*
X22860000Y5897600D03*
X20320000Y5897600D03*
X17780000Y5897600D03*
X15240000Y5897600D03*
X12700000Y5897600D03*
X10160000Y5897600D03*
X7620000Y5897600D03*
X5080000Y5897600D03*
D15*
X2540000Y5897600D03*
D14*
X50800000Y17480000D03*
X48260000Y17480000D03*
X45720000Y17480000D03*
X43180000Y17480000D03*
X40640000Y17480000D03*
X38100000Y17480000D03*
X35560000Y17480000D03*
X33020000Y17480000D03*
X30480000Y17480000D03*
X27940000Y17480000D03*
X25400000Y17480000D03*
X22860000Y17480000D03*
X20320000Y17480000D03*
X17780000Y17480000D03*
X15240000Y17480000D03*
X12700000Y17480000D03*
X10160000Y17480000D03*
X7620000Y17480000D03*
X5080000Y17480000D03*
D15*
X2540000Y17480000D03*
D14*
X50800000Y2240000D03*
X48260000Y2240000D03*
X45720000Y2240000D03*
X43180000Y2240000D03*
X40640000Y2240000D03*
X38100000Y2240000D03*
X35560000Y2240000D03*
X33020000Y2240000D03*
X30480000Y2240000D03*
X27940000Y2240000D03*
X25400000Y2240000D03*
X22860000Y2240000D03*
X20320000Y2240000D03*
X17780000Y2240000D03*
X15240000Y2240000D03*
X12700000Y2240000D03*
X10160000Y2240000D03*
X7620000Y2240000D03*
X5080000Y2240000D03*
D15*
X2540000Y2240000D03*
D16*
X38996000Y12034000D03*
X45727000Y11526000D03*
X24695800Y12338800D03*
X28582000Y11526000D03*
X22359000Y12338800D03*
X42080000Y12570000D03*
X2480000Y14820000D03*
X2480000Y12320000D03*
X5480000Y12320000D03*
X5480000Y14820000D03*
X8480000Y14820000D03*
X8480000Y12320000D03*
X29980000Y12820000D03*
X51980000Y15320000D03*
X51980000Y10820000D03*
X49980000Y15320000D03*
X49980000Y12820000D03*
X48133000Y8615400D03*
X2480000Y9820000D03*
X5480000Y9820000D03*
X8480000Y9820000D03*
X14980000Y8820000D03*
X19980000Y8820000D03*
X31980000Y8820000D03*
X35480000Y8820000D03*
X31980000Y10820000D03*
X35617800Y10957800D03*
X51980000Y12820000D03*
X52080000Y4120000D03*
X52080000Y19320000D03*
X42730000Y11270000D03*
X47980000Y15120000D03*
X26630000Y18820000D03*
X24130004Y19220000D03*
X33560400Y15132800D03*
X32471800Y15158200D03*
X17170000Y15160000D03*
X18271800Y15158200D03*
D17*
X7620000Y2240000D02*
X7620000Y5897600D01*
D18*
X46565200Y10560800D02*
X45727000Y11399000D01*
X46565200Y9613400D02*
X46565200Y10560800D01*
X45727000Y11399000D02*
X45727000Y11526000D01*
X22359000Y12338800D02*
X20482400Y12338800D01*
X20482400Y12338800D02*
X20454000Y12310400D01*
X35617800Y10560800D02*
X35617800Y10957800D01*
X32776000Y12335800D02*
X35617800Y12335800D01*
X32776000Y12335800D02*
X32480000Y12335800D01*
X30182200Y10038000D02*
X30182200Y9588000D01*
X20454000Y12310400D02*
X20152200Y12008600D01*
X7793200Y10583200D02*
X7620000Y10410000D01*
D17*
X7620000Y5897600D02*
X7620000Y10410000D01*
X7620000Y10410000D02*
X7620000Y13289000D01*
D18*
X35617800Y10957800D02*
X35617800Y12335800D01*
D19*
X17380600Y13357800D02*
X17707800Y13685000D01*
D18*
X17380600Y13357800D02*
X15292200Y13357800D01*
X15292200Y13357800D02*
X15094600Y13160200D01*
X12757800Y13383200D02*
X14871600Y13383200D01*
X14871600Y13383200D02*
X15094600Y13160200D01*
X17507800Y13357800D02*
X17380600Y13357800D01*
X17870000Y13720000D02*
X17507800Y13357800D01*
X23360000Y13720000D02*
X17870000Y13720000D01*
X23832200Y14988000D02*
X23832200Y14192200D01*
X23832200Y14192200D02*
X23360000Y13720000D01*
D19*
X17380600Y10557800D02*
X17790000Y10967200D01*
D18*
X15752200Y10557800D02*
X15080000Y11230000D01*
X17380600Y10557800D02*
X15752200Y10557800D01*
X27642200Y12982200D02*
X27642200Y14988000D01*
X25600000Y10940000D02*
X27642200Y12982200D01*
X17380600Y10557800D02*
X17762800Y10940000D01*
X17762800Y10940000D02*
X25600000Y10940000D01*
D19*
X42755200Y14196400D02*
X42755200Y15013400D01*
X44181600Y12770000D02*
X42755200Y14196400D01*
X45880000Y12770000D02*
X44181600Y12770000D01*
X49530000Y9120000D02*
X45880000Y12770000D01*
X50800000Y2240000D02*
X49530000Y3510000D01*
X49530000Y3510000D02*
X49530000Y9120000D01*
X42730000Y9638600D02*
X42755200Y9613400D01*
X42730000Y11270000D02*
X42730000Y9638600D01*
X41485200Y8614800D02*
X41485200Y9613400D01*
X44261508Y8070000D02*
X42030000Y8070000D01*
X45720000Y3442081D02*
X46990000Y4712081D01*
X46990000Y4712081D02*
X46990000Y6710000D01*
X42030000Y8070000D02*
X41485200Y8614800D01*
X45720000Y2240000D02*
X45720000Y3442081D01*
X46990000Y6710000D02*
X46380000Y7320000D01*
X46380000Y7320000D02*
X45011508Y7320000D01*
X45011508Y7320000D02*
X44261508Y8070000D01*
D18*
X43180000Y5897600D02*
X43180000Y2240000D01*
X40640000Y5897600D02*
X40640000Y2240000D01*
X38100000Y5897600D02*
X38100000Y2240000D01*
X35560000Y5897600D02*
X35560000Y2240000D01*
X33020000Y5897600D02*
X33020000Y2240000D01*
X30480000Y5897600D02*
X30480000Y2240000D01*
X27940000Y5897600D02*
X27940000Y2240000D01*
X25400000Y5897600D02*
X25400000Y2240000D01*
X22860000Y5897600D02*
X22860000Y2240000D01*
X20320000Y5897600D02*
X20320000Y2240000D01*
X17780000Y5897600D02*
X17780000Y2240000D01*
X15240000Y5897600D02*
X15240000Y2240000D01*
X12700000Y5897600D02*
X12700000Y2240000D01*
X10160000Y5897600D02*
X10160000Y2240000D01*
X5080000Y5897600D02*
X5080000Y2240000D01*
X2540000Y5897600D02*
X2540000Y2240000D01*
X50800000Y21137600D02*
X50800000Y17480000D01*
X48260000Y21137600D02*
X48260000Y17480000D01*
X45720000Y21137600D02*
X45720000Y17480000D01*
X43180000Y21137600D02*
X43180000Y17480000D01*
X40640000Y21137600D02*
X40640000Y17480000D01*
X38100000Y21137600D02*
X38100000Y17480000D01*
D19*
X46671800Y15120000D02*
X46565200Y15013400D01*
X47980000Y15120000D02*
X46671800Y15120000D01*
X26670000Y18780000D02*
X26630000Y18820000D01*
X26670000Y16210000D02*
X26670000Y18780000D01*
X26372200Y14988000D02*
X26372200Y15912200D01*
X26372200Y15912200D02*
X26670000Y16210000D01*
D18*
X30480000Y21137600D02*
X30480000Y17480000D01*
X27940000Y21137600D02*
X27940000Y17480000D01*
X25400000Y21137600D02*
X25400000Y17480000D01*
X22860000Y21137600D02*
X22860000Y17480000D01*
X20320000Y21137600D02*
X20320000Y17480000D01*
X17780000Y21137600D02*
X17780000Y17480000D01*
X15240000Y21137600D02*
X15240000Y17480000D01*
X12700000Y21137600D02*
X12700000Y17480000D01*
X10160000Y21137600D02*
X10160000Y17480000D01*
X7620000Y21137600D02*
X7620000Y17480000D01*
X5080000Y21137600D02*
X5080000Y17480000D01*
X2540000Y21137600D02*
X2540000Y17480000D01*
D19*
X45295200Y13854800D02*
X45295200Y15013400D01*
X45730000Y13420000D02*
X45295200Y13854800D01*
X46580000Y13420000D02*
X45730000Y13420000D01*
X50800000Y5897600D02*
X50800000Y9200000D01*
X50800000Y9200000D02*
X46580000Y13420000D01*
X45295200Y8304800D02*
X45295200Y9613400D01*
X45630000Y7970000D02*
X45295200Y8304800D01*
X46680000Y7970000D02*
X45630000Y7970000D01*
X48260000Y5897600D02*
X48260000Y6390000D01*
X48260000Y6390000D02*
X46680000Y7970000D01*
X38945200Y9163400D02*
X38945200Y9613400D01*
X40838600Y7270000D02*
X38945200Y9163400D01*
X44030000Y7270000D02*
X40838600Y7270000D01*
X45720000Y5897600D02*
X45402400Y5897600D01*
X45402400Y5897600D02*
X44030000Y7270000D01*
X24130004Y18654315D02*
X24130004Y19220000D01*
X24130004Y16649996D02*
X24130004Y18654315D01*
X25102200Y14988000D02*
X25102200Y15677800D01*
X25102200Y15677800D02*
X24130004Y16649996D01*
D17*
X35560000Y21137600D02*
X35560000Y17480000D01*
X33560400Y15132800D02*
X35614800Y15132800D01*
X35614800Y15132800D02*
X35617800Y15135800D01*
D18*
X20454000Y15110400D02*
X22439800Y15110400D01*
X22439800Y15110400D02*
X22562200Y14988000D01*
X37675200Y13608800D02*
X41237000Y13608800D01*
X41237000Y13608800D02*
X41485200Y13857000D01*
X41485200Y13857000D02*
X41485200Y15013400D01*
X37675200Y13857000D02*
X37675200Y13608800D01*
X37675200Y13608800D02*
X37675200Y9613400D01*
X37675200Y15013400D02*
X35740200Y15013400D01*
X35740200Y15013400D02*
X35617800Y15135800D01*
X37675200Y15013400D02*
X37675200Y13857000D01*
D17*
X35560000Y15193600D02*
X35617800Y15135800D01*
X35560000Y17480000D02*
X35560000Y15193600D01*
X32497200Y15132800D02*
X32471800Y15158200D01*
X33560400Y15132800D02*
X32497200Y15132800D01*
X18270000Y15160000D02*
X18271800Y15158200D01*
X17170000Y15160000D02*
X18270000Y15160000D01*
X20406200Y15158200D02*
X20454000Y15110400D01*
X18271800Y15158200D02*
X20406200Y15158200D01*
D20*
G36*
X52680001Y660000D02*
G01*
X660000Y660000D01*
X660000Y6747600D01*
X1051928Y6747600D01*
X1051928Y5047600D01*
X1064188Y4923118D01*
X1100498Y4803420D01*
X1159463Y4693106D01*
X1238815Y4596415D01*
X1335506Y4517063D01*
X1445820Y4458098D01*
X1565518Y4421788D01*
X1690000Y4409528D01*
X1701800Y4409528D01*
X1701801Y3728072D01*
X1690000Y3728072D01*
X1565518Y3715812D01*
X1445820Y3679502D01*
X1335506Y3620537D01*
X1238815Y3541185D01*
X1159463Y3444494D01*
X1100498Y3334180D01*
X1064188Y3214482D01*
X1051928Y3090000D01*
X1051928Y1390000D01*
X1064188Y1265518D01*
X1100498Y1145820D01*
X1159463Y1035506D01*
X1238815Y938815D01*
X1335506Y859463D01*
X1445820Y800498D01*
X1565518Y764188D01*
X1690000Y751928D01*
X3390000Y751928D01*
X3514482Y764188D01*
X3634180Y800498D01*
X3744494Y859463D01*
X3841185Y938815D01*
X3920537Y1035506D01*
X3979502Y1145820D01*
X4000393Y1214687D01*
X4024866Y1184866D01*
X4250986Y999294D01*
X4508966Y861401D01*
X4788889Y776487D01*
X5007050Y755000D01*
X5152950Y755000D01*
X5371111Y776487D01*
X5651034Y861401D01*
X5909014Y999294D01*
X6135134Y1184866D01*
X6320706Y1410986D01*
X6355201Y1475523D01*
X6424822Y1358645D01*
X6619731Y1142412D01*
X6853080Y968359D01*
X7115901Y843175D01*
X7263110Y798524D01*
X7493000Y919845D01*
X7493000Y2113000D01*
X7473000Y2113000D01*
X7473000Y2367000D01*
X7493000Y2367000D01*
X7493000Y3560155D01*
X7263110Y3681476D01*
X7115901Y3636825D01*
X6853080Y3511641D01*
X6619731Y3337588D01*
X6424822Y3121355D01*
X6355201Y3004477D01*
X6320706Y3069014D01*
X6135134Y3295134D01*
X5918200Y3473167D01*
X5918200Y4664433D01*
X6135134Y4842466D01*
X6320706Y5068586D01*
X6355201Y5133123D01*
X6424822Y5016245D01*
X6619731Y4800012D01*
X6853080Y4625959D01*
X7115901Y4500775D01*
X7263110Y4456124D01*
X7493000Y4577445D01*
X7493000Y5770600D01*
X7473000Y5770600D01*
X7473000Y6024600D01*
X7493000Y6024600D01*
X7493000Y7217755D01*
X7263110Y7339076D01*
X7115901Y7294425D01*
X6853080Y7169241D01*
X6619731Y6995188D01*
X6424822Y6778955D01*
X6355201Y6662077D01*
X6320706Y6726614D01*
X6135134Y6952734D01*
X5909014Y7138306D01*
X5651034Y7276199D01*
X5371111Y7361113D01*
X5152950Y7382600D01*
X5007050Y7382600D01*
X4788889Y7361113D01*
X4508966Y7276199D01*
X4250986Y7138306D01*
X4024866Y6952734D01*
X4000393Y6922913D01*
X3979502Y6991780D01*
X3920537Y7102094D01*
X3841185Y7198785D01*
X3744494Y7278137D01*
X3634180Y7337102D01*
X3514482Y7373412D01*
X3390000Y7385672D01*
X1690000Y7385672D01*
X1565518Y7373412D01*
X1445820Y7337102D01*
X1335506Y7278137D01*
X1238815Y7198785D01*
X1159463Y7102094D01*
X1100498Y6991780D01*
X1064188Y6872082D01*
X1051928Y6747600D01*
X660000Y6747600D01*
X660000Y8838000D01*
X21624128Y8838000D01*
X21636388Y8713518D01*
X21672698Y8593820D01*
X21731663Y8483506D01*
X21811015Y8386815D01*
X21907706Y8307463D01*
X22018020Y8248498D01*
X22137718Y8212188D01*
X22262200Y8199928D01*
X22276450Y8203000D01*
X22435200Y8361750D01*
X22435200Y9461000D01*
X21785950Y9461000D01*
X21627200Y9302250D01*
X21624128Y8838000D01*
X660000Y8838000D01*
X660000Y9958200D01*
X11244728Y9958200D01*
X11256988Y9833718D01*
X11293298Y9714020D01*
X11352263Y9603706D01*
X11431615Y9507015D01*
X11528306Y9427663D01*
X11638620Y9368698D01*
X11758318Y9332388D01*
X11882800Y9320128D01*
X12472050Y9323200D01*
X12630800Y9481950D01*
X12630800Y10456200D01*
X11406550Y10456200D01*
X11247800Y10297450D01*
X11244728Y9958200D01*
X660000Y9958200D01*
X660000Y11208200D01*
X11244728Y11208200D01*
X11247800Y10868950D01*
X11406550Y10710200D01*
X12630800Y10710200D01*
X12630800Y11684450D01*
X12472050Y11843200D01*
X11882800Y11846272D01*
X11758318Y11834012D01*
X11638620Y11797702D01*
X11528306Y11738737D01*
X11431615Y11659385D01*
X11352263Y11562694D01*
X11293298Y11452380D01*
X11256988Y11332682D01*
X11244728Y11208200D01*
X660000Y11208200D01*
X660000Y21987600D01*
X1051928Y21987600D01*
X1051928Y20287600D01*
X1064188Y20163118D01*
X1100498Y20043420D01*
X1159463Y19933106D01*
X1238815Y19836415D01*
X1335506Y19757063D01*
X1445820Y19698098D01*
X1565518Y19661788D01*
X1690000Y19649528D01*
X1701800Y19649528D01*
X1701801Y18968072D01*
X1690000Y18968072D01*
X1565518Y18955812D01*
X1445820Y18919502D01*
X1335506Y18860537D01*
X1238815Y18781185D01*
X1159463Y18684494D01*
X1100498Y18574180D01*
X1064188Y18454482D01*
X1051928Y18330000D01*
X1051928Y16630000D01*
X1064188Y16505518D01*
X1100498Y16385820D01*
X1159463Y16275506D01*
X1238815Y16178815D01*
X1335506Y16099463D01*
X1445820Y16040498D01*
X1565518Y16004188D01*
X1690000Y15991928D01*
X3390000Y15991928D01*
X3514482Y16004188D01*
X3634180Y16040498D01*
X3744494Y16099463D01*
X3841185Y16178815D01*
X3920537Y16275506D01*
X3979502Y16385820D01*
X4000393Y16454687D01*
X4024866Y16424866D01*
X4250986Y16239294D01*
X4508966Y16101401D01*
X4788889Y16016487D01*
X5007050Y15995000D01*
X5152950Y15995000D01*
X5371111Y16016487D01*
X5651034Y16101401D01*
X5909014Y16239294D01*
X6135134Y16424866D01*
X6320706Y16650986D01*
X6350000Y16705791D01*
X6379294Y16650986D01*
X6564866Y16424866D01*
X6790986Y16239294D01*
X7048966Y16101401D01*
X7328889Y16016487D01*
X7547050Y15995000D01*
X7692950Y15995000D01*
X7911111Y16016487D01*
X8191034Y16101401D01*
X8449014Y16239294D01*
X8675134Y16424866D01*
X8860706Y16650986D01*
X8890000Y16705791D01*
X8919294Y16650986D01*
X9104866Y16424866D01*
X9330986Y16239294D01*
X9588966Y16101401D01*
X9868889Y16016487D01*
X10087050Y15995000D01*
X10232950Y15995000D01*
X10451111Y16016487D01*
X10731034Y16101401D01*
X10989014Y16239294D01*
X11215134Y16424866D01*
X11400706Y16650986D01*
X11430000Y16705791D01*
X11459294Y16650986D01*
X11644866Y16424866D01*
X11870986Y16239294D01*
X12128966Y16101401D01*
X12408889Y16016487D01*
X12627050Y15995000D01*
X12772950Y15995000D01*
X12991111Y16016487D01*
X13271034Y16101401D01*
X13529014Y16239294D01*
X13755134Y16424866D01*
X13940706Y16650986D01*
X13970000Y16705791D01*
X13999294Y16650986D01*
X14184866Y16424866D01*
X14410986Y16239294D01*
X14668966Y16101401D01*
X14948889Y16016487D01*
X15167050Y15995000D01*
X15312950Y15995000D01*
X15531111Y16016487D01*
X15811034Y16101401D01*
X16069014Y16239294D01*
X16295134Y16424866D01*
X16480706Y16650986D01*
X16510000Y16705791D01*
X16539294Y16650986D01*
X16724866Y16424866D01*
X16950986Y16239294D01*
X17036968Y16193336D01*
X16965850Y16186331D01*
X16769546Y16126783D01*
X16588630Y16030081D01*
X16430057Y15899943D01*
X16299919Y15741370D01*
X16203217Y15560454D01*
X16143669Y15364150D01*
X16123562Y15160000D01*
X16143669Y14955850D01*
X16203217Y14759546D01*
X16299919Y14578630D01*
X16349703Y14517969D01*
X16262214Y14471205D01*
X16127638Y14360762D01*
X16017195Y14226186D01*
X16013889Y14220000D01*
X15964494Y14260537D01*
X15854180Y14319502D01*
X15734482Y14355812D01*
X15610000Y14368072D01*
X14610000Y14368072D01*
X14485518Y14355812D01*
X14365820Y14319502D01*
X14255506Y14260537D01*
X14207817Y14221400D01*
X14137340Y14221400D01*
X14121205Y14251586D01*
X14010762Y14386162D01*
X13876186Y14496605D01*
X13722650Y14578672D01*
X13556054Y14629208D01*
X13382800Y14646272D01*
X12132800Y14646272D01*
X11959546Y14629208D01*
X11792950Y14578672D01*
X11639414Y14496605D01*
X11504838Y14386162D01*
X11394395Y14251586D01*
X11312328Y14098050D01*
X11261792Y13931454D01*
X11244728Y13758200D01*
X11244728Y13008200D01*
X11261792Y12834946D01*
X11312328Y12668350D01*
X11394395Y12514814D01*
X11504838Y12380238D01*
X11639414Y12269795D01*
X11792950Y12187728D01*
X11959546Y12137192D01*
X12132800Y12120128D01*
X13382800Y12120128D01*
X13556054Y12137192D01*
X13722650Y12187728D01*
X13876186Y12269795D01*
X13995625Y12367815D01*
X14020498Y12285820D01*
X14079463Y12175506D01*
X14108602Y12140000D01*
X14079463Y12104494D01*
X14020498Y11994180D01*
X13984188Y11874482D01*
X13971928Y11750000D01*
X13971928Y11746950D01*
X13876980Y11797702D01*
X13757282Y11834012D01*
X13632800Y11846272D01*
X13043550Y11843200D01*
X12884800Y11684450D01*
X12884800Y10710200D01*
X12904800Y10710200D01*
X12904800Y10456200D01*
X12884800Y10456200D01*
X12884800Y9481950D01*
X13043550Y9323200D01*
X13632800Y9320128D01*
X13757282Y9332388D01*
X13876980Y9368698D01*
X13987294Y9427663D01*
X14083985Y9507015D01*
X14163337Y9603706D01*
X14222302Y9714020D01*
X14258612Y9833718D01*
X14270872Y9958200D01*
X14270389Y10011508D01*
X14365820Y9960498D01*
X14485518Y9924188D01*
X14610000Y9911928D01*
X15217936Y9911928D01*
X15232550Y9899935D01*
X15284268Y9857491D01*
X15429883Y9779658D01*
X15587884Y9731729D01*
X15711030Y9719600D01*
X15711039Y9719600D01*
X15752199Y9715546D01*
X15793359Y9719600D01*
X16001060Y9719600D01*
X16017195Y9689414D01*
X16127638Y9554838D01*
X16262214Y9444395D01*
X16415750Y9362328D01*
X16582346Y9311792D01*
X16755600Y9294728D01*
X18005600Y9294728D01*
X18178854Y9311792D01*
X18345450Y9362328D01*
X18498986Y9444395D01*
X18633562Y9554838D01*
X18744005Y9689414D01*
X18826072Y9842950D01*
X18876608Y10009546D01*
X18885694Y10101800D01*
X21625691Y10101800D01*
X21627200Y9873750D01*
X21785950Y9715000D01*
X22435200Y9715000D01*
X22435200Y9735000D01*
X22689200Y9735000D01*
X22689200Y9715000D01*
X22709200Y9715000D01*
X22709200Y9461000D01*
X22689200Y9461000D01*
X22689200Y8361750D01*
X22847950Y8203000D01*
X22862200Y8199928D01*
X22986682Y8212188D01*
X23106380Y8248498D01*
X23197200Y8297043D01*
X23288020Y8248498D01*
X23407718Y8212188D01*
X23532200Y8199928D01*
X24132200Y8199928D01*
X24256682Y8212188D01*
X24376380Y8248498D01*
X24467200Y8297043D01*
X24558020Y8248498D01*
X24677718Y8212188D01*
X24802200Y8199928D01*
X24816450Y8203000D01*
X24975200Y8361750D01*
X24975200Y9461000D01*
X24955200Y9461000D01*
X24955200Y9715000D01*
X24975200Y9715000D01*
X24975200Y9735000D01*
X25229200Y9735000D01*
X25229200Y9715000D01*
X25249200Y9715000D01*
X25249200Y9461000D01*
X25229200Y9461000D01*
X25229200Y8361750D01*
X25387950Y8203000D01*
X25402200Y8199928D01*
X25526682Y8212188D01*
X25646380Y8248498D01*
X25737200Y8297043D01*
X25828020Y8248498D01*
X25947718Y8212188D01*
X26072200Y8199928D01*
X26672200Y8199928D01*
X26796682Y8212188D01*
X26916380Y8248498D01*
X27007200Y8297043D01*
X27098020Y8248498D01*
X27217718Y8212188D01*
X27342200Y8199928D01*
X27356450Y8203000D01*
X27515200Y8361750D01*
X27515200Y9461000D01*
X27495200Y9461000D01*
X27495200Y9715000D01*
X27515200Y9715000D01*
X27515200Y10814250D01*
X27769200Y10814250D01*
X27769200Y9715000D01*
X27789200Y9715000D01*
X27789200Y9461000D01*
X27769200Y9461000D01*
X27769200Y8361750D01*
X27927950Y8203000D01*
X27942200Y8199928D01*
X28066682Y8212188D01*
X28186380Y8248498D01*
X28277200Y8297043D01*
X28368020Y8248498D01*
X28487718Y8212188D01*
X28612200Y8199928D01*
X29212200Y8199928D01*
X29336682Y8212188D01*
X29456380Y8248498D01*
X29547200Y8297043D01*
X29638020Y8248498D01*
X29757718Y8212188D01*
X29882200Y8199928D01*
X29896450Y8203000D01*
X30055200Y8361750D01*
X30055200Y9461000D01*
X30309200Y9461000D01*
X30309200Y8361750D01*
X30467950Y8203000D01*
X30482200Y8199928D01*
X30606682Y8212188D01*
X30726380Y8248498D01*
X30836694Y8307463D01*
X30933385Y8386815D01*
X31012737Y8483506D01*
X31071702Y8593820D01*
X31108012Y8713518D01*
X31120272Y8838000D01*
X31117200Y9302250D01*
X30958450Y9461000D01*
X30309200Y9461000D01*
X30055200Y9461000D01*
X30035200Y9461000D01*
X30035200Y9715000D01*
X30055200Y9715000D01*
X30055200Y10814250D01*
X30309200Y10814250D01*
X30309200Y9715000D01*
X30958450Y9715000D01*
X31117200Y9873750D01*
X31120272Y10338000D01*
X31108012Y10462482D01*
X31071702Y10582180D01*
X31012737Y10692494D01*
X30933385Y10789185D01*
X30836694Y10868537D01*
X30726380Y10927502D01*
X30606682Y10963812D01*
X30482200Y10976072D01*
X30467950Y10973000D01*
X30309200Y10814250D01*
X30055200Y10814250D01*
X29896450Y10973000D01*
X29882200Y10976072D01*
X29757718Y10963812D01*
X29638020Y10927502D01*
X29547200Y10878957D01*
X29456380Y10927502D01*
X29336682Y10963812D01*
X29212200Y10976072D01*
X28612200Y10976072D01*
X28487718Y10963812D01*
X28368020Y10927502D01*
X28277200Y10878957D01*
X28186380Y10927502D01*
X28066682Y10963812D01*
X27942200Y10976072D01*
X27927950Y10973000D01*
X27769200Y10814250D01*
X27515200Y10814250D01*
X27356450Y10973000D01*
X27342200Y10976072D01*
X27217718Y10963812D01*
X27098020Y10927502D01*
X27007200Y10878957D01*
X26916380Y10927502D01*
X26806291Y10960897D01*
X27556194Y11710800D01*
X34104728Y11710800D01*
X34116988Y11586318D01*
X34153298Y11466620D01*
X34212263Y11356306D01*
X34291615Y11259615D01*
X34388306Y11180263D01*
X34498620Y11121298D01*
X34618318Y11084988D01*
X34742800Y11072728D01*
X35332050Y11075800D01*
X35490800Y11234550D01*
X35490800Y12208800D01*
X34266550Y12208800D01*
X34107800Y12050050D01*
X34104728Y11710800D01*
X27556194Y11710800D01*
X28205789Y12360395D01*
X28237764Y12386636D01*
X28342509Y12514268D01*
X28420342Y12659883D01*
X28468271Y12817884D01*
X28480400Y12941030D01*
X28480400Y12941037D01*
X28482346Y12960800D01*
X34104728Y12960800D01*
X34107800Y12621550D01*
X34266550Y12462800D01*
X35490800Y12462800D01*
X35490800Y13437050D01*
X35332050Y13595800D01*
X34742800Y13598872D01*
X34618318Y13586612D01*
X34498620Y13550302D01*
X34388306Y13491337D01*
X34291615Y13411985D01*
X34212263Y13315294D01*
X34153298Y13204980D01*
X34116988Y13085282D01*
X34104728Y12960800D01*
X28482346Y12960800D01*
X28484454Y12982200D01*
X28480400Y13023363D01*
X28480400Y13614408D01*
X28487718Y13612188D01*
X28612200Y13599928D01*
X28626450Y13603000D01*
X28785200Y13761750D01*
X28785200Y14861000D01*
X28765200Y14861000D01*
X28765200Y15115000D01*
X28785200Y15115000D01*
X28785200Y15135000D01*
X29039200Y15135000D01*
X29039200Y15115000D01*
X29059200Y15115000D01*
X29059200Y14861000D01*
X29039200Y14861000D01*
X29039200Y13761750D01*
X29197950Y13603000D01*
X29212200Y13599928D01*
X29336682Y13612188D01*
X29456380Y13648498D01*
X29547200Y13697043D01*
X29638020Y13648498D01*
X29757718Y13612188D01*
X29882200Y13599928D01*
X30482200Y13599928D01*
X30606682Y13612188D01*
X30726380Y13648498D01*
X30836694Y13707463D01*
X30933385Y13786815D01*
X31012737Y13883506D01*
X31071702Y13993820D01*
X31108012Y14113518D01*
X31120272Y14238000D01*
X31120272Y15738000D01*
X31108012Y15862482D01*
X31071702Y15982180D01*
X31013984Y16090162D01*
X31051034Y16101401D01*
X31309014Y16239294D01*
X31535134Y16424866D01*
X31720706Y16650986D01*
X31750000Y16705791D01*
X31779294Y16650986D01*
X31964866Y16424866D01*
X32190986Y16239294D01*
X32289429Y16186675D01*
X32267651Y16184530D01*
X32071345Y16124982D01*
X31890431Y16028281D01*
X31731857Y15898143D01*
X31601719Y15739569D01*
X31505018Y15558655D01*
X31445470Y15362349D01*
X31425363Y15158200D01*
X31445470Y14954051D01*
X31505018Y14757745D01*
X31601719Y14576831D01*
X31699250Y14457989D01*
X31724648Y14432591D01*
X31757257Y14392857D01*
X31915830Y14262719D01*
X32096746Y14166017D01*
X32293050Y14106469D01*
X32446048Y14091400D01*
X32446058Y14091400D01*
X32497199Y14086363D01*
X32548341Y14091400D01*
X34415331Y14091400D01*
X34499414Y14022395D01*
X34652950Y13940328D01*
X34819546Y13889792D01*
X34992800Y13872728D01*
X36242800Y13872728D01*
X36416054Y13889792D01*
X36582650Y13940328D01*
X36736186Y14022395D01*
X36775058Y14054296D01*
X36785698Y14019220D01*
X36837001Y13923241D01*
X36837001Y13898178D01*
X36837000Y13898169D01*
X36837000Y13649970D01*
X36832945Y13608800D01*
X36837000Y13567631D01*
X36837000Y13496839D01*
X36736980Y13550302D01*
X36617282Y13586612D01*
X36492800Y13598872D01*
X35903550Y13595800D01*
X35744800Y13437050D01*
X35744800Y12462800D01*
X35764800Y12462800D01*
X35764800Y12208800D01*
X35744800Y12208800D01*
X35744800Y11234550D01*
X35903550Y11075800D01*
X36492800Y11072728D01*
X36617282Y11084988D01*
X36736980Y11121298D01*
X36837001Y11174761D01*
X36837001Y10703559D01*
X36785698Y10607580D01*
X36749388Y10487882D01*
X36737128Y10363400D01*
X36737128Y8863400D01*
X36749388Y8738918D01*
X36785698Y8619220D01*
X36844663Y8508906D01*
X36924015Y8412215D01*
X37020706Y8332863D01*
X37131020Y8273898D01*
X37250718Y8237588D01*
X37375200Y8225328D01*
X37975200Y8225328D01*
X38099682Y8237588D01*
X38219380Y8273898D01*
X38310200Y8322443D01*
X38401020Y8273898D01*
X38520718Y8237588D01*
X38645200Y8225328D01*
X38769722Y8225328D01*
X39840805Y7154244D01*
X39810986Y7138306D01*
X39584866Y6952734D01*
X39399294Y6726614D01*
X39370000Y6671809D01*
X39340706Y6726614D01*
X39155134Y6952734D01*
X38929014Y7138306D01*
X38671034Y7276199D01*
X38391111Y7361113D01*
X38172950Y7382600D01*
X38027050Y7382600D01*
X37808889Y7361113D01*
X37528966Y7276199D01*
X37270986Y7138306D01*
X37044866Y6952734D01*
X36859294Y6726614D01*
X36830000Y6671809D01*
X36800706Y6726614D01*
X36615134Y6952734D01*
X36389014Y7138306D01*
X36131034Y7276199D01*
X35851111Y7361113D01*
X35632950Y7382600D01*
X35487050Y7382600D01*
X35268889Y7361113D01*
X34988966Y7276199D01*
X34730986Y7138306D01*
X34504866Y6952734D01*
X34319294Y6726614D01*
X34290000Y6671809D01*
X34260706Y6726614D01*
X34075134Y6952734D01*
X33849014Y7138306D01*
X33591034Y7276199D01*
X33311111Y7361113D01*
X33092950Y7382600D01*
X32947050Y7382600D01*
X32728889Y7361113D01*
X32448966Y7276199D01*
X32190986Y7138306D01*
X31964866Y6952734D01*
X31779294Y6726614D01*
X31750000Y6671809D01*
X31720706Y6726614D01*
X31535134Y6952734D01*
X31309014Y7138306D01*
X31051034Y7276199D01*
X30771111Y7361113D01*
X30552950Y7382600D01*
X30407050Y7382600D01*
X30188889Y7361113D01*
X29908966Y7276199D01*
X29650986Y7138306D01*
X29424866Y6952734D01*
X29239294Y6726614D01*
X29210000Y6671809D01*
X29180706Y6726614D01*
X28995134Y6952734D01*
X28769014Y7138306D01*
X28511034Y7276199D01*
X28231111Y7361113D01*
X28012950Y7382600D01*
X27867050Y7382600D01*
X27648889Y7361113D01*
X27368966Y7276199D01*
X27110986Y7138306D01*
X26884866Y6952734D01*
X26699294Y6726614D01*
X26670000Y6671809D01*
X26640706Y6726614D01*
X26455134Y6952734D01*
X26229014Y7138306D01*
X25971034Y7276199D01*
X25691111Y7361113D01*
X25472950Y7382600D01*
X25327050Y7382600D01*
X25108889Y7361113D01*
X24828966Y7276199D01*
X24570986Y7138306D01*
X24344866Y6952734D01*
X24159294Y6726614D01*
X24130000Y6671809D01*
X24100706Y6726614D01*
X23915134Y6952734D01*
X23689014Y7138306D01*
X23431034Y7276199D01*
X23151111Y7361113D01*
X22932950Y7382600D01*
X22787050Y7382600D01*
X22568889Y7361113D01*
X22288966Y7276199D01*
X22030986Y7138306D01*
X21804866Y6952734D01*
X21619294Y6726614D01*
X21590000Y6671809D01*
X21560706Y6726614D01*
X21375134Y6952734D01*
X21149014Y7138306D01*
X20891034Y7276199D01*
X20611111Y7361113D01*
X20392950Y7382600D01*
X20247050Y7382600D01*
X20028889Y7361113D01*
X19748966Y7276199D01*
X19490986Y7138306D01*
X19264866Y6952734D01*
X19079294Y6726614D01*
X19050000Y6671809D01*
X19020706Y6726614D01*
X18835134Y6952734D01*
X18609014Y7138306D01*
X18351034Y7276199D01*
X18071111Y7361113D01*
X17852950Y7382600D01*
X17707050Y7382600D01*
X17488889Y7361113D01*
X17208966Y7276199D01*
X16950986Y7138306D01*
X16724866Y6952734D01*
X16539294Y6726614D01*
X16510000Y6671809D01*
X16480706Y6726614D01*
X16295134Y6952734D01*
X16069014Y7138306D01*
X15811034Y7276199D01*
X15531111Y7361113D01*
X15312950Y7382600D01*
X15167050Y7382600D01*
X14948889Y7361113D01*
X14668966Y7276199D01*
X14410986Y7138306D01*
X14184866Y6952734D01*
X13999294Y6726614D01*
X13970000Y6671809D01*
X13940706Y6726614D01*
X13755134Y6952734D01*
X13529014Y7138306D01*
X13271034Y7276199D01*
X12991111Y7361113D01*
X12772950Y7382600D01*
X12627050Y7382600D01*
X12408889Y7361113D01*
X12128966Y7276199D01*
X11870986Y7138306D01*
X11644866Y6952734D01*
X11459294Y6726614D01*
X11430000Y6671809D01*
X11400706Y6726614D01*
X11215134Y6952734D01*
X10989014Y7138306D01*
X10731034Y7276199D01*
X10451111Y7361113D01*
X10232950Y7382600D01*
X10087050Y7382600D01*
X9868889Y7361113D01*
X9588966Y7276199D01*
X9330986Y7138306D01*
X9104866Y6952734D01*
X8919294Y6726614D01*
X8884799Y6662077D01*
X8815178Y6778955D01*
X8620269Y6995188D01*
X8386920Y7169241D01*
X8124099Y7294425D01*
X7976890Y7339076D01*
X7747000Y7217755D01*
X7747000Y6024600D01*
X7767000Y6024600D01*
X7767000Y5770600D01*
X7747000Y5770600D01*
X7747000Y4577445D01*
X7976890Y4456124D01*
X8124099Y4500775D01*
X8386920Y4625959D01*
X8620269Y4800012D01*
X8815178Y5016245D01*
X8884799Y5133123D01*
X8919294Y5068586D01*
X9104866Y4842466D01*
X9321800Y4664432D01*
X9321801Y3473168D01*
X9104866Y3295134D01*
X8919294Y3069014D01*
X8884799Y3004477D01*
X8815178Y3121355D01*
X8620269Y3337588D01*
X8386920Y3511641D01*
X8124099Y3636825D01*
X7976890Y3681476D01*
X7747000Y3560155D01*
X7747000Y2367000D01*
X7767000Y2367000D01*
X7767000Y2113000D01*
X7747000Y2113000D01*
X7747000Y919845D01*
X7976890Y798524D01*
X8124099Y843175D01*
X8386920Y968359D01*
X8620269Y1142412D01*
X8815178Y1358645D01*
X8884799Y1475523D01*
X8919294Y1410986D01*
X9104866Y1184866D01*
X9330986Y999294D01*
X9588966Y861401D01*
X9868889Y776487D01*
X10087050Y755000D01*
X10232950Y755000D01*
X10451111Y776487D01*
X10731034Y861401D01*
X10989014Y999294D01*
X11215134Y1184866D01*
X11400706Y1410986D01*
X11430000Y1465791D01*
X11459294Y1410986D01*
X11644866Y1184866D01*
X11870986Y999294D01*
X12128966Y861401D01*
X12408889Y776487D01*
X12627050Y755000D01*
X12772950Y755000D01*
X12991111Y776487D01*
X13271034Y861401D01*
X13529014Y999294D01*
X13755134Y1184866D01*
X13940706Y1410986D01*
X13970000Y1465791D01*
X13999294Y1410986D01*
X14184866Y1184866D01*
X14410986Y999294D01*
X14668966Y861401D01*
X14948889Y776487D01*
X15167050Y755000D01*
X15312950Y755000D01*
X15531111Y776487D01*
X15811034Y861401D01*
X16069014Y999294D01*
X16295134Y1184866D01*
X16480706Y1410986D01*
X16510000Y1465791D01*
X16539294Y1410986D01*
X16724866Y1184866D01*
X16950986Y999294D01*
X17208966Y861401D01*
X17488889Y776487D01*
X17707050Y755000D01*
X17852950Y755000D01*
X18071111Y776487D01*
X18351034Y861401D01*
X18609014Y999294D01*
X18835134Y1184866D01*
X19020706Y1410986D01*
X19050000Y1465791D01*
X19079294Y1410986D01*
X19264866Y1184866D01*
X19490986Y999294D01*
X19748966Y861401D01*
X20028889Y776487D01*
X20247050Y755000D01*
X20392950Y755000D01*
X20611111Y776487D01*
X20891034Y861401D01*
X21149014Y999294D01*
X21375134Y1184866D01*
X21560706Y1410986D01*
X21590000Y1465791D01*
X21619294Y1410986D01*
X21804866Y1184866D01*
X22030986Y999294D01*
X22288966Y861401D01*
X22568889Y776487D01*
X22787050Y755000D01*
X22932950Y755000D01*
X23151111Y776487D01*
X23431034Y861401D01*
X23689014Y999294D01*
X23915134Y1184866D01*
X24100706Y1410986D01*
X24130000Y1465791D01*
X24159294Y1410986D01*
X24344866Y1184866D01*
X24570986Y999294D01*
X24828966Y861401D01*
X25108889Y776487D01*
X25327050Y755000D01*
X25472950Y755000D01*
X25691111Y776487D01*
X25971034Y861401D01*
X26229014Y999294D01*
X26455134Y1184866D01*
X26640706Y1410986D01*
X26670000Y1465791D01*
X26699294Y1410986D01*
X26884866Y1184866D01*
X27110986Y999294D01*
X27368966Y861401D01*
X27648889Y776487D01*
X27867050Y755000D01*
X28012950Y755000D01*
X28231111Y776487D01*
X28511034Y861401D01*
X28769014Y999294D01*
X28995134Y1184866D01*
X29180706Y1410986D01*
X29210000Y1465791D01*
X29239294Y1410986D01*
X29424866Y1184866D01*
X29650986Y999294D01*
X29908966Y861401D01*
X30188889Y776487D01*
X30407050Y755000D01*
X30552950Y755000D01*
X30771111Y776487D01*
X31051034Y861401D01*
X31309014Y999294D01*
X31535134Y1184866D01*
X31720706Y1410986D01*
X31750000Y1465791D01*
X31779294Y1410986D01*
X31964866Y1184866D01*
X32190986Y999294D01*
X32448966Y861401D01*
X32728889Y776487D01*
X32947050Y755000D01*
X33092950Y755000D01*
X33311111Y776487D01*
X33591034Y861401D01*
X33849014Y999294D01*
X34075134Y1184866D01*
X34260706Y1410986D01*
X34290000Y1465791D01*
X34319294Y1410986D01*
X34504866Y1184866D01*
X34730986Y999294D01*
X34988966Y861401D01*
X35268889Y776487D01*
X35487050Y755000D01*
X35632950Y755000D01*
X35851111Y776487D01*
X36131034Y861401D01*
X36389014Y999294D01*
X36615134Y1184866D01*
X36800706Y1410986D01*
X36830000Y1465791D01*
X36859294Y1410986D01*
X37044866Y1184866D01*
X37270986Y999294D01*
X37528966Y861401D01*
X37808889Y776487D01*
X38027050Y755000D01*
X38172950Y755000D01*
X38391111Y776487D01*
X38671034Y861401D01*
X38929014Y999294D01*
X39155134Y1184866D01*
X39340706Y1410986D01*
X39370000Y1465791D01*
X39399294Y1410986D01*
X39584866Y1184866D01*
X39810986Y999294D01*
X40068966Y861401D01*
X40348889Y776487D01*
X40567050Y755000D01*
X40712950Y755000D01*
X40931111Y776487D01*
X41211034Y861401D01*
X41469014Y999294D01*
X41695134Y1184866D01*
X41880706Y1410986D01*
X41910000Y1465791D01*
X41939294Y1410986D01*
X42124866Y1184866D01*
X42350986Y999294D01*
X42608966Y861401D01*
X42888889Y776487D01*
X43107050Y755000D01*
X43252950Y755000D01*
X43471111Y776487D01*
X43751034Y861401D01*
X44009014Y999294D01*
X44235134Y1184866D01*
X44420706Y1410986D01*
X44450000Y1465791D01*
X44479294Y1410986D01*
X44664866Y1184866D01*
X44890986Y999294D01*
X45148966Y861401D01*
X45428889Y776487D01*
X45647050Y755000D01*
X45792950Y755000D01*
X46011111Y776487D01*
X46291034Y861401D01*
X46549014Y999294D01*
X46775134Y1184866D01*
X46960706Y1410986D01*
X46990000Y1465791D01*
X47019294Y1410986D01*
X47204866Y1184866D01*
X47430986Y999294D01*
X47688966Y861401D01*
X47968889Y776487D01*
X48187050Y755000D01*
X48332950Y755000D01*
X48551111Y776487D01*
X48831034Y861401D01*
X49089014Y999294D01*
X49315134Y1184866D01*
X49500706Y1410986D01*
X49530000Y1465791D01*
X49559294Y1410986D01*
X49744866Y1184866D01*
X49970986Y999294D01*
X50228966Y861401D01*
X50508889Y776487D01*
X50727050Y755000D01*
X50872950Y755000D01*
X51091111Y776487D01*
X51371034Y861401D01*
X51629014Y999294D01*
X51855134Y1184866D01*
X52040706Y1410986D01*
X52178599Y1668966D01*
X52263513Y1948889D01*
X52292185Y2240000D01*
X52263513Y2531111D01*
X52178599Y2811034D01*
X52040706Y3069014D01*
X51855134Y3295134D01*
X51629014Y3480706D01*
X51371034Y3618599D01*
X51091111Y3703513D01*
X50872950Y3725000D01*
X50727050Y3725000D01*
X50508889Y3703513D01*
X50463735Y3689816D01*
X50317400Y3836150D01*
X50317400Y4492175D01*
X50508889Y4434087D01*
X50727050Y4412600D01*
X50872950Y4412600D01*
X51091111Y4434087D01*
X51371034Y4519001D01*
X51629014Y4656894D01*
X51855134Y4842466D01*
X52040706Y5068586D01*
X52178599Y5326566D01*
X52263513Y5606489D01*
X52292185Y5897600D01*
X52263513Y6188711D01*
X52178599Y6468634D01*
X52040706Y6726614D01*
X51855134Y6952734D01*
X51629014Y7138306D01*
X51587400Y7160549D01*
X51587400Y9161338D01*
X51591208Y9200001D01*
X51587400Y9238664D01*
X51587400Y9238673D01*
X51576006Y9354357D01*
X51530982Y9502783D01*
X51457866Y9639572D01*
X51359469Y9759469D01*
X51329433Y9784119D01*
X47308119Y13805431D01*
X47316385Y13812215D01*
X47395737Y13908906D01*
X47454702Y14019220D01*
X47491012Y14138918D01*
X47497007Y14199787D01*
X47678102Y14124774D01*
X47878061Y14085000D01*
X48081939Y14085000D01*
X48281898Y14124774D01*
X48470256Y14202795D01*
X48639774Y14316063D01*
X48783937Y14460226D01*
X48897205Y14629744D01*
X48975226Y14818102D01*
X49015000Y15018061D01*
X49015000Y15221939D01*
X48975226Y15421898D01*
X48897205Y15610256D01*
X48783937Y15779774D01*
X48639774Y15923937D01*
X48507667Y16012208D01*
X48551111Y16016487D01*
X48831034Y16101401D01*
X49089014Y16239294D01*
X49315134Y16424866D01*
X49500706Y16650986D01*
X49530000Y16705791D01*
X49559294Y16650986D01*
X49744866Y16424866D01*
X49970986Y16239294D01*
X50228966Y16101401D01*
X50508889Y16016487D01*
X50727050Y15995000D01*
X50872950Y15995000D01*
X51091111Y16016487D01*
X51371034Y16101401D01*
X51629014Y16239294D01*
X51855134Y16424866D01*
X52040706Y16650986D01*
X52178599Y16908966D01*
X52263513Y17188889D01*
X52292185Y17480000D01*
X52263513Y17771111D01*
X52178599Y18051034D01*
X52040706Y18309014D01*
X51855134Y18535134D01*
X51638200Y18713167D01*
X51638200Y19904433D01*
X51855134Y20082466D01*
X52040706Y20308586D01*
X52178599Y20566566D01*
X52263513Y20846489D01*
X52292185Y21137600D01*
X52263513Y21428711D01*
X52178599Y21708634D01*
X52040706Y21966614D01*
X51855134Y22192734D01*
X51629014Y22378306D01*
X51371034Y22516199D01*
X51091111Y22601113D01*
X50872950Y22622600D01*
X50727050Y22622600D01*
X50508889Y22601113D01*
X50228966Y22516199D01*
X49970986Y22378306D01*
X49744866Y22192734D01*
X49559294Y21966614D01*
X49530000Y21911809D01*
X49500706Y21966614D01*
X49315134Y22192734D01*
X49089014Y22378306D01*
X48831034Y22516199D01*
X48551111Y22601113D01*
X48332950Y22622600D01*
X48187050Y22622600D01*
X47968889Y22601113D01*
X47688966Y22516199D01*
X47430986Y22378306D01*
X47204866Y22192734D01*
X47019294Y21966614D01*
X46990000Y21911809D01*
X46960706Y21966614D01*
X46775134Y22192734D01*
X46549014Y22378306D01*
X46291034Y22516199D01*
X46011111Y22601113D01*
X45792950Y22622600D01*
X45647050Y22622600D01*
X45428889Y22601113D01*
X45148966Y22516199D01*
X44890986Y22378306D01*
X44664866Y22192734D01*
X44479294Y21966614D01*
X44450000Y21911809D01*
X44420706Y21966614D01*
X44235134Y22192734D01*
X44009014Y22378306D01*
X43751034Y22516199D01*
X43471111Y22601113D01*
X43252950Y22622600D01*
X43107050Y22622600D01*
X42888889Y22601113D01*
X42608966Y22516199D01*
X42350986Y22378306D01*
X42124866Y22192734D01*
X41939294Y21966614D01*
X41910000Y21911809D01*
X41880706Y21966614D01*
X41695134Y22192734D01*
X41469014Y22378306D01*
X41211034Y22516199D01*
X40931111Y22601113D01*
X40712950Y22622600D01*
X40567050Y22622600D01*
X40348889Y22601113D01*
X40068966Y22516199D01*
X39810986Y22378306D01*
X39584866Y22192734D01*
X39399294Y21966614D01*
X39370000Y21911809D01*
X39340706Y21966614D01*
X39155134Y22192734D01*
X38929014Y22378306D01*
X38671034Y22516199D01*
X38391111Y22601113D01*
X38172950Y22622600D01*
X38027050Y22622600D01*
X37808889Y22601113D01*
X37528966Y22516199D01*
X37270986Y22378306D01*
X37044866Y22192734D01*
X36859294Y21966614D01*
X36830000Y21911809D01*
X36800706Y21966614D01*
X36615134Y22192734D01*
X36389014Y22378306D01*
X36131034Y22516199D01*
X35851111Y22601113D01*
X35632950Y22622600D01*
X35487050Y22622600D01*
X35268889Y22601113D01*
X34988966Y22516199D01*
X34730986Y22378306D01*
X34504866Y22192734D01*
X34319294Y21966614D01*
X34290000Y21911809D01*
X34260706Y21966614D01*
X34075134Y22192734D01*
X33849014Y22378306D01*
X33591034Y22516199D01*
X33311111Y22601113D01*
X33092950Y22622600D01*
X32947050Y22622600D01*
X32728889Y22601113D01*
X32448966Y22516199D01*
X32190986Y22378306D01*
X31964866Y22192734D01*
X31779294Y21966614D01*
X31750000Y21911809D01*
X31720706Y21966614D01*
X31535134Y22192734D01*
X31309014Y22378306D01*
X31051034Y22516199D01*
X30771111Y22601113D01*
X30552950Y22622600D01*
X30407050Y22622600D01*
X30188889Y22601113D01*
X29908966Y22516199D01*
X29650986Y22378306D01*
X29424866Y22192734D01*
X29239294Y21966614D01*
X29210000Y21911809D01*
X29180706Y21966614D01*
X28995134Y22192734D01*
X28769014Y22378306D01*
X28511034Y22516199D01*
X28231111Y22601113D01*
X28012950Y22622600D01*
X27867050Y22622600D01*
X27648889Y22601113D01*
X27368966Y22516199D01*
X27110986Y22378306D01*
X26884866Y22192734D01*
X26699294Y21966614D01*
X26670000Y21911809D01*
X26640706Y21966614D01*
X26455134Y22192734D01*
X26229014Y22378306D01*
X25971034Y22516199D01*
X25691111Y22601113D01*
X25472950Y22622600D01*
X25327050Y22622600D01*
X25108889Y22601113D01*
X24828966Y22516199D01*
X24570986Y22378306D01*
X24344866Y22192734D01*
X24159294Y21966614D01*
X24130000Y21911809D01*
X24100706Y21966614D01*
X23915134Y22192734D01*
X23689014Y22378306D01*
X23431034Y22516199D01*
X23151111Y22601113D01*
X22932950Y22622600D01*
X22787050Y22622600D01*
X22568889Y22601113D01*
X22288966Y22516199D01*
X22030986Y22378306D01*
X21804866Y22192734D01*
X21619294Y21966614D01*
X21590000Y21911809D01*
X21560706Y21966614D01*
X21375134Y22192734D01*
X21149014Y22378306D01*
X20891034Y22516199D01*
X20611111Y22601113D01*
X20392950Y22622600D01*
X20247050Y22622600D01*
X20028889Y22601113D01*
X19748966Y22516199D01*
X19490986Y22378306D01*
X19264866Y22192734D01*
X19079294Y21966614D01*
X19050000Y21911809D01*
X19020706Y21966614D01*
X18835134Y22192734D01*
X18609014Y22378306D01*
X18351034Y22516199D01*
X18071111Y22601113D01*
X17852950Y22622600D01*
X17707050Y22622600D01*
X17488889Y22601113D01*
X17208966Y22516199D01*
X16950986Y22378306D01*
X16724866Y22192734D01*
X16539294Y21966614D01*
X16510000Y21911809D01*
X16480706Y21966614D01*
X16295134Y22192734D01*
X16069014Y22378306D01*
X15811034Y22516199D01*
X15531111Y22601113D01*
X15312950Y22622600D01*
X15167050Y22622600D01*
X14948889Y22601113D01*
X14668966Y22516199D01*
X14410986Y22378306D01*
X14184866Y22192734D01*
X13999294Y21966614D01*
X13970000Y21911809D01*
X13940706Y21966614D01*
X13755134Y22192734D01*
X13529014Y22378306D01*
X13271034Y22516199D01*
X12991111Y22601113D01*
X12772950Y22622600D01*
X12627050Y22622600D01*
X12408889Y22601113D01*
X12128966Y22516199D01*
X11870986Y22378306D01*
X11644866Y22192734D01*
X11459294Y21966614D01*
X11430000Y21911809D01*
X11400706Y21966614D01*
X11215134Y22192734D01*
X10989014Y22378306D01*
X10731034Y22516199D01*
X10451111Y22601113D01*
X10232950Y22622600D01*
X10087050Y22622600D01*
X9868889Y22601113D01*
X9588966Y22516199D01*
X9330986Y22378306D01*
X9104866Y22192734D01*
X8919294Y21966614D01*
X8890000Y21911809D01*
X8860706Y21966614D01*
X8675134Y22192734D01*
X8449014Y22378306D01*
X8191034Y22516199D01*
X7911111Y22601113D01*
X7692950Y22622600D01*
X7547050Y22622600D01*
X7328889Y22601113D01*
X7048966Y22516199D01*
X6790986Y22378306D01*
X6564866Y22192734D01*
X6379294Y21966614D01*
X6350000Y21911809D01*
X6320706Y21966614D01*
X6135134Y22192734D01*
X5909014Y22378306D01*
X5651034Y22516199D01*
X5371111Y22601113D01*
X5152950Y22622600D01*
X5007050Y22622600D01*
X4788889Y22601113D01*
X4508966Y22516199D01*
X4250986Y22378306D01*
X4024866Y22192734D01*
X4000393Y22162913D01*
X3979502Y22231780D01*
X3920537Y22342094D01*
X3841185Y22438785D01*
X3744494Y22518137D01*
X3634180Y22577102D01*
X3514482Y22613412D01*
X3390000Y22625672D01*
X1690000Y22625672D01*
X1565518Y22613412D01*
X1445820Y22577102D01*
X1335506Y22518137D01*
X1238815Y22438785D01*
X1159463Y22342094D01*
X1100498Y22231780D01*
X1064188Y22112082D01*
X1051928Y21987600D01*
X660000Y21987600D01*
X660000Y22660000D01*
X52680000Y22660000D01*
X52680001Y660000D01*
X52680001Y660000D01*
G37*
X52680001Y660000D02*
X660000Y660000D01*
X660000Y6747600D01*
X1051928Y6747600D01*
X1051928Y5047600D01*
X1064188Y4923118D01*
X1100498Y4803420D01*
X1159463Y4693106D01*
X1238815Y4596415D01*
X1335506Y4517063D01*
X1445820Y4458098D01*
X1565518Y4421788D01*
X1690000Y4409528D01*
X1701800Y4409528D01*
X1701801Y3728072D01*
X1690000Y3728072D01*
X1565518Y3715812D01*
X1445820Y3679502D01*
X1335506Y3620537D01*
X1238815Y3541185D01*
X1159463Y3444494D01*
X1100498Y3334180D01*
X1064188Y3214482D01*
X1051928Y3090000D01*
X1051928Y1390000D01*
X1064188Y1265518D01*
X1100498Y1145820D01*
X1159463Y1035506D01*
X1238815Y938815D01*
X1335506Y859463D01*
X1445820Y800498D01*
X1565518Y764188D01*
X1690000Y751928D01*
X3390000Y751928D01*
X3514482Y764188D01*
X3634180Y800498D01*
X3744494Y859463D01*
X3841185Y938815D01*
X3920537Y1035506D01*
X3979502Y1145820D01*
X4000393Y1214687D01*
X4024866Y1184866D01*
X4250986Y999294D01*
X4508966Y861401D01*
X4788889Y776487D01*
X5007050Y755000D01*
X5152950Y755000D01*
X5371111Y776487D01*
X5651034Y861401D01*
X5909014Y999294D01*
X6135134Y1184866D01*
X6320706Y1410986D01*
X6355201Y1475523D01*
X6424822Y1358645D01*
X6619731Y1142412D01*
X6853080Y968359D01*
X7115901Y843175D01*
X7263110Y798524D01*
X7493000Y919845D01*
X7493000Y2113000D01*
X7473000Y2113000D01*
X7473000Y2367000D01*
X7493000Y2367000D01*
X7493000Y3560155D01*
X7263110Y3681476D01*
X7115901Y3636825D01*
X6853080Y3511641D01*
X6619731Y3337588D01*
X6424822Y3121355D01*
X6355201Y3004477D01*
X6320706Y3069014D01*
X6135134Y3295134D01*
X5918200Y3473167D01*
X5918200Y4664433D01*
X6135134Y4842466D01*
X6320706Y5068586D01*
X6355201Y5133123D01*
X6424822Y5016245D01*
X6619731Y4800012D01*
X6853080Y4625959D01*
X7115901Y4500775D01*
X7263110Y4456124D01*
X7493000Y4577445D01*
X7493000Y5770600D01*
X7473000Y5770600D01*
X7473000Y6024600D01*
X7493000Y6024600D01*
X7493000Y7217755D01*
X7263110Y7339076D01*
X7115901Y7294425D01*
X6853080Y7169241D01*
X6619731Y6995188D01*
X6424822Y6778955D01*
X6355201Y6662077D01*
X6320706Y6726614D01*
X6135134Y6952734D01*
X5909014Y7138306D01*
X5651034Y7276199D01*
X5371111Y7361113D01*
X5152950Y7382600D01*
X5007050Y7382600D01*
X4788889Y7361113D01*
X4508966Y7276199D01*
X4250986Y7138306D01*
X4024866Y6952734D01*
X4000393Y6922913D01*
X3979502Y6991780D01*
X3920537Y7102094D01*
X3841185Y7198785D01*
X3744494Y7278137D01*
X3634180Y7337102D01*
X3514482Y7373412D01*
X3390000Y7385672D01*
X1690000Y7385672D01*
X1565518Y7373412D01*
X1445820Y7337102D01*
X1335506Y7278137D01*
X1238815Y7198785D01*
X1159463Y7102094D01*
X1100498Y6991780D01*
X1064188Y6872082D01*
X1051928Y6747600D01*
X660000Y6747600D01*
X660000Y8838000D01*
X21624128Y8838000D01*
X21636388Y8713518D01*
X21672698Y8593820D01*
X21731663Y8483506D01*
X21811015Y8386815D01*
X21907706Y8307463D01*
X22018020Y8248498D01*
X22137718Y8212188D01*
X22262200Y8199928D01*
X22276450Y8203000D01*
X22435200Y8361750D01*
X22435200Y9461000D01*
X21785950Y9461000D01*
X21627200Y9302250D01*
X21624128Y8838000D01*
X660000Y8838000D01*
X660000Y9958200D01*
X11244728Y9958200D01*
X11256988Y9833718D01*
X11293298Y9714020D01*
X11352263Y9603706D01*
X11431615Y9507015D01*
X11528306Y9427663D01*
X11638620Y9368698D01*
X11758318Y9332388D01*
X11882800Y9320128D01*
X12472050Y9323200D01*
X12630800Y9481950D01*
X12630800Y10456200D01*
X11406550Y10456200D01*
X11247800Y10297450D01*
X11244728Y9958200D01*
X660000Y9958200D01*
X660000Y11208200D01*
X11244728Y11208200D01*
X11247800Y10868950D01*
X11406550Y10710200D01*
X12630800Y10710200D01*
X12630800Y11684450D01*
X12472050Y11843200D01*
X11882800Y11846272D01*
X11758318Y11834012D01*
X11638620Y11797702D01*
X11528306Y11738737D01*
X11431615Y11659385D01*
X11352263Y11562694D01*
X11293298Y11452380D01*
X11256988Y11332682D01*
X11244728Y11208200D01*
X660000Y11208200D01*
X660000Y21987600D01*
X1051928Y21987600D01*
X1051928Y20287600D01*
X1064188Y20163118D01*
X1100498Y20043420D01*
X1159463Y19933106D01*
X1238815Y19836415D01*
X1335506Y19757063D01*
X1445820Y19698098D01*
X1565518Y19661788D01*
X1690000Y19649528D01*
X1701800Y19649528D01*
X1701801Y18968072D01*
X1690000Y18968072D01*
X1565518Y18955812D01*
X1445820Y18919502D01*
X1335506Y18860537D01*
X1238815Y18781185D01*
X1159463Y18684494D01*
X1100498Y18574180D01*
X1064188Y18454482D01*
X1051928Y18330000D01*
X1051928Y16630000D01*
X1064188Y16505518D01*
X1100498Y16385820D01*
X1159463Y16275506D01*
X1238815Y16178815D01*
X1335506Y16099463D01*
X1445820Y16040498D01*
X1565518Y16004188D01*
X1690000Y15991928D01*
X3390000Y15991928D01*
X3514482Y16004188D01*
X3634180Y16040498D01*
X3744494Y16099463D01*
X3841185Y16178815D01*
X3920537Y16275506D01*
X3979502Y16385820D01*
X4000393Y16454687D01*
X4024866Y16424866D01*
X4250986Y16239294D01*
X4508966Y16101401D01*
X4788889Y16016487D01*
X5007050Y15995000D01*
X5152950Y15995000D01*
X5371111Y16016487D01*
X5651034Y16101401D01*
X5909014Y16239294D01*
X6135134Y16424866D01*
X6320706Y16650986D01*
X6350000Y16705791D01*
X6379294Y16650986D01*
X6564866Y16424866D01*
X6790986Y16239294D01*
X7048966Y16101401D01*
X7328889Y16016487D01*
X7547050Y15995000D01*
X7692950Y15995000D01*
X7911111Y16016487D01*
X8191034Y16101401D01*
X8449014Y16239294D01*
X8675134Y16424866D01*
X8860706Y16650986D01*
X8890000Y16705791D01*
X8919294Y16650986D01*
X9104866Y16424866D01*
X9330986Y16239294D01*
X9588966Y16101401D01*
X9868889Y16016487D01*
X10087050Y15995000D01*
X10232950Y15995000D01*
X10451111Y16016487D01*
X10731034Y16101401D01*
X10989014Y16239294D01*
X11215134Y16424866D01*
X11400706Y16650986D01*
X11430000Y16705791D01*
X11459294Y16650986D01*
X11644866Y16424866D01*
X11870986Y16239294D01*
X12128966Y16101401D01*
X12408889Y16016487D01*
X12627050Y15995000D01*
X12772950Y15995000D01*
X12991111Y16016487D01*
X13271034Y16101401D01*
X13529014Y16239294D01*
X13755134Y16424866D01*
X13940706Y16650986D01*
X13970000Y16705791D01*
X13999294Y16650986D01*
X14184866Y16424866D01*
X14410986Y16239294D01*
X14668966Y16101401D01*
X14948889Y16016487D01*
X15167050Y15995000D01*
X15312950Y15995000D01*
X15531111Y16016487D01*
X15811034Y16101401D01*
X16069014Y16239294D01*
X16295134Y16424866D01*
X16480706Y16650986D01*
X16510000Y16705791D01*
X16539294Y16650986D01*
X16724866Y16424866D01*
X16950986Y16239294D01*
X17036968Y16193336D01*
X16965850Y16186331D01*
X16769546Y16126783D01*
X16588630Y16030081D01*
X16430057Y15899943D01*
X16299919Y15741370D01*
X16203217Y15560454D01*
X16143669Y15364150D01*
X16123562Y15160000D01*
X16143669Y14955850D01*
X16203217Y14759546D01*
X16299919Y14578630D01*
X16349703Y14517969D01*
X16262214Y14471205D01*
X16127638Y14360762D01*
X16017195Y14226186D01*
X16013889Y14220000D01*
X15964494Y14260537D01*
X15854180Y14319502D01*
X15734482Y14355812D01*
X15610000Y14368072D01*
X14610000Y14368072D01*
X14485518Y14355812D01*
X14365820Y14319502D01*
X14255506Y14260537D01*
X14207817Y14221400D01*
X14137340Y14221400D01*
X14121205Y14251586D01*
X14010762Y14386162D01*
X13876186Y14496605D01*
X13722650Y14578672D01*
X13556054Y14629208D01*
X13382800Y14646272D01*
X12132800Y14646272D01*
X11959546Y14629208D01*
X11792950Y14578672D01*
X11639414Y14496605D01*
X11504838Y14386162D01*
X11394395Y14251586D01*
X11312328Y14098050D01*
X11261792Y13931454D01*
X11244728Y13758200D01*
X11244728Y13008200D01*
X11261792Y12834946D01*
X11312328Y12668350D01*
X11394395Y12514814D01*
X11504838Y12380238D01*
X11639414Y12269795D01*
X11792950Y12187728D01*
X11959546Y12137192D01*
X12132800Y12120128D01*
X13382800Y12120128D01*
X13556054Y12137192D01*
X13722650Y12187728D01*
X13876186Y12269795D01*
X13995625Y12367815D01*
X14020498Y12285820D01*
X14079463Y12175506D01*
X14108602Y12140000D01*
X14079463Y12104494D01*
X14020498Y11994180D01*
X13984188Y11874482D01*
X13971928Y11750000D01*
X13971928Y11746950D01*
X13876980Y11797702D01*
X13757282Y11834012D01*
X13632800Y11846272D01*
X13043550Y11843200D01*
X12884800Y11684450D01*
X12884800Y10710200D01*
X12904800Y10710200D01*
X12904800Y10456200D01*
X12884800Y10456200D01*
X12884800Y9481950D01*
X13043550Y9323200D01*
X13632800Y9320128D01*
X13757282Y9332388D01*
X13876980Y9368698D01*
X13987294Y9427663D01*
X14083985Y9507015D01*
X14163337Y9603706D01*
X14222302Y9714020D01*
X14258612Y9833718D01*
X14270872Y9958200D01*
X14270389Y10011508D01*
X14365820Y9960498D01*
X14485518Y9924188D01*
X14610000Y9911928D01*
X15217936Y9911928D01*
X15232550Y9899935D01*
X15284268Y9857491D01*
X15429883Y9779658D01*
X15587884Y9731729D01*
X15711030Y9719600D01*
X15711039Y9719600D01*
X15752199Y9715546D01*
X15793359Y9719600D01*
X16001060Y9719600D01*
X16017195Y9689414D01*
X16127638Y9554838D01*
X16262214Y9444395D01*
X16415750Y9362328D01*
X16582346Y9311792D01*
X16755600Y9294728D01*
X18005600Y9294728D01*
X18178854Y9311792D01*
X18345450Y9362328D01*
X18498986Y9444395D01*
X18633562Y9554838D01*
X18744005Y9689414D01*
X18826072Y9842950D01*
X18876608Y10009546D01*
X18885694Y10101800D01*
X21625691Y10101800D01*
X21627200Y9873750D01*
X21785950Y9715000D01*
X22435200Y9715000D01*
X22435200Y9735000D01*
X22689200Y9735000D01*
X22689200Y9715000D01*
X22709200Y9715000D01*
X22709200Y9461000D01*
X22689200Y9461000D01*
X22689200Y8361750D01*
X22847950Y8203000D01*
X22862200Y8199928D01*
X22986682Y8212188D01*
X23106380Y8248498D01*
X23197200Y8297043D01*
X23288020Y8248498D01*
X23407718Y8212188D01*
X23532200Y8199928D01*
X24132200Y8199928D01*
X24256682Y8212188D01*
X24376380Y8248498D01*
X24467200Y8297043D01*
X24558020Y8248498D01*
X24677718Y8212188D01*
X24802200Y8199928D01*
X24816450Y8203000D01*
X24975200Y8361750D01*
X24975200Y9461000D01*
X24955200Y9461000D01*
X24955200Y9715000D01*
X24975200Y9715000D01*
X24975200Y9735000D01*
X25229200Y9735000D01*
X25229200Y9715000D01*
X25249200Y9715000D01*
X25249200Y9461000D01*
X25229200Y9461000D01*
X25229200Y8361750D01*
X25387950Y8203000D01*
X25402200Y8199928D01*
X25526682Y8212188D01*
X25646380Y8248498D01*
X25737200Y8297043D01*
X25828020Y8248498D01*
X25947718Y8212188D01*
X26072200Y8199928D01*
X26672200Y8199928D01*
X26796682Y8212188D01*
X26916380Y8248498D01*
X27007200Y8297043D01*
X27098020Y8248498D01*
X27217718Y8212188D01*
X27342200Y8199928D01*
X27356450Y8203000D01*
X27515200Y8361750D01*
X27515200Y9461000D01*
X27495200Y9461000D01*
X27495200Y9715000D01*
X27515200Y9715000D01*
X27515200Y10814250D01*
X27769200Y10814250D01*
X27769200Y9715000D01*
X27789200Y9715000D01*
X27789200Y9461000D01*
X27769200Y9461000D01*
X27769200Y8361750D01*
X27927950Y8203000D01*
X27942200Y8199928D01*
X28066682Y8212188D01*
X28186380Y8248498D01*
X28277200Y8297043D01*
X28368020Y8248498D01*
X28487718Y8212188D01*
X28612200Y8199928D01*
X29212200Y8199928D01*
X29336682Y8212188D01*
X29456380Y8248498D01*
X29547200Y8297043D01*
X29638020Y8248498D01*
X29757718Y8212188D01*
X29882200Y8199928D01*
X29896450Y8203000D01*
X30055200Y8361750D01*
X30055200Y9461000D01*
X30309200Y9461000D01*
X30309200Y8361750D01*
X30467950Y8203000D01*
X30482200Y8199928D01*
X30606682Y8212188D01*
X30726380Y8248498D01*
X30836694Y8307463D01*
X30933385Y8386815D01*
X31012737Y8483506D01*
X31071702Y8593820D01*
X31108012Y8713518D01*
X31120272Y8838000D01*
X31117200Y9302250D01*
X30958450Y9461000D01*
X30309200Y9461000D01*
X30055200Y9461000D01*
X30035200Y9461000D01*
X30035200Y9715000D01*
X30055200Y9715000D01*
X30055200Y10814250D01*
X30309200Y10814250D01*
X30309200Y9715000D01*
X30958450Y9715000D01*
X31117200Y9873750D01*
X31120272Y10338000D01*
X31108012Y10462482D01*
X31071702Y10582180D01*
X31012737Y10692494D01*
X30933385Y10789185D01*
X30836694Y10868537D01*
X30726380Y10927502D01*
X30606682Y10963812D01*
X30482200Y10976072D01*
X30467950Y10973000D01*
X30309200Y10814250D01*
X30055200Y10814250D01*
X29896450Y10973000D01*
X29882200Y10976072D01*
X29757718Y10963812D01*
X29638020Y10927502D01*
X29547200Y10878957D01*
X29456380Y10927502D01*
X29336682Y10963812D01*
X29212200Y10976072D01*
X28612200Y10976072D01*
X28487718Y10963812D01*
X28368020Y10927502D01*
X28277200Y10878957D01*
X28186380Y10927502D01*
X28066682Y10963812D01*
X27942200Y10976072D01*
X27927950Y10973000D01*
X27769200Y10814250D01*
X27515200Y10814250D01*
X27356450Y10973000D01*
X27342200Y10976072D01*
X27217718Y10963812D01*
X27098020Y10927502D01*
X27007200Y10878957D01*
X26916380Y10927502D01*
X26806291Y10960897D01*
X27556194Y11710800D01*
X34104728Y11710800D01*
X34116988Y11586318D01*
X34153298Y11466620D01*
X34212263Y11356306D01*
X34291615Y11259615D01*
X34388306Y11180263D01*
X34498620Y11121298D01*
X34618318Y11084988D01*
X34742800Y11072728D01*
X35332050Y11075800D01*
X35490800Y11234550D01*
X35490800Y12208800D01*
X34266550Y12208800D01*
X34107800Y12050050D01*
X34104728Y11710800D01*
X27556194Y11710800D01*
X28205789Y12360395D01*
X28237764Y12386636D01*
X28342509Y12514268D01*
X28420342Y12659883D01*
X28468271Y12817884D01*
X28480400Y12941030D01*
X28480400Y12941037D01*
X28482346Y12960800D01*
X34104728Y12960800D01*
X34107800Y12621550D01*
X34266550Y12462800D01*
X35490800Y12462800D01*
X35490800Y13437050D01*
X35332050Y13595800D01*
X34742800Y13598872D01*
X34618318Y13586612D01*
X34498620Y13550302D01*
X34388306Y13491337D01*
X34291615Y13411985D01*
X34212263Y13315294D01*
X34153298Y13204980D01*
X34116988Y13085282D01*
X34104728Y12960800D01*
X28482346Y12960800D01*
X28484454Y12982200D01*
X28480400Y13023363D01*
X28480400Y13614408D01*
X28487718Y13612188D01*
X28612200Y13599928D01*
X28626450Y13603000D01*
X28785200Y13761750D01*
X28785200Y14861000D01*
X28765200Y14861000D01*
X28765200Y15115000D01*
X28785200Y15115000D01*
X28785200Y15135000D01*
X29039200Y15135000D01*
X29039200Y15115000D01*
X29059200Y15115000D01*
X29059200Y14861000D01*
X29039200Y14861000D01*
X29039200Y13761750D01*
X29197950Y13603000D01*
X29212200Y13599928D01*
X29336682Y13612188D01*
X29456380Y13648498D01*
X29547200Y13697043D01*
X29638020Y13648498D01*
X29757718Y13612188D01*
X29882200Y13599928D01*
X30482200Y13599928D01*
X30606682Y13612188D01*
X30726380Y13648498D01*
X30836694Y13707463D01*
X30933385Y13786815D01*
X31012737Y13883506D01*
X31071702Y13993820D01*
X31108012Y14113518D01*
X31120272Y14238000D01*
X31120272Y15738000D01*
X31108012Y15862482D01*
X31071702Y15982180D01*
X31013984Y16090162D01*
X31051034Y16101401D01*
X31309014Y16239294D01*
X31535134Y16424866D01*
X31720706Y16650986D01*
X31750000Y16705791D01*
X31779294Y16650986D01*
X31964866Y16424866D01*
X32190986Y16239294D01*
X32289429Y16186675D01*
X32267651Y16184530D01*
X32071345Y16124982D01*
X31890431Y16028281D01*
X31731857Y15898143D01*
X31601719Y15739569D01*
X31505018Y15558655D01*
X31445470Y15362349D01*
X31425363Y15158200D01*
X31445470Y14954051D01*
X31505018Y14757745D01*
X31601719Y14576831D01*
X31699250Y14457989D01*
X31724648Y14432591D01*
X31757257Y14392857D01*
X31915830Y14262719D01*
X32096746Y14166017D01*
X32293050Y14106469D01*
X32446048Y14091400D01*
X32446058Y14091400D01*
X32497199Y14086363D01*
X32548341Y14091400D01*
X34415331Y14091400D01*
X34499414Y14022395D01*
X34652950Y13940328D01*
X34819546Y13889792D01*
X34992800Y13872728D01*
X36242800Y13872728D01*
X36416054Y13889792D01*
X36582650Y13940328D01*
X36736186Y14022395D01*
X36775058Y14054296D01*
X36785698Y14019220D01*
X36837001Y13923241D01*
X36837001Y13898178D01*
X36837000Y13898169D01*
X36837000Y13649970D01*
X36832945Y13608800D01*
X36837000Y13567631D01*
X36837000Y13496839D01*
X36736980Y13550302D01*
X36617282Y13586612D01*
X36492800Y13598872D01*
X35903550Y13595800D01*
X35744800Y13437050D01*
X35744800Y12462800D01*
X35764800Y12462800D01*
X35764800Y12208800D01*
X35744800Y12208800D01*
X35744800Y11234550D01*
X35903550Y11075800D01*
X36492800Y11072728D01*
X36617282Y11084988D01*
X36736980Y11121298D01*
X36837001Y11174761D01*
X36837001Y10703559D01*
X36785698Y10607580D01*
X36749388Y10487882D01*
X36737128Y10363400D01*
X36737128Y8863400D01*
X36749388Y8738918D01*
X36785698Y8619220D01*
X36844663Y8508906D01*
X36924015Y8412215D01*
X37020706Y8332863D01*
X37131020Y8273898D01*
X37250718Y8237588D01*
X37375200Y8225328D01*
X37975200Y8225328D01*
X38099682Y8237588D01*
X38219380Y8273898D01*
X38310200Y8322443D01*
X38401020Y8273898D01*
X38520718Y8237588D01*
X38645200Y8225328D01*
X38769722Y8225328D01*
X39840805Y7154244D01*
X39810986Y7138306D01*
X39584866Y6952734D01*
X39399294Y6726614D01*
X39370000Y6671809D01*
X39340706Y6726614D01*
X39155134Y6952734D01*
X38929014Y7138306D01*
X38671034Y7276199D01*
X38391111Y7361113D01*
X38172950Y7382600D01*
X38027050Y7382600D01*
X37808889Y7361113D01*
X37528966Y7276199D01*
X37270986Y7138306D01*
X37044866Y6952734D01*
X36859294Y6726614D01*
X36830000Y6671809D01*
X36800706Y6726614D01*
X36615134Y6952734D01*
X36389014Y7138306D01*
X36131034Y7276199D01*
X35851111Y7361113D01*
X35632950Y7382600D01*
X35487050Y7382600D01*
X35268889Y7361113D01*
X34988966Y7276199D01*
X34730986Y7138306D01*
X34504866Y6952734D01*
X34319294Y6726614D01*
X34290000Y6671809D01*
X34260706Y6726614D01*
X34075134Y6952734D01*
X33849014Y7138306D01*
X33591034Y7276199D01*
X33311111Y7361113D01*
X33092950Y7382600D01*
X32947050Y7382600D01*
X32728889Y7361113D01*
X32448966Y7276199D01*
X32190986Y7138306D01*
X31964866Y6952734D01*
X31779294Y6726614D01*
X31750000Y6671809D01*
X31720706Y6726614D01*
X31535134Y6952734D01*
X31309014Y7138306D01*
X31051034Y7276199D01*
X30771111Y7361113D01*
X30552950Y7382600D01*
X30407050Y7382600D01*
X30188889Y7361113D01*
X29908966Y7276199D01*
X29650986Y7138306D01*
X29424866Y6952734D01*
X29239294Y6726614D01*
X29210000Y6671809D01*
X29180706Y6726614D01*
X28995134Y6952734D01*
X28769014Y7138306D01*
X28511034Y7276199D01*
X28231111Y7361113D01*
X28012950Y7382600D01*
X27867050Y7382600D01*
X27648889Y7361113D01*
X27368966Y7276199D01*
X27110986Y7138306D01*
X26884866Y6952734D01*
X26699294Y6726614D01*
X26670000Y6671809D01*
X26640706Y6726614D01*
X26455134Y6952734D01*
X26229014Y7138306D01*
X25971034Y7276199D01*
X25691111Y7361113D01*
X25472950Y7382600D01*
X25327050Y7382600D01*
X25108889Y7361113D01*
X24828966Y7276199D01*
X24570986Y7138306D01*
X24344866Y6952734D01*
X24159294Y6726614D01*
X24130000Y6671809D01*
X24100706Y6726614D01*
X23915134Y6952734D01*
X23689014Y7138306D01*
X23431034Y7276199D01*
X23151111Y7361113D01*
X22932950Y7382600D01*
X22787050Y7382600D01*
X22568889Y7361113D01*
X22288966Y7276199D01*
X22030986Y7138306D01*
X21804866Y6952734D01*
X21619294Y6726614D01*
X21590000Y6671809D01*
X21560706Y6726614D01*
X21375134Y6952734D01*
X21149014Y7138306D01*
X20891034Y7276199D01*
X20611111Y7361113D01*
X20392950Y7382600D01*
X20247050Y7382600D01*
X20028889Y7361113D01*
X19748966Y7276199D01*
X19490986Y7138306D01*
X19264866Y6952734D01*
X19079294Y6726614D01*
X19050000Y6671809D01*
X19020706Y6726614D01*
X18835134Y6952734D01*
X18609014Y7138306D01*
X18351034Y7276199D01*
X18071111Y7361113D01*
X17852950Y7382600D01*
X17707050Y7382600D01*
X17488889Y7361113D01*
X17208966Y7276199D01*
X16950986Y7138306D01*
X16724866Y6952734D01*
X16539294Y6726614D01*
X16510000Y6671809D01*
X16480706Y6726614D01*
X16295134Y6952734D01*
X16069014Y7138306D01*
X15811034Y7276199D01*
X15531111Y7361113D01*
X15312950Y7382600D01*
X15167050Y7382600D01*
X14948889Y7361113D01*
X14668966Y7276199D01*
X14410986Y7138306D01*
X14184866Y6952734D01*
X13999294Y6726614D01*
X13970000Y6671809D01*
X13940706Y6726614D01*
X13755134Y6952734D01*
X13529014Y7138306D01*
X13271034Y7276199D01*
X12991111Y7361113D01*
X12772950Y7382600D01*
X12627050Y7382600D01*
X12408889Y7361113D01*
X12128966Y7276199D01*
X11870986Y7138306D01*
X11644866Y6952734D01*
X11459294Y6726614D01*
X11430000Y6671809D01*
X11400706Y6726614D01*
X11215134Y6952734D01*
X10989014Y7138306D01*
X10731034Y7276199D01*
X10451111Y7361113D01*
X10232950Y7382600D01*
X10087050Y7382600D01*
X9868889Y7361113D01*
X9588966Y7276199D01*
X9330986Y7138306D01*
X9104866Y6952734D01*
X8919294Y6726614D01*
X8884799Y6662077D01*
X8815178Y6778955D01*
X8620269Y6995188D01*
X8386920Y7169241D01*
X8124099Y7294425D01*
X7976890Y7339076D01*
X7747000Y7217755D01*
X7747000Y6024600D01*
X7767000Y6024600D01*
X7767000Y5770600D01*
X7747000Y5770600D01*
X7747000Y4577445D01*
X7976890Y4456124D01*
X8124099Y4500775D01*
X8386920Y4625959D01*
X8620269Y4800012D01*
X8815178Y5016245D01*
X8884799Y5133123D01*
X8919294Y5068586D01*
X9104866Y4842466D01*
X9321800Y4664432D01*
X9321801Y3473168D01*
X9104866Y3295134D01*
X8919294Y3069014D01*
X8884799Y3004477D01*
X8815178Y3121355D01*
X8620269Y3337588D01*
X8386920Y3511641D01*
X8124099Y3636825D01*
X7976890Y3681476D01*
X7747000Y3560155D01*
X7747000Y2367000D01*
X7767000Y2367000D01*
X7767000Y2113000D01*
X7747000Y2113000D01*
X7747000Y919845D01*
X7976890Y798524D01*
X8124099Y843175D01*
X8386920Y968359D01*
X8620269Y1142412D01*
X8815178Y1358645D01*
X8884799Y1475523D01*
X8919294Y1410986D01*
X9104866Y1184866D01*
X9330986Y999294D01*
X9588966Y861401D01*
X9868889Y776487D01*
X10087050Y755000D01*
X10232950Y755000D01*
X10451111Y776487D01*
X10731034Y861401D01*
X10989014Y999294D01*
X11215134Y1184866D01*
X11400706Y1410986D01*
X11430000Y1465791D01*
X11459294Y1410986D01*
X11644866Y1184866D01*
X11870986Y999294D01*
X12128966Y861401D01*
X12408889Y776487D01*
X12627050Y755000D01*
X12772950Y755000D01*
X12991111Y776487D01*
X13271034Y861401D01*
X13529014Y999294D01*
X13755134Y1184866D01*
X13940706Y1410986D01*
X13970000Y1465791D01*
X13999294Y1410986D01*
X14184866Y1184866D01*
X14410986Y999294D01*
X14668966Y861401D01*
X14948889Y776487D01*
X15167050Y755000D01*
X15312950Y755000D01*
X15531111Y776487D01*
X15811034Y861401D01*
X16069014Y999294D01*
X16295134Y1184866D01*
X16480706Y1410986D01*
X16510000Y1465791D01*
X16539294Y1410986D01*
X16724866Y1184866D01*
X16950986Y999294D01*
X17208966Y861401D01*
X17488889Y776487D01*
X17707050Y755000D01*
X17852950Y755000D01*
X18071111Y776487D01*
X18351034Y861401D01*
X18609014Y999294D01*
X18835134Y1184866D01*
X19020706Y1410986D01*
X19050000Y1465791D01*
X19079294Y1410986D01*
X19264866Y1184866D01*
X19490986Y999294D01*
X19748966Y861401D01*
X20028889Y776487D01*
X20247050Y755000D01*
X20392950Y755000D01*
X20611111Y776487D01*
X20891034Y861401D01*
X21149014Y999294D01*
X21375134Y1184866D01*
X21560706Y1410986D01*
X21590000Y1465791D01*
X21619294Y1410986D01*
X21804866Y1184866D01*
X22030986Y999294D01*
X22288966Y861401D01*
X22568889Y776487D01*
X22787050Y755000D01*
X22932950Y755000D01*
X23151111Y776487D01*
X23431034Y861401D01*
X23689014Y999294D01*
X23915134Y1184866D01*
X24100706Y1410986D01*
X24130000Y1465791D01*
X24159294Y1410986D01*
X24344866Y1184866D01*
X24570986Y999294D01*
X24828966Y861401D01*
X25108889Y776487D01*
X25327050Y755000D01*
X25472950Y755000D01*
X25691111Y776487D01*
X25971034Y861401D01*
X26229014Y999294D01*
X26455134Y1184866D01*
X26640706Y1410986D01*
X26670000Y1465791D01*
X26699294Y1410986D01*
X26884866Y1184866D01*
X27110986Y999294D01*
X27368966Y861401D01*
X27648889Y776487D01*
X27867050Y755000D01*
X28012950Y755000D01*
X28231111Y776487D01*
X28511034Y861401D01*
X28769014Y999294D01*
X28995134Y1184866D01*
X29180706Y1410986D01*
X29210000Y1465791D01*
X29239294Y1410986D01*
X29424866Y1184866D01*
X29650986Y999294D01*
X29908966Y861401D01*
X30188889Y776487D01*
X30407050Y755000D01*
X30552950Y755000D01*
X30771111Y776487D01*
X31051034Y861401D01*
X31309014Y999294D01*
X31535134Y1184866D01*
X31720706Y1410986D01*
X31750000Y1465791D01*
X31779294Y1410986D01*
X31964866Y1184866D01*
X32190986Y999294D01*
X32448966Y861401D01*
X32728889Y776487D01*
X32947050Y755000D01*
X33092950Y755000D01*
X33311111Y776487D01*
X33591034Y861401D01*
X33849014Y999294D01*
X34075134Y1184866D01*
X34260706Y1410986D01*
X34290000Y1465791D01*
X34319294Y1410986D01*
X34504866Y1184866D01*
X34730986Y999294D01*
X34988966Y861401D01*
X35268889Y776487D01*
X35487050Y755000D01*
X35632950Y755000D01*
X35851111Y776487D01*
X36131034Y861401D01*
X36389014Y999294D01*
X36615134Y1184866D01*
X36800706Y1410986D01*
X36830000Y1465791D01*
X36859294Y1410986D01*
X37044866Y1184866D01*
X37270986Y999294D01*
X37528966Y861401D01*
X37808889Y776487D01*
X38027050Y755000D01*
X38172950Y755000D01*
X38391111Y776487D01*
X38671034Y861401D01*
X38929014Y999294D01*
X39155134Y1184866D01*
X39340706Y1410986D01*
X39370000Y1465791D01*
X39399294Y1410986D01*
X39584866Y1184866D01*
X39810986Y999294D01*
X40068966Y861401D01*
X40348889Y776487D01*
X40567050Y755000D01*
X40712950Y755000D01*
X40931111Y776487D01*
X41211034Y861401D01*
X41469014Y999294D01*
X41695134Y1184866D01*
X41880706Y1410986D01*
X41910000Y1465791D01*
X41939294Y1410986D01*
X42124866Y1184866D01*
X42350986Y999294D01*
X42608966Y861401D01*
X42888889Y776487D01*
X43107050Y755000D01*
X43252950Y755000D01*
X43471111Y776487D01*
X43751034Y861401D01*
X44009014Y999294D01*
X44235134Y1184866D01*
X44420706Y1410986D01*
X44450000Y1465791D01*
X44479294Y1410986D01*
X44664866Y1184866D01*
X44890986Y999294D01*
X45148966Y861401D01*
X45428889Y776487D01*
X45647050Y755000D01*
X45792950Y755000D01*
X46011111Y776487D01*
X46291034Y861401D01*
X46549014Y999294D01*
X46775134Y1184866D01*
X46960706Y1410986D01*
X46990000Y1465791D01*
X47019294Y1410986D01*
X47204866Y1184866D01*
X47430986Y999294D01*
X47688966Y861401D01*
X47968889Y776487D01*
X48187050Y755000D01*
X48332950Y755000D01*
X48551111Y776487D01*
X48831034Y861401D01*
X49089014Y999294D01*
X49315134Y1184866D01*
X49500706Y1410986D01*
X49530000Y1465791D01*
X49559294Y1410986D01*
X49744866Y1184866D01*
X49970986Y999294D01*
X50228966Y861401D01*
X50508889Y776487D01*
X50727050Y755000D01*
X50872950Y755000D01*
X51091111Y776487D01*
X51371034Y861401D01*
X51629014Y999294D01*
X51855134Y1184866D01*
X52040706Y1410986D01*
X52178599Y1668966D01*
X52263513Y1948889D01*
X52292185Y2240000D01*
X52263513Y2531111D01*
X52178599Y2811034D01*
X52040706Y3069014D01*
X51855134Y3295134D01*
X51629014Y3480706D01*
X51371034Y3618599D01*
X51091111Y3703513D01*
X50872950Y3725000D01*
X50727050Y3725000D01*
X50508889Y3703513D01*
X50463735Y3689816D01*
X50317400Y3836150D01*
X50317400Y4492175D01*
X50508889Y4434087D01*
X50727050Y4412600D01*
X50872950Y4412600D01*
X51091111Y4434087D01*
X51371034Y4519001D01*
X51629014Y4656894D01*
X51855134Y4842466D01*
X52040706Y5068586D01*
X52178599Y5326566D01*
X52263513Y5606489D01*
X52292185Y5897600D01*
X52263513Y6188711D01*
X52178599Y6468634D01*
X52040706Y6726614D01*
X51855134Y6952734D01*
X51629014Y7138306D01*
X51587400Y7160549D01*
X51587400Y9161338D01*
X51591208Y9200001D01*
X51587400Y9238664D01*
X51587400Y9238673D01*
X51576006Y9354357D01*
X51530982Y9502783D01*
X51457866Y9639572D01*
X51359469Y9759469D01*
X51329433Y9784119D01*
X47308119Y13805431D01*
X47316385Y13812215D01*
X47395737Y13908906D01*
X47454702Y14019220D01*
X47491012Y14138918D01*
X47497007Y14199787D01*
X47678102Y14124774D01*
X47878061Y14085000D01*
X48081939Y14085000D01*
X48281898Y14124774D01*
X48470256Y14202795D01*
X48639774Y14316063D01*
X48783937Y14460226D01*
X48897205Y14629744D01*
X48975226Y14818102D01*
X49015000Y15018061D01*
X49015000Y15221939D01*
X48975226Y15421898D01*
X48897205Y15610256D01*
X48783937Y15779774D01*
X48639774Y15923937D01*
X48507667Y16012208D01*
X48551111Y16016487D01*
X48831034Y16101401D01*
X49089014Y16239294D01*
X49315134Y16424866D01*
X49500706Y16650986D01*
X49530000Y16705791D01*
X49559294Y16650986D01*
X49744866Y16424866D01*
X49970986Y16239294D01*
X50228966Y16101401D01*
X50508889Y16016487D01*
X50727050Y15995000D01*
X50872950Y15995000D01*
X51091111Y16016487D01*
X51371034Y16101401D01*
X51629014Y16239294D01*
X51855134Y16424866D01*
X52040706Y16650986D01*
X52178599Y16908966D01*
X52263513Y17188889D01*
X52292185Y17480000D01*
X52263513Y17771111D01*
X52178599Y18051034D01*
X52040706Y18309014D01*
X51855134Y18535134D01*
X51638200Y18713167D01*
X51638200Y19904433D01*
X51855134Y20082466D01*
X52040706Y20308586D01*
X52178599Y20566566D01*
X52263513Y20846489D01*
X52292185Y21137600D01*
X52263513Y21428711D01*
X52178599Y21708634D01*
X52040706Y21966614D01*
X51855134Y22192734D01*
X51629014Y22378306D01*
X51371034Y22516199D01*
X51091111Y22601113D01*
X50872950Y22622600D01*
X50727050Y22622600D01*
X50508889Y22601113D01*
X50228966Y22516199D01*
X49970986Y22378306D01*
X49744866Y22192734D01*
X49559294Y21966614D01*
X49530000Y21911809D01*
X49500706Y21966614D01*
X49315134Y22192734D01*
X49089014Y22378306D01*
X48831034Y22516199D01*
X48551111Y22601113D01*
X48332950Y22622600D01*
X48187050Y22622600D01*
X47968889Y22601113D01*
X47688966Y22516199D01*
X47430986Y22378306D01*
X47204866Y22192734D01*
X47019294Y21966614D01*
X46990000Y21911809D01*
X46960706Y21966614D01*
X46775134Y22192734D01*
X46549014Y22378306D01*
X46291034Y22516199D01*
X46011111Y22601113D01*
X45792950Y22622600D01*
X45647050Y22622600D01*
X45428889Y22601113D01*
X45148966Y22516199D01*
X44890986Y22378306D01*
X44664866Y22192734D01*
X44479294Y21966614D01*
X44450000Y21911809D01*
X44420706Y21966614D01*
X44235134Y22192734D01*
X44009014Y22378306D01*
X43751034Y22516199D01*
X43471111Y22601113D01*
X43252950Y22622600D01*
X43107050Y22622600D01*
X42888889Y22601113D01*
X42608966Y22516199D01*
X42350986Y22378306D01*
X42124866Y22192734D01*
X41939294Y21966614D01*
X41910000Y21911809D01*
X41880706Y21966614D01*
X41695134Y22192734D01*
X41469014Y22378306D01*
X41211034Y22516199D01*
X40931111Y22601113D01*
X40712950Y22622600D01*
X40567050Y22622600D01*
X40348889Y22601113D01*
X40068966Y22516199D01*
X39810986Y22378306D01*
X39584866Y22192734D01*
X39399294Y21966614D01*
X39370000Y21911809D01*
X39340706Y21966614D01*
X39155134Y22192734D01*
X38929014Y22378306D01*
X38671034Y22516199D01*
X38391111Y22601113D01*
X38172950Y22622600D01*
X38027050Y22622600D01*
X37808889Y22601113D01*
X37528966Y22516199D01*
X37270986Y22378306D01*
X37044866Y22192734D01*
X36859294Y21966614D01*
X36830000Y21911809D01*
X36800706Y21966614D01*
X36615134Y22192734D01*
X36389014Y22378306D01*
X36131034Y22516199D01*
X35851111Y22601113D01*
X35632950Y22622600D01*
X35487050Y22622600D01*
X35268889Y22601113D01*
X34988966Y22516199D01*
X34730986Y22378306D01*
X34504866Y22192734D01*
X34319294Y21966614D01*
X34290000Y21911809D01*
X34260706Y21966614D01*
X34075134Y22192734D01*
X33849014Y22378306D01*
X33591034Y22516199D01*
X33311111Y22601113D01*
X33092950Y22622600D01*
X32947050Y22622600D01*
X32728889Y22601113D01*
X32448966Y22516199D01*
X32190986Y22378306D01*
X31964866Y22192734D01*
X31779294Y21966614D01*
X31750000Y21911809D01*
X31720706Y21966614D01*
X31535134Y22192734D01*
X31309014Y22378306D01*
X31051034Y22516199D01*
X30771111Y22601113D01*
X30552950Y22622600D01*
X30407050Y22622600D01*
X30188889Y22601113D01*
X29908966Y22516199D01*
X29650986Y22378306D01*
X29424866Y22192734D01*
X29239294Y21966614D01*
X29210000Y21911809D01*
X29180706Y21966614D01*
X28995134Y22192734D01*
X28769014Y22378306D01*
X28511034Y22516199D01*
X28231111Y22601113D01*
X28012950Y22622600D01*
X27867050Y22622600D01*
X27648889Y22601113D01*
X27368966Y22516199D01*
X27110986Y22378306D01*
X26884866Y22192734D01*
X26699294Y21966614D01*
X26670000Y21911809D01*
X26640706Y21966614D01*
X26455134Y22192734D01*
X26229014Y22378306D01*
X25971034Y22516199D01*
X25691111Y22601113D01*
X25472950Y22622600D01*
X25327050Y22622600D01*
X25108889Y22601113D01*
X24828966Y22516199D01*
X24570986Y22378306D01*
X24344866Y22192734D01*
X24159294Y21966614D01*
X24130000Y21911809D01*
X24100706Y21966614D01*
X23915134Y22192734D01*
X23689014Y22378306D01*
X23431034Y22516199D01*
X23151111Y22601113D01*
X22932950Y22622600D01*
X22787050Y22622600D01*
X22568889Y22601113D01*
X22288966Y22516199D01*
X22030986Y22378306D01*
X21804866Y22192734D01*
X21619294Y21966614D01*
X21590000Y21911809D01*
X21560706Y21966614D01*
X21375134Y22192734D01*
X21149014Y22378306D01*
X20891034Y22516199D01*
X20611111Y22601113D01*
X20392950Y22622600D01*
X20247050Y22622600D01*
X20028889Y22601113D01*
X19748966Y22516199D01*
X19490986Y22378306D01*
X19264866Y22192734D01*
X19079294Y21966614D01*
X19050000Y21911809D01*
X19020706Y21966614D01*
X18835134Y22192734D01*
X18609014Y22378306D01*
X18351034Y22516199D01*
X18071111Y22601113D01*
X17852950Y22622600D01*
X17707050Y22622600D01*
X17488889Y22601113D01*
X17208966Y22516199D01*
X16950986Y22378306D01*
X16724866Y22192734D01*
X16539294Y21966614D01*
X16510000Y21911809D01*
X16480706Y21966614D01*
X16295134Y22192734D01*
X16069014Y22378306D01*
X15811034Y22516199D01*
X15531111Y22601113D01*
X15312950Y22622600D01*
X15167050Y22622600D01*
X14948889Y22601113D01*
X14668966Y22516199D01*
X14410986Y22378306D01*
X14184866Y22192734D01*
X13999294Y21966614D01*
X13970000Y21911809D01*
X13940706Y21966614D01*
X13755134Y22192734D01*
X13529014Y22378306D01*
X13271034Y22516199D01*
X12991111Y22601113D01*
X12772950Y22622600D01*
X12627050Y22622600D01*
X12408889Y22601113D01*
X12128966Y22516199D01*
X11870986Y22378306D01*
X11644866Y22192734D01*
X11459294Y21966614D01*
X11430000Y21911809D01*
X11400706Y21966614D01*
X11215134Y22192734D01*
X10989014Y22378306D01*
X10731034Y22516199D01*
X10451111Y22601113D01*
X10232950Y22622600D01*
X10087050Y22622600D01*
X9868889Y22601113D01*
X9588966Y22516199D01*
X9330986Y22378306D01*
X9104866Y22192734D01*
X8919294Y21966614D01*
X8890000Y21911809D01*
X8860706Y21966614D01*
X8675134Y22192734D01*
X8449014Y22378306D01*
X8191034Y22516199D01*
X7911111Y22601113D01*
X7692950Y22622600D01*
X7547050Y22622600D01*
X7328889Y22601113D01*
X7048966Y22516199D01*
X6790986Y22378306D01*
X6564866Y22192734D01*
X6379294Y21966614D01*
X6350000Y21911809D01*
X6320706Y21966614D01*
X6135134Y22192734D01*
X5909014Y22378306D01*
X5651034Y22516199D01*
X5371111Y22601113D01*
X5152950Y22622600D01*
X5007050Y22622600D01*
X4788889Y22601113D01*
X4508966Y22516199D01*
X4250986Y22378306D01*
X4024866Y22192734D01*
X4000393Y22162913D01*
X3979502Y22231780D01*
X3920537Y22342094D01*
X3841185Y22438785D01*
X3744494Y22518137D01*
X3634180Y22577102D01*
X3514482Y22613412D01*
X3390000Y22625672D01*
X1690000Y22625672D01*
X1565518Y22613412D01*
X1445820Y22577102D01*
X1335506Y22518137D01*
X1238815Y22438785D01*
X1159463Y22342094D01*
X1100498Y22231780D01*
X1064188Y22112082D01*
X1051928Y21987600D01*
X660000Y21987600D01*
X660000Y22660000D01*
X52680000Y22660000D01*
X52680001Y660000D01*
G36*
X48742601Y8793847D02*
G01*
X48742601Y7303025D01*
X48551111Y7361113D01*
X48386196Y7377356D01*
X47332139Y8431411D01*
X47395737Y8508906D01*
X47454702Y8619220D01*
X47491012Y8738918D01*
X47503272Y8863400D01*
X47500200Y9327650D01*
X47341450Y9486400D01*
X46692200Y9486400D01*
X46692200Y9466400D01*
X46438200Y9466400D01*
X46438200Y9486400D01*
X46418200Y9486400D01*
X46418200Y9740400D01*
X46438200Y9740400D01*
X46438200Y9760400D01*
X46692200Y9760400D01*
X46692200Y9740400D01*
X47341450Y9740400D01*
X47500200Y9899150D01*
X47501101Y10035348D01*
X48742601Y8793847D01*
X48742601Y8793847D01*
G37*
X48742601Y8793847D02*
X48742601Y7303025D01*
X48551111Y7361113D01*
X48386196Y7377356D01*
X47332139Y8431411D01*
X47395737Y8508906D01*
X47454702Y8619220D01*
X47491012Y8738918D01*
X47503272Y8863400D01*
X47500200Y9327650D01*
X47341450Y9486400D01*
X46692200Y9486400D01*
X46692200Y9466400D01*
X46438200Y9466400D01*
X46438200Y9486400D01*
X46418200Y9486400D01*
X46418200Y9740400D01*
X46438200Y9740400D01*
X46438200Y9760400D01*
X46692200Y9760400D01*
X46692200Y9740400D01*
X47341450Y9740400D01*
X47500200Y9899150D01*
X47501101Y10035348D01*
X48742601Y8793847D01*
G36*
X43597481Y12240567D02*
G01*
X43622131Y12210531D01*
X43652167Y12185881D01*
X43652169Y12185879D01*
X43655190Y12183400D01*
X43742028Y12112134D01*
X43878817Y12039018D01*
X44027243Y11993994D01*
X44142927Y11982600D01*
X44142936Y11982600D01*
X44181599Y11978792D01*
X44220262Y11982600D01*
X45553850Y11982600D01*
X46538050Y10998400D01*
X46438198Y10998400D01*
X46438198Y10839652D01*
X46279450Y10998400D01*
X46265200Y11001472D01*
X46140718Y10989212D01*
X46021020Y10952902D01*
X45930200Y10904357D01*
X45839380Y10952902D01*
X45719682Y10989212D01*
X45595200Y11001472D01*
X44995200Y11001472D01*
X44870718Y10989212D01*
X44751020Y10952902D01*
X44660200Y10904357D01*
X44569380Y10952902D01*
X44449682Y10989212D01*
X44325200Y11001472D01*
X43731864Y11001472D01*
X43765000Y11168061D01*
X43765000Y11371939D01*
X43725226Y11571898D01*
X43647205Y11760256D01*
X43533937Y11929774D01*
X43389774Y12073937D01*
X43220256Y12187205D01*
X43031898Y12265226D01*
X42831939Y12305000D01*
X42628061Y12305000D01*
X42428102Y12265226D01*
X42239744Y12187205D01*
X42070226Y12073937D01*
X41926063Y11929774D01*
X41812795Y11760256D01*
X41734774Y11571898D01*
X41695000Y11371939D01*
X41695000Y11168061D01*
X41728136Y11001472D01*
X41185200Y11001472D01*
X41060718Y10989212D01*
X40941020Y10952902D01*
X40850200Y10904357D01*
X40759380Y10952902D01*
X40639682Y10989212D01*
X40515200Y11001472D01*
X39915200Y11001472D01*
X39790718Y10989212D01*
X39671020Y10952902D01*
X39580200Y10904357D01*
X39489380Y10952902D01*
X39369682Y10989212D01*
X39245200Y11001472D01*
X38645200Y11001472D01*
X38520718Y10989212D01*
X38513400Y10986992D01*
X38513400Y12770600D01*
X41195837Y12770600D01*
X41237000Y12766546D01*
X41278163Y12770600D01*
X41278170Y12770600D01*
X41401316Y12782729D01*
X41559317Y12830658D01*
X41704932Y12908491D01*
X41832564Y13013236D01*
X41858811Y13045218D01*
X42048783Y13235190D01*
X42080764Y13261436D01*
X42185509Y13389068D01*
X42263342Y13534683D01*
X42272658Y13565392D01*
X43597481Y12240567D01*
X43597481Y12240567D01*
G37*
X43597481Y12240567D02*
X43622131Y12210531D01*
X43652167Y12185881D01*
X43652169Y12185879D01*
X43655190Y12183400D01*
X43742028Y12112134D01*
X43878817Y12039018D01*
X44027243Y11993994D01*
X44142927Y11982600D01*
X44142936Y11982600D01*
X44181599Y11978792D01*
X44220262Y11982600D01*
X45553850Y11982600D01*
X46538050Y10998400D01*
X46438198Y10998400D01*
X46438198Y10839652D01*
X46279450Y10998400D01*
X46265200Y11001472D01*
X46140718Y10989212D01*
X46021020Y10952902D01*
X45930200Y10904357D01*
X45839380Y10952902D01*
X45719682Y10989212D01*
X45595200Y11001472D01*
X44995200Y11001472D01*
X44870718Y10989212D01*
X44751020Y10952902D01*
X44660200Y10904357D01*
X44569380Y10952902D01*
X44449682Y10989212D01*
X44325200Y11001472D01*
X43731864Y11001472D01*
X43765000Y11168061D01*
X43765000Y11371939D01*
X43725226Y11571898D01*
X43647205Y11760256D01*
X43533937Y11929774D01*
X43389774Y12073937D01*
X43220256Y12187205D01*
X43031898Y12265226D01*
X42831939Y12305000D01*
X42628061Y12305000D01*
X42428102Y12265226D01*
X42239744Y12187205D01*
X42070226Y12073937D01*
X41926063Y11929774D01*
X41812795Y11760256D01*
X41734774Y11571898D01*
X41695000Y11371939D01*
X41695000Y11168061D01*
X41728136Y11001472D01*
X41185200Y11001472D01*
X41060718Y10989212D01*
X40941020Y10952902D01*
X40850200Y10904357D01*
X40759380Y10952902D01*
X40639682Y10989212D01*
X40515200Y11001472D01*
X39915200Y11001472D01*
X39790718Y10989212D01*
X39671020Y10952902D01*
X39580200Y10904357D01*
X39489380Y10952902D01*
X39369682Y10989212D01*
X39245200Y11001472D01*
X38645200Y11001472D01*
X38520718Y10989212D01*
X38513400Y10986992D01*
X38513400Y12770600D01*
X41195837Y12770600D01*
X41237000Y12766546D01*
X41278163Y12770600D01*
X41278170Y12770600D01*
X41401316Y12782729D01*
X41559317Y12830658D01*
X41704932Y12908491D01*
X41832564Y13013236D01*
X41858811Y13045218D01*
X42048783Y13235190D01*
X42080764Y13261436D01*
X42185509Y13389068D01*
X42263342Y13534683D01*
X42272658Y13565392D01*
X43597481Y12240567D01*
G36*
X25828020Y13648498D02*
G01*
X25947718Y13612188D01*
X26072200Y13599928D01*
X26672200Y13599928D01*
X26796682Y13612188D01*
X26804000Y13614408D01*
X26804000Y13329394D01*
X25252807Y11778200D01*
X21966232Y11778200D01*
X21964000Y12024650D01*
X21805250Y12183400D01*
X20581000Y12183400D01*
X20581000Y12163400D01*
X20327000Y12163400D01*
X20327000Y12183400D01*
X19102750Y12183400D01*
X18944000Y12024650D01*
X18941768Y11778200D01*
X18263273Y11778200D01*
X18178854Y11803808D01*
X18005600Y11820872D01*
X16755600Y11820872D01*
X16582346Y11803808D01*
X16415750Y11753272D01*
X16262214Y11671205D01*
X16248072Y11659599D01*
X16248072Y11750000D01*
X16235812Y11874482D01*
X16199502Y11994180D01*
X16140537Y12104494D01*
X16111398Y12140000D01*
X16140537Y12175506D01*
X16199502Y12285820D01*
X16201941Y12293860D01*
X16262214Y12244395D01*
X16415750Y12162328D01*
X16582346Y12111792D01*
X16755600Y12094728D01*
X18005600Y12094728D01*
X18178854Y12111792D01*
X18345450Y12162328D01*
X18498986Y12244395D01*
X18633562Y12354838D01*
X18744005Y12489414D01*
X18826072Y12642950D01*
X18876608Y12809546D01*
X18883724Y12881800D01*
X18941413Y12881800D01*
X18944000Y12596150D01*
X19102750Y12437400D01*
X20327000Y12437400D01*
X20327000Y12457400D01*
X20581000Y12457400D01*
X20581000Y12437400D01*
X21805250Y12437400D01*
X21964000Y12596150D01*
X21966587Y12881800D01*
X23318837Y12881800D01*
X23360000Y12877746D01*
X23401163Y12881800D01*
X23401170Y12881800D01*
X23524316Y12893929D01*
X23682317Y12941858D01*
X23827932Y13019691D01*
X23955564Y13124436D01*
X23981811Y13156418D01*
X24395782Y13570389D01*
X24427764Y13596636D01*
X24497065Y13681080D01*
X24558020Y13648498D01*
X24677718Y13612188D01*
X24802200Y13599928D01*
X25402200Y13599928D01*
X25526682Y13612188D01*
X25646380Y13648498D01*
X25737200Y13697043D01*
X25828020Y13648498D01*
X25828020Y13648498D01*
G37*
X25828020Y13648498D02*
X25947718Y13612188D01*
X26072200Y13599928D01*
X26672200Y13599928D01*
X26796682Y13612188D01*
X26804000Y13614408D01*
X26804000Y13329394D01*
X25252807Y11778200D01*
X21966232Y11778200D01*
X21964000Y12024650D01*
X21805250Y12183400D01*
X20581000Y12183400D01*
X20581000Y12163400D01*
X20327000Y12163400D01*
X20327000Y12183400D01*
X19102750Y12183400D01*
X18944000Y12024650D01*
X18941768Y11778200D01*
X18263273Y11778200D01*
X18178854Y11803808D01*
X18005600Y11820872D01*
X16755600Y11820872D01*
X16582346Y11803808D01*
X16415750Y11753272D01*
X16262214Y11671205D01*
X16248072Y11659599D01*
X16248072Y11750000D01*
X16235812Y11874482D01*
X16199502Y11994180D01*
X16140537Y12104494D01*
X16111398Y12140000D01*
X16140537Y12175506D01*
X16199502Y12285820D01*
X16201941Y12293860D01*
X16262214Y12244395D01*
X16415750Y12162328D01*
X16582346Y12111792D01*
X16755600Y12094728D01*
X18005600Y12094728D01*
X18178854Y12111792D01*
X18345450Y12162328D01*
X18498986Y12244395D01*
X18633562Y12354838D01*
X18744005Y12489414D01*
X18826072Y12642950D01*
X18876608Y12809546D01*
X18883724Y12881800D01*
X18941413Y12881800D01*
X18944000Y12596150D01*
X19102750Y12437400D01*
X20327000Y12437400D01*
X20327000Y12457400D01*
X20581000Y12457400D01*
X20581000Y12437400D01*
X21805250Y12437400D01*
X21964000Y12596150D01*
X21966587Y12881800D01*
X23318837Y12881800D01*
X23360000Y12877746D01*
X23401163Y12881800D01*
X23401170Y12881800D01*
X23524316Y12893929D01*
X23682317Y12941858D01*
X23827932Y13019691D01*
X23955564Y13124436D01*
X23981811Y13156418D01*
X24395782Y13570389D01*
X24427764Y13596636D01*
X24497065Y13681080D01*
X24558020Y13648498D01*
X24677718Y13612188D01*
X24802200Y13599928D01*
X25402200Y13599928D01*
X25526682Y13612188D01*
X25646380Y13648498D01*
X25737200Y13697043D01*
X25828020Y13648498D01*
M02*
