G04 #@! TF.GenerationSoftware,KiCad,Pcbnew,(5.1.0)-1*
G04 #@! TF.CreationDate,2021-01-17T14:15:07+01:00*
G04 #@! TF.ProjectId,GTIA Fix,47544941-2046-4697-982e-6b696361645f,rev?*
G04 #@! TF.SameCoordinates,PX989b620PY8062360*
G04 #@! TF.FileFunction,Copper,L2,Bot*
G04 #@! TF.FilePolarity,Positive*
%FSLAX46Y46*%
G04 Gerber Fmt 4.6, Leading zero omitted, Abs format (unit mm)*
G04 Created by KiCad (PCBNEW (5.1.0)-1) date 2021-01-17 14:15:07*
%MOMM*%
%LPD*%
G04 APERTURE LIST*
%ADD10O,1.700000X1.700000*%
%ADD11R,1.700000X1.700000*%
%ADD12C,0.800000*%
%ADD13C,0.406400*%
%ADD14C,0.812800*%
%ADD15C,0.254000*%
G04 APERTURE END LIST*
D10*
X50800000Y2240000D03*
X48260000Y2240000D03*
X45720000Y2240000D03*
X43180000Y2240000D03*
X40640000Y2240000D03*
X38100000Y2240000D03*
X35560000Y2240000D03*
X33020000Y2240000D03*
X30480000Y2240000D03*
X27940000Y2240000D03*
X25400000Y2240000D03*
X22860000Y2240000D03*
X20320000Y2240000D03*
X17780000Y2240000D03*
X15240000Y2240000D03*
X12700000Y2240000D03*
X10160000Y2240000D03*
X7620000Y2240000D03*
X5080000Y2240000D03*
D11*
X2540000Y2240000D03*
D10*
X50800000Y20142200D03*
X48260000Y20142200D03*
X45720000Y20142200D03*
X43180000Y20142200D03*
X40640000Y20142200D03*
X38100000Y20142200D03*
X35560000Y20142200D03*
X33020000Y20142200D03*
X30480000Y20142200D03*
X27940000Y20142200D03*
X25400000Y20142200D03*
X22860000Y20142200D03*
X20320000Y20142200D03*
X17780000Y20142200D03*
X15240000Y20142200D03*
X12700000Y20142200D03*
X10160000Y20142200D03*
X7620000Y20142200D03*
X5080000Y20142200D03*
D11*
X2540000Y20142200D03*
D10*
X50800000Y4902200D03*
X48260000Y4902200D03*
X45720000Y4902200D03*
X43180000Y4902200D03*
X40640000Y4902200D03*
X38100000Y4902200D03*
X35560000Y4902200D03*
X33020000Y4902200D03*
X30480000Y4902200D03*
X27940000Y4902200D03*
X25400000Y4902200D03*
X22860000Y4902200D03*
X20320000Y4902200D03*
X17780000Y4902200D03*
X15240000Y4902200D03*
X12700000Y4902200D03*
X10160000Y4902200D03*
X7620000Y4902200D03*
X5080000Y4902200D03*
D11*
X2540000Y4902200D03*
D10*
X50800000Y17480000D03*
X48260000Y17480000D03*
X45720000Y17480000D03*
X43180000Y17480000D03*
X40640000Y17480000D03*
X38100000Y17480000D03*
X35560000Y17480000D03*
X33020000Y17480000D03*
X30480000Y17480000D03*
X27940000Y17480000D03*
X25400000Y17480000D03*
X22860000Y17480000D03*
X20320000Y17480000D03*
X17780000Y17480000D03*
X15240000Y17480000D03*
X12700000Y17480000D03*
X10160000Y17480000D03*
X7620000Y17480000D03*
X5080000Y17480000D03*
D11*
X2540000Y17480000D03*
D12*
X38996000Y12034000D03*
X24695800Y12338800D03*
X28582000Y11526000D03*
X22359000Y12338800D03*
X42080000Y12570000D03*
X2480000Y14820000D03*
X2480000Y12320000D03*
X5480000Y12320000D03*
X5480000Y14820000D03*
X8480000Y14820000D03*
X8480000Y12320000D03*
X51980000Y15320000D03*
X51980000Y10820000D03*
X49980000Y15320000D03*
X49980000Y12820000D03*
X48133000Y8615400D03*
X2480000Y9820000D03*
X5480000Y9820000D03*
X8480000Y9820000D03*
X14980000Y8820000D03*
X19980000Y8820000D03*
X31980000Y8820000D03*
X35480000Y8820000D03*
X31980000Y10820000D03*
X51980000Y12820000D03*
X44780200Y11404600D03*
X42722800Y11150600D03*
X47980000Y15120000D03*
X26390600Y13512800D03*
X24155400Y18770600D03*
X17170000Y15160000D03*
X18271800Y15158200D03*
X31521400Y15163800D03*
X32385000Y15163800D03*
D13*
X24695800Y12338800D02*
X22359000Y12338800D01*
X47410001Y3089999D02*
X48260000Y2240000D01*
X46990000Y3510000D02*
X47410001Y3089999D01*
X46990000Y4241800D02*
X46990000Y3510000D01*
X46952169Y4279631D02*
X46990000Y4241800D01*
X42722800Y8509000D02*
X44602400Y6629400D01*
X42722800Y11150600D02*
X42722800Y8509000D01*
X44602400Y6629400D02*
X46126400Y6629400D01*
X46126400Y6629400D02*
X46973201Y5782599D01*
X46973201Y5782599D02*
X46973201Y4300663D01*
X46973201Y4300663D02*
X46952169Y4279631D01*
X33782000Y16718000D02*
X33020000Y17480000D01*
X26390600Y13512800D02*
X32943800Y13512800D01*
X32943800Y13512800D02*
X33782000Y14351000D01*
X33902000Y15120000D02*
X33782000Y15240000D01*
X47980000Y15120000D02*
X33902000Y15120000D01*
X33782000Y14351000D02*
X33782000Y15240000D01*
X33782000Y15240000D02*
X33782000Y16718000D01*
X31699200Y18821400D02*
X33020000Y20142200D01*
X24155400Y18770600D02*
X24206200Y18821400D01*
X24206200Y18821400D02*
X31699200Y18821400D01*
D14*
X17171800Y15158200D02*
X17170000Y15160000D01*
X18271800Y15158200D02*
X17171800Y15158200D01*
X18271800Y15158200D02*
X31515800Y15158200D01*
X31515800Y15158200D02*
X31521400Y15163800D01*
X31521400Y15163800D02*
X32385000Y15163800D01*
D15*
G36*
X1159463Y21346694D02*
G01*
X1100498Y21236380D01*
X1064188Y21116682D01*
X1051928Y20992200D01*
X1051928Y19292200D01*
X1064188Y19167718D01*
X1100498Y19048020D01*
X1159463Y18937706D01*
X1238815Y18841015D01*
X1275267Y18811100D01*
X1238815Y18781185D01*
X1159463Y18684494D01*
X1100498Y18574180D01*
X1064188Y18454482D01*
X1051928Y18330000D01*
X1051928Y16630000D01*
X1064188Y16505518D01*
X1100498Y16385820D01*
X1159463Y16275506D01*
X1238815Y16178815D01*
X1335506Y16099463D01*
X1445820Y16040498D01*
X1565518Y16004188D01*
X1690000Y15991928D01*
X3390000Y15991928D01*
X3514482Y16004188D01*
X3634180Y16040498D01*
X3744494Y16099463D01*
X3841185Y16178815D01*
X3920537Y16275506D01*
X3979502Y16385820D01*
X4000393Y16454687D01*
X4024866Y16424866D01*
X4250986Y16239294D01*
X4508966Y16101401D01*
X4788889Y16016487D01*
X5007050Y15995000D01*
X5152950Y15995000D01*
X5371111Y16016487D01*
X5651034Y16101401D01*
X5909014Y16239294D01*
X6135134Y16424866D01*
X6320706Y16650986D01*
X6350000Y16705791D01*
X6379294Y16650986D01*
X6564866Y16424866D01*
X6790986Y16239294D01*
X7048966Y16101401D01*
X7328889Y16016487D01*
X7547050Y15995000D01*
X7692950Y15995000D01*
X7911111Y16016487D01*
X8191034Y16101401D01*
X8449014Y16239294D01*
X8675134Y16424866D01*
X8860706Y16650986D01*
X8890000Y16705791D01*
X8919294Y16650986D01*
X9104866Y16424866D01*
X9330986Y16239294D01*
X9588966Y16101401D01*
X9868889Y16016487D01*
X10087050Y15995000D01*
X10232950Y15995000D01*
X10451111Y16016487D01*
X10731034Y16101401D01*
X10989014Y16239294D01*
X11215134Y16424866D01*
X11400706Y16650986D01*
X11430000Y16705791D01*
X11459294Y16650986D01*
X11644866Y16424866D01*
X11870986Y16239294D01*
X12128966Y16101401D01*
X12408889Y16016487D01*
X12627050Y15995000D01*
X12772950Y15995000D01*
X12991111Y16016487D01*
X13271034Y16101401D01*
X13529014Y16239294D01*
X13755134Y16424866D01*
X13940706Y16650986D01*
X13970000Y16705791D01*
X13999294Y16650986D01*
X14184866Y16424866D01*
X14410986Y16239294D01*
X14668966Y16101401D01*
X14948889Y16016487D01*
X15167050Y15995000D01*
X15312950Y15995000D01*
X15531111Y16016487D01*
X15811034Y16101401D01*
X16069014Y16239294D01*
X16295134Y16424866D01*
X16480706Y16650986D01*
X16510000Y16705791D01*
X16539294Y16650986D01*
X16724866Y16424866D01*
X16950986Y16239294D01*
X17036970Y16193335D01*
X16965851Y16186330D01*
X16769545Y16126782D01*
X16588631Y16030081D01*
X16430057Y15899943D01*
X16299919Y15741369D01*
X16203218Y15560455D01*
X16143670Y15364149D01*
X16123563Y15160000D01*
X16143670Y14955851D01*
X16203218Y14759545D01*
X16299919Y14578631D01*
X16397450Y14459789D01*
X16399248Y14457991D01*
X16431857Y14418257D01*
X16590430Y14288119D01*
X16771346Y14191417D01*
X16967650Y14131869D01*
X17120648Y14116800D01*
X17120656Y14116800D01*
X17171800Y14111763D01*
X17222944Y14116800D01*
X25549396Y14116800D01*
X25473395Y14003056D01*
X25395374Y13814698D01*
X25355600Y13614739D01*
X25355600Y13410861D01*
X25395374Y13210902D01*
X25473395Y13022544D01*
X25586663Y12853026D01*
X25730826Y12708863D01*
X25900344Y12595595D01*
X26088702Y12517574D01*
X26288661Y12477800D01*
X26492539Y12477800D01*
X26692498Y12517574D01*
X26880856Y12595595D01*
X26999096Y12674600D01*
X32902637Y12674600D01*
X32943800Y12670546D01*
X32984963Y12674600D01*
X32984970Y12674600D01*
X33108116Y12686729D01*
X33266117Y12734658D01*
X33411732Y12812491D01*
X33539364Y12917236D01*
X33565611Y12949218D01*
X34345588Y13729195D01*
X34377564Y13755436D01*
X34482309Y13883068D01*
X34560142Y14028683D01*
X34608071Y14186684D01*
X34617439Y14281800D01*
X47371504Y14281800D01*
X47489744Y14202795D01*
X47678102Y14124774D01*
X47878061Y14085000D01*
X48081939Y14085000D01*
X48281898Y14124774D01*
X48470256Y14202795D01*
X48639774Y14316063D01*
X48783937Y14460226D01*
X48897205Y14629744D01*
X48975226Y14818102D01*
X49015000Y15018061D01*
X49015000Y15221939D01*
X48975226Y15421898D01*
X48897205Y15610256D01*
X48783937Y15779774D01*
X48639774Y15923937D01*
X48507667Y16012208D01*
X48551111Y16016487D01*
X48831034Y16101401D01*
X49089014Y16239294D01*
X49315134Y16424866D01*
X49500706Y16650986D01*
X49530000Y16705791D01*
X49559294Y16650986D01*
X49744866Y16424866D01*
X49970986Y16239294D01*
X50228966Y16101401D01*
X50508889Y16016487D01*
X50727050Y15995000D01*
X50872950Y15995000D01*
X51091111Y16016487D01*
X51371034Y16101401D01*
X51629014Y16239294D01*
X51855134Y16424866D01*
X52040706Y16650986D01*
X52178599Y16908966D01*
X52263513Y17188889D01*
X52292185Y17480000D01*
X52263513Y17771111D01*
X52178599Y18051034D01*
X52040706Y18309014D01*
X51855134Y18535134D01*
X51629014Y18720706D01*
X51459898Y18811100D01*
X51629014Y18901494D01*
X51855134Y19087066D01*
X52040706Y19313186D01*
X52178599Y19571166D01*
X52263513Y19851089D01*
X52292185Y20142200D01*
X52263513Y20433311D01*
X52178599Y20713234D01*
X52040706Y20971214D01*
X51855134Y21197334D01*
X51629014Y21382906D01*
X51525940Y21438000D01*
X52680000Y21438000D01*
X52680001Y939400D01*
X51516960Y939400D01*
X51629014Y999294D01*
X51855134Y1184866D01*
X52040706Y1410986D01*
X52178599Y1668966D01*
X52263513Y1948889D01*
X52292185Y2240000D01*
X52263513Y2531111D01*
X52178599Y2811034D01*
X52040706Y3069014D01*
X51855134Y3295134D01*
X51629014Y3480706D01*
X51459898Y3571100D01*
X51629014Y3661494D01*
X51855134Y3847066D01*
X52040706Y4073186D01*
X52178599Y4331166D01*
X52263513Y4611089D01*
X52292185Y4902200D01*
X52263513Y5193311D01*
X52178599Y5473234D01*
X52040706Y5731214D01*
X51855134Y5957334D01*
X51629014Y6142906D01*
X51371034Y6280799D01*
X51091111Y6365713D01*
X50872950Y6387200D01*
X50727050Y6387200D01*
X50508889Y6365713D01*
X50228966Y6280799D01*
X49970986Y6142906D01*
X49744866Y5957334D01*
X49559294Y5731214D01*
X49530000Y5676409D01*
X49500706Y5731214D01*
X49315134Y5957334D01*
X49089014Y6142906D01*
X48831034Y6280799D01*
X48551111Y6365713D01*
X48332950Y6387200D01*
X48187050Y6387200D01*
X47968889Y6365713D01*
X47688966Y6280799D01*
X47660956Y6265828D01*
X47568765Y6378163D01*
X47536789Y6404404D01*
X46748211Y7192982D01*
X46721964Y7224964D01*
X46594332Y7329709D01*
X46448717Y7407542D01*
X46290716Y7455471D01*
X46167570Y7467600D01*
X46167563Y7467600D01*
X46126400Y7471654D01*
X46085237Y7467600D01*
X44949594Y7467600D01*
X43561000Y8856193D01*
X43561000Y10542104D01*
X43640005Y10660344D01*
X43718026Y10848702D01*
X43757800Y11048661D01*
X43757800Y11252539D01*
X43718026Y11452498D01*
X43640005Y11640856D01*
X43526737Y11810374D01*
X43382574Y11954537D01*
X43213056Y12067805D01*
X43024698Y12145826D01*
X42824739Y12185600D01*
X42620861Y12185600D01*
X42420902Y12145826D01*
X42232544Y12067805D01*
X42063026Y11954537D01*
X41918863Y11810374D01*
X41805595Y11640856D01*
X41727574Y11452498D01*
X41687800Y11252539D01*
X41687800Y11048661D01*
X41727574Y10848702D01*
X41805595Y10660344D01*
X41884600Y10542104D01*
X41884601Y8550172D01*
X41880546Y8509000D01*
X41896729Y8344685D01*
X41944658Y8186684D01*
X41944659Y8186683D01*
X42022492Y8041068D01*
X42127237Y7913436D01*
X42159213Y7887194D01*
X43782341Y6264065D01*
X43751034Y6280799D01*
X43471111Y6365713D01*
X43252950Y6387200D01*
X43107050Y6387200D01*
X42888889Y6365713D01*
X42608966Y6280799D01*
X42350986Y6142906D01*
X42124866Y5957334D01*
X41939294Y5731214D01*
X41910000Y5676409D01*
X41880706Y5731214D01*
X41695134Y5957334D01*
X41469014Y6142906D01*
X41211034Y6280799D01*
X40931111Y6365713D01*
X40712950Y6387200D01*
X40567050Y6387200D01*
X40348889Y6365713D01*
X40068966Y6280799D01*
X39810986Y6142906D01*
X39584866Y5957334D01*
X39399294Y5731214D01*
X39370000Y5676409D01*
X39340706Y5731214D01*
X39155134Y5957334D01*
X38929014Y6142906D01*
X38671034Y6280799D01*
X38391111Y6365713D01*
X38172950Y6387200D01*
X38027050Y6387200D01*
X37808889Y6365713D01*
X37528966Y6280799D01*
X37270986Y6142906D01*
X37044866Y5957334D01*
X36859294Y5731214D01*
X36830000Y5676409D01*
X36800706Y5731214D01*
X36615134Y5957334D01*
X36389014Y6142906D01*
X36131034Y6280799D01*
X35851111Y6365713D01*
X35632950Y6387200D01*
X35487050Y6387200D01*
X35268889Y6365713D01*
X34988966Y6280799D01*
X34730986Y6142906D01*
X34504866Y5957334D01*
X34319294Y5731214D01*
X34290000Y5676409D01*
X34260706Y5731214D01*
X34075134Y5957334D01*
X33849014Y6142906D01*
X33591034Y6280799D01*
X33311111Y6365713D01*
X33092950Y6387200D01*
X32947050Y6387200D01*
X32728889Y6365713D01*
X32448966Y6280799D01*
X32190986Y6142906D01*
X31964866Y5957334D01*
X31779294Y5731214D01*
X31750000Y5676409D01*
X31720706Y5731214D01*
X31535134Y5957334D01*
X31309014Y6142906D01*
X31051034Y6280799D01*
X30771111Y6365713D01*
X30552950Y6387200D01*
X30407050Y6387200D01*
X30188889Y6365713D01*
X29908966Y6280799D01*
X29650986Y6142906D01*
X29424866Y5957334D01*
X29239294Y5731214D01*
X29210000Y5676409D01*
X29180706Y5731214D01*
X28995134Y5957334D01*
X28769014Y6142906D01*
X28511034Y6280799D01*
X28231111Y6365713D01*
X28012950Y6387200D01*
X27867050Y6387200D01*
X27648889Y6365713D01*
X27368966Y6280799D01*
X27110986Y6142906D01*
X26884866Y5957334D01*
X26699294Y5731214D01*
X26670000Y5676409D01*
X26640706Y5731214D01*
X26455134Y5957334D01*
X26229014Y6142906D01*
X25971034Y6280799D01*
X25691111Y6365713D01*
X25472950Y6387200D01*
X25327050Y6387200D01*
X25108889Y6365713D01*
X24828966Y6280799D01*
X24570986Y6142906D01*
X24344866Y5957334D01*
X24159294Y5731214D01*
X24130000Y5676409D01*
X24100706Y5731214D01*
X23915134Y5957334D01*
X23689014Y6142906D01*
X23431034Y6280799D01*
X23151111Y6365713D01*
X22932950Y6387200D01*
X22787050Y6387200D01*
X22568889Y6365713D01*
X22288966Y6280799D01*
X22030986Y6142906D01*
X21804866Y5957334D01*
X21619294Y5731214D01*
X21590000Y5676409D01*
X21560706Y5731214D01*
X21375134Y5957334D01*
X21149014Y6142906D01*
X20891034Y6280799D01*
X20611111Y6365713D01*
X20392950Y6387200D01*
X20247050Y6387200D01*
X20028889Y6365713D01*
X19748966Y6280799D01*
X19490986Y6142906D01*
X19264866Y5957334D01*
X19079294Y5731214D01*
X19050000Y5676409D01*
X19020706Y5731214D01*
X18835134Y5957334D01*
X18609014Y6142906D01*
X18351034Y6280799D01*
X18071111Y6365713D01*
X17852950Y6387200D01*
X17707050Y6387200D01*
X17488889Y6365713D01*
X17208966Y6280799D01*
X16950986Y6142906D01*
X16724866Y5957334D01*
X16539294Y5731214D01*
X16510000Y5676409D01*
X16480706Y5731214D01*
X16295134Y5957334D01*
X16069014Y6142906D01*
X15811034Y6280799D01*
X15531111Y6365713D01*
X15312950Y6387200D01*
X15167050Y6387200D01*
X14948889Y6365713D01*
X14668966Y6280799D01*
X14410986Y6142906D01*
X14184866Y5957334D01*
X13999294Y5731214D01*
X13970000Y5676409D01*
X13940706Y5731214D01*
X13755134Y5957334D01*
X13529014Y6142906D01*
X13271034Y6280799D01*
X12991111Y6365713D01*
X12772950Y6387200D01*
X12627050Y6387200D01*
X12408889Y6365713D01*
X12128966Y6280799D01*
X11870986Y6142906D01*
X11644866Y5957334D01*
X11459294Y5731214D01*
X11430000Y5676409D01*
X11400706Y5731214D01*
X11215134Y5957334D01*
X10989014Y6142906D01*
X10731034Y6280799D01*
X10451111Y6365713D01*
X10232950Y6387200D01*
X10087050Y6387200D01*
X9868889Y6365713D01*
X9588966Y6280799D01*
X9330986Y6142906D01*
X9104866Y5957334D01*
X8919294Y5731214D01*
X8884799Y5666677D01*
X8815178Y5783555D01*
X8620269Y5999788D01*
X8386920Y6173841D01*
X8124099Y6299025D01*
X7976890Y6343676D01*
X7747000Y6222355D01*
X7747000Y5029200D01*
X7767000Y5029200D01*
X7767000Y4775200D01*
X7747000Y4775200D01*
X7747000Y3582045D01*
X7767740Y3571100D01*
X7747000Y3560155D01*
X7747000Y2367000D01*
X7767000Y2367000D01*
X7767000Y2113000D01*
X7747000Y2113000D01*
X7747000Y2093000D01*
X7493000Y2093000D01*
X7493000Y2113000D01*
X7473000Y2113000D01*
X7473000Y2367000D01*
X7493000Y2367000D01*
X7493000Y3560155D01*
X7472260Y3571100D01*
X7493000Y3582045D01*
X7493000Y4775200D01*
X7473000Y4775200D01*
X7473000Y5029200D01*
X7493000Y5029200D01*
X7493000Y6222355D01*
X7263110Y6343676D01*
X7115901Y6299025D01*
X6853080Y6173841D01*
X6619731Y5999788D01*
X6424822Y5783555D01*
X6355201Y5666677D01*
X6320706Y5731214D01*
X6135134Y5957334D01*
X5909014Y6142906D01*
X5651034Y6280799D01*
X5371111Y6365713D01*
X5152950Y6387200D01*
X5007050Y6387200D01*
X4788889Y6365713D01*
X4508966Y6280799D01*
X4250986Y6142906D01*
X4024866Y5957334D01*
X4000393Y5927513D01*
X3979502Y5996380D01*
X3920537Y6106694D01*
X3841185Y6203385D01*
X3744494Y6282737D01*
X3634180Y6341702D01*
X3514482Y6378012D01*
X3390000Y6390272D01*
X1690000Y6390272D01*
X1565518Y6378012D01*
X1445820Y6341702D01*
X1335506Y6282737D01*
X1238815Y6203385D01*
X1159463Y6106694D01*
X1100498Y5996380D01*
X1064188Y5876682D01*
X1051928Y5752200D01*
X1051928Y4052200D01*
X1064188Y3927718D01*
X1100498Y3808020D01*
X1159463Y3697706D01*
X1238815Y3601015D01*
X1275267Y3571100D01*
X1238815Y3541185D01*
X1159463Y3444494D01*
X1100498Y3334180D01*
X1064188Y3214482D01*
X1051928Y3090000D01*
X1051928Y1390000D01*
X1064188Y1265518D01*
X1100498Y1145820D01*
X1159463Y1035506D01*
X1238335Y939400D01*
X660000Y939400D01*
X660000Y21438000D01*
X1234396Y21438000D01*
X1159463Y21346694D01*
X1159463Y21346694D01*
G37*
X1159463Y21346694D02*
X1100498Y21236380D01*
X1064188Y21116682D01*
X1051928Y20992200D01*
X1051928Y19292200D01*
X1064188Y19167718D01*
X1100498Y19048020D01*
X1159463Y18937706D01*
X1238815Y18841015D01*
X1275267Y18811100D01*
X1238815Y18781185D01*
X1159463Y18684494D01*
X1100498Y18574180D01*
X1064188Y18454482D01*
X1051928Y18330000D01*
X1051928Y16630000D01*
X1064188Y16505518D01*
X1100498Y16385820D01*
X1159463Y16275506D01*
X1238815Y16178815D01*
X1335506Y16099463D01*
X1445820Y16040498D01*
X1565518Y16004188D01*
X1690000Y15991928D01*
X3390000Y15991928D01*
X3514482Y16004188D01*
X3634180Y16040498D01*
X3744494Y16099463D01*
X3841185Y16178815D01*
X3920537Y16275506D01*
X3979502Y16385820D01*
X4000393Y16454687D01*
X4024866Y16424866D01*
X4250986Y16239294D01*
X4508966Y16101401D01*
X4788889Y16016487D01*
X5007050Y15995000D01*
X5152950Y15995000D01*
X5371111Y16016487D01*
X5651034Y16101401D01*
X5909014Y16239294D01*
X6135134Y16424866D01*
X6320706Y16650986D01*
X6350000Y16705791D01*
X6379294Y16650986D01*
X6564866Y16424866D01*
X6790986Y16239294D01*
X7048966Y16101401D01*
X7328889Y16016487D01*
X7547050Y15995000D01*
X7692950Y15995000D01*
X7911111Y16016487D01*
X8191034Y16101401D01*
X8449014Y16239294D01*
X8675134Y16424866D01*
X8860706Y16650986D01*
X8890000Y16705791D01*
X8919294Y16650986D01*
X9104866Y16424866D01*
X9330986Y16239294D01*
X9588966Y16101401D01*
X9868889Y16016487D01*
X10087050Y15995000D01*
X10232950Y15995000D01*
X10451111Y16016487D01*
X10731034Y16101401D01*
X10989014Y16239294D01*
X11215134Y16424866D01*
X11400706Y16650986D01*
X11430000Y16705791D01*
X11459294Y16650986D01*
X11644866Y16424866D01*
X11870986Y16239294D01*
X12128966Y16101401D01*
X12408889Y16016487D01*
X12627050Y15995000D01*
X12772950Y15995000D01*
X12991111Y16016487D01*
X13271034Y16101401D01*
X13529014Y16239294D01*
X13755134Y16424866D01*
X13940706Y16650986D01*
X13970000Y16705791D01*
X13999294Y16650986D01*
X14184866Y16424866D01*
X14410986Y16239294D01*
X14668966Y16101401D01*
X14948889Y16016487D01*
X15167050Y15995000D01*
X15312950Y15995000D01*
X15531111Y16016487D01*
X15811034Y16101401D01*
X16069014Y16239294D01*
X16295134Y16424866D01*
X16480706Y16650986D01*
X16510000Y16705791D01*
X16539294Y16650986D01*
X16724866Y16424866D01*
X16950986Y16239294D01*
X17036970Y16193335D01*
X16965851Y16186330D01*
X16769545Y16126782D01*
X16588631Y16030081D01*
X16430057Y15899943D01*
X16299919Y15741369D01*
X16203218Y15560455D01*
X16143670Y15364149D01*
X16123563Y15160000D01*
X16143670Y14955851D01*
X16203218Y14759545D01*
X16299919Y14578631D01*
X16397450Y14459789D01*
X16399248Y14457991D01*
X16431857Y14418257D01*
X16590430Y14288119D01*
X16771346Y14191417D01*
X16967650Y14131869D01*
X17120648Y14116800D01*
X17120656Y14116800D01*
X17171800Y14111763D01*
X17222944Y14116800D01*
X25549396Y14116800D01*
X25473395Y14003056D01*
X25395374Y13814698D01*
X25355600Y13614739D01*
X25355600Y13410861D01*
X25395374Y13210902D01*
X25473395Y13022544D01*
X25586663Y12853026D01*
X25730826Y12708863D01*
X25900344Y12595595D01*
X26088702Y12517574D01*
X26288661Y12477800D01*
X26492539Y12477800D01*
X26692498Y12517574D01*
X26880856Y12595595D01*
X26999096Y12674600D01*
X32902637Y12674600D01*
X32943800Y12670546D01*
X32984963Y12674600D01*
X32984970Y12674600D01*
X33108116Y12686729D01*
X33266117Y12734658D01*
X33411732Y12812491D01*
X33539364Y12917236D01*
X33565611Y12949218D01*
X34345588Y13729195D01*
X34377564Y13755436D01*
X34482309Y13883068D01*
X34560142Y14028683D01*
X34608071Y14186684D01*
X34617439Y14281800D01*
X47371504Y14281800D01*
X47489744Y14202795D01*
X47678102Y14124774D01*
X47878061Y14085000D01*
X48081939Y14085000D01*
X48281898Y14124774D01*
X48470256Y14202795D01*
X48639774Y14316063D01*
X48783937Y14460226D01*
X48897205Y14629744D01*
X48975226Y14818102D01*
X49015000Y15018061D01*
X49015000Y15221939D01*
X48975226Y15421898D01*
X48897205Y15610256D01*
X48783937Y15779774D01*
X48639774Y15923937D01*
X48507667Y16012208D01*
X48551111Y16016487D01*
X48831034Y16101401D01*
X49089014Y16239294D01*
X49315134Y16424866D01*
X49500706Y16650986D01*
X49530000Y16705791D01*
X49559294Y16650986D01*
X49744866Y16424866D01*
X49970986Y16239294D01*
X50228966Y16101401D01*
X50508889Y16016487D01*
X50727050Y15995000D01*
X50872950Y15995000D01*
X51091111Y16016487D01*
X51371034Y16101401D01*
X51629014Y16239294D01*
X51855134Y16424866D01*
X52040706Y16650986D01*
X52178599Y16908966D01*
X52263513Y17188889D01*
X52292185Y17480000D01*
X52263513Y17771111D01*
X52178599Y18051034D01*
X52040706Y18309014D01*
X51855134Y18535134D01*
X51629014Y18720706D01*
X51459898Y18811100D01*
X51629014Y18901494D01*
X51855134Y19087066D01*
X52040706Y19313186D01*
X52178599Y19571166D01*
X52263513Y19851089D01*
X52292185Y20142200D01*
X52263513Y20433311D01*
X52178599Y20713234D01*
X52040706Y20971214D01*
X51855134Y21197334D01*
X51629014Y21382906D01*
X51525940Y21438000D01*
X52680000Y21438000D01*
X52680001Y939400D01*
X51516960Y939400D01*
X51629014Y999294D01*
X51855134Y1184866D01*
X52040706Y1410986D01*
X52178599Y1668966D01*
X52263513Y1948889D01*
X52292185Y2240000D01*
X52263513Y2531111D01*
X52178599Y2811034D01*
X52040706Y3069014D01*
X51855134Y3295134D01*
X51629014Y3480706D01*
X51459898Y3571100D01*
X51629014Y3661494D01*
X51855134Y3847066D01*
X52040706Y4073186D01*
X52178599Y4331166D01*
X52263513Y4611089D01*
X52292185Y4902200D01*
X52263513Y5193311D01*
X52178599Y5473234D01*
X52040706Y5731214D01*
X51855134Y5957334D01*
X51629014Y6142906D01*
X51371034Y6280799D01*
X51091111Y6365713D01*
X50872950Y6387200D01*
X50727050Y6387200D01*
X50508889Y6365713D01*
X50228966Y6280799D01*
X49970986Y6142906D01*
X49744866Y5957334D01*
X49559294Y5731214D01*
X49530000Y5676409D01*
X49500706Y5731214D01*
X49315134Y5957334D01*
X49089014Y6142906D01*
X48831034Y6280799D01*
X48551111Y6365713D01*
X48332950Y6387200D01*
X48187050Y6387200D01*
X47968889Y6365713D01*
X47688966Y6280799D01*
X47660956Y6265828D01*
X47568765Y6378163D01*
X47536789Y6404404D01*
X46748211Y7192982D01*
X46721964Y7224964D01*
X46594332Y7329709D01*
X46448717Y7407542D01*
X46290716Y7455471D01*
X46167570Y7467600D01*
X46167563Y7467600D01*
X46126400Y7471654D01*
X46085237Y7467600D01*
X44949594Y7467600D01*
X43561000Y8856193D01*
X43561000Y10542104D01*
X43640005Y10660344D01*
X43718026Y10848702D01*
X43757800Y11048661D01*
X43757800Y11252539D01*
X43718026Y11452498D01*
X43640005Y11640856D01*
X43526737Y11810374D01*
X43382574Y11954537D01*
X43213056Y12067805D01*
X43024698Y12145826D01*
X42824739Y12185600D01*
X42620861Y12185600D01*
X42420902Y12145826D01*
X42232544Y12067805D01*
X42063026Y11954537D01*
X41918863Y11810374D01*
X41805595Y11640856D01*
X41727574Y11452498D01*
X41687800Y11252539D01*
X41687800Y11048661D01*
X41727574Y10848702D01*
X41805595Y10660344D01*
X41884600Y10542104D01*
X41884601Y8550172D01*
X41880546Y8509000D01*
X41896729Y8344685D01*
X41944658Y8186684D01*
X41944659Y8186683D01*
X42022492Y8041068D01*
X42127237Y7913436D01*
X42159213Y7887194D01*
X43782341Y6264065D01*
X43751034Y6280799D01*
X43471111Y6365713D01*
X43252950Y6387200D01*
X43107050Y6387200D01*
X42888889Y6365713D01*
X42608966Y6280799D01*
X42350986Y6142906D01*
X42124866Y5957334D01*
X41939294Y5731214D01*
X41910000Y5676409D01*
X41880706Y5731214D01*
X41695134Y5957334D01*
X41469014Y6142906D01*
X41211034Y6280799D01*
X40931111Y6365713D01*
X40712950Y6387200D01*
X40567050Y6387200D01*
X40348889Y6365713D01*
X40068966Y6280799D01*
X39810986Y6142906D01*
X39584866Y5957334D01*
X39399294Y5731214D01*
X39370000Y5676409D01*
X39340706Y5731214D01*
X39155134Y5957334D01*
X38929014Y6142906D01*
X38671034Y6280799D01*
X38391111Y6365713D01*
X38172950Y6387200D01*
X38027050Y6387200D01*
X37808889Y6365713D01*
X37528966Y6280799D01*
X37270986Y6142906D01*
X37044866Y5957334D01*
X36859294Y5731214D01*
X36830000Y5676409D01*
X36800706Y5731214D01*
X36615134Y5957334D01*
X36389014Y6142906D01*
X36131034Y6280799D01*
X35851111Y6365713D01*
X35632950Y6387200D01*
X35487050Y6387200D01*
X35268889Y6365713D01*
X34988966Y6280799D01*
X34730986Y6142906D01*
X34504866Y5957334D01*
X34319294Y5731214D01*
X34290000Y5676409D01*
X34260706Y5731214D01*
X34075134Y5957334D01*
X33849014Y6142906D01*
X33591034Y6280799D01*
X33311111Y6365713D01*
X33092950Y6387200D01*
X32947050Y6387200D01*
X32728889Y6365713D01*
X32448966Y6280799D01*
X32190986Y6142906D01*
X31964866Y5957334D01*
X31779294Y5731214D01*
X31750000Y5676409D01*
X31720706Y5731214D01*
X31535134Y5957334D01*
X31309014Y6142906D01*
X31051034Y6280799D01*
X30771111Y6365713D01*
X30552950Y6387200D01*
X30407050Y6387200D01*
X30188889Y6365713D01*
X29908966Y6280799D01*
X29650986Y6142906D01*
X29424866Y5957334D01*
X29239294Y5731214D01*
X29210000Y5676409D01*
X29180706Y5731214D01*
X28995134Y5957334D01*
X28769014Y6142906D01*
X28511034Y6280799D01*
X28231111Y6365713D01*
X28012950Y6387200D01*
X27867050Y6387200D01*
X27648889Y6365713D01*
X27368966Y6280799D01*
X27110986Y6142906D01*
X26884866Y5957334D01*
X26699294Y5731214D01*
X26670000Y5676409D01*
X26640706Y5731214D01*
X26455134Y5957334D01*
X26229014Y6142906D01*
X25971034Y6280799D01*
X25691111Y6365713D01*
X25472950Y6387200D01*
X25327050Y6387200D01*
X25108889Y6365713D01*
X24828966Y6280799D01*
X24570986Y6142906D01*
X24344866Y5957334D01*
X24159294Y5731214D01*
X24130000Y5676409D01*
X24100706Y5731214D01*
X23915134Y5957334D01*
X23689014Y6142906D01*
X23431034Y6280799D01*
X23151111Y6365713D01*
X22932950Y6387200D01*
X22787050Y6387200D01*
X22568889Y6365713D01*
X22288966Y6280799D01*
X22030986Y6142906D01*
X21804866Y5957334D01*
X21619294Y5731214D01*
X21590000Y5676409D01*
X21560706Y5731214D01*
X21375134Y5957334D01*
X21149014Y6142906D01*
X20891034Y6280799D01*
X20611111Y6365713D01*
X20392950Y6387200D01*
X20247050Y6387200D01*
X20028889Y6365713D01*
X19748966Y6280799D01*
X19490986Y6142906D01*
X19264866Y5957334D01*
X19079294Y5731214D01*
X19050000Y5676409D01*
X19020706Y5731214D01*
X18835134Y5957334D01*
X18609014Y6142906D01*
X18351034Y6280799D01*
X18071111Y6365713D01*
X17852950Y6387200D01*
X17707050Y6387200D01*
X17488889Y6365713D01*
X17208966Y6280799D01*
X16950986Y6142906D01*
X16724866Y5957334D01*
X16539294Y5731214D01*
X16510000Y5676409D01*
X16480706Y5731214D01*
X16295134Y5957334D01*
X16069014Y6142906D01*
X15811034Y6280799D01*
X15531111Y6365713D01*
X15312950Y6387200D01*
X15167050Y6387200D01*
X14948889Y6365713D01*
X14668966Y6280799D01*
X14410986Y6142906D01*
X14184866Y5957334D01*
X13999294Y5731214D01*
X13970000Y5676409D01*
X13940706Y5731214D01*
X13755134Y5957334D01*
X13529014Y6142906D01*
X13271034Y6280799D01*
X12991111Y6365713D01*
X12772950Y6387200D01*
X12627050Y6387200D01*
X12408889Y6365713D01*
X12128966Y6280799D01*
X11870986Y6142906D01*
X11644866Y5957334D01*
X11459294Y5731214D01*
X11430000Y5676409D01*
X11400706Y5731214D01*
X11215134Y5957334D01*
X10989014Y6142906D01*
X10731034Y6280799D01*
X10451111Y6365713D01*
X10232950Y6387200D01*
X10087050Y6387200D01*
X9868889Y6365713D01*
X9588966Y6280799D01*
X9330986Y6142906D01*
X9104866Y5957334D01*
X8919294Y5731214D01*
X8884799Y5666677D01*
X8815178Y5783555D01*
X8620269Y5999788D01*
X8386920Y6173841D01*
X8124099Y6299025D01*
X7976890Y6343676D01*
X7747000Y6222355D01*
X7747000Y5029200D01*
X7767000Y5029200D01*
X7767000Y4775200D01*
X7747000Y4775200D01*
X7747000Y3582045D01*
X7767740Y3571100D01*
X7747000Y3560155D01*
X7747000Y2367000D01*
X7767000Y2367000D01*
X7767000Y2113000D01*
X7747000Y2113000D01*
X7747000Y2093000D01*
X7493000Y2093000D01*
X7493000Y2113000D01*
X7473000Y2113000D01*
X7473000Y2367000D01*
X7493000Y2367000D01*
X7493000Y3560155D01*
X7472260Y3571100D01*
X7493000Y3582045D01*
X7493000Y4775200D01*
X7473000Y4775200D01*
X7473000Y5029200D01*
X7493000Y5029200D01*
X7493000Y6222355D01*
X7263110Y6343676D01*
X7115901Y6299025D01*
X6853080Y6173841D01*
X6619731Y5999788D01*
X6424822Y5783555D01*
X6355201Y5666677D01*
X6320706Y5731214D01*
X6135134Y5957334D01*
X5909014Y6142906D01*
X5651034Y6280799D01*
X5371111Y6365713D01*
X5152950Y6387200D01*
X5007050Y6387200D01*
X4788889Y6365713D01*
X4508966Y6280799D01*
X4250986Y6142906D01*
X4024866Y5957334D01*
X4000393Y5927513D01*
X3979502Y5996380D01*
X3920537Y6106694D01*
X3841185Y6203385D01*
X3744494Y6282737D01*
X3634180Y6341702D01*
X3514482Y6378012D01*
X3390000Y6390272D01*
X1690000Y6390272D01*
X1565518Y6378012D01*
X1445820Y6341702D01*
X1335506Y6282737D01*
X1238815Y6203385D01*
X1159463Y6106694D01*
X1100498Y5996380D01*
X1064188Y5876682D01*
X1051928Y5752200D01*
X1051928Y4052200D01*
X1064188Y3927718D01*
X1100498Y3808020D01*
X1159463Y3697706D01*
X1238815Y3601015D01*
X1275267Y3571100D01*
X1238815Y3541185D01*
X1159463Y3444494D01*
X1100498Y3334180D01*
X1064188Y3214482D01*
X1051928Y3090000D01*
X1051928Y1390000D01*
X1064188Y1265518D01*
X1100498Y1145820D01*
X1159463Y1035506D01*
X1238335Y939400D01*
X660000Y939400D01*
X660000Y21438000D01*
X1234396Y21438000D01*
X1159463Y21346694D01*
M02*
