G04 #@! TF.GenerationSoftware,KiCad,Pcbnew,(5.1.0)-1*
G04 #@! TF.CreationDate,2019-10-20T16:55:30+02:00*
G04 #@! TF.ProjectId,GTIA Fix,47544941-2046-4697-982e-6b696361645f,rev?*
G04 #@! TF.SameCoordinates,PX989b620PY8062360*
G04 #@! TF.FileFunction,Legend,Top*
G04 #@! TF.FilePolarity,Positive*
%FSLAX46Y46*%
G04 Gerber Fmt 4.6, Leading zero omitted, Abs format (unit mm)*
G04 Created by KiCad (PCBNEW (5.1.0)-1) date 2019-10-20 16:55:30*
%MOMM*%
%LPD*%
G04 APERTURE LIST*
%ADD10C,0.150000*%
%ADD11C,0.100000*%
%ADD12C,0.120000*%
%ADD13R,1.102000X1.302000*%
%ADD14R,0.702000X1.602000*%
%ADD15C,1.352000*%
%ADD16O,1.802000X1.802000*%
%ADD17R,1.802000X1.802000*%
G04 APERTURE END LIST*
D10*
X23594285Y12167620D02*
X24260952Y12167620D01*
X23832380Y11167620D01*
X25070476Y11834286D02*
X25070476Y11167620D01*
X24832380Y12215239D02*
X24594285Y11500953D01*
X25213333Y11500953D01*
X25594285Y11167620D02*
X25594285Y12167620D01*
X25594285Y11691429D02*
X26165714Y11691429D01*
X26165714Y11167620D02*
X26165714Y12167620D01*
X27213333Y11262858D02*
X27165714Y11215239D01*
X27022857Y11167620D01*
X26927619Y11167620D01*
X26784761Y11215239D01*
X26689523Y11310477D01*
X26641904Y11405715D01*
X26594285Y11596191D01*
X26594285Y11739048D01*
X26641904Y11929524D01*
X26689523Y12024762D01*
X26784761Y12120000D01*
X26927619Y12167620D01*
X27022857Y12167620D01*
X27165714Y12120000D01*
X27213333Y12072381D01*
X28165714Y11167620D02*
X27594285Y11167620D01*
X27880000Y11167620D02*
X27880000Y12167620D01*
X27784761Y12024762D01*
X27689523Y11929524D01*
X27594285Y11881905D01*
X29022857Y11834286D02*
X29022857Y11167620D01*
X28784761Y12215239D02*
X28546666Y11500953D01*
X29165714Y11500953D01*
X38918095Y12067620D02*
X39584761Y12067620D01*
X39156190Y11067620D01*
X40394285Y11734286D02*
X40394285Y11067620D01*
X40156190Y12115239D02*
X39918095Y11400953D01*
X40537142Y11400953D01*
X40918095Y11067620D02*
X40918095Y12067620D01*
X40918095Y11591429D02*
X41489523Y11591429D01*
X41489523Y11067620D02*
X41489523Y12067620D01*
X42537142Y11162858D02*
X42489523Y11115239D01*
X42346666Y11067620D01*
X42251428Y11067620D01*
X42108571Y11115239D01*
X42013333Y11210477D01*
X41965714Y11305715D01*
X41918095Y11496191D01*
X41918095Y11639048D01*
X41965714Y11829524D01*
X42013333Y11924762D01*
X42108571Y12020000D01*
X42251428Y12067620D01*
X42346666Y12067620D01*
X42489523Y12020000D01*
X42537142Y11972381D01*
X43489523Y11067620D02*
X42918095Y11067620D01*
X43203809Y11067620D02*
X43203809Y12067620D01*
X43108571Y11924762D01*
X43013333Y11829524D01*
X42918095Y11781905D01*
X43822857Y12067620D02*
X44489523Y12067620D01*
X44060952Y11067620D01*
X45346666Y12067620D02*
X44870476Y12067620D01*
X44822857Y11591429D01*
X44870476Y11639048D01*
X44965714Y11686667D01*
X45203809Y11686667D01*
X45299047Y11639048D01*
X45346666Y11591429D01*
X45394285Y11496191D01*
X45394285Y11258096D01*
X45346666Y11162858D01*
X45299047Y11115239D01*
X45203809Y11067620D01*
X44965714Y11067620D01*
X44870476Y11115239D01*
X44822857Y11162858D01*
D11*
X15110000Y11990000D02*
X15110000Y11840000D01*
X14910000Y11990000D02*
X15110000Y12240000D01*
X15310000Y11990000D02*
X14910000Y11990000D01*
X15110000Y12240000D02*
X15310000Y11990000D01*
X15110000Y12440000D02*
X15110000Y12240000D01*
X15310000Y12290000D02*
X14910000Y12290000D01*
D12*
X14510000Y11440000D02*
X14510000Y13690000D01*
X15710000Y11440000D02*
X15710000Y13690000D01*
X15710000Y13690000D02*
X14510000Y13690000D01*
D10*
X21947200Y10213000D02*
X21947200Y8838000D01*
X30822200Y10213000D02*
X30822200Y14363000D01*
X21922200Y10213000D02*
X21922200Y14363000D01*
X30822200Y10213000D02*
X30707200Y10213000D01*
X30822200Y14363000D02*
X30707200Y14363000D01*
X21922200Y14363000D02*
X22037200Y14363000D01*
X21922200Y10213000D02*
X21947200Y10213000D01*
D12*
X19544000Y14312464D02*
X19544000Y13108336D01*
X21364000Y14312464D02*
X21364000Y13108336D01*
X34707800Y14337864D02*
X34707800Y13133736D01*
X36527800Y14337864D02*
X36527800Y13133736D01*
D10*
X37070200Y10238400D02*
X37070200Y8863400D01*
X47195200Y10238400D02*
X47195200Y14388400D01*
X37045200Y10238400D02*
X37045200Y14388400D01*
X47195200Y10238400D02*
X47090200Y10238400D01*
X47195200Y14388400D02*
X47090200Y14388400D01*
X37045200Y14388400D02*
X37150200Y14388400D01*
X37045200Y10238400D02*
X37070200Y10238400D01*
D12*
X16470600Y12559864D02*
X16470600Y11355736D01*
X18290600Y12559864D02*
X18290600Y11355736D01*
X11847800Y12585264D02*
X11847800Y11381136D01*
X13667800Y12585264D02*
X13667800Y11381136D01*
X1210000Y19807600D02*
X1210000Y21137600D01*
X2540000Y19807600D02*
X1210000Y19807600D01*
X3810000Y19807600D02*
X3810000Y22467600D01*
X3810000Y22467600D02*
X52130000Y22467600D01*
X3810000Y19807600D02*
X52130000Y19807600D01*
X52130000Y19807600D02*
X52130000Y22467600D01*
X1210000Y4567600D02*
X1210000Y5897600D01*
X2540000Y4567600D02*
X1210000Y4567600D01*
X3810000Y4567600D02*
X3810000Y7227600D01*
X3810000Y7227600D02*
X52130000Y7227600D01*
X3810000Y4567600D02*
X52130000Y4567600D01*
X52130000Y4567600D02*
X52130000Y7227600D01*
X1210000Y16150000D02*
X1210000Y17480000D01*
X2540000Y16150000D02*
X1210000Y16150000D01*
X3810000Y16150000D02*
X3810000Y18810000D01*
X3810000Y18810000D02*
X52130000Y18810000D01*
X3810000Y16150000D02*
X52130000Y16150000D01*
X52130000Y16150000D02*
X52130000Y18810000D01*
X1210000Y910000D02*
X1210000Y2240000D01*
X2540000Y910000D02*
X1210000Y910000D01*
X3810000Y910000D02*
X3810000Y3570000D01*
X3810000Y3570000D02*
X52130000Y3570000D01*
X3810000Y910000D02*
X52130000Y910000D01*
X52130000Y910000D02*
X52130000Y3570000D01*
D10*
X15582380Y14511905D02*
X14582380Y14511905D01*
X14582380Y14750000D01*
X14630000Y14892858D01*
X14725238Y14988096D01*
X14820476Y15035715D01*
X15010952Y15083334D01*
X15153809Y15083334D01*
X15344285Y15035715D01*
X15439523Y14988096D01*
X15534761Y14892858D01*
X15582380Y14750000D01*
X15582380Y14511905D01*
X15582380Y16035715D02*
X15582380Y15464286D01*
X15582380Y15750000D02*
X14582380Y15750000D01*
X14725238Y15654762D01*
X14820476Y15559524D01*
X14868095Y15464286D01*
X25418095Y13767620D02*
X25418095Y12958096D01*
X25465714Y12862858D01*
X25513333Y12815239D01*
X25608571Y12767620D01*
X25799047Y12767620D01*
X25894285Y12815239D01*
X25941904Y12862858D01*
X25989523Y12958096D01*
X25989523Y13767620D01*
X26418095Y13672381D02*
X26465714Y13720000D01*
X26560952Y13767620D01*
X26799047Y13767620D01*
X26894285Y13720000D01*
X26941904Y13672381D01*
X26989523Y13577143D01*
X26989523Y13481905D01*
X26941904Y13339048D01*
X26370476Y12767620D01*
X26989523Y12767620D01*
X20938142Y9835334D02*
X20985761Y9787715D01*
X21033380Y9644858D01*
X21033380Y9549620D01*
X20985761Y9406762D01*
X20890523Y9311524D01*
X20795285Y9263905D01*
X20604809Y9216286D01*
X20461952Y9216286D01*
X20271476Y9263905D01*
X20176238Y9311524D01*
X20081000Y9406762D01*
X20033380Y9549620D01*
X20033380Y9644858D01*
X20081000Y9787715D01*
X20128619Y9835334D01*
X20033380Y10168667D02*
X20033380Y10787715D01*
X20414333Y10454381D01*
X20414333Y10597239D01*
X20461952Y10692477D01*
X20509571Y10740096D01*
X20604809Y10787715D01*
X20842904Y10787715D01*
X20938142Y10740096D01*
X20985761Y10692477D01*
X21033380Y10597239D01*
X21033380Y10311524D01*
X20985761Y10216286D01*
X20938142Y10168667D01*
X36051142Y9835334D02*
X36098761Y9787715D01*
X36146380Y9644858D01*
X36146380Y9549620D01*
X36098761Y9406762D01*
X36003523Y9311524D01*
X35908285Y9263905D01*
X35717809Y9216286D01*
X35574952Y9216286D01*
X35384476Y9263905D01*
X35289238Y9311524D01*
X35194000Y9406762D01*
X35146380Y9549620D01*
X35146380Y9644858D01*
X35194000Y9787715D01*
X35241619Y9835334D01*
X35241619Y10216286D02*
X35194000Y10263905D01*
X35146380Y10359143D01*
X35146380Y10597239D01*
X35194000Y10692477D01*
X35241619Y10740096D01*
X35336857Y10787715D01*
X35432095Y10787715D01*
X35574952Y10740096D01*
X36146380Y10168667D01*
X36146380Y10787715D01*
X41918095Y13667620D02*
X41918095Y12858096D01*
X41965714Y12762858D01*
X42013333Y12715239D01*
X42108571Y12667620D01*
X42299047Y12667620D01*
X42394285Y12715239D01*
X42441904Y12762858D01*
X42489523Y12858096D01*
X42489523Y13667620D01*
X43489523Y12667620D02*
X42918095Y12667620D01*
X43203809Y12667620D02*
X43203809Y13667620D01*
X43108571Y13524762D01*
X43013333Y13429524D01*
X42918095Y13381905D01*
X17858380Y8692334D02*
X17382190Y8359000D01*
X17858380Y8120905D02*
X16858380Y8120905D01*
X16858380Y8501858D01*
X16906000Y8597096D01*
X16953619Y8644715D01*
X17048857Y8692334D01*
X17191714Y8692334D01*
X17286952Y8644715D01*
X17334571Y8597096D01*
X17382190Y8501858D01*
X17382190Y8120905D01*
X17858380Y9644715D02*
X17858380Y9073286D01*
X17858380Y9359000D02*
X16858380Y9359000D01*
X17001238Y9263762D01*
X17096476Y9168524D01*
X17144095Y9073286D01*
X11159142Y11867334D02*
X11206761Y11819715D01*
X11254380Y11676858D01*
X11254380Y11581620D01*
X11206761Y11438762D01*
X11111523Y11343524D01*
X11016285Y11295905D01*
X10825809Y11248286D01*
X10682952Y11248286D01*
X10492476Y11295905D01*
X10397238Y11343524D01*
X10302000Y11438762D01*
X10254380Y11581620D01*
X10254380Y11676858D01*
X10302000Y11819715D01*
X10349619Y11867334D01*
X11254380Y12819715D02*
X11254380Y12248286D01*
X11254380Y12534000D02*
X10254380Y12534000D01*
X10397238Y12438762D01*
X10492476Y12343524D01*
X10540095Y12248286D01*
X2032380Y14786667D02*
X2746666Y14786667D01*
X2889523Y14739048D01*
X2984761Y14643810D01*
X3032380Y14500953D01*
X3032380Y14405715D01*
X2365714Y15691429D02*
X3032380Y15691429D01*
X1984761Y15453334D02*
X2699047Y15215239D01*
X2699047Y15834286D01*
X1932380Y9686667D02*
X2646666Y9686667D01*
X2789523Y9639048D01*
X2884761Y9543810D01*
X2932380Y9400953D01*
X2932380Y9305715D01*
X1932380Y10067620D02*
X1932380Y10686667D01*
X2313333Y10353334D01*
X2313333Y10496191D01*
X2360952Y10591429D01*
X2408571Y10639048D01*
X2503809Y10686667D01*
X2741904Y10686667D01*
X2837142Y10639048D01*
X2884761Y10591429D01*
X2932380Y10496191D01*
X2932380Y10210477D01*
X2884761Y10115239D01*
X2837142Y10067620D01*
X2032380Y12986667D02*
X2746666Y12986667D01*
X2889523Y12939048D01*
X2984761Y12843810D01*
X3032380Y12700953D01*
X3032380Y12605715D01*
X2127619Y13415239D02*
X2080000Y13462858D01*
X2032380Y13558096D01*
X2032380Y13796191D01*
X2080000Y13891429D01*
X2127619Y13939048D01*
X2222857Y13986667D01*
X2318095Y13986667D01*
X2460952Y13939048D01*
X3032380Y13367620D01*
X3032380Y13986667D01*
X1932380Y7886667D02*
X2646666Y7886667D01*
X2789523Y7839048D01*
X2884761Y7743810D01*
X2932380Y7600953D01*
X2932380Y7505715D01*
X2932380Y8886667D02*
X2932380Y8315239D01*
X2932380Y8600953D02*
X1932380Y8600953D01*
X2075238Y8505715D01*
X2170476Y8410477D01*
X2218095Y8315239D01*
%LPC*%
D13*
X15110000Y13130000D03*
X15110000Y11150000D03*
D14*
X22562200Y14988000D03*
X23832200Y14988000D03*
X25102200Y14988000D03*
X26372200Y14988000D03*
X27642200Y14988000D03*
X28912200Y14988000D03*
X30182200Y14988000D03*
X30182200Y9588000D03*
X28912200Y9588000D03*
X27642200Y9588000D03*
X26372200Y9588000D03*
X25102200Y9588000D03*
X23832200Y9588000D03*
X22562200Y9588000D03*
D11*
G36*
X21136104Y12985098D02*
G01*
X21162352Y12981204D01*
X21188093Y12974757D01*
X21213078Y12965817D01*
X21237066Y12954472D01*
X21259826Y12940829D01*
X21281140Y12925022D01*
X21300802Y12907202D01*
X21318622Y12887540D01*
X21334429Y12866226D01*
X21348072Y12843466D01*
X21359417Y12819478D01*
X21368357Y12794493D01*
X21374804Y12768752D01*
X21378698Y12742504D01*
X21380000Y12716000D01*
X21380000Y11904800D01*
X21378698Y11878296D01*
X21374804Y11852048D01*
X21368357Y11826307D01*
X21359417Y11801322D01*
X21348072Y11777334D01*
X21334429Y11754574D01*
X21318622Y11733260D01*
X21300802Y11713598D01*
X21281140Y11695778D01*
X21259826Y11679971D01*
X21237066Y11666328D01*
X21213078Y11654983D01*
X21188093Y11646043D01*
X21162352Y11639596D01*
X21136104Y11635702D01*
X21109600Y11634400D01*
X19798400Y11634400D01*
X19771896Y11635702D01*
X19745648Y11639596D01*
X19719907Y11646043D01*
X19694922Y11654983D01*
X19670934Y11666328D01*
X19648174Y11679971D01*
X19626860Y11695778D01*
X19607198Y11713598D01*
X19589378Y11733260D01*
X19573571Y11754574D01*
X19559928Y11777334D01*
X19548583Y11801322D01*
X19539643Y11826307D01*
X19533196Y11852048D01*
X19529302Y11878296D01*
X19528000Y11904800D01*
X19528000Y12716000D01*
X19529302Y12742504D01*
X19533196Y12768752D01*
X19539643Y12794493D01*
X19548583Y12819478D01*
X19559928Y12843466D01*
X19573571Y12866226D01*
X19589378Y12887540D01*
X19607198Y12907202D01*
X19626860Y12925022D01*
X19648174Y12940829D01*
X19670934Y12954472D01*
X19694922Y12965817D01*
X19719907Y12974757D01*
X19745648Y12981204D01*
X19771896Y12985098D01*
X19798400Y12986400D01*
X21109600Y12986400D01*
X21136104Y12985098D01*
X21136104Y12985098D01*
G37*
D15*
X20454000Y12310400D03*
D11*
G36*
X21136104Y15785098D02*
G01*
X21162352Y15781204D01*
X21188093Y15774757D01*
X21213078Y15765817D01*
X21237066Y15754472D01*
X21259826Y15740829D01*
X21281140Y15725022D01*
X21300802Y15707202D01*
X21318622Y15687540D01*
X21334429Y15666226D01*
X21348072Y15643466D01*
X21359417Y15619478D01*
X21368357Y15594493D01*
X21374804Y15568752D01*
X21378698Y15542504D01*
X21380000Y15516000D01*
X21380000Y14704800D01*
X21378698Y14678296D01*
X21374804Y14652048D01*
X21368357Y14626307D01*
X21359417Y14601322D01*
X21348072Y14577334D01*
X21334429Y14554574D01*
X21318622Y14533260D01*
X21300802Y14513598D01*
X21281140Y14495778D01*
X21259826Y14479971D01*
X21237066Y14466328D01*
X21213078Y14454983D01*
X21188093Y14446043D01*
X21162352Y14439596D01*
X21136104Y14435702D01*
X21109600Y14434400D01*
X19798400Y14434400D01*
X19771896Y14435702D01*
X19745648Y14439596D01*
X19719907Y14446043D01*
X19694922Y14454983D01*
X19670934Y14466328D01*
X19648174Y14479971D01*
X19626860Y14495778D01*
X19607198Y14513598D01*
X19589378Y14533260D01*
X19573571Y14554574D01*
X19559928Y14577334D01*
X19548583Y14601322D01*
X19539643Y14626307D01*
X19533196Y14652048D01*
X19529302Y14678296D01*
X19528000Y14704800D01*
X19528000Y15516000D01*
X19529302Y15542504D01*
X19533196Y15568752D01*
X19539643Y15594493D01*
X19548583Y15619478D01*
X19559928Y15643466D01*
X19573571Y15666226D01*
X19589378Y15687540D01*
X19607198Y15707202D01*
X19626860Y15725022D01*
X19648174Y15740829D01*
X19670934Y15754472D01*
X19694922Y15765817D01*
X19719907Y15774757D01*
X19745648Y15781204D01*
X19771896Y15785098D01*
X19798400Y15786400D01*
X21109600Y15786400D01*
X21136104Y15785098D01*
X21136104Y15785098D01*
G37*
D15*
X20454000Y15110400D03*
D11*
G36*
X36299904Y13010498D02*
G01*
X36326152Y13006604D01*
X36351893Y13000157D01*
X36376878Y12991217D01*
X36400866Y12979872D01*
X36423626Y12966229D01*
X36444940Y12950422D01*
X36464602Y12932602D01*
X36482422Y12912940D01*
X36498229Y12891626D01*
X36511872Y12868866D01*
X36523217Y12844878D01*
X36532157Y12819893D01*
X36538604Y12794152D01*
X36542498Y12767904D01*
X36543800Y12741400D01*
X36543800Y11930200D01*
X36542498Y11903696D01*
X36538604Y11877448D01*
X36532157Y11851707D01*
X36523217Y11826722D01*
X36511872Y11802734D01*
X36498229Y11779974D01*
X36482422Y11758660D01*
X36464602Y11738998D01*
X36444940Y11721178D01*
X36423626Y11705371D01*
X36400866Y11691728D01*
X36376878Y11680383D01*
X36351893Y11671443D01*
X36326152Y11664996D01*
X36299904Y11661102D01*
X36273400Y11659800D01*
X34962200Y11659800D01*
X34935696Y11661102D01*
X34909448Y11664996D01*
X34883707Y11671443D01*
X34858722Y11680383D01*
X34834734Y11691728D01*
X34811974Y11705371D01*
X34790660Y11721178D01*
X34770998Y11738998D01*
X34753178Y11758660D01*
X34737371Y11779974D01*
X34723728Y11802734D01*
X34712383Y11826722D01*
X34703443Y11851707D01*
X34696996Y11877448D01*
X34693102Y11903696D01*
X34691800Y11930200D01*
X34691800Y12741400D01*
X34693102Y12767904D01*
X34696996Y12794152D01*
X34703443Y12819893D01*
X34712383Y12844878D01*
X34723728Y12868866D01*
X34737371Y12891626D01*
X34753178Y12912940D01*
X34770998Y12932602D01*
X34790660Y12950422D01*
X34811974Y12966229D01*
X34834734Y12979872D01*
X34858722Y12991217D01*
X34883707Y13000157D01*
X34909448Y13006604D01*
X34935696Y13010498D01*
X34962200Y13011800D01*
X36273400Y13011800D01*
X36299904Y13010498D01*
X36299904Y13010498D01*
G37*
D15*
X35617800Y12335800D03*
D11*
G36*
X36299904Y15810498D02*
G01*
X36326152Y15806604D01*
X36351893Y15800157D01*
X36376878Y15791217D01*
X36400866Y15779872D01*
X36423626Y15766229D01*
X36444940Y15750422D01*
X36464602Y15732602D01*
X36482422Y15712940D01*
X36498229Y15691626D01*
X36511872Y15668866D01*
X36523217Y15644878D01*
X36532157Y15619893D01*
X36538604Y15594152D01*
X36542498Y15567904D01*
X36543800Y15541400D01*
X36543800Y14730200D01*
X36542498Y14703696D01*
X36538604Y14677448D01*
X36532157Y14651707D01*
X36523217Y14626722D01*
X36511872Y14602734D01*
X36498229Y14579974D01*
X36482422Y14558660D01*
X36464602Y14538998D01*
X36444940Y14521178D01*
X36423626Y14505371D01*
X36400866Y14491728D01*
X36376878Y14480383D01*
X36351893Y14471443D01*
X36326152Y14464996D01*
X36299904Y14461102D01*
X36273400Y14459800D01*
X34962200Y14459800D01*
X34935696Y14461102D01*
X34909448Y14464996D01*
X34883707Y14471443D01*
X34858722Y14480383D01*
X34834734Y14491728D01*
X34811974Y14505371D01*
X34790660Y14521178D01*
X34770998Y14538998D01*
X34753178Y14558660D01*
X34737371Y14579974D01*
X34723728Y14602734D01*
X34712383Y14626722D01*
X34703443Y14651707D01*
X34696996Y14677448D01*
X34693102Y14703696D01*
X34691800Y14730200D01*
X34691800Y15541400D01*
X34693102Y15567904D01*
X34696996Y15594152D01*
X34703443Y15619893D01*
X34712383Y15644878D01*
X34723728Y15668866D01*
X34737371Y15691626D01*
X34753178Y15712940D01*
X34770998Y15732602D01*
X34790660Y15750422D01*
X34811974Y15766229D01*
X34834734Y15779872D01*
X34858722Y15791217D01*
X34883707Y15800157D01*
X34909448Y15806604D01*
X34935696Y15810498D01*
X34962200Y15811800D01*
X36273400Y15811800D01*
X36299904Y15810498D01*
X36299904Y15810498D01*
G37*
D15*
X35617800Y15135800D03*
D14*
X37675200Y15013400D03*
X38945200Y15013400D03*
X40215200Y15013400D03*
X41485200Y15013400D03*
X42755200Y15013400D03*
X44025200Y15013400D03*
X45295200Y15013400D03*
X46565200Y15013400D03*
X46565200Y9613400D03*
X45295200Y9613400D03*
X44025200Y9613400D03*
X42755200Y9613400D03*
X41485200Y9613400D03*
X40215200Y9613400D03*
X38945200Y9613400D03*
X37675200Y9613400D03*
D11*
G36*
X18062704Y11232498D02*
G01*
X18088952Y11228604D01*
X18114693Y11222157D01*
X18139678Y11213217D01*
X18163666Y11201872D01*
X18186426Y11188229D01*
X18207740Y11172422D01*
X18227402Y11154602D01*
X18245222Y11134940D01*
X18261029Y11113626D01*
X18274672Y11090866D01*
X18286017Y11066878D01*
X18294957Y11041893D01*
X18301404Y11016152D01*
X18305298Y10989904D01*
X18306600Y10963400D01*
X18306600Y10152200D01*
X18305298Y10125696D01*
X18301404Y10099448D01*
X18294957Y10073707D01*
X18286017Y10048722D01*
X18274672Y10024734D01*
X18261029Y10001974D01*
X18245222Y9980660D01*
X18227402Y9960998D01*
X18207740Y9943178D01*
X18186426Y9927371D01*
X18163666Y9913728D01*
X18139678Y9902383D01*
X18114693Y9893443D01*
X18088952Y9886996D01*
X18062704Y9883102D01*
X18036200Y9881800D01*
X16725000Y9881800D01*
X16698496Y9883102D01*
X16672248Y9886996D01*
X16646507Y9893443D01*
X16621522Y9902383D01*
X16597534Y9913728D01*
X16574774Y9927371D01*
X16553460Y9943178D01*
X16533798Y9960998D01*
X16515978Y9980660D01*
X16500171Y10001974D01*
X16486528Y10024734D01*
X16475183Y10048722D01*
X16466243Y10073707D01*
X16459796Y10099448D01*
X16455902Y10125696D01*
X16454600Y10152200D01*
X16454600Y10963400D01*
X16455902Y10989904D01*
X16459796Y11016152D01*
X16466243Y11041893D01*
X16475183Y11066878D01*
X16486528Y11090866D01*
X16500171Y11113626D01*
X16515978Y11134940D01*
X16533798Y11154602D01*
X16553460Y11172422D01*
X16574774Y11188229D01*
X16597534Y11201872D01*
X16621522Y11213217D01*
X16646507Y11222157D01*
X16672248Y11228604D01*
X16698496Y11232498D01*
X16725000Y11233800D01*
X18036200Y11233800D01*
X18062704Y11232498D01*
X18062704Y11232498D01*
G37*
D15*
X17380600Y10557800D03*
D11*
G36*
X18062704Y14032498D02*
G01*
X18088952Y14028604D01*
X18114693Y14022157D01*
X18139678Y14013217D01*
X18163666Y14001872D01*
X18186426Y13988229D01*
X18207740Y13972422D01*
X18227402Y13954602D01*
X18245222Y13934940D01*
X18261029Y13913626D01*
X18274672Y13890866D01*
X18286017Y13866878D01*
X18294957Y13841893D01*
X18301404Y13816152D01*
X18305298Y13789904D01*
X18306600Y13763400D01*
X18306600Y12952200D01*
X18305298Y12925696D01*
X18301404Y12899448D01*
X18294957Y12873707D01*
X18286017Y12848722D01*
X18274672Y12824734D01*
X18261029Y12801974D01*
X18245222Y12780660D01*
X18227402Y12760998D01*
X18207740Y12743178D01*
X18186426Y12727371D01*
X18163666Y12713728D01*
X18139678Y12702383D01*
X18114693Y12693443D01*
X18088952Y12686996D01*
X18062704Y12683102D01*
X18036200Y12681800D01*
X16725000Y12681800D01*
X16698496Y12683102D01*
X16672248Y12686996D01*
X16646507Y12693443D01*
X16621522Y12702383D01*
X16597534Y12713728D01*
X16574774Y12727371D01*
X16553460Y12743178D01*
X16533798Y12760998D01*
X16515978Y12780660D01*
X16500171Y12801974D01*
X16486528Y12824734D01*
X16475183Y12848722D01*
X16466243Y12873707D01*
X16459796Y12899448D01*
X16455902Y12925696D01*
X16454600Y12952200D01*
X16454600Y13763400D01*
X16455902Y13789904D01*
X16459796Y13816152D01*
X16466243Y13841893D01*
X16475183Y13866878D01*
X16486528Y13890866D01*
X16500171Y13913626D01*
X16515978Y13934940D01*
X16533798Y13954602D01*
X16553460Y13972422D01*
X16574774Y13988229D01*
X16597534Y14001872D01*
X16621522Y14013217D01*
X16646507Y14022157D01*
X16672248Y14028604D01*
X16698496Y14032498D01*
X16725000Y14033800D01*
X18036200Y14033800D01*
X18062704Y14032498D01*
X18062704Y14032498D01*
G37*
D15*
X17380600Y13357800D03*
D11*
G36*
X13439904Y11257898D02*
G01*
X13466152Y11254004D01*
X13491893Y11247557D01*
X13516878Y11238617D01*
X13540866Y11227272D01*
X13563626Y11213629D01*
X13584940Y11197822D01*
X13604602Y11180002D01*
X13622422Y11160340D01*
X13638229Y11139026D01*
X13651872Y11116266D01*
X13663217Y11092278D01*
X13672157Y11067293D01*
X13678604Y11041552D01*
X13682498Y11015304D01*
X13683800Y10988800D01*
X13683800Y10177600D01*
X13682498Y10151096D01*
X13678604Y10124848D01*
X13672157Y10099107D01*
X13663217Y10074122D01*
X13651872Y10050134D01*
X13638229Y10027374D01*
X13622422Y10006060D01*
X13604602Y9986398D01*
X13584940Y9968578D01*
X13563626Y9952771D01*
X13540866Y9939128D01*
X13516878Y9927783D01*
X13491893Y9918843D01*
X13466152Y9912396D01*
X13439904Y9908502D01*
X13413400Y9907200D01*
X12102200Y9907200D01*
X12075696Y9908502D01*
X12049448Y9912396D01*
X12023707Y9918843D01*
X11998722Y9927783D01*
X11974734Y9939128D01*
X11951974Y9952771D01*
X11930660Y9968578D01*
X11910998Y9986398D01*
X11893178Y10006060D01*
X11877371Y10027374D01*
X11863728Y10050134D01*
X11852383Y10074122D01*
X11843443Y10099107D01*
X11836996Y10124848D01*
X11833102Y10151096D01*
X11831800Y10177600D01*
X11831800Y10988800D01*
X11833102Y11015304D01*
X11836996Y11041552D01*
X11843443Y11067293D01*
X11852383Y11092278D01*
X11863728Y11116266D01*
X11877371Y11139026D01*
X11893178Y11160340D01*
X11910998Y11180002D01*
X11930660Y11197822D01*
X11951974Y11213629D01*
X11974734Y11227272D01*
X11998722Y11238617D01*
X12023707Y11247557D01*
X12049448Y11254004D01*
X12075696Y11257898D01*
X12102200Y11259200D01*
X13413400Y11259200D01*
X13439904Y11257898D01*
X13439904Y11257898D01*
G37*
D15*
X12757800Y10583200D03*
D11*
G36*
X13439904Y14057898D02*
G01*
X13466152Y14054004D01*
X13491893Y14047557D01*
X13516878Y14038617D01*
X13540866Y14027272D01*
X13563626Y14013629D01*
X13584940Y13997822D01*
X13604602Y13980002D01*
X13622422Y13960340D01*
X13638229Y13939026D01*
X13651872Y13916266D01*
X13663217Y13892278D01*
X13672157Y13867293D01*
X13678604Y13841552D01*
X13682498Y13815304D01*
X13683800Y13788800D01*
X13683800Y12977600D01*
X13682498Y12951096D01*
X13678604Y12924848D01*
X13672157Y12899107D01*
X13663217Y12874122D01*
X13651872Y12850134D01*
X13638229Y12827374D01*
X13622422Y12806060D01*
X13604602Y12786398D01*
X13584940Y12768578D01*
X13563626Y12752771D01*
X13540866Y12739128D01*
X13516878Y12727783D01*
X13491893Y12718843D01*
X13466152Y12712396D01*
X13439904Y12708502D01*
X13413400Y12707200D01*
X12102200Y12707200D01*
X12075696Y12708502D01*
X12049448Y12712396D01*
X12023707Y12718843D01*
X11998722Y12727783D01*
X11974734Y12739128D01*
X11951974Y12752771D01*
X11930660Y12768578D01*
X11910998Y12786398D01*
X11893178Y12806060D01*
X11877371Y12827374D01*
X11863728Y12850134D01*
X11852383Y12874122D01*
X11843443Y12899107D01*
X11836996Y12924848D01*
X11833102Y12951096D01*
X11831800Y12977600D01*
X11831800Y13788800D01*
X11833102Y13815304D01*
X11836996Y13841552D01*
X11843443Y13867293D01*
X11852383Y13892278D01*
X11863728Y13916266D01*
X11877371Y13939026D01*
X11893178Y13960340D01*
X11910998Y13980002D01*
X11930660Y13997822D01*
X11951974Y14013629D01*
X11974734Y14027272D01*
X11998722Y14038617D01*
X12023707Y14047557D01*
X12049448Y14054004D01*
X12075696Y14057898D01*
X12102200Y14059200D01*
X13413400Y14059200D01*
X13439904Y14057898D01*
X13439904Y14057898D01*
G37*
D15*
X12757800Y13383200D03*
D16*
X50800000Y21137600D03*
X48260000Y21137600D03*
X45720000Y21137600D03*
X43180000Y21137600D03*
X40640000Y21137600D03*
X38100000Y21137600D03*
X35560000Y21137600D03*
X33020000Y21137600D03*
X30480000Y21137600D03*
X27940000Y21137600D03*
X25400000Y21137600D03*
X22860000Y21137600D03*
X20320000Y21137600D03*
X17780000Y21137600D03*
X15240000Y21137600D03*
X12700000Y21137600D03*
X10160000Y21137600D03*
X7620000Y21137600D03*
X5080000Y21137600D03*
D17*
X2540000Y21137600D03*
D16*
X50800000Y5897600D03*
X48260000Y5897600D03*
X45720000Y5897600D03*
X43180000Y5897600D03*
X40640000Y5897600D03*
X38100000Y5897600D03*
X35560000Y5897600D03*
X33020000Y5897600D03*
X30480000Y5897600D03*
X27940000Y5897600D03*
X25400000Y5897600D03*
X22860000Y5897600D03*
X20320000Y5897600D03*
X17780000Y5897600D03*
X15240000Y5897600D03*
X12700000Y5897600D03*
X10160000Y5897600D03*
X7620000Y5897600D03*
X5080000Y5897600D03*
D17*
X2540000Y5897600D03*
D16*
X50800000Y17480000D03*
X48260000Y17480000D03*
X45720000Y17480000D03*
X43180000Y17480000D03*
X40640000Y17480000D03*
X38100000Y17480000D03*
X35560000Y17480000D03*
X33020000Y17480000D03*
X30480000Y17480000D03*
X27940000Y17480000D03*
X25400000Y17480000D03*
X22860000Y17480000D03*
X20320000Y17480000D03*
X17780000Y17480000D03*
X15240000Y17480000D03*
X12700000Y17480000D03*
X10160000Y17480000D03*
X7620000Y17480000D03*
X5080000Y17480000D03*
D17*
X2540000Y17480000D03*
D16*
X50800000Y2240000D03*
X48260000Y2240000D03*
X45720000Y2240000D03*
X43180000Y2240000D03*
X40640000Y2240000D03*
X38100000Y2240000D03*
X35560000Y2240000D03*
X33020000Y2240000D03*
X30480000Y2240000D03*
X27940000Y2240000D03*
X25400000Y2240000D03*
X22860000Y2240000D03*
X20320000Y2240000D03*
X17780000Y2240000D03*
X15240000Y2240000D03*
X12700000Y2240000D03*
X10160000Y2240000D03*
X7620000Y2240000D03*
X5080000Y2240000D03*
D17*
X2540000Y2240000D03*
M02*
