M48
; DRILL file {KiCad (5.1.0)-1} date 17.01.2021 14:15:09
; FORMAT={-:-/ absolute / inch / decimal}
; #@! TF.CreationDate,2021-01-17T14:15:09+01:00
; #@! TF.GenerationSoftware,Kicad,Pcbnew,(5.1.0)-1
; #@! TF.FileFunction,Plated,1,2,PTH
FMAT,2
INCH
T1C0.0157
T2C0.0394
%
G90
G05
T1
X0.0976Y0.5835
X0.0976Y0.485
X0.0976Y0.3866
X0.2157Y0.5835
X0.2157Y0.485
X0.2157Y0.3866
X0.3339Y0.5835
X0.3339Y0.485
X0.3339Y0.3866
X0.5898Y0.3472
X0.676Y0.5969
X0.7194Y0.5968
X0.7866Y0.3472
X0.8803Y0.4858
X0.951Y0.739
X0.9723Y0.4858
X1.039Y0.532
X1.1253Y0.4538
X1.241Y0.597
X1.2591Y0.426
X1.2591Y0.3472
X1.275Y0.597
X1.3969Y0.3472
X1.5353Y0.4738
X1.6567Y0.4949
X1.682Y0.439
X1.763Y0.449
X1.889Y0.5953
X1.895Y0.3392
X1.9677Y0.6031
X1.9677Y0.5047
X2.0465Y0.6031
X2.0465Y0.5047
X2.0465Y0.426
T2
X0.1Y0.193
X0.2Y0.193
X0.3Y0.193
X0.4Y0.193
X0.5Y0.193
X0.6Y0.193
X0.7Y0.193
X0.8Y0.193
X0.9Y0.193
X1.0Y0.193
X1.1Y0.193
X1.2Y0.193
X1.3Y0.193
X1.4Y0.193
X1.5Y0.193
X1.6Y0.193
X1.7Y0.193
X1.8Y0.193
X1.9Y0.193
X2.0Y0.193
X0.1Y0.6882
X0.2Y0.6882
X0.3Y0.6882
X0.4Y0.6882
X0.5Y0.6882
X0.6Y0.6882
X0.7Y0.6882
X0.8Y0.6882
X0.9Y0.6882
X1.0Y0.6882
X1.1Y0.6882
X1.2Y0.6882
X1.3Y0.6882
X1.4Y0.6882
X1.5Y0.6882
X1.6Y0.6882
X1.7Y0.6882
X1.8Y0.6882
X1.9Y0.6882
X2.0Y0.6882
X0.1Y0.793
X0.2Y0.793
X0.3Y0.793
X0.4Y0.793
X0.5Y0.793
X0.6Y0.793
X0.7Y0.793
X0.8Y0.793
X0.9Y0.793
X1.0Y0.793
X1.1Y0.793
X1.2Y0.793
X1.3Y0.793
X1.4Y0.793
X1.5Y0.793
X1.6Y0.793
X1.7Y0.793
X1.8Y0.793
X1.9Y0.793
X2.0Y0.793
X0.1Y0.0882
X0.2Y0.0882
X0.3Y0.0882
X0.4Y0.0882
X0.5Y0.0882
X0.6Y0.0882
X0.7Y0.0882
X0.8Y0.0882
X0.9Y0.0882
X1.0Y0.0882
X1.1Y0.0882
X1.2Y0.0882
X1.3Y0.0882
X1.4Y0.0882
X1.5Y0.0882
X1.6Y0.0882
X1.7Y0.0882
X1.8Y0.0882
X1.9Y0.0882
X2.0Y0.0882
T0
M30
