G04 #@! TF.GenerationSoftware,KiCad,Pcbnew,(5.1.0)-1*
G04 #@! TF.CreationDate,2019-10-20T16:55:30+02:00*
G04 #@! TF.ProjectId,GTIA Fix,47544941-2046-4697-982e-6b696361645f,rev?*
G04 #@! TF.SameCoordinates,PX989b620PY8062360*
G04 #@! TF.FileFunction,Legend,Bot*
G04 #@! TF.FilePolarity,Positive*
%FSLAX46Y46*%
G04 Gerber Fmt 4.6, Leading zero omitted, Abs format (unit mm)*
G04 Created by KiCad (PCBNEW (5.1.0)-1) date 2019-10-20 16:55:30*
%MOMM*%
%LPD*%
G04 APERTURE LIST*
%ADD10C,0.150000*%
%ADD11O,1.802000X1.802000*%
%ADD12R,1.802000X1.802000*%
G04 APERTURE END LIST*
D10*
X36169095Y10274334D02*
X35692904Y10274334D01*
X36264333Y9988620D02*
X35931000Y10988620D01*
X35597666Y9988620D01*
X35407190Y10655286D02*
X35026238Y10655286D01*
X35264333Y10988620D02*
X35264333Y10131477D01*
X35216714Y10036239D01*
X35121476Y9988620D01*
X35026238Y9988620D01*
X34264333Y9988620D02*
X34264333Y10512429D01*
X34311952Y10607667D01*
X34407190Y10655286D01*
X34597666Y10655286D01*
X34692904Y10607667D01*
X34264333Y10036239D02*
X34359571Y9988620D01*
X34597666Y9988620D01*
X34692904Y10036239D01*
X34740523Y10131477D01*
X34740523Y10226715D01*
X34692904Y10321953D01*
X34597666Y10369572D01*
X34359571Y10369572D01*
X34264333Y10417191D01*
X33788142Y9988620D02*
X33788142Y10655286D01*
X33788142Y10464810D02*
X33740523Y10560048D01*
X33692904Y10607667D01*
X33597666Y10655286D01*
X33502428Y10655286D01*
X33169095Y9988620D02*
X33169095Y10655286D01*
X33169095Y10988620D02*
X33216714Y10941000D01*
X33169095Y10893381D01*
X33121476Y10941000D01*
X33169095Y10988620D01*
X33169095Y10893381D01*
X31502428Y10988620D02*
X31692904Y10988620D01*
X31788142Y10941000D01*
X31835761Y10893381D01*
X31931000Y10750524D01*
X31978619Y10560048D01*
X31978619Y10179096D01*
X31931000Y10083858D01*
X31883380Y10036239D01*
X31788142Y9988620D01*
X31597666Y9988620D01*
X31502428Y10036239D01*
X31454809Y10083858D01*
X31407190Y10179096D01*
X31407190Y10417191D01*
X31454809Y10512429D01*
X31502428Y10560048D01*
X31597666Y10607667D01*
X31788142Y10607667D01*
X31883380Y10560048D01*
X31931000Y10512429D01*
X31978619Y10417191D01*
X30502428Y10988620D02*
X30978619Y10988620D01*
X31026238Y10512429D01*
X30978619Y10560048D01*
X30883380Y10607667D01*
X30645285Y10607667D01*
X30550047Y10560048D01*
X30502428Y10512429D01*
X30454809Y10417191D01*
X30454809Y10179096D01*
X30502428Y10083858D01*
X30550047Y10036239D01*
X30645285Y9988620D01*
X30883380Y9988620D01*
X30978619Y10036239D01*
X31026238Y10083858D01*
X29311952Y11036239D02*
X30169095Y9750524D01*
X28454809Y9988620D02*
X29026238Y9988620D01*
X28740523Y9988620D02*
X28740523Y10988620D01*
X28835761Y10845762D01*
X28931000Y10750524D01*
X29026238Y10702905D01*
X28121476Y10988620D02*
X27502428Y10988620D01*
X27835761Y10607667D01*
X27692904Y10607667D01*
X27597666Y10560048D01*
X27550047Y10512429D01*
X27502428Y10417191D01*
X27502428Y10179096D01*
X27550047Y10083858D01*
X27597666Y10036239D01*
X27692904Y9988620D01*
X27978619Y9988620D01*
X28073857Y10036239D01*
X28121476Y10083858D01*
X26883380Y10988620D02*
X26788142Y10988620D01*
X26692904Y10941000D01*
X26645285Y10893381D01*
X26597666Y10798143D01*
X26550047Y10607667D01*
X26550047Y10369572D01*
X26597666Y10179096D01*
X26645285Y10083858D01*
X26692904Y10036239D01*
X26788142Y9988620D01*
X26883380Y9988620D01*
X26978619Y10036239D01*
X27026238Y10083858D01*
X27073857Y10179096D01*
X27121476Y10369572D01*
X27121476Y10607667D01*
X27073857Y10798143D01*
X27026238Y10893381D01*
X26978619Y10941000D01*
X26883380Y10988620D01*
X25454809Y10988620D02*
X24788142Y9988620D01*
X24788142Y10988620D02*
X25454809Y9988620D01*
X24407190Y10512429D02*
X24073857Y10512429D01*
X23931000Y9988620D02*
X24407190Y9988620D01*
X24407190Y10988620D01*
X23931000Y10988620D01*
X22216714Y10941000D02*
X22311952Y10988620D01*
X22454809Y10988620D01*
X22597666Y10941000D01*
X22692904Y10845762D01*
X22740523Y10750524D01*
X22788142Y10560048D01*
X22788142Y10417191D01*
X22740523Y10226715D01*
X22692904Y10131477D01*
X22597666Y10036239D01*
X22454809Y9988620D01*
X22359571Y9988620D01*
X22216714Y10036239D01*
X22169095Y10083858D01*
X22169095Y10417191D01*
X22359571Y10417191D01*
X21883380Y10988620D02*
X21311952Y10988620D01*
X21597666Y9988620D02*
X21597666Y10988620D01*
X20978619Y9988620D02*
X20978619Y10988620D01*
X20550047Y10274334D02*
X20073857Y10274334D01*
X20645285Y9988620D02*
X20311952Y10988620D01*
X19978619Y9988620D01*
X18550047Y10512429D02*
X18883380Y10512429D01*
X18883380Y9988620D02*
X18883380Y10988620D01*
X18407190Y10988620D01*
X18026238Y9988620D02*
X18026238Y10655286D01*
X18026238Y10988620D02*
X18073857Y10941000D01*
X18026238Y10893381D01*
X17978619Y10941000D01*
X18026238Y10988620D01*
X18026238Y10893381D01*
X17645285Y9988620D02*
X17121476Y10655286D01*
X17645285Y10655286D02*
X17121476Y9988620D01*
X16359571Y10036239D02*
X16454809Y9988620D01*
X16645285Y9988620D01*
X16740523Y10036239D01*
X16788142Y10131477D01*
X16788142Y10512429D01*
X16740523Y10607667D01*
X16645285Y10655286D01*
X16454809Y10655286D01*
X16359571Y10607667D01*
X16311952Y10512429D01*
X16311952Y10417191D01*
X16788142Y10321953D01*
X15883380Y9988620D02*
X15883380Y10655286D01*
X15883380Y10464810D02*
X15835761Y10560048D01*
X15788142Y10607667D01*
X15692904Y10655286D01*
X15597666Y10655286D01*
%LPC*%
D11*
X50800000Y21137600D03*
X48260000Y21137600D03*
X45720000Y21137600D03*
X43180000Y21137600D03*
X40640000Y21137600D03*
X38100000Y21137600D03*
X35560000Y21137600D03*
X33020000Y21137600D03*
X30480000Y21137600D03*
X27940000Y21137600D03*
X25400000Y21137600D03*
X22860000Y21137600D03*
X20320000Y21137600D03*
X17780000Y21137600D03*
X15240000Y21137600D03*
X12700000Y21137600D03*
X10160000Y21137600D03*
X7620000Y21137600D03*
X5080000Y21137600D03*
D12*
X2540000Y21137600D03*
D11*
X50800000Y5897600D03*
X48260000Y5897600D03*
X45720000Y5897600D03*
X43180000Y5897600D03*
X40640000Y5897600D03*
X38100000Y5897600D03*
X35560000Y5897600D03*
X33020000Y5897600D03*
X30480000Y5897600D03*
X27940000Y5897600D03*
X25400000Y5897600D03*
X22860000Y5897600D03*
X20320000Y5897600D03*
X17780000Y5897600D03*
X15240000Y5897600D03*
X12700000Y5897600D03*
X10160000Y5897600D03*
X7620000Y5897600D03*
X5080000Y5897600D03*
D12*
X2540000Y5897600D03*
D11*
X50800000Y17480000D03*
X48260000Y17480000D03*
X45720000Y17480000D03*
X43180000Y17480000D03*
X40640000Y17480000D03*
X38100000Y17480000D03*
X35560000Y17480000D03*
X33020000Y17480000D03*
X30480000Y17480000D03*
X27940000Y17480000D03*
X25400000Y17480000D03*
X22860000Y17480000D03*
X20320000Y17480000D03*
X17780000Y17480000D03*
X15240000Y17480000D03*
X12700000Y17480000D03*
X10160000Y17480000D03*
X7620000Y17480000D03*
X5080000Y17480000D03*
D12*
X2540000Y17480000D03*
D11*
X50800000Y2240000D03*
X48260000Y2240000D03*
X45720000Y2240000D03*
X43180000Y2240000D03*
X40640000Y2240000D03*
X38100000Y2240000D03*
X35560000Y2240000D03*
X33020000Y2240000D03*
X30480000Y2240000D03*
X27940000Y2240000D03*
X25400000Y2240000D03*
X22860000Y2240000D03*
X20320000Y2240000D03*
X17780000Y2240000D03*
X15240000Y2240000D03*
X12700000Y2240000D03*
X10160000Y2240000D03*
X7620000Y2240000D03*
X5080000Y2240000D03*
D12*
X2540000Y2240000D03*
M02*
