G04 #@! TF.GenerationSoftware,KiCad,Pcbnew,(5.1.0)-1*
G04 #@! TF.CreationDate,2019-10-20T16:55:30+02:00*
G04 #@! TF.ProjectId,GTIA Fix,47544941-2046-4697-982e-6b696361645f,rev?*
G04 #@! TF.SameCoordinates,PX989b620PY8062360*
G04 #@! TF.FileFunction,Copper,L2,Bot*
G04 #@! TF.FilePolarity,Positive*
%FSLAX46Y46*%
G04 Gerber Fmt 4.6, Leading zero omitted, Abs format (unit mm)*
G04 Created by KiCad (PCBNEW (5.1.0)-1) date 2019-10-20 16:55:30*
%MOMM*%
%LPD*%
G04 APERTURE LIST*
%ADD10O,1.700000X1.700000*%
%ADD11R,1.700000X1.700000*%
%ADD12C,0.800000*%
%ADD13C,0.406400*%
%ADD14C,0.304800*%
%ADD15C,0.812800*%
%ADD16C,0.254000*%
G04 APERTURE END LIST*
D10*
X50800000Y21137600D03*
X48260000Y21137600D03*
X45720000Y21137600D03*
X43180000Y21137600D03*
X40640000Y21137600D03*
X38100000Y21137600D03*
X35560000Y21137600D03*
X33020000Y21137600D03*
X30480000Y21137600D03*
X27940000Y21137600D03*
X25400000Y21137600D03*
X22860000Y21137600D03*
X20320000Y21137600D03*
X17780000Y21137600D03*
X15240000Y21137600D03*
X12700000Y21137600D03*
X10160000Y21137600D03*
X7620000Y21137600D03*
X5080000Y21137600D03*
D11*
X2540000Y21137600D03*
D10*
X50800000Y5897600D03*
X48260000Y5897600D03*
X45720000Y5897600D03*
X43180000Y5897600D03*
X40640000Y5897600D03*
X38100000Y5897600D03*
X35560000Y5897600D03*
X33020000Y5897600D03*
X30480000Y5897600D03*
X27940000Y5897600D03*
X25400000Y5897600D03*
X22860000Y5897600D03*
X20320000Y5897600D03*
X17780000Y5897600D03*
X15240000Y5897600D03*
X12700000Y5897600D03*
X10160000Y5897600D03*
X7620000Y5897600D03*
X5080000Y5897600D03*
D11*
X2540000Y5897600D03*
D10*
X50800000Y17480000D03*
X48260000Y17480000D03*
X45720000Y17480000D03*
X43180000Y17480000D03*
X40640000Y17480000D03*
X38100000Y17480000D03*
X35560000Y17480000D03*
X33020000Y17480000D03*
X30480000Y17480000D03*
X27940000Y17480000D03*
X25400000Y17480000D03*
X22860000Y17480000D03*
X20320000Y17480000D03*
X17780000Y17480000D03*
X15240000Y17480000D03*
X12700000Y17480000D03*
X10160000Y17480000D03*
X7620000Y17480000D03*
X5080000Y17480000D03*
D11*
X2540000Y17480000D03*
D10*
X50800000Y2240000D03*
X48260000Y2240000D03*
X45720000Y2240000D03*
X43180000Y2240000D03*
X40640000Y2240000D03*
X38100000Y2240000D03*
X35560000Y2240000D03*
X33020000Y2240000D03*
X30480000Y2240000D03*
X27940000Y2240000D03*
X25400000Y2240000D03*
X22860000Y2240000D03*
X20320000Y2240000D03*
X17780000Y2240000D03*
X15240000Y2240000D03*
X12700000Y2240000D03*
X10160000Y2240000D03*
X7620000Y2240000D03*
X5080000Y2240000D03*
D11*
X2540000Y2240000D03*
D12*
X38996000Y12034000D03*
X45727000Y11526000D03*
X24695800Y12338800D03*
X28582000Y11526000D03*
X22359000Y12338800D03*
X42080000Y12570000D03*
X2480000Y14820000D03*
X2480000Y12320000D03*
X5480000Y12320000D03*
X5480000Y14820000D03*
X8480000Y14820000D03*
X8480000Y12320000D03*
X29980000Y12820000D03*
X51980000Y15320000D03*
X51980000Y10820000D03*
X49980000Y15320000D03*
X49980000Y12820000D03*
X48133000Y8615400D03*
X2480000Y9820000D03*
X5480000Y9820000D03*
X8480000Y9820000D03*
X14980000Y8820000D03*
X19980000Y8820000D03*
X31980000Y8820000D03*
X35480000Y8820000D03*
X31980000Y10820000D03*
X35617800Y10957800D03*
X51980000Y12820000D03*
X52080000Y4120000D03*
X52080000Y19320000D03*
X42730000Y11270000D03*
X47980000Y15120000D03*
X26630000Y18820000D03*
X24130004Y19220000D03*
X33560400Y15132800D03*
X32471800Y15158200D03*
X17170000Y15160000D03*
X18271800Y15158200D03*
D13*
X24695800Y12338800D02*
X22359000Y12338800D01*
X45327001Y11925999D02*
X45727000Y11526000D01*
X45050799Y12202201D02*
X45327001Y11925999D01*
X29980000Y12820000D02*
X24695800Y12338800D01*
D14*
X42730000Y8420000D02*
X42730000Y11270000D01*
X43380000Y7770000D02*
X42730000Y8420000D01*
X46230000Y7770000D02*
X43380000Y7770000D01*
X46990000Y7010000D02*
X46230000Y7770000D01*
X48260000Y2240000D02*
X46990000Y3510000D01*
X46990000Y3510000D02*
X46990000Y7010000D01*
X33020000Y19020000D02*
X33530000Y19020000D01*
X33020000Y17480000D02*
X33020000Y19020000D01*
X26830000Y19020000D02*
X33530000Y19020000D01*
X26630000Y18820000D02*
X26830000Y19020000D01*
X47414315Y15120000D02*
X47980000Y15120000D01*
X40180000Y15120000D02*
X47414315Y15120000D01*
X39370000Y15930000D02*
X40180000Y15120000D01*
X39370000Y18380000D02*
X39370000Y15930000D01*
X33530000Y19020000D02*
X38730000Y19020000D01*
X38730000Y19020000D02*
X39370000Y18380000D01*
X24580004Y19670000D02*
X24130004Y19220000D01*
X33020000Y21137600D02*
X31552400Y19670000D01*
X31552400Y19670000D02*
X24580004Y19670000D01*
D15*
X33535000Y15158200D02*
X33560400Y15132800D01*
X32471800Y15158200D02*
X33535000Y15158200D01*
X17171800Y15158200D02*
X17170000Y15160000D01*
X32471800Y15158200D02*
X18271800Y15158200D01*
X18271800Y15158200D02*
X17171800Y15158200D01*
D16*
G36*
X52680001Y660000D02*
G01*
X660000Y660000D01*
X660000Y3090000D01*
X1051928Y3090000D01*
X1051928Y1390000D01*
X1064188Y1265518D01*
X1100498Y1145820D01*
X1159463Y1035506D01*
X1238815Y938815D01*
X1335506Y859463D01*
X1445820Y800498D01*
X1565518Y764188D01*
X1690000Y751928D01*
X3390000Y751928D01*
X3514482Y764188D01*
X3634180Y800498D01*
X3744494Y859463D01*
X3841185Y938815D01*
X3920537Y1035506D01*
X3979502Y1145820D01*
X4000393Y1214687D01*
X4024866Y1184866D01*
X4250986Y999294D01*
X4508966Y861401D01*
X4788889Y776487D01*
X5007050Y755000D01*
X5152950Y755000D01*
X5371111Y776487D01*
X5651034Y861401D01*
X5909014Y999294D01*
X6135134Y1184866D01*
X6320706Y1410986D01*
X6355201Y1475523D01*
X6424822Y1358645D01*
X6619731Y1142412D01*
X6853080Y968359D01*
X7115901Y843175D01*
X7263110Y798524D01*
X7493000Y919845D01*
X7493000Y2113000D01*
X7473000Y2113000D01*
X7473000Y2367000D01*
X7493000Y2367000D01*
X7493000Y3560155D01*
X7263110Y3681476D01*
X7115901Y3636825D01*
X6853080Y3511641D01*
X6619731Y3337588D01*
X6424822Y3121355D01*
X6355201Y3004477D01*
X6320706Y3069014D01*
X6135134Y3295134D01*
X5909014Y3480706D01*
X5651034Y3618599D01*
X5371111Y3703513D01*
X5152950Y3725000D01*
X5007050Y3725000D01*
X4788889Y3703513D01*
X4508966Y3618599D01*
X4250986Y3480706D01*
X4024866Y3295134D01*
X4000393Y3265313D01*
X3979502Y3334180D01*
X3920537Y3444494D01*
X3841185Y3541185D01*
X3744494Y3620537D01*
X3634180Y3679502D01*
X3514482Y3715812D01*
X3390000Y3728072D01*
X1690000Y3728072D01*
X1565518Y3715812D01*
X1445820Y3679502D01*
X1335506Y3620537D01*
X1238815Y3541185D01*
X1159463Y3444494D01*
X1100498Y3334180D01*
X1064188Y3214482D01*
X1051928Y3090000D01*
X660000Y3090000D01*
X660000Y6747600D01*
X1051928Y6747600D01*
X1051928Y5047600D01*
X1064188Y4923118D01*
X1100498Y4803420D01*
X1159463Y4693106D01*
X1238815Y4596415D01*
X1335506Y4517063D01*
X1445820Y4458098D01*
X1565518Y4421788D01*
X1690000Y4409528D01*
X3390000Y4409528D01*
X3514482Y4421788D01*
X3634180Y4458098D01*
X3744494Y4517063D01*
X3841185Y4596415D01*
X3920537Y4693106D01*
X3979502Y4803420D01*
X4000393Y4872287D01*
X4024866Y4842466D01*
X4250986Y4656894D01*
X4508966Y4519001D01*
X4788889Y4434087D01*
X5007050Y4412600D01*
X5152950Y4412600D01*
X5371111Y4434087D01*
X5651034Y4519001D01*
X5909014Y4656894D01*
X6135134Y4842466D01*
X6320706Y5068586D01*
X6355201Y5133123D01*
X6424822Y5016245D01*
X6619731Y4800012D01*
X6853080Y4625959D01*
X7115901Y4500775D01*
X7263110Y4456124D01*
X7493000Y4577445D01*
X7493000Y5770600D01*
X7473000Y5770600D01*
X7473000Y6024600D01*
X7493000Y6024600D01*
X7493000Y7217755D01*
X7747000Y7217755D01*
X7747000Y6024600D01*
X7767000Y6024600D01*
X7767000Y5770600D01*
X7747000Y5770600D01*
X7747000Y4577445D01*
X7976890Y4456124D01*
X8124099Y4500775D01*
X8386920Y4625959D01*
X8620269Y4800012D01*
X8815178Y5016245D01*
X8884799Y5133123D01*
X8919294Y5068586D01*
X9104866Y4842466D01*
X9330986Y4656894D01*
X9588966Y4519001D01*
X9868889Y4434087D01*
X10087050Y4412600D01*
X10232950Y4412600D01*
X10451111Y4434087D01*
X10731034Y4519001D01*
X10989014Y4656894D01*
X11215134Y4842466D01*
X11400706Y5068586D01*
X11430000Y5123391D01*
X11459294Y5068586D01*
X11644866Y4842466D01*
X11870986Y4656894D01*
X12128966Y4519001D01*
X12408889Y4434087D01*
X12627050Y4412600D01*
X12772950Y4412600D01*
X12991111Y4434087D01*
X13271034Y4519001D01*
X13529014Y4656894D01*
X13755134Y4842466D01*
X13940706Y5068586D01*
X13970000Y5123391D01*
X13999294Y5068586D01*
X14184866Y4842466D01*
X14410986Y4656894D01*
X14668966Y4519001D01*
X14948889Y4434087D01*
X15167050Y4412600D01*
X15312950Y4412600D01*
X15531111Y4434087D01*
X15811034Y4519001D01*
X16069014Y4656894D01*
X16295134Y4842466D01*
X16480706Y5068586D01*
X16510000Y5123391D01*
X16539294Y5068586D01*
X16724866Y4842466D01*
X16950986Y4656894D01*
X17208966Y4519001D01*
X17488889Y4434087D01*
X17707050Y4412600D01*
X17852950Y4412600D01*
X18071111Y4434087D01*
X18351034Y4519001D01*
X18609014Y4656894D01*
X18835134Y4842466D01*
X19020706Y5068586D01*
X19050000Y5123391D01*
X19079294Y5068586D01*
X19264866Y4842466D01*
X19490986Y4656894D01*
X19748966Y4519001D01*
X20028889Y4434087D01*
X20247050Y4412600D01*
X20392950Y4412600D01*
X20611111Y4434087D01*
X20891034Y4519001D01*
X21149014Y4656894D01*
X21375134Y4842466D01*
X21560706Y5068586D01*
X21590000Y5123391D01*
X21619294Y5068586D01*
X21804866Y4842466D01*
X22030986Y4656894D01*
X22288966Y4519001D01*
X22568889Y4434087D01*
X22787050Y4412600D01*
X22932950Y4412600D01*
X23151111Y4434087D01*
X23431034Y4519001D01*
X23689014Y4656894D01*
X23915134Y4842466D01*
X24100706Y5068586D01*
X24130000Y5123391D01*
X24159294Y5068586D01*
X24344866Y4842466D01*
X24570986Y4656894D01*
X24828966Y4519001D01*
X25108889Y4434087D01*
X25327050Y4412600D01*
X25472950Y4412600D01*
X25691111Y4434087D01*
X25971034Y4519001D01*
X26229014Y4656894D01*
X26455134Y4842466D01*
X26640706Y5068586D01*
X26670000Y5123391D01*
X26699294Y5068586D01*
X26884866Y4842466D01*
X27110986Y4656894D01*
X27368966Y4519001D01*
X27648889Y4434087D01*
X27867050Y4412600D01*
X28012950Y4412600D01*
X28231111Y4434087D01*
X28511034Y4519001D01*
X28769014Y4656894D01*
X28995134Y4842466D01*
X29180706Y5068586D01*
X29210000Y5123391D01*
X29239294Y5068586D01*
X29424866Y4842466D01*
X29650986Y4656894D01*
X29908966Y4519001D01*
X30188889Y4434087D01*
X30407050Y4412600D01*
X30552950Y4412600D01*
X30771111Y4434087D01*
X31051034Y4519001D01*
X31309014Y4656894D01*
X31535134Y4842466D01*
X31720706Y5068586D01*
X31750000Y5123391D01*
X31779294Y5068586D01*
X31964866Y4842466D01*
X32190986Y4656894D01*
X32448966Y4519001D01*
X32728889Y4434087D01*
X32947050Y4412600D01*
X33092950Y4412600D01*
X33311111Y4434087D01*
X33591034Y4519001D01*
X33849014Y4656894D01*
X34075134Y4842466D01*
X34260706Y5068586D01*
X34290000Y5123391D01*
X34319294Y5068586D01*
X34504866Y4842466D01*
X34730986Y4656894D01*
X34988966Y4519001D01*
X35268889Y4434087D01*
X35487050Y4412600D01*
X35632950Y4412600D01*
X35851111Y4434087D01*
X36131034Y4519001D01*
X36389014Y4656894D01*
X36615134Y4842466D01*
X36800706Y5068586D01*
X36830000Y5123391D01*
X36859294Y5068586D01*
X37044866Y4842466D01*
X37270986Y4656894D01*
X37528966Y4519001D01*
X37808889Y4434087D01*
X38027050Y4412600D01*
X38172950Y4412600D01*
X38391111Y4434087D01*
X38671034Y4519001D01*
X38929014Y4656894D01*
X39155134Y4842466D01*
X39340706Y5068586D01*
X39370000Y5123391D01*
X39399294Y5068586D01*
X39584866Y4842466D01*
X39810986Y4656894D01*
X40068966Y4519001D01*
X40348889Y4434087D01*
X40567050Y4412600D01*
X40712950Y4412600D01*
X40931111Y4434087D01*
X41211034Y4519001D01*
X41469014Y4656894D01*
X41695134Y4842466D01*
X41880706Y5068586D01*
X41910000Y5123391D01*
X41939294Y5068586D01*
X42124866Y4842466D01*
X42350986Y4656894D01*
X42608966Y4519001D01*
X42888889Y4434087D01*
X43107050Y4412600D01*
X43252950Y4412600D01*
X43471111Y4434087D01*
X43751034Y4519001D01*
X44009014Y4656894D01*
X44235134Y4842466D01*
X44420706Y5068586D01*
X44450000Y5123391D01*
X44479294Y5068586D01*
X44664866Y4842466D01*
X44890986Y4656894D01*
X45148966Y4519001D01*
X45428889Y4434087D01*
X45647050Y4412600D01*
X45792950Y4412600D01*
X46011111Y4434087D01*
X46202600Y4492175D01*
X46202600Y3645425D01*
X46011111Y3703513D01*
X45792950Y3725000D01*
X45647050Y3725000D01*
X45428889Y3703513D01*
X45148966Y3618599D01*
X44890986Y3480706D01*
X44664866Y3295134D01*
X44479294Y3069014D01*
X44450000Y3014209D01*
X44420706Y3069014D01*
X44235134Y3295134D01*
X44009014Y3480706D01*
X43751034Y3618599D01*
X43471111Y3703513D01*
X43252950Y3725000D01*
X43107050Y3725000D01*
X42888889Y3703513D01*
X42608966Y3618599D01*
X42350986Y3480706D01*
X42124866Y3295134D01*
X41939294Y3069014D01*
X41910000Y3014209D01*
X41880706Y3069014D01*
X41695134Y3295134D01*
X41469014Y3480706D01*
X41211034Y3618599D01*
X40931111Y3703513D01*
X40712950Y3725000D01*
X40567050Y3725000D01*
X40348889Y3703513D01*
X40068966Y3618599D01*
X39810986Y3480706D01*
X39584866Y3295134D01*
X39399294Y3069014D01*
X39370000Y3014209D01*
X39340706Y3069014D01*
X39155134Y3295134D01*
X38929014Y3480706D01*
X38671034Y3618599D01*
X38391111Y3703513D01*
X38172950Y3725000D01*
X38027050Y3725000D01*
X37808889Y3703513D01*
X37528966Y3618599D01*
X37270986Y3480706D01*
X37044866Y3295134D01*
X36859294Y3069014D01*
X36830000Y3014209D01*
X36800706Y3069014D01*
X36615134Y3295134D01*
X36389014Y3480706D01*
X36131034Y3618599D01*
X35851111Y3703513D01*
X35632950Y3725000D01*
X35487050Y3725000D01*
X35268889Y3703513D01*
X34988966Y3618599D01*
X34730986Y3480706D01*
X34504866Y3295134D01*
X34319294Y3069014D01*
X34290000Y3014209D01*
X34260706Y3069014D01*
X34075134Y3295134D01*
X33849014Y3480706D01*
X33591034Y3618599D01*
X33311111Y3703513D01*
X33092950Y3725000D01*
X32947050Y3725000D01*
X32728889Y3703513D01*
X32448966Y3618599D01*
X32190986Y3480706D01*
X31964866Y3295134D01*
X31779294Y3069014D01*
X31750000Y3014209D01*
X31720706Y3069014D01*
X31535134Y3295134D01*
X31309014Y3480706D01*
X31051034Y3618599D01*
X30771111Y3703513D01*
X30552950Y3725000D01*
X30407050Y3725000D01*
X30188889Y3703513D01*
X29908966Y3618599D01*
X29650986Y3480706D01*
X29424866Y3295134D01*
X29239294Y3069014D01*
X29210000Y3014209D01*
X29180706Y3069014D01*
X28995134Y3295134D01*
X28769014Y3480706D01*
X28511034Y3618599D01*
X28231111Y3703513D01*
X28012950Y3725000D01*
X27867050Y3725000D01*
X27648889Y3703513D01*
X27368966Y3618599D01*
X27110986Y3480706D01*
X26884866Y3295134D01*
X26699294Y3069014D01*
X26670000Y3014209D01*
X26640706Y3069014D01*
X26455134Y3295134D01*
X26229014Y3480706D01*
X25971034Y3618599D01*
X25691111Y3703513D01*
X25472950Y3725000D01*
X25327050Y3725000D01*
X25108889Y3703513D01*
X24828966Y3618599D01*
X24570986Y3480706D01*
X24344866Y3295134D01*
X24159294Y3069014D01*
X24130000Y3014209D01*
X24100706Y3069014D01*
X23915134Y3295134D01*
X23689014Y3480706D01*
X23431034Y3618599D01*
X23151111Y3703513D01*
X22932950Y3725000D01*
X22787050Y3725000D01*
X22568889Y3703513D01*
X22288966Y3618599D01*
X22030986Y3480706D01*
X21804866Y3295134D01*
X21619294Y3069014D01*
X21590000Y3014209D01*
X21560706Y3069014D01*
X21375134Y3295134D01*
X21149014Y3480706D01*
X20891034Y3618599D01*
X20611111Y3703513D01*
X20392950Y3725000D01*
X20247050Y3725000D01*
X20028889Y3703513D01*
X19748966Y3618599D01*
X19490986Y3480706D01*
X19264866Y3295134D01*
X19079294Y3069014D01*
X19050000Y3014209D01*
X19020706Y3069014D01*
X18835134Y3295134D01*
X18609014Y3480706D01*
X18351034Y3618599D01*
X18071111Y3703513D01*
X17852950Y3725000D01*
X17707050Y3725000D01*
X17488889Y3703513D01*
X17208966Y3618599D01*
X16950986Y3480706D01*
X16724866Y3295134D01*
X16539294Y3069014D01*
X16510000Y3014209D01*
X16480706Y3069014D01*
X16295134Y3295134D01*
X16069014Y3480706D01*
X15811034Y3618599D01*
X15531111Y3703513D01*
X15312950Y3725000D01*
X15167050Y3725000D01*
X14948889Y3703513D01*
X14668966Y3618599D01*
X14410986Y3480706D01*
X14184866Y3295134D01*
X13999294Y3069014D01*
X13970000Y3014209D01*
X13940706Y3069014D01*
X13755134Y3295134D01*
X13529014Y3480706D01*
X13271034Y3618599D01*
X12991111Y3703513D01*
X12772950Y3725000D01*
X12627050Y3725000D01*
X12408889Y3703513D01*
X12128966Y3618599D01*
X11870986Y3480706D01*
X11644866Y3295134D01*
X11459294Y3069014D01*
X11430000Y3014209D01*
X11400706Y3069014D01*
X11215134Y3295134D01*
X10989014Y3480706D01*
X10731034Y3618599D01*
X10451111Y3703513D01*
X10232950Y3725000D01*
X10087050Y3725000D01*
X9868889Y3703513D01*
X9588966Y3618599D01*
X9330986Y3480706D01*
X9104866Y3295134D01*
X8919294Y3069014D01*
X8884799Y3004477D01*
X8815178Y3121355D01*
X8620269Y3337588D01*
X8386920Y3511641D01*
X8124099Y3636825D01*
X7976890Y3681476D01*
X7747000Y3560155D01*
X7747000Y2367000D01*
X7767000Y2367000D01*
X7767000Y2113000D01*
X7747000Y2113000D01*
X7747000Y919845D01*
X7976890Y798524D01*
X8124099Y843175D01*
X8386920Y968359D01*
X8620269Y1142412D01*
X8815178Y1358645D01*
X8884799Y1475523D01*
X8919294Y1410986D01*
X9104866Y1184866D01*
X9330986Y999294D01*
X9588966Y861401D01*
X9868889Y776487D01*
X10087050Y755000D01*
X10232950Y755000D01*
X10451111Y776487D01*
X10731034Y861401D01*
X10989014Y999294D01*
X11215134Y1184866D01*
X11400706Y1410986D01*
X11430000Y1465791D01*
X11459294Y1410986D01*
X11644866Y1184866D01*
X11870986Y999294D01*
X12128966Y861401D01*
X12408889Y776487D01*
X12627050Y755000D01*
X12772950Y755000D01*
X12991111Y776487D01*
X13271034Y861401D01*
X13529014Y999294D01*
X13755134Y1184866D01*
X13940706Y1410986D01*
X13970000Y1465791D01*
X13999294Y1410986D01*
X14184866Y1184866D01*
X14410986Y999294D01*
X14668966Y861401D01*
X14948889Y776487D01*
X15167050Y755000D01*
X15312950Y755000D01*
X15531111Y776487D01*
X15811034Y861401D01*
X16069014Y999294D01*
X16295134Y1184866D01*
X16480706Y1410986D01*
X16510000Y1465791D01*
X16539294Y1410986D01*
X16724866Y1184866D01*
X16950986Y999294D01*
X17208966Y861401D01*
X17488889Y776487D01*
X17707050Y755000D01*
X17852950Y755000D01*
X18071111Y776487D01*
X18351034Y861401D01*
X18609014Y999294D01*
X18835134Y1184866D01*
X19020706Y1410986D01*
X19050000Y1465791D01*
X19079294Y1410986D01*
X19264866Y1184866D01*
X19490986Y999294D01*
X19748966Y861401D01*
X20028889Y776487D01*
X20247050Y755000D01*
X20392950Y755000D01*
X20611111Y776487D01*
X20891034Y861401D01*
X21149014Y999294D01*
X21375134Y1184866D01*
X21560706Y1410986D01*
X21590000Y1465791D01*
X21619294Y1410986D01*
X21804866Y1184866D01*
X22030986Y999294D01*
X22288966Y861401D01*
X22568889Y776487D01*
X22787050Y755000D01*
X22932950Y755000D01*
X23151111Y776487D01*
X23431034Y861401D01*
X23689014Y999294D01*
X23915134Y1184866D01*
X24100706Y1410986D01*
X24130000Y1465791D01*
X24159294Y1410986D01*
X24344866Y1184866D01*
X24570986Y999294D01*
X24828966Y861401D01*
X25108889Y776487D01*
X25327050Y755000D01*
X25472950Y755000D01*
X25691111Y776487D01*
X25971034Y861401D01*
X26229014Y999294D01*
X26455134Y1184866D01*
X26640706Y1410986D01*
X26670000Y1465791D01*
X26699294Y1410986D01*
X26884866Y1184866D01*
X27110986Y999294D01*
X27368966Y861401D01*
X27648889Y776487D01*
X27867050Y755000D01*
X28012950Y755000D01*
X28231111Y776487D01*
X28511034Y861401D01*
X28769014Y999294D01*
X28995134Y1184866D01*
X29180706Y1410986D01*
X29210000Y1465791D01*
X29239294Y1410986D01*
X29424866Y1184866D01*
X29650986Y999294D01*
X29908966Y861401D01*
X30188889Y776487D01*
X30407050Y755000D01*
X30552950Y755000D01*
X30771111Y776487D01*
X31051034Y861401D01*
X31309014Y999294D01*
X31535134Y1184866D01*
X31720706Y1410986D01*
X31750000Y1465791D01*
X31779294Y1410986D01*
X31964866Y1184866D01*
X32190986Y999294D01*
X32448966Y861401D01*
X32728889Y776487D01*
X32947050Y755000D01*
X33092950Y755000D01*
X33311111Y776487D01*
X33591034Y861401D01*
X33849014Y999294D01*
X34075134Y1184866D01*
X34260706Y1410986D01*
X34290000Y1465791D01*
X34319294Y1410986D01*
X34504866Y1184866D01*
X34730986Y999294D01*
X34988966Y861401D01*
X35268889Y776487D01*
X35487050Y755000D01*
X35632950Y755000D01*
X35851111Y776487D01*
X36131034Y861401D01*
X36389014Y999294D01*
X36615134Y1184866D01*
X36800706Y1410986D01*
X36830000Y1465791D01*
X36859294Y1410986D01*
X37044866Y1184866D01*
X37270986Y999294D01*
X37528966Y861401D01*
X37808889Y776487D01*
X38027050Y755000D01*
X38172950Y755000D01*
X38391111Y776487D01*
X38671034Y861401D01*
X38929014Y999294D01*
X39155134Y1184866D01*
X39340706Y1410986D01*
X39370000Y1465791D01*
X39399294Y1410986D01*
X39584866Y1184866D01*
X39810986Y999294D01*
X40068966Y861401D01*
X40348889Y776487D01*
X40567050Y755000D01*
X40712950Y755000D01*
X40931111Y776487D01*
X41211034Y861401D01*
X41469014Y999294D01*
X41695134Y1184866D01*
X41880706Y1410986D01*
X41910000Y1465791D01*
X41939294Y1410986D01*
X42124866Y1184866D01*
X42350986Y999294D01*
X42608966Y861401D01*
X42888889Y776487D01*
X43107050Y755000D01*
X43252950Y755000D01*
X43471111Y776487D01*
X43751034Y861401D01*
X44009014Y999294D01*
X44235134Y1184866D01*
X44420706Y1410986D01*
X44450000Y1465791D01*
X44479294Y1410986D01*
X44664866Y1184866D01*
X44890986Y999294D01*
X45148966Y861401D01*
X45428889Y776487D01*
X45647050Y755000D01*
X45792950Y755000D01*
X46011111Y776487D01*
X46291034Y861401D01*
X46549014Y999294D01*
X46775134Y1184866D01*
X46960706Y1410986D01*
X46990000Y1465791D01*
X47019294Y1410986D01*
X47204866Y1184866D01*
X47430986Y999294D01*
X47688966Y861401D01*
X47968889Y776487D01*
X48187050Y755000D01*
X48332950Y755000D01*
X48551111Y776487D01*
X48831034Y861401D01*
X49089014Y999294D01*
X49315134Y1184866D01*
X49500706Y1410986D01*
X49530000Y1465791D01*
X49559294Y1410986D01*
X49744866Y1184866D01*
X49970986Y999294D01*
X50228966Y861401D01*
X50508889Y776487D01*
X50727050Y755000D01*
X50872950Y755000D01*
X51091111Y776487D01*
X51371034Y861401D01*
X51629014Y999294D01*
X51855134Y1184866D01*
X52040706Y1410986D01*
X52178599Y1668966D01*
X52263513Y1948889D01*
X52292185Y2240000D01*
X52263513Y2531111D01*
X52178599Y2811034D01*
X52040706Y3069014D01*
X51855134Y3295134D01*
X51629014Y3480706D01*
X51371034Y3618599D01*
X51091111Y3703513D01*
X50872950Y3725000D01*
X50727050Y3725000D01*
X50508889Y3703513D01*
X50228966Y3618599D01*
X49970986Y3480706D01*
X49744866Y3295134D01*
X49559294Y3069014D01*
X49530000Y3014209D01*
X49500706Y3069014D01*
X49315134Y3295134D01*
X49089014Y3480706D01*
X48831034Y3618599D01*
X48551111Y3703513D01*
X48332950Y3725000D01*
X48187050Y3725000D01*
X47968889Y3703513D01*
X47923735Y3689816D01*
X47777400Y3836150D01*
X47777400Y4492175D01*
X47968889Y4434087D01*
X48187050Y4412600D01*
X48332950Y4412600D01*
X48551111Y4434087D01*
X48831034Y4519001D01*
X49089014Y4656894D01*
X49315134Y4842466D01*
X49500706Y5068586D01*
X49530000Y5123391D01*
X49559294Y5068586D01*
X49744866Y4842466D01*
X49970986Y4656894D01*
X50228966Y4519001D01*
X50508889Y4434087D01*
X50727050Y4412600D01*
X50872950Y4412600D01*
X51091111Y4434087D01*
X51371034Y4519001D01*
X51629014Y4656894D01*
X51855134Y4842466D01*
X52040706Y5068586D01*
X52178599Y5326566D01*
X52263513Y5606489D01*
X52292185Y5897600D01*
X52263513Y6188711D01*
X52178599Y6468634D01*
X52040706Y6726614D01*
X51855134Y6952734D01*
X51629014Y7138306D01*
X51371034Y7276199D01*
X51091111Y7361113D01*
X50872950Y7382600D01*
X50727050Y7382600D01*
X50508889Y7361113D01*
X50228966Y7276199D01*
X49970986Y7138306D01*
X49744866Y6952734D01*
X49559294Y6726614D01*
X49530000Y6671809D01*
X49500706Y6726614D01*
X49315134Y6952734D01*
X49089014Y7138306D01*
X48831034Y7276199D01*
X48551111Y7361113D01*
X48332950Y7382600D01*
X48187050Y7382600D01*
X47968889Y7361113D01*
X47728447Y7288175D01*
X47720982Y7312783D01*
X47647866Y7449572D01*
X47549469Y7569469D01*
X47519433Y7594119D01*
X46814127Y8299423D01*
X46789469Y8329469D01*
X46669572Y8427866D01*
X46532783Y8500982D01*
X46384357Y8546006D01*
X46268673Y8557400D01*
X46268663Y8557400D01*
X46230000Y8561208D01*
X46191337Y8557400D01*
X43706151Y8557400D01*
X43517400Y8746150D01*
X43517400Y10593689D01*
X43533937Y10610226D01*
X43647205Y10779744D01*
X43725226Y10968102D01*
X43765000Y11168061D01*
X43765000Y11371939D01*
X43725226Y11571898D01*
X43647205Y11760256D01*
X43533937Y11929774D01*
X43389774Y12073937D01*
X43220256Y12187205D01*
X43031898Y12265226D01*
X42831939Y12305000D01*
X42628061Y12305000D01*
X42428102Y12265226D01*
X42239744Y12187205D01*
X42070226Y12073937D01*
X41926063Y11929774D01*
X41812795Y11760256D01*
X41734774Y11571898D01*
X41695000Y11371939D01*
X41695000Y11168061D01*
X41734774Y10968102D01*
X41812795Y10779744D01*
X41926063Y10610226D01*
X41942601Y10593688D01*
X41942600Y8458663D01*
X41938792Y8420000D01*
X41942600Y8381337D01*
X41942600Y8381328D01*
X41953994Y8265644D01*
X41999018Y8117218D01*
X42072134Y7980429D01*
X42170531Y7860531D01*
X42200577Y7835873D01*
X42725040Y7311410D01*
X42608966Y7276199D01*
X42350986Y7138306D01*
X42124866Y6952734D01*
X41939294Y6726614D01*
X41910000Y6671809D01*
X41880706Y6726614D01*
X41695134Y6952734D01*
X41469014Y7138306D01*
X41211034Y7276199D01*
X40931111Y7361113D01*
X40712950Y7382600D01*
X40567050Y7382600D01*
X40348889Y7361113D01*
X40068966Y7276199D01*
X39810986Y7138306D01*
X39584866Y6952734D01*
X39399294Y6726614D01*
X39370000Y6671809D01*
X39340706Y6726614D01*
X39155134Y6952734D01*
X38929014Y7138306D01*
X38671034Y7276199D01*
X38391111Y7361113D01*
X38172950Y7382600D01*
X38027050Y7382600D01*
X37808889Y7361113D01*
X37528966Y7276199D01*
X37270986Y7138306D01*
X37044866Y6952734D01*
X36859294Y6726614D01*
X36830000Y6671809D01*
X36800706Y6726614D01*
X36615134Y6952734D01*
X36389014Y7138306D01*
X36131034Y7276199D01*
X35851111Y7361113D01*
X35632950Y7382600D01*
X35487050Y7382600D01*
X35268889Y7361113D01*
X34988966Y7276199D01*
X34730986Y7138306D01*
X34504866Y6952734D01*
X34319294Y6726614D01*
X34290000Y6671809D01*
X34260706Y6726614D01*
X34075134Y6952734D01*
X33849014Y7138306D01*
X33591034Y7276199D01*
X33311111Y7361113D01*
X33092950Y7382600D01*
X32947050Y7382600D01*
X32728889Y7361113D01*
X32448966Y7276199D01*
X32190986Y7138306D01*
X31964866Y6952734D01*
X31779294Y6726614D01*
X31750000Y6671809D01*
X31720706Y6726614D01*
X31535134Y6952734D01*
X31309014Y7138306D01*
X31051034Y7276199D01*
X30771111Y7361113D01*
X30552950Y7382600D01*
X30407050Y7382600D01*
X30188889Y7361113D01*
X29908966Y7276199D01*
X29650986Y7138306D01*
X29424866Y6952734D01*
X29239294Y6726614D01*
X29210000Y6671809D01*
X29180706Y6726614D01*
X28995134Y6952734D01*
X28769014Y7138306D01*
X28511034Y7276199D01*
X28231111Y7361113D01*
X28012950Y7382600D01*
X27867050Y7382600D01*
X27648889Y7361113D01*
X27368966Y7276199D01*
X27110986Y7138306D01*
X26884866Y6952734D01*
X26699294Y6726614D01*
X26670000Y6671809D01*
X26640706Y6726614D01*
X26455134Y6952734D01*
X26229014Y7138306D01*
X25971034Y7276199D01*
X25691111Y7361113D01*
X25472950Y7382600D01*
X25327050Y7382600D01*
X25108889Y7361113D01*
X24828966Y7276199D01*
X24570986Y7138306D01*
X24344866Y6952734D01*
X24159294Y6726614D01*
X24130000Y6671809D01*
X24100706Y6726614D01*
X23915134Y6952734D01*
X23689014Y7138306D01*
X23431034Y7276199D01*
X23151111Y7361113D01*
X22932950Y7382600D01*
X22787050Y7382600D01*
X22568889Y7361113D01*
X22288966Y7276199D01*
X22030986Y7138306D01*
X21804866Y6952734D01*
X21619294Y6726614D01*
X21590000Y6671809D01*
X21560706Y6726614D01*
X21375134Y6952734D01*
X21149014Y7138306D01*
X20891034Y7276199D01*
X20611111Y7361113D01*
X20392950Y7382600D01*
X20247050Y7382600D01*
X20028889Y7361113D01*
X19748966Y7276199D01*
X19490986Y7138306D01*
X19264866Y6952734D01*
X19079294Y6726614D01*
X19050000Y6671809D01*
X19020706Y6726614D01*
X18835134Y6952734D01*
X18609014Y7138306D01*
X18351034Y7276199D01*
X18071111Y7361113D01*
X17852950Y7382600D01*
X17707050Y7382600D01*
X17488889Y7361113D01*
X17208966Y7276199D01*
X16950986Y7138306D01*
X16724866Y6952734D01*
X16539294Y6726614D01*
X16510000Y6671809D01*
X16480706Y6726614D01*
X16295134Y6952734D01*
X16069014Y7138306D01*
X15811034Y7276199D01*
X15531111Y7361113D01*
X15312950Y7382600D01*
X15167050Y7382600D01*
X14948889Y7361113D01*
X14668966Y7276199D01*
X14410986Y7138306D01*
X14184866Y6952734D01*
X13999294Y6726614D01*
X13970000Y6671809D01*
X13940706Y6726614D01*
X13755134Y6952734D01*
X13529014Y7138306D01*
X13271034Y7276199D01*
X12991111Y7361113D01*
X12772950Y7382600D01*
X12627050Y7382600D01*
X12408889Y7361113D01*
X12128966Y7276199D01*
X11870986Y7138306D01*
X11644866Y6952734D01*
X11459294Y6726614D01*
X11430000Y6671809D01*
X11400706Y6726614D01*
X11215134Y6952734D01*
X10989014Y7138306D01*
X10731034Y7276199D01*
X10451111Y7361113D01*
X10232950Y7382600D01*
X10087050Y7382600D01*
X9868889Y7361113D01*
X9588966Y7276199D01*
X9330986Y7138306D01*
X9104866Y6952734D01*
X8919294Y6726614D01*
X8884799Y6662077D01*
X8815178Y6778955D01*
X8620269Y6995188D01*
X8386920Y7169241D01*
X8124099Y7294425D01*
X7976890Y7339076D01*
X7747000Y7217755D01*
X7493000Y7217755D01*
X7263110Y7339076D01*
X7115901Y7294425D01*
X6853080Y7169241D01*
X6619731Y6995188D01*
X6424822Y6778955D01*
X6355201Y6662077D01*
X6320706Y6726614D01*
X6135134Y6952734D01*
X5909014Y7138306D01*
X5651034Y7276199D01*
X5371111Y7361113D01*
X5152950Y7382600D01*
X5007050Y7382600D01*
X4788889Y7361113D01*
X4508966Y7276199D01*
X4250986Y7138306D01*
X4024866Y6952734D01*
X4000393Y6922913D01*
X3979502Y6991780D01*
X3920537Y7102094D01*
X3841185Y7198785D01*
X3744494Y7278137D01*
X3634180Y7337102D01*
X3514482Y7373412D01*
X3390000Y7385672D01*
X1690000Y7385672D01*
X1565518Y7373412D01*
X1445820Y7337102D01*
X1335506Y7278137D01*
X1238815Y7198785D01*
X1159463Y7102094D01*
X1100498Y6991780D01*
X1064188Y6872082D01*
X1051928Y6747600D01*
X660000Y6747600D01*
X660000Y21987600D01*
X1051928Y21987600D01*
X1051928Y20287600D01*
X1064188Y20163118D01*
X1100498Y20043420D01*
X1159463Y19933106D01*
X1238815Y19836415D01*
X1335506Y19757063D01*
X1445820Y19698098D01*
X1565518Y19661788D01*
X1690000Y19649528D01*
X3390000Y19649528D01*
X3514482Y19661788D01*
X3634180Y19698098D01*
X3744494Y19757063D01*
X3841185Y19836415D01*
X3920537Y19933106D01*
X3979502Y20043420D01*
X4000393Y20112287D01*
X4024866Y20082466D01*
X4250986Y19896894D01*
X4508966Y19759001D01*
X4788889Y19674087D01*
X5007050Y19652600D01*
X5152950Y19652600D01*
X5371111Y19674087D01*
X5651034Y19759001D01*
X5909014Y19896894D01*
X6135134Y20082466D01*
X6320706Y20308586D01*
X6350000Y20363391D01*
X6379294Y20308586D01*
X6564866Y20082466D01*
X6790986Y19896894D01*
X7048966Y19759001D01*
X7328889Y19674087D01*
X7547050Y19652600D01*
X7692950Y19652600D01*
X7911111Y19674087D01*
X8191034Y19759001D01*
X8449014Y19896894D01*
X8675134Y20082466D01*
X8860706Y20308586D01*
X8890000Y20363391D01*
X8919294Y20308586D01*
X9104866Y20082466D01*
X9330986Y19896894D01*
X9588966Y19759001D01*
X9868889Y19674087D01*
X10087050Y19652600D01*
X10232950Y19652600D01*
X10451111Y19674087D01*
X10731034Y19759001D01*
X10989014Y19896894D01*
X11215134Y20082466D01*
X11400706Y20308586D01*
X11430000Y20363391D01*
X11459294Y20308586D01*
X11644866Y20082466D01*
X11870986Y19896894D01*
X12128966Y19759001D01*
X12408889Y19674087D01*
X12627050Y19652600D01*
X12772950Y19652600D01*
X12991111Y19674087D01*
X13271034Y19759001D01*
X13529014Y19896894D01*
X13755134Y20082466D01*
X13940706Y20308586D01*
X13970000Y20363391D01*
X13999294Y20308586D01*
X14184866Y20082466D01*
X14410986Y19896894D01*
X14668966Y19759001D01*
X14948889Y19674087D01*
X15167050Y19652600D01*
X15312950Y19652600D01*
X15531111Y19674087D01*
X15811034Y19759001D01*
X16069014Y19896894D01*
X16295134Y20082466D01*
X16480706Y20308586D01*
X16510000Y20363391D01*
X16539294Y20308586D01*
X16724866Y20082466D01*
X16950986Y19896894D01*
X17208966Y19759001D01*
X17488889Y19674087D01*
X17707050Y19652600D01*
X17852950Y19652600D01*
X18071111Y19674087D01*
X18351034Y19759001D01*
X18609014Y19896894D01*
X18835134Y20082466D01*
X19020706Y20308586D01*
X19050000Y20363391D01*
X19079294Y20308586D01*
X19264866Y20082466D01*
X19490986Y19896894D01*
X19748966Y19759001D01*
X20028889Y19674087D01*
X20247050Y19652600D01*
X20392950Y19652600D01*
X20611111Y19674087D01*
X20891034Y19759001D01*
X21149014Y19896894D01*
X21375134Y20082466D01*
X21560706Y20308586D01*
X21590000Y20363391D01*
X21619294Y20308586D01*
X21804866Y20082466D01*
X22030986Y19896894D01*
X22288966Y19759001D01*
X22568889Y19674087D01*
X22787050Y19652600D01*
X22932950Y19652600D01*
X23151111Y19674087D01*
X23204529Y19690291D01*
X23134778Y19521898D01*
X23095004Y19321939D01*
X23095004Y19118061D01*
X23129296Y18945662D01*
X22932950Y18965000D01*
X22787050Y18965000D01*
X22568889Y18943513D01*
X22288966Y18858599D01*
X22030986Y18720706D01*
X21804866Y18535134D01*
X21619294Y18309014D01*
X21590000Y18254209D01*
X21560706Y18309014D01*
X21375134Y18535134D01*
X21149014Y18720706D01*
X20891034Y18858599D01*
X20611111Y18943513D01*
X20392950Y18965000D01*
X20247050Y18965000D01*
X20028889Y18943513D01*
X19748966Y18858599D01*
X19490986Y18720706D01*
X19264866Y18535134D01*
X19079294Y18309014D01*
X19050000Y18254209D01*
X19020706Y18309014D01*
X18835134Y18535134D01*
X18609014Y18720706D01*
X18351034Y18858599D01*
X18071111Y18943513D01*
X17852950Y18965000D01*
X17707050Y18965000D01*
X17488889Y18943513D01*
X17208966Y18858599D01*
X16950986Y18720706D01*
X16724866Y18535134D01*
X16539294Y18309014D01*
X16510000Y18254209D01*
X16480706Y18309014D01*
X16295134Y18535134D01*
X16069014Y18720706D01*
X15811034Y18858599D01*
X15531111Y18943513D01*
X15312950Y18965000D01*
X15167050Y18965000D01*
X14948889Y18943513D01*
X14668966Y18858599D01*
X14410986Y18720706D01*
X14184866Y18535134D01*
X13999294Y18309014D01*
X13970000Y18254209D01*
X13940706Y18309014D01*
X13755134Y18535134D01*
X13529014Y18720706D01*
X13271034Y18858599D01*
X12991111Y18943513D01*
X12772950Y18965000D01*
X12627050Y18965000D01*
X12408889Y18943513D01*
X12128966Y18858599D01*
X11870986Y18720706D01*
X11644866Y18535134D01*
X11459294Y18309014D01*
X11430000Y18254209D01*
X11400706Y18309014D01*
X11215134Y18535134D01*
X10989014Y18720706D01*
X10731034Y18858599D01*
X10451111Y18943513D01*
X10232950Y18965000D01*
X10087050Y18965000D01*
X9868889Y18943513D01*
X9588966Y18858599D01*
X9330986Y18720706D01*
X9104866Y18535134D01*
X8919294Y18309014D01*
X8890000Y18254209D01*
X8860706Y18309014D01*
X8675134Y18535134D01*
X8449014Y18720706D01*
X8191034Y18858599D01*
X7911111Y18943513D01*
X7692950Y18965000D01*
X7547050Y18965000D01*
X7328889Y18943513D01*
X7048966Y18858599D01*
X6790986Y18720706D01*
X6564866Y18535134D01*
X6379294Y18309014D01*
X6350000Y18254209D01*
X6320706Y18309014D01*
X6135134Y18535134D01*
X5909014Y18720706D01*
X5651034Y18858599D01*
X5371111Y18943513D01*
X5152950Y18965000D01*
X5007050Y18965000D01*
X4788889Y18943513D01*
X4508966Y18858599D01*
X4250986Y18720706D01*
X4024866Y18535134D01*
X4000393Y18505313D01*
X3979502Y18574180D01*
X3920537Y18684494D01*
X3841185Y18781185D01*
X3744494Y18860537D01*
X3634180Y18919502D01*
X3514482Y18955812D01*
X3390000Y18968072D01*
X1690000Y18968072D01*
X1565518Y18955812D01*
X1445820Y18919502D01*
X1335506Y18860537D01*
X1238815Y18781185D01*
X1159463Y18684494D01*
X1100498Y18574180D01*
X1064188Y18454482D01*
X1051928Y18330000D01*
X1051928Y16630000D01*
X1064188Y16505518D01*
X1100498Y16385820D01*
X1159463Y16275506D01*
X1238815Y16178815D01*
X1335506Y16099463D01*
X1445820Y16040498D01*
X1565518Y16004188D01*
X1690000Y15991928D01*
X3390000Y15991928D01*
X3514482Y16004188D01*
X3634180Y16040498D01*
X3744494Y16099463D01*
X3841185Y16178815D01*
X3920537Y16275506D01*
X3979502Y16385820D01*
X4000393Y16454687D01*
X4024866Y16424866D01*
X4250986Y16239294D01*
X4508966Y16101401D01*
X4788889Y16016487D01*
X5007050Y15995000D01*
X5152950Y15995000D01*
X5371111Y16016487D01*
X5651034Y16101401D01*
X5909014Y16239294D01*
X6135134Y16424866D01*
X6320706Y16650986D01*
X6350000Y16705791D01*
X6379294Y16650986D01*
X6564866Y16424866D01*
X6790986Y16239294D01*
X7048966Y16101401D01*
X7328889Y16016487D01*
X7547050Y15995000D01*
X7692950Y15995000D01*
X7911111Y16016487D01*
X8191034Y16101401D01*
X8449014Y16239294D01*
X8675134Y16424866D01*
X8860706Y16650986D01*
X8890000Y16705791D01*
X8919294Y16650986D01*
X9104866Y16424866D01*
X9330986Y16239294D01*
X9588966Y16101401D01*
X9868889Y16016487D01*
X10087050Y15995000D01*
X10232950Y15995000D01*
X10451111Y16016487D01*
X10731034Y16101401D01*
X10989014Y16239294D01*
X11215134Y16424866D01*
X11400706Y16650986D01*
X11430000Y16705791D01*
X11459294Y16650986D01*
X11644866Y16424866D01*
X11870986Y16239294D01*
X12128966Y16101401D01*
X12408889Y16016487D01*
X12627050Y15995000D01*
X12772950Y15995000D01*
X12991111Y16016487D01*
X13271034Y16101401D01*
X13529014Y16239294D01*
X13755134Y16424866D01*
X13940706Y16650986D01*
X13970000Y16705791D01*
X13999294Y16650986D01*
X14184866Y16424866D01*
X14410986Y16239294D01*
X14668966Y16101401D01*
X14948889Y16016487D01*
X15167050Y15995000D01*
X15312950Y15995000D01*
X15531111Y16016487D01*
X15811034Y16101401D01*
X16069014Y16239294D01*
X16295134Y16424866D01*
X16480706Y16650986D01*
X16510000Y16705791D01*
X16539294Y16650986D01*
X16724866Y16424866D01*
X16950986Y16239294D01*
X17036970Y16193335D01*
X16965851Y16186330D01*
X16769545Y16126782D01*
X16588631Y16030081D01*
X16430057Y15899943D01*
X16299919Y15741369D01*
X16203218Y15560455D01*
X16143670Y15364149D01*
X16123563Y15160000D01*
X16143670Y14955851D01*
X16203218Y14759545D01*
X16299919Y14578631D01*
X16397450Y14459789D01*
X16399248Y14457991D01*
X16431857Y14418257D01*
X16590430Y14288119D01*
X16771346Y14191417D01*
X16967650Y14131869D01*
X17120648Y14116800D01*
X17120656Y14116800D01*
X17171800Y14111763D01*
X17222944Y14116800D01*
X33322197Y14116800D01*
X33356251Y14106470D01*
X33560399Y14086363D01*
X33764549Y14106470D01*
X33960855Y14166018D01*
X34141769Y14262719D01*
X34300343Y14392857D01*
X34430481Y14551431D01*
X34527182Y14732345D01*
X34586730Y14928651D01*
X34606837Y15132801D01*
X34586730Y15336949D01*
X34527182Y15533255D01*
X34430481Y15714169D01*
X34332950Y15833011D01*
X34307551Y15858410D01*
X34274943Y15898143D01*
X34116370Y16028281D01*
X33935454Y16124983D01*
X33743877Y16183097D01*
X33849014Y16239294D01*
X34075134Y16424866D01*
X34260706Y16650986D01*
X34290000Y16705791D01*
X34319294Y16650986D01*
X34504866Y16424866D01*
X34730986Y16239294D01*
X34988966Y16101401D01*
X35268889Y16016487D01*
X35487050Y15995000D01*
X35632950Y15995000D01*
X35851111Y16016487D01*
X36131034Y16101401D01*
X36389014Y16239294D01*
X36615134Y16424866D01*
X36800706Y16650986D01*
X36830000Y16705791D01*
X36859294Y16650986D01*
X37044866Y16424866D01*
X37270986Y16239294D01*
X37528966Y16101401D01*
X37808889Y16016487D01*
X38027050Y15995000D01*
X38172950Y15995000D01*
X38391111Y16016487D01*
X38582601Y16074575D01*
X38582601Y15968673D01*
X38578792Y15930000D01*
X38593995Y15775643D01*
X38639018Y15627218D01*
X38675667Y15558654D01*
X38712135Y15490428D01*
X38810532Y15370531D01*
X38840573Y15345877D01*
X39595877Y14590573D01*
X39620531Y14560531D01*
X39740428Y14462134D01*
X39877217Y14389018D01*
X40025643Y14343994D01*
X40141327Y14332600D01*
X40141337Y14332600D01*
X40180000Y14328792D01*
X40218663Y14332600D01*
X47303689Y14332600D01*
X47320226Y14316063D01*
X47489744Y14202795D01*
X47678102Y14124774D01*
X47878061Y14085000D01*
X48081939Y14085000D01*
X48281898Y14124774D01*
X48470256Y14202795D01*
X48639774Y14316063D01*
X48783937Y14460226D01*
X48897205Y14629744D01*
X48975226Y14818102D01*
X49015000Y15018061D01*
X49015000Y15221939D01*
X48975226Y15421898D01*
X48897205Y15610256D01*
X48783937Y15779774D01*
X48639774Y15923937D01*
X48507667Y16012208D01*
X48551111Y16016487D01*
X48831034Y16101401D01*
X49089014Y16239294D01*
X49315134Y16424866D01*
X49500706Y16650986D01*
X49530000Y16705791D01*
X49559294Y16650986D01*
X49744866Y16424866D01*
X49970986Y16239294D01*
X50228966Y16101401D01*
X50508889Y16016487D01*
X50727050Y15995000D01*
X50872950Y15995000D01*
X51091111Y16016487D01*
X51371034Y16101401D01*
X51629014Y16239294D01*
X51855134Y16424866D01*
X52040706Y16650986D01*
X52178599Y16908966D01*
X52263513Y17188889D01*
X52292185Y17480000D01*
X52263513Y17771111D01*
X52178599Y18051034D01*
X52040706Y18309014D01*
X51855134Y18535134D01*
X51629014Y18720706D01*
X51371034Y18858599D01*
X51091111Y18943513D01*
X50872950Y18965000D01*
X50727050Y18965000D01*
X50508889Y18943513D01*
X50228966Y18858599D01*
X49970986Y18720706D01*
X49744866Y18535134D01*
X49559294Y18309014D01*
X49530000Y18254209D01*
X49500706Y18309014D01*
X49315134Y18535134D01*
X49089014Y18720706D01*
X48831034Y18858599D01*
X48551111Y18943513D01*
X48332950Y18965000D01*
X48187050Y18965000D01*
X47968889Y18943513D01*
X47688966Y18858599D01*
X47430986Y18720706D01*
X47204866Y18535134D01*
X47019294Y18309014D01*
X46990000Y18254209D01*
X46960706Y18309014D01*
X46775134Y18535134D01*
X46549014Y18720706D01*
X46291034Y18858599D01*
X46011111Y18943513D01*
X45792950Y18965000D01*
X45647050Y18965000D01*
X45428889Y18943513D01*
X45148966Y18858599D01*
X44890986Y18720706D01*
X44664866Y18535134D01*
X44479294Y18309014D01*
X44450000Y18254209D01*
X44420706Y18309014D01*
X44235134Y18535134D01*
X44009014Y18720706D01*
X43751034Y18858599D01*
X43471111Y18943513D01*
X43252950Y18965000D01*
X43107050Y18965000D01*
X42888889Y18943513D01*
X42608966Y18858599D01*
X42350986Y18720706D01*
X42124866Y18535134D01*
X41939294Y18309014D01*
X41910000Y18254209D01*
X41880706Y18309014D01*
X41695134Y18535134D01*
X41469014Y18720706D01*
X41211034Y18858599D01*
X40931111Y18943513D01*
X40712950Y18965000D01*
X40567050Y18965000D01*
X40348889Y18943513D01*
X40068966Y18858599D01*
X40018135Y18831429D01*
X39954122Y18909430D01*
X39954119Y18909433D01*
X39929469Y18939469D01*
X39899434Y18964118D01*
X39314127Y19549423D01*
X39289469Y19579469D01*
X39169572Y19677866D01*
X39032783Y19750982D01*
X38884357Y19796006D01*
X38768673Y19807400D01*
X38768663Y19807400D01*
X38762684Y19807989D01*
X38929014Y19896894D01*
X39155134Y20082466D01*
X39340706Y20308586D01*
X39370000Y20363391D01*
X39399294Y20308586D01*
X39584866Y20082466D01*
X39810986Y19896894D01*
X40068966Y19759001D01*
X40348889Y19674087D01*
X40567050Y19652600D01*
X40712950Y19652600D01*
X40931111Y19674087D01*
X41211034Y19759001D01*
X41469014Y19896894D01*
X41695134Y20082466D01*
X41880706Y20308586D01*
X41910000Y20363391D01*
X41939294Y20308586D01*
X42124866Y20082466D01*
X42350986Y19896894D01*
X42608966Y19759001D01*
X42888889Y19674087D01*
X43107050Y19652600D01*
X43252950Y19652600D01*
X43471111Y19674087D01*
X43751034Y19759001D01*
X44009014Y19896894D01*
X44235134Y20082466D01*
X44420706Y20308586D01*
X44450000Y20363391D01*
X44479294Y20308586D01*
X44664866Y20082466D01*
X44890986Y19896894D01*
X45148966Y19759001D01*
X45428889Y19674087D01*
X45647050Y19652600D01*
X45792950Y19652600D01*
X46011111Y19674087D01*
X46291034Y19759001D01*
X46549014Y19896894D01*
X46775134Y20082466D01*
X46960706Y20308586D01*
X46990000Y20363391D01*
X47019294Y20308586D01*
X47204866Y20082466D01*
X47430986Y19896894D01*
X47688966Y19759001D01*
X47968889Y19674087D01*
X48187050Y19652600D01*
X48332950Y19652600D01*
X48551111Y19674087D01*
X48831034Y19759001D01*
X49089014Y19896894D01*
X49315134Y20082466D01*
X49500706Y20308586D01*
X49530000Y20363391D01*
X49559294Y20308586D01*
X49744866Y20082466D01*
X49970986Y19896894D01*
X50228966Y19759001D01*
X50508889Y19674087D01*
X50727050Y19652600D01*
X50872950Y19652600D01*
X51091111Y19674087D01*
X51371034Y19759001D01*
X51629014Y19896894D01*
X51855134Y20082466D01*
X52040706Y20308586D01*
X52178599Y20566566D01*
X52263513Y20846489D01*
X52292185Y21137600D01*
X52263513Y21428711D01*
X52178599Y21708634D01*
X52040706Y21966614D01*
X51855134Y22192734D01*
X51629014Y22378306D01*
X51371034Y22516199D01*
X51091111Y22601113D01*
X50872950Y22622600D01*
X50727050Y22622600D01*
X50508889Y22601113D01*
X50228966Y22516199D01*
X49970986Y22378306D01*
X49744866Y22192734D01*
X49559294Y21966614D01*
X49530000Y21911809D01*
X49500706Y21966614D01*
X49315134Y22192734D01*
X49089014Y22378306D01*
X48831034Y22516199D01*
X48551111Y22601113D01*
X48332950Y22622600D01*
X48187050Y22622600D01*
X47968889Y22601113D01*
X47688966Y22516199D01*
X47430986Y22378306D01*
X47204866Y22192734D01*
X47019294Y21966614D01*
X46990000Y21911809D01*
X46960706Y21966614D01*
X46775134Y22192734D01*
X46549014Y22378306D01*
X46291034Y22516199D01*
X46011111Y22601113D01*
X45792950Y22622600D01*
X45647050Y22622600D01*
X45428889Y22601113D01*
X45148966Y22516199D01*
X44890986Y22378306D01*
X44664866Y22192734D01*
X44479294Y21966614D01*
X44450000Y21911809D01*
X44420706Y21966614D01*
X44235134Y22192734D01*
X44009014Y22378306D01*
X43751034Y22516199D01*
X43471111Y22601113D01*
X43252950Y22622600D01*
X43107050Y22622600D01*
X42888889Y22601113D01*
X42608966Y22516199D01*
X42350986Y22378306D01*
X42124866Y22192734D01*
X41939294Y21966614D01*
X41910000Y21911809D01*
X41880706Y21966614D01*
X41695134Y22192734D01*
X41469014Y22378306D01*
X41211034Y22516199D01*
X40931111Y22601113D01*
X40712950Y22622600D01*
X40567050Y22622600D01*
X40348889Y22601113D01*
X40068966Y22516199D01*
X39810986Y22378306D01*
X39584866Y22192734D01*
X39399294Y21966614D01*
X39370000Y21911809D01*
X39340706Y21966614D01*
X39155134Y22192734D01*
X38929014Y22378306D01*
X38671034Y22516199D01*
X38391111Y22601113D01*
X38172950Y22622600D01*
X38027050Y22622600D01*
X37808889Y22601113D01*
X37528966Y22516199D01*
X37270986Y22378306D01*
X37044866Y22192734D01*
X36859294Y21966614D01*
X36830000Y21911809D01*
X36800706Y21966614D01*
X36615134Y22192734D01*
X36389014Y22378306D01*
X36131034Y22516199D01*
X35851111Y22601113D01*
X35632950Y22622600D01*
X35487050Y22622600D01*
X35268889Y22601113D01*
X34988966Y22516199D01*
X34730986Y22378306D01*
X34504866Y22192734D01*
X34319294Y21966614D01*
X34290000Y21911809D01*
X34260706Y21966614D01*
X34075134Y22192734D01*
X33849014Y22378306D01*
X33591034Y22516199D01*
X33311111Y22601113D01*
X33092950Y22622600D01*
X32947050Y22622600D01*
X32728889Y22601113D01*
X32448966Y22516199D01*
X32190986Y22378306D01*
X31964866Y22192734D01*
X31779294Y21966614D01*
X31750000Y21911809D01*
X31720706Y21966614D01*
X31535134Y22192734D01*
X31309014Y22378306D01*
X31051034Y22516199D01*
X30771111Y22601113D01*
X30552950Y22622600D01*
X30407050Y22622600D01*
X30188889Y22601113D01*
X29908966Y22516199D01*
X29650986Y22378306D01*
X29424866Y22192734D01*
X29239294Y21966614D01*
X29210000Y21911809D01*
X29180706Y21966614D01*
X28995134Y22192734D01*
X28769014Y22378306D01*
X28511034Y22516199D01*
X28231111Y22601113D01*
X28012950Y22622600D01*
X27867050Y22622600D01*
X27648889Y22601113D01*
X27368966Y22516199D01*
X27110986Y22378306D01*
X26884866Y22192734D01*
X26699294Y21966614D01*
X26670000Y21911809D01*
X26640706Y21966614D01*
X26455134Y22192734D01*
X26229014Y22378306D01*
X25971034Y22516199D01*
X25691111Y22601113D01*
X25472950Y22622600D01*
X25327050Y22622600D01*
X25108889Y22601113D01*
X24828966Y22516199D01*
X24570986Y22378306D01*
X24344866Y22192734D01*
X24159294Y21966614D01*
X24130000Y21911809D01*
X24100706Y21966614D01*
X23915134Y22192734D01*
X23689014Y22378306D01*
X23431034Y22516199D01*
X23151111Y22601113D01*
X22932950Y22622600D01*
X22787050Y22622600D01*
X22568889Y22601113D01*
X22288966Y22516199D01*
X22030986Y22378306D01*
X21804866Y22192734D01*
X21619294Y21966614D01*
X21590000Y21911809D01*
X21560706Y21966614D01*
X21375134Y22192734D01*
X21149014Y22378306D01*
X20891034Y22516199D01*
X20611111Y22601113D01*
X20392950Y22622600D01*
X20247050Y22622600D01*
X20028889Y22601113D01*
X19748966Y22516199D01*
X19490986Y22378306D01*
X19264866Y22192734D01*
X19079294Y21966614D01*
X19050000Y21911809D01*
X19020706Y21966614D01*
X18835134Y22192734D01*
X18609014Y22378306D01*
X18351034Y22516199D01*
X18071111Y22601113D01*
X17852950Y22622600D01*
X17707050Y22622600D01*
X17488889Y22601113D01*
X17208966Y22516199D01*
X16950986Y22378306D01*
X16724866Y22192734D01*
X16539294Y21966614D01*
X16510000Y21911809D01*
X16480706Y21966614D01*
X16295134Y22192734D01*
X16069014Y22378306D01*
X15811034Y22516199D01*
X15531111Y22601113D01*
X15312950Y22622600D01*
X15167050Y22622600D01*
X14948889Y22601113D01*
X14668966Y22516199D01*
X14410986Y22378306D01*
X14184866Y22192734D01*
X13999294Y21966614D01*
X13970000Y21911809D01*
X13940706Y21966614D01*
X13755134Y22192734D01*
X13529014Y22378306D01*
X13271034Y22516199D01*
X12991111Y22601113D01*
X12772950Y22622600D01*
X12627050Y22622600D01*
X12408889Y22601113D01*
X12128966Y22516199D01*
X11870986Y22378306D01*
X11644866Y22192734D01*
X11459294Y21966614D01*
X11430000Y21911809D01*
X11400706Y21966614D01*
X11215134Y22192734D01*
X10989014Y22378306D01*
X10731034Y22516199D01*
X10451111Y22601113D01*
X10232950Y22622600D01*
X10087050Y22622600D01*
X9868889Y22601113D01*
X9588966Y22516199D01*
X9330986Y22378306D01*
X9104866Y22192734D01*
X8919294Y21966614D01*
X8890000Y21911809D01*
X8860706Y21966614D01*
X8675134Y22192734D01*
X8449014Y22378306D01*
X8191034Y22516199D01*
X7911111Y22601113D01*
X7692950Y22622600D01*
X7547050Y22622600D01*
X7328889Y22601113D01*
X7048966Y22516199D01*
X6790986Y22378306D01*
X6564866Y22192734D01*
X6379294Y21966614D01*
X6350000Y21911809D01*
X6320706Y21966614D01*
X6135134Y22192734D01*
X5909014Y22378306D01*
X5651034Y22516199D01*
X5371111Y22601113D01*
X5152950Y22622600D01*
X5007050Y22622600D01*
X4788889Y22601113D01*
X4508966Y22516199D01*
X4250986Y22378306D01*
X4024866Y22192734D01*
X4000393Y22162913D01*
X3979502Y22231780D01*
X3920537Y22342094D01*
X3841185Y22438785D01*
X3744494Y22518137D01*
X3634180Y22577102D01*
X3514482Y22613412D01*
X3390000Y22625672D01*
X1690000Y22625672D01*
X1565518Y22613412D01*
X1445820Y22577102D01*
X1335506Y22518137D01*
X1238815Y22438785D01*
X1159463Y22342094D01*
X1100498Y22231780D01*
X1064188Y22112082D01*
X1051928Y21987600D01*
X660000Y21987600D01*
X660000Y22660000D01*
X52680000Y22660000D01*
X52680001Y660000D01*
X52680001Y660000D01*
G37*
X52680001Y660000D02*
X660000Y660000D01*
X660000Y3090000D01*
X1051928Y3090000D01*
X1051928Y1390000D01*
X1064188Y1265518D01*
X1100498Y1145820D01*
X1159463Y1035506D01*
X1238815Y938815D01*
X1335506Y859463D01*
X1445820Y800498D01*
X1565518Y764188D01*
X1690000Y751928D01*
X3390000Y751928D01*
X3514482Y764188D01*
X3634180Y800498D01*
X3744494Y859463D01*
X3841185Y938815D01*
X3920537Y1035506D01*
X3979502Y1145820D01*
X4000393Y1214687D01*
X4024866Y1184866D01*
X4250986Y999294D01*
X4508966Y861401D01*
X4788889Y776487D01*
X5007050Y755000D01*
X5152950Y755000D01*
X5371111Y776487D01*
X5651034Y861401D01*
X5909014Y999294D01*
X6135134Y1184866D01*
X6320706Y1410986D01*
X6355201Y1475523D01*
X6424822Y1358645D01*
X6619731Y1142412D01*
X6853080Y968359D01*
X7115901Y843175D01*
X7263110Y798524D01*
X7493000Y919845D01*
X7493000Y2113000D01*
X7473000Y2113000D01*
X7473000Y2367000D01*
X7493000Y2367000D01*
X7493000Y3560155D01*
X7263110Y3681476D01*
X7115901Y3636825D01*
X6853080Y3511641D01*
X6619731Y3337588D01*
X6424822Y3121355D01*
X6355201Y3004477D01*
X6320706Y3069014D01*
X6135134Y3295134D01*
X5909014Y3480706D01*
X5651034Y3618599D01*
X5371111Y3703513D01*
X5152950Y3725000D01*
X5007050Y3725000D01*
X4788889Y3703513D01*
X4508966Y3618599D01*
X4250986Y3480706D01*
X4024866Y3295134D01*
X4000393Y3265313D01*
X3979502Y3334180D01*
X3920537Y3444494D01*
X3841185Y3541185D01*
X3744494Y3620537D01*
X3634180Y3679502D01*
X3514482Y3715812D01*
X3390000Y3728072D01*
X1690000Y3728072D01*
X1565518Y3715812D01*
X1445820Y3679502D01*
X1335506Y3620537D01*
X1238815Y3541185D01*
X1159463Y3444494D01*
X1100498Y3334180D01*
X1064188Y3214482D01*
X1051928Y3090000D01*
X660000Y3090000D01*
X660000Y6747600D01*
X1051928Y6747600D01*
X1051928Y5047600D01*
X1064188Y4923118D01*
X1100498Y4803420D01*
X1159463Y4693106D01*
X1238815Y4596415D01*
X1335506Y4517063D01*
X1445820Y4458098D01*
X1565518Y4421788D01*
X1690000Y4409528D01*
X3390000Y4409528D01*
X3514482Y4421788D01*
X3634180Y4458098D01*
X3744494Y4517063D01*
X3841185Y4596415D01*
X3920537Y4693106D01*
X3979502Y4803420D01*
X4000393Y4872287D01*
X4024866Y4842466D01*
X4250986Y4656894D01*
X4508966Y4519001D01*
X4788889Y4434087D01*
X5007050Y4412600D01*
X5152950Y4412600D01*
X5371111Y4434087D01*
X5651034Y4519001D01*
X5909014Y4656894D01*
X6135134Y4842466D01*
X6320706Y5068586D01*
X6355201Y5133123D01*
X6424822Y5016245D01*
X6619731Y4800012D01*
X6853080Y4625959D01*
X7115901Y4500775D01*
X7263110Y4456124D01*
X7493000Y4577445D01*
X7493000Y5770600D01*
X7473000Y5770600D01*
X7473000Y6024600D01*
X7493000Y6024600D01*
X7493000Y7217755D01*
X7747000Y7217755D01*
X7747000Y6024600D01*
X7767000Y6024600D01*
X7767000Y5770600D01*
X7747000Y5770600D01*
X7747000Y4577445D01*
X7976890Y4456124D01*
X8124099Y4500775D01*
X8386920Y4625959D01*
X8620269Y4800012D01*
X8815178Y5016245D01*
X8884799Y5133123D01*
X8919294Y5068586D01*
X9104866Y4842466D01*
X9330986Y4656894D01*
X9588966Y4519001D01*
X9868889Y4434087D01*
X10087050Y4412600D01*
X10232950Y4412600D01*
X10451111Y4434087D01*
X10731034Y4519001D01*
X10989014Y4656894D01*
X11215134Y4842466D01*
X11400706Y5068586D01*
X11430000Y5123391D01*
X11459294Y5068586D01*
X11644866Y4842466D01*
X11870986Y4656894D01*
X12128966Y4519001D01*
X12408889Y4434087D01*
X12627050Y4412600D01*
X12772950Y4412600D01*
X12991111Y4434087D01*
X13271034Y4519001D01*
X13529014Y4656894D01*
X13755134Y4842466D01*
X13940706Y5068586D01*
X13970000Y5123391D01*
X13999294Y5068586D01*
X14184866Y4842466D01*
X14410986Y4656894D01*
X14668966Y4519001D01*
X14948889Y4434087D01*
X15167050Y4412600D01*
X15312950Y4412600D01*
X15531111Y4434087D01*
X15811034Y4519001D01*
X16069014Y4656894D01*
X16295134Y4842466D01*
X16480706Y5068586D01*
X16510000Y5123391D01*
X16539294Y5068586D01*
X16724866Y4842466D01*
X16950986Y4656894D01*
X17208966Y4519001D01*
X17488889Y4434087D01*
X17707050Y4412600D01*
X17852950Y4412600D01*
X18071111Y4434087D01*
X18351034Y4519001D01*
X18609014Y4656894D01*
X18835134Y4842466D01*
X19020706Y5068586D01*
X19050000Y5123391D01*
X19079294Y5068586D01*
X19264866Y4842466D01*
X19490986Y4656894D01*
X19748966Y4519001D01*
X20028889Y4434087D01*
X20247050Y4412600D01*
X20392950Y4412600D01*
X20611111Y4434087D01*
X20891034Y4519001D01*
X21149014Y4656894D01*
X21375134Y4842466D01*
X21560706Y5068586D01*
X21590000Y5123391D01*
X21619294Y5068586D01*
X21804866Y4842466D01*
X22030986Y4656894D01*
X22288966Y4519001D01*
X22568889Y4434087D01*
X22787050Y4412600D01*
X22932950Y4412600D01*
X23151111Y4434087D01*
X23431034Y4519001D01*
X23689014Y4656894D01*
X23915134Y4842466D01*
X24100706Y5068586D01*
X24130000Y5123391D01*
X24159294Y5068586D01*
X24344866Y4842466D01*
X24570986Y4656894D01*
X24828966Y4519001D01*
X25108889Y4434087D01*
X25327050Y4412600D01*
X25472950Y4412600D01*
X25691111Y4434087D01*
X25971034Y4519001D01*
X26229014Y4656894D01*
X26455134Y4842466D01*
X26640706Y5068586D01*
X26670000Y5123391D01*
X26699294Y5068586D01*
X26884866Y4842466D01*
X27110986Y4656894D01*
X27368966Y4519001D01*
X27648889Y4434087D01*
X27867050Y4412600D01*
X28012950Y4412600D01*
X28231111Y4434087D01*
X28511034Y4519001D01*
X28769014Y4656894D01*
X28995134Y4842466D01*
X29180706Y5068586D01*
X29210000Y5123391D01*
X29239294Y5068586D01*
X29424866Y4842466D01*
X29650986Y4656894D01*
X29908966Y4519001D01*
X30188889Y4434087D01*
X30407050Y4412600D01*
X30552950Y4412600D01*
X30771111Y4434087D01*
X31051034Y4519001D01*
X31309014Y4656894D01*
X31535134Y4842466D01*
X31720706Y5068586D01*
X31750000Y5123391D01*
X31779294Y5068586D01*
X31964866Y4842466D01*
X32190986Y4656894D01*
X32448966Y4519001D01*
X32728889Y4434087D01*
X32947050Y4412600D01*
X33092950Y4412600D01*
X33311111Y4434087D01*
X33591034Y4519001D01*
X33849014Y4656894D01*
X34075134Y4842466D01*
X34260706Y5068586D01*
X34290000Y5123391D01*
X34319294Y5068586D01*
X34504866Y4842466D01*
X34730986Y4656894D01*
X34988966Y4519001D01*
X35268889Y4434087D01*
X35487050Y4412600D01*
X35632950Y4412600D01*
X35851111Y4434087D01*
X36131034Y4519001D01*
X36389014Y4656894D01*
X36615134Y4842466D01*
X36800706Y5068586D01*
X36830000Y5123391D01*
X36859294Y5068586D01*
X37044866Y4842466D01*
X37270986Y4656894D01*
X37528966Y4519001D01*
X37808889Y4434087D01*
X38027050Y4412600D01*
X38172950Y4412600D01*
X38391111Y4434087D01*
X38671034Y4519001D01*
X38929014Y4656894D01*
X39155134Y4842466D01*
X39340706Y5068586D01*
X39370000Y5123391D01*
X39399294Y5068586D01*
X39584866Y4842466D01*
X39810986Y4656894D01*
X40068966Y4519001D01*
X40348889Y4434087D01*
X40567050Y4412600D01*
X40712950Y4412600D01*
X40931111Y4434087D01*
X41211034Y4519001D01*
X41469014Y4656894D01*
X41695134Y4842466D01*
X41880706Y5068586D01*
X41910000Y5123391D01*
X41939294Y5068586D01*
X42124866Y4842466D01*
X42350986Y4656894D01*
X42608966Y4519001D01*
X42888889Y4434087D01*
X43107050Y4412600D01*
X43252950Y4412600D01*
X43471111Y4434087D01*
X43751034Y4519001D01*
X44009014Y4656894D01*
X44235134Y4842466D01*
X44420706Y5068586D01*
X44450000Y5123391D01*
X44479294Y5068586D01*
X44664866Y4842466D01*
X44890986Y4656894D01*
X45148966Y4519001D01*
X45428889Y4434087D01*
X45647050Y4412600D01*
X45792950Y4412600D01*
X46011111Y4434087D01*
X46202600Y4492175D01*
X46202600Y3645425D01*
X46011111Y3703513D01*
X45792950Y3725000D01*
X45647050Y3725000D01*
X45428889Y3703513D01*
X45148966Y3618599D01*
X44890986Y3480706D01*
X44664866Y3295134D01*
X44479294Y3069014D01*
X44450000Y3014209D01*
X44420706Y3069014D01*
X44235134Y3295134D01*
X44009014Y3480706D01*
X43751034Y3618599D01*
X43471111Y3703513D01*
X43252950Y3725000D01*
X43107050Y3725000D01*
X42888889Y3703513D01*
X42608966Y3618599D01*
X42350986Y3480706D01*
X42124866Y3295134D01*
X41939294Y3069014D01*
X41910000Y3014209D01*
X41880706Y3069014D01*
X41695134Y3295134D01*
X41469014Y3480706D01*
X41211034Y3618599D01*
X40931111Y3703513D01*
X40712950Y3725000D01*
X40567050Y3725000D01*
X40348889Y3703513D01*
X40068966Y3618599D01*
X39810986Y3480706D01*
X39584866Y3295134D01*
X39399294Y3069014D01*
X39370000Y3014209D01*
X39340706Y3069014D01*
X39155134Y3295134D01*
X38929014Y3480706D01*
X38671034Y3618599D01*
X38391111Y3703513D01*
X38172950Y3725000D01*
X38027050Y3725000D01*
X37808889Y3703513D01*
X37528966Y3618599D01*
X37270986Y3480706D01*
X37044866Y3295134D01*
X36859294Y3069014D01*
X36830000Y3014209D01*
X36800706Y3069014D01*
X36615134Y3295134D01*
X36389014Y3480706D01*
X36131034Y3618599D01*
X35851111Y3703513D01*
X35632950Y3725000D01*
X35487050Y3725000D01*
X35268889Y3703513D01*
X34988966Y3618599D01*
X34730986Y3480706D01*
X34504866Y3295134D01*
X34319294Y3069014D01*
X34290000Y3014209D01*
X34260706Y3069014D01*
X34075134Y3295134D01*
X33849014Y3480706D01*
X33591034Y3618599D01*
X33311111Y3703513D01*
X33092950Y3725000D01*
X32947050Y3725000D01*
X32728889Y3703513D01*
X32448966Y3618599D01*
X32190986Y3480706D01*
X31964866Y3295134D01*
X31779294Y3069014D01*
X31750000Y3014209D01*
X31720706Y3069014D01*
X31535134Y3295134D01*
X31309014Y3480706D01*
X31051034Y3618599D01*
X30771111Y3703513D01*
X30552950Y3725000D01*
X30407050Y3725000D01*
X30188889Y3703513D01*
X29908966Y3618599D01*
X29650986Y3480706D01*
X29424866Y3295134D01*
X29239294Y3069014D01*
X29210000Y3014209D01*
X29180706Y3069014D01*
X28995134Y3295134D01*
X28769014Y3480706D01*
X28511034Y3618599D01*
X28231111Y3703513D01*
X28012950Y3725000D01*
X27867050Y3725000D01*
X27648889Y3703513D01*
X27368966Y3618599D01*
X27110986Y3480706D01*
X26884866Y3295134D01*
X26699294Y3069014D01*
X26670000Y3014209D01*
X26640706Y3069014D01*
X26455134Y3295134D01*
X26229014Y3480706D01*
X25971034Y3618599D01*
X25691111Y3703513D01*
X25472950Y3725000D01*
X25327050Y3725000D01*
X25108889Y3703513D01*
X24828966Y3618599D01*
X24570986Y3480706D01*
X24344866Y3295134D01*
X24159294Y3069014D01*
X24130000Y3014209D01*
X24100706Y3069014D01*
X23915134Y3295134D01*
X23689014Y3480706D01*
X23431034Y3618599D01*
X23151111Y3703513D01*
X22932950Y3725000D01*
X22787050Y3725000D01*
X22568889Y3703513D01*
X22288966Y3618599D01*
X22030986Y3480706D01*
X21804866Y3295134D01*
X21619294Y3069014D01*
X21590000Y3014209D01*
X21560706Y3069014D01*
X21375134Y3295134D01*
X21149014Y3480706D01*
X20891034Y3618599D01*
X20611111Y3703513D01*
X20392950Y3725000D01*
X20247050Y3725000D01*
X20028889Y3703513D01*
X19748966Y3618599D01*
X19490986Y3480706D01*
X19264866Y3295134D01*
X19079294Y3069014D01*
X19050000Y3014209D01*
X19020706Y3069014D01*
X18835134Y3295134D01*
X18609014Y3480706D01*
X18351034Y3618599D01*
X18071111Y3703513D01*
X17852950Y3725000D01*
X17707050Y3725000D01*
X17488889Y3703513D01*
X17208966Y3618599D01*
X16950986Y3480706D01*
X16724866Y3295134D01*
X16539294Y3069014D01*
X16510000Y3014209D01*
X16480706Y3069014D01*
X16295134Y3295134D01*
X16069014Y3480706D01*
X15811034Y3618599D01*
X15531111Y3703513D01*
X15312950Y3725000D01*
X15167050Y3725000D01*
X14948889Y3703513D01*
X14668966Y3618599D01*
X14410986Y3480706D01*
X14184866Y3295134D01*
X13999294Y3069014D01*
X13970000Y3014209D01*
X13940706Y3069014D01*
X13755134Y3295134D01*
X13529014Y3480706D01*
X13271034Y3618599D01*
X12991111Y3703513D01*
X12772950Y3725000D01*
X12627050Y3725000D01*
X12408889Y3703513D01*
X12128966Y3618599D01*
X11870986Y3480706D01*
X11644866Y3295134D01*
X11459294Y3069014D01*
X11430000Y3014209D01*
X11400706Y3069014D01*
X11215134Y3295134D01*
X10989014Y3480706D01*
X10731034Y3618599D01*
X10451111Y3703513D01*
X10232950Y3725000D01*
X10087050Y3725000D01*
X9868889Y3703513D01*
X9588966Y3618599D01*
X9330986Y3480706D01*
X9104866Y3295134D01*
X8919294Y3069014D01*
X8884799Y3004477D01*
X8815178Y3121355D01*
X8620269Y3337588D01*
X8386920Y3511641D01*
X8124099Y3636825D01*
X7976890Y3681476D01*
X7747000Y3560155D01*
X7747000Y2367000D01*
X7767000Y2367000D01*
X7767000Y2113000D01*
X7747000Y2113000D01*
X7747000Y919845D01*
X7976890Y798524D01*
X8124099Y843175D01*
X8386920Y968359D01*
X8620269Y1142412D01*
X8815178Y1358645D01*
X8884799Y1475523D01*
X8919294Y1410986D01*
X9104866Y1184866D01*
X9330986Y999294D01*
X9588966Y861401D01*
X9868889Y776487D01*
X10087050Y755000D01*
X10232950Y755000D01*
X10451111Y776487D01*
X10731034Y861401D01*
X10989014Y999294D01*
X11215134Y1184866D01*
X11400706Y1410986D01*
X11430000Y1465791D01*
X11459294Y1410986D01*
X11644866Y1184866D01*
X11870986Y999294D01*
X12128966Y861401D01*
X12408889Y776487D01*
X12627050Y755000D01*
X12772950Y755000D01*
X12991111Y776487D01*
X13271034Y861401D01*
X13529014Y999294D01*
X13755134Y1184866D01*
X13940706Y1410986D01*
X13970000Y1465791D01*
X13999294Y1410986D01*
X14184866Y1184866D01*
X14410986Y999294D01*
X14668966Y861401D01*
X14948889Y776487D01*
X15167050Y755000D01*
X15312950Y755000D01*
X15531111Y776487D01*
X15811034Y861401D01*
X16069014Y999294D01*
X16295134Y1184866D01*
X16480706Y1410986D01*
X16510000Y1465791D01*
X16539294Y1410986D01*
X16724866Y1184866D01*
X16950986Y999294D01*
X17208966Y861401D01*
X17488889Y776487D01*
X17707050Y755000D01*
X17852950Y755000D01*
X18071111Y776487D01*
X18351034Y861401D01*
X18609014Y999294D01*
X18835134Y1184866D01*
X19020706Y1410986D01*
X19050000Y1465791D01*
X19079294Y1410986D01*
X19264866Y1184866D01*
X19490986Y999294D01*
X19748966Y861401D01*
X20028889Y776487D01*
X20247050Y755000D01*
X20392950Y755000D01*
X20611111Y776487D01*
X20891034Y861401D01*
X21149014Y999294D01*
X21375134Y1184866D01*
X21560706Y1410986D01*
X21590000Y1465791D01*
X21619294Y1410986D01*
X21804866Y1184866D01*
X22030986Y999294D01*
X22288966Y861401D01*
X22568889Y776487D01*
X22787050Y755000D01*
X22932950Y755000D01*
X23151111Y776487D01*
X23431034Y861401D01*
X23689014Y999294D01*
X23915134Y1184866D01*
X24100706Y1410986D01*
X24130000Y1465791D01*
X24159294Y1410986D01*
X24344866Y1184866D01*
X24570986Y999294D01*
X24828966Y861401D01*
X25108889Y776487D01*
X25327050Y755000D01*
X25472950Y755000D01*
X25691111Y776487D01*
X25971034Y861401D01*
X26229014Y999294D01*
X26455134Y1184866D01*
X26640706Y1410986D01*
X26670000Y1465791D01*
X26699294Y1410986D01*
X26884866Y1184866D01*
X27110986Y999294D01*
X27368966Y861401D01*
X27648889Y776487D01*
X27867050Y755000D01*
X28012950Y755000D01*
X28231111Y776487D01*
X28511034Y861401D01*
X28769014Y999294D01*
X28995134Y1184866D01*
X29180706Y1410986D01*
X29210000Y1465791D01*
X29239294Y1410986D01*
X29424866Y1184866D01*
X29650986Y999294D01*
X29908966Y861401D01*
X30188889Y776487D01*
X30407050Y755000D01*
X30552950Y755000D01*
X30771111Y776487D01*
X31051034Y861401D01*
X31309014Y999294D01*
X31535134Y1184866D01*
X31720706Y1410986D01*
X31750000Y1465791D01*
X31779294Y1410986D01*
X31964866Y1184866D01*
X32190986Y999294D01*
X32448966Y861401D01*
X32728889Y776487D01*
X32947050Y755000D01*
X33092950Y755000D01*
X33311111Y776487D01*
X33591034Y861401D01*
X33849014Y999294D01*
X34075134Y1184866D01*
X34260706Y1410986D01*
X34290000Y1465791D01*
X34319294Y1410986D01*
X34504866Y1184866D01*
X34730986Y999294D01*
X34988966Y861401D01*
X35268889Y776487D01*
X35487050Y755000D01*
X35632950Y755000D01*
X35851111Y776487D01*
X36131034Y861401D01*
X36389014Y999294D01*
X36615134Y1184866D01*
X36800706Y1410986D01*
X36830000Y1465791D01*
X36859294Y1410986D01*
X37044866Y1184866D01*
X37270986Y999294D01*
X37528966Y861401D01*
X37808889Y776487D01*
X38027050Y755000D01*
X38172950Y755000D01*
X38391111Y776487D01*
X38671034Y861401D01*
X38929014Y999294D01*
X39155134Y1184866D01*
X39340706Y1410986D01*
X39370000Y1465791D01*
X39399294Y1410986D01*
X39584866Y1184866D01*
X39810986Y999294D01*
X40068966Y861401D01*
X40348889Y776487D01*
X40567050Y755000D01*
X40712950Y755000D01*
X40931111Y776487D01*
X41211034Y861401D01*
X41469014Y999294D01*
X41695134Y1184866D01*
X41880706Y1410986D01*
X41910000Y1465791D01*
X41939294Y1410986D01*
X42124866Y1184866D01*
X42350986Y999294D01*
X42608966Y861401D01*
X42888889Y776487D01*
X43107050Y755000D01*
X43252950Y755000D01*
X43471111Y776487D01*
X43751034Y861401D01*
X44009014Y999294D01*
X44235134Y1184866D01*
X44420706Y1410986D01*
X44450000Y1465791D01*
X44479294Y1410986D01*
X44664866Y1184866D01*
X44890986Y999294D01*
X45148966Y861401D01*
X45428889Y776487D01*
X45647050Y755000D01*
X45792950Y755000D01*
X46011111Y776487D01*
X46291034Y861401D01*
X46549014Y999294D01*
X46775134Y1184866D01*
X46960706Y1410986D01*
X46990000Y1465791D01*
X47019294Y1410986D01*
X47204866Y1184866D01*
X47430986Y999294D01*
X47688966Y861401D01*
X47968889Y776487D01*
X48187050Y755000D01*
X48332950Y755000D01*
X48551111Y776487D01*
X48831034Y861401D01*
X49089014Y999294D01*
X49315134Y1184866D01*
X49500706Y1410986D01*
X49530000Y1465791D01*
X49559294Y1410986D01*
X49744866Y1184866D01*
X49970986Y999294D01*
X50228966Y861401D01*
X50508889Y776487D01*
X50727050Y755000D01*
X50872950Y755000D01*
X51091111Y776487D01*
X51371034Y861401D01*
X51629014Y999294D01*
X51855134Y1184866D01*
X52040706Y1410986D01*
X52178599Y1668966D01*
X52263513Y1948889D01*
X52292185Y2240000D01*
X52263513Y2531111D01*
X52178599Y2811034D01*
X52040706Y3069014D01*
X51855134Y3295134D01*
X51629014Y3480706D01*
X51371034Y3618599D01*
X51091111Y3703513D01*
X50872950Y3725000D01*
X50727050Y3725000D01*
X50508889Y3703513D01*
X50228966Y3618599D01*
X49970986Y3480706D01*
X49744866Y3295134D01*
X49559294Y3069014D01*
X49530000Y3014209D01*
X49500706Y3069014D01*
X49315134Y3295134D01*
X49089014Y3480706D01*
X48831034Y3618599D01*
X48551111Y3703513D01*
X48332950Y3725000D01*
X48187050Y3725000D01*
X47968889Y3703513D01*
X47923735Y3689816D01*
X47777400Y3836150D01*
X47777400Y4492175D01*
X47968889Y4434087D01*
X48187050Y4412600D01*
X48332950Y4412600D01*
X48551111Y4434087D01*
X48831034Y4519001D01*
X49089014Y4656894D01*
X49315134Y4842466D01*
X49500706Y5068586D01*
X49530000Y5123391D01*
X49559294Y5068586D01*
X49744866Y4842466D01*
X49970986Y4656894D01*
X50228966Y4519001D01*
X50508889Y4434087D01*
X50727050Y4412600D01*
X50872950Y4412600D01*
X51091111Y4434087D01*
X51371034Y4519001D01*
X51629014Y4656894D01*
X51855134Y4842466D01*
X52040706Y5068586D01*
X52178599Y5326566D01*
X52263513Y5606489D01*
X52292185Y5897600D01*
X52263513Y6188711D01*
X52178599Y6468634D01*
X52040706Y6726614D01*
X51855134Y6952734D01*
X51629014Y7138306D01*
X51371034Y7276199D01*
X51091111Y7361113D01*
X50872950Y7382600D01*
X50727050Y7382600D01*
X50508889Y7361113D01*
X50228966Y7276199D01*
X49970986Y7138306D01*
X49744866Y6952734D01*
X49559294Y6726614D01*
X49530000Y6671809D01*
X49500706Y6726614D01*
X49315134Y6952734D01*
X49089014Y7138306D01*
X48831034Y7276199D01*
X48551111Y7361113D01*
X48332950Y7382600D01*
X48187050Y7382600D01*
X47968889Y7361113D01*
X47728447Y7288175D01*
X47720982Y7312783D01*
X47647866Y7449572D01*
X47549469Y7569469D01*
X47519433Y7594119D01*
X46814127Y8299423D01*
X46789469Y8329469D01*
X46669572Y8427866D01*
X46532783Y8500982D01*
X46384357Y8546006D01*
X46268673Y8557400D01*
X46268663Y8557400D01*
X46230000Y8561208D01*
X46191337Y8557400D01*
X43706151Y8557400D01*
X43517400Y8746150D01*
X43517400Y10593689D01*
X43533937Y10610226D01*
X43647205Y10779744D01*
X43725226Y10968102D01*
X43765000Y11168061D01*
X43765000Y11371939D01*
X43725226Y11571898D01*
X43647205Y11760256D01*
X43533937Y11929774D01*
X43389774Y12073937D01*
X43220256Y12187205D01*
X43031898Y12265226D01*
X42831939Y12305000D01*
X42628061Y12305000D01*
X42428102Y12265226D01*
X42239744Y12187205D01*
X42070226Y12073937D01*
X41926063Y11929774D01*
X41812795Y11760256D01*
X41734774Y11571898D01*
X41695000Y11371939D01*
X41695000Y11168061D01*
X41734774Y10968102D01*
X41812795Y10779744D01*
X41926063Y10610226D01*
X41942601Y10593688D01*
X41942600Y8458663D01*
X41938792Y8420000D01*
X41942600Y8381337D01*
X41942600Y8381328D01*
X41953994Y8265644D01*
X41999018Y8117218D01*
X42072134Y7980429D01*
X42170531Y7860531D01*
X42200577Y7835873D01*
X42725040Y7311410D01*
X42608966Y7276199D01*
X42350986Y7138306D01*
X42124866Y6952734D01*
X41939294Y6726614D01*
X41910000Y6671809D01*
X41880706Y6726614D01*
X41695134Y6952734D01*
X41469014Y7138306D01*
X41211034Y7276199D01*
X40931111Y7361113D01*
X40712950Y7382600D01*
X40567050Y7382600D01*
X40348889Y7361113D01*
X40068966Y7276199D01*
X39810986Y7138306D01*
X39584866Y6952734D01*
X39399294Y6726614D01*
X39370000Y6671809D01*
X39340706Y6726614D01*
X39155134Y6952734D01*
X38929014Y7138306D01*
X38671034Y7276199D01*
X38391111Y7361113D01*
X38172950Y7382600D01*
X38027050Y7382600D01*
X37808889Y7361113D01*
X37528966Y7276199D01*
X37270986Y7138306D01*
X37044866Y6952734D01*
X36859294Y6726614D01*
X36830000Y6671809D01*
X36800706Y6726614D01*
X36615134Y6952734D01*
X36389014Y7138306D01*
X36131034Y7276199D01*
X35851111Y7361113D01*
X35632950Y7382600D01*
X35487050Y7382600D01*
X35268889Y7361113D01*
X34988966Y7276199D01*
X34730986Y7138306D01*
X34504866Y6952734D01*
X34319294Y6726614D01*
X34290000Y6671809D01*
X34260706Y6726614D01*
X34075134Y6952734D01*
X33849014Y7138306D01*
X33591034Y7276199D01*
X33311111Y7361113D01*
X33092950Y7382600D01*
X32947050Y7382600D01*
X32728889Y7361113D01*
X32448966Y7276199D01*
X32190986Y7138306D01*
X31964866Y6952734D01*
X31779294Y6726614D01*
X31750000Y6671809D01*
X31720706Y6726614D01*
X31535134Y6952734D01*
X31309014Y7138306D01*
X31051034Y7276199D01*
X30771111Y7361113D01*
X30552950Y7382600D01*
X30407050Y7382600D01*
X30188889Y7361113D01*
X29908966Y7276199D01*
X29650986Y7138306D01*
X29424866Y6952734D01*
X29239294Y6726614D01*
X29210000Y6671809D01*
X29180706Y6726614D01*
X28995134Y6952734D01*
X28769014Y7138306D01*
X28511034Y7276199D01*
X28231111Y7361113D01*
X28012950Y7382600D01*
X27867050Y7382600D01*
X27648889Y7361113D01*
X27368966Y7276199D01*
X27110986Y7138306D01*
X26884866Y6952734D01*
X26699294Y6726614D01*
X26670000Y6671809D01*
X26640706Y6726614D01*
X26455134Y6952734D01*
X26229014Y7138306D01*
X25971034Y7276199D01*
X25691111Y7361113D01*
X25472950Y7382600D01*
X25327050Y7382600D01*
X25108889Y7361113D01*
X24828966Y7276199D01*
X24570986Y7138306D01*
X24344866Y6952734D01*
X24159294Y6726614D01*
X24130000Y6671809D01*
X24100706Y6726614D01*
X23915134Y6952734D01*
X23689014Y7138306D01*
X23431034Y7276199D01*
X23151111Y7361113D01*
X22932950Y7382600D01*
X22787050Y7382600D01*
X22568889Y7361113D01*
X22288966Y7276199D01*
X22030986Y7138306D01*
X21804866Y6952734D01*
X21619294Y6726614D01*
X21590000Y6671809D01*
X21560706Y6726614D01*
X21375134Y6952734D01*
X21149014Y7138306D01*
X20891034Y7276199D01*
X20611111Y7361113D01*
X20392950Y7382600D01*
X20247050Y7382600D01*
X20028889Y7361113D01*
X19748966Y7276199D01*
X19490986Y7138306D01*
X19264866Y6952734D01*
X19079294Y6726614D01*
X19050000Y6671809D01*
X19020706Y6726614D01*
X18835134Y6952734D01*
X18609014Y7138306D01*
X18351034Y7276199D01*
X18071111Y7361113D01*
X17852950Y7382600D01*
X17707050Y7382600D01*
X17488889Y7361113D01*
X17208966Y7276199D01*
X16950986Y7138306D01*
X16724866Y6952734D01*
X16539294Y6726614D01*
X16510000Y6671809D01*
X16480706Y6726614D01*
X16295134Y6952734D01*
X16069014Y7138306D01*
X15811034Y7276199D01*
X15531111Y7361113D01*
X15312950Y7382600D01*
X15167050Y7382600D01*
X14948889Y7361113D01*
X14668966Y7276199D01*
X14410986Y7138306D01*
X14184866Y6952734D01*
X13999294Y6726614D01*
X13970000Y6671809D01*
X13940706Y6726614D01*
X13755134Y6952734D01*
X13529014Y7138306D01*
X13271034Y7276199D01*
X12991111Y7361113D01*
X12772950Y7382600D01*
X12627050Y7382600D01*
X12408889Y7361113D01*
X12128966Y7276199D01*
X11870986Y7138306D01*
X11644866Y6952734D01*
X11459294Y6726614D01*
X11430000Y6671809D01*
X11400706Y6726614D01*
X11215134Y6952734D01*
X10989014Y7138306D01*
X10731034Y7276199D01*
X10451111Y7361113D01*
X10232950Y7382600D01*
X10087050Y7382600D01*
X9868889Y7361113D01*
X9588966Y7276199D01*
X9330986Y7138306D01*
X9104866Y6952734D01*
X8919294Y6726614D01*
X8884799Y6662077D01*
X8815178Y6778955D01*
X8620269Y6995188D01*
X8386920Y7169241D01*
X8124099Y7294425D01*
X7976890Y7339076D01*
X7747000Y7217755D01*
X7493000Y7217755D01*
X7263110Y7339076D01*
X7115901Y7294425D01*
X6853080Y7169241D01*
X6619731Y6995188D01*
X6424822Y6778955D01*
X6355201Y6662077D01*
X6320706Y6726614D01*
X6135134Y6952734D01*
X5909014Y7138306D01*
X5651034Y7276199D01*
X5371111Y7361113D01*
X5152950Y7382600D01*
X5007050Y7382600D01*
X4788889Y7361113D01*
X4508966Y7276199D01*
X4250986Y7138306D01*
X4024866Y6952734D01*
X4000393Y6922913D01*
X3979502Y6991780D01*
X3920537Y7102094D01*
X3841185Y7198785D01*
X3744494Y7278137D01*
X3634180Y7337102D01*
X3514482Y7373412D01*
X3390000Y7385672D01*
X1690000Y7385672D01*
X1565518Y7373412D01*
X1445820Y7337102D01*
X1335506Y7278137D01*
X1238815Y7198785D01*
X1159463Y7102094D01*
X1100498Y6991780D01*
X1064188Y6872082D01*
X1051928Y6747600D01*
X660000Y6747600D01*
X660000Y21987600D01*
X1051928Y21987600D01*
X1051928Y20287600D01*
X1064188Y20163118D01*
X1100498Y20043420D01*
X1159463Y19933106D01*
X1238815Y19836415D01*
X1335506Y19757063D01*
X1445820Y19698098D01*
X1565518Y19661788D01*
X1690000Y19649528D01*
X3390000Y19649528D01*
X3514482Y19661788D01*
X3634180Y19698098D01*
X3744494Y19757063D01*
X3841185Y19836415D01*
X3920537Y19933106D01*
X3979502Y20043420D01*
X4000393Y20112287D01*
X4024866Y20082466D01*
X4250986Y19896894D01*
X4508966Y19759001D01*
X4788889Y19674087D01*
X5007050Y19652600D01*
X5152950Y19652600D01*
X5371111Y19674087D01*
X5651034Y19759001D01*
X5909014Y19896894D01*
X6135134Y20082466D01*
X6320706Y20308586D01*
X6350000Y20363391D01*
X6379294Y20308586D01*
X6564866Y20082466D01*
X6790986Y19896894D01*
X7048966Y19759001D01*
X7328889Y19674087D01*
X7547050Y19652600D01*
X7692950Y19652600D01*
X7911111Y19674087D01*
X8191034Y19759001D01*
X8449014Y19896894D01*
X8675134Y20082466D01*
X8860706Y20308586D01*
X8890000Y20363391D01*
X8919294Y20308586D01*
X9104866Y20082466D01*
X9330986Y19896894D01*
X9588966Y19759001D01*
X9868889Y19674087D01*
X10087050Y19652600D01*
X10232950Y19652600D01*
X10451111Y19674087D01*
X10731034Y19759001D01*
X10989014Y19896894D01*
X11215134Y20082466D01*
X11400706Y20308586D01*
X11430000Y20363391D01*
X11459294Y20308586D01*
X11644866Y20082466D01*
X11870986Y19896894D01*
X12128966Y19759001D01*
X12408889Y19674087D01*
X12627050Y19652600D01*
X12772950Y19652600D01*
X12991111Y19674087D01*
X13271034Y19759001D01*
X13529014Y19896894D01*
X13755134Y20082466D01*
X13940706Y20308586D01*
X13970000Y20363391D01*
X13999294Y20308586D01*
X14184866Y20082466D01*
X14410986Y19896894D01*
X14668966Y19759001D01*
X14948889Y19674087D01*
X15167050Y19652600D01*
X15312950Y19652600D01*
X15531111Y19674087D01*
X15811034Y19759001D01*
X16069014Y19896894D01*
X16295134Y20082466D01*
X16480706Y20308586D01*
X16510000Y20363391D01*
X16539294Y20308586D01*
X16724866Y20082466D01*
X16950986Y19896894D01*
X17208966Y19759001D01*
X17488889Y19674087D01*
X17707050Y19652600D01*
X17852950Y19652600D01*
X18071111Y19674087D01*
X18351034Y19759001D01*
X18609014Y19896894D01*
X18835134Y20082466D01*
X19020706Y20308586D01*
X19050000Y20363391D01*
X19079294Y20308586D01*
X19264866Y20082466D01*
X19490986Y19896894D01*
X19748966Y19759001D01*
X20028889Y19674087D01*
X20247050Y19652600D01*
X20392950Y19652600D01*
X20611111Y19674087D01*
X20891034Y19759001D01*
X21149014Y19896894D01*
X21375134Y20082466D01*
X21560706Y20308586D01*
X21590000Y20363391D01*
X21619294Y20308586D01*
X21804866Y20082466D01*
X22030986Y19896894D01*
X22288966Y19759001D01*
X22568889Y19674087D01*
X22787050Y19652600D01*
X22932950Y19652600D01*
X23151111Y19674087D01*
X23204529Y19690291D01*
X23134778Y19521898D01*
X23095004Y19321939D01*
X23095004Y19118061D01*
X23129296Y18945662D01*
X22932950Y18965000D01*
X22787050Y18965000D01*
X22568889Y18943513D01*
X22288966Y18858599D01*
X22030986Y18720706D01*
X21804866Y18535134D01*
X21619294Y18309014D01*
X21590000Y18254209D01*
X21560706Y18309014D01*
X21375134Y18535134D01*
X21149014Y18720706D01*
X20891034Y18858599D01*
X20611111Y18943513D01*
X20392950Y18965000D01*
X20247050Y18965000D01*
X20028889Y18943513D01*
X19748966Y18858599D01*
X19490986Y18720706D01*
X19264866Y18535134D01*
X19079294Y18309014D01*
X19050000Y18254209D01*
X19020706Y18309014D01*
X18835134Y18535134D01*
X18609014Y18720706D01*
X18351034Y18858599D01*
X18071111Y18943513D01*
X17852950Y18965000D01*
X17707050Y18965000D01*
X17488889Y18943513D01*
X17208966Y18858599D01*
X16950986Y18720706D01*
X16724866Y18535134D01*
X16539294Y18309014D01*
X16510000Y18254209D01*
X16480706Y18309014D01*
X16295134Y18535134D01*
X16069014Y18720706D01*
X15811034Y18858599D01*
X15531111Y18943513D01*
X15312950Y18965000D01*
X15167050Y18965000D01*
X14948889Y18943513D01*
X14668966Y18858599D01*
X14410986Y18720706D01*
X14184866Y18535134D01*
X13999294Y18309014D01*
X13970000Y18254209D01*
X13940706Y18309014D01*
X13755134Y18535134D01*
X13529014Y18720706D01*
X13271034Y18858599D01*
X12991111Y18943513D01*
X12772950Y18965000D01*
X12627050Y18965000D01*
X12408889Y18943513D01*
X12128966Y18858599D01*
X11870986Y18720706D01*
X11644866Y18535134D01*
X11459294Y18309014D01*
X11430000Y18254209D01*
X11400706Y18309014D01*
X11215134Y18535134D01*
X10989014Y18720706D01*
X10731034Y18858599D01*
X10451111Y18943513D01*
X10232950Y18965000D01*
X10087050Y18965000D01*
X9868889Y18943513D01*
X9588966Y18858599D01*
X9330986Y18720706D01*
X9104866Y18535134D01*
X8919294Y18309014D01*
X8890000Y18254209D01*
X8860706Y18309014D01*
X8675134Y18535134D01*
X8449014Y18720706D01*
X8191034Y18858599D01*
X7911111Y18943513D01*
X7692950Y18965000D01*
X7547050Y18965000D01*
X7328889Y18943513D01*
X7048966Y18858599D01*
X6790986Y18720706D01*
X6564866Y18535134D01*
X6379294Y18309014D01*
X6350000Y18254209D01*
X6320706Y18309014D01*
X6135134Y18535134D01*
X5909014Y18720706D01*
X5651034Y18858599D01*
X5371111Y18943513D01*
X5152950Y18965000D01*
X5007050Y18965000D01*
X4788889Y18943513D01*
X4508966Y18858599D01*
X4250986Y18720706D01*
X4024866Y18535134D01*
X4000393Y18505313D01*
X3979502Y18574180D01*
X3920537Y18684494D01*
X3841185Y18781185D01*
X3744494Y18860537D01*
X3634180Y18919502D01*
X3514482Y18955812D01*
X3390000Y18968072D01*
X1690000Y18968072D01*
X1565518Y18955812D01*
X1445820Y18919502D01*
X1335506Y18860537D01*
X1238815Y18781185D01*
X1159463Y18684494D01*
X1100498Y18574180D01*
X1064188Y18454482D01*
X1051928Y18330000D01*
X1051928Y16630000D01*
X1064188Y16505518D01*
X1100498Y16385820D01*
X1159463Y16275506D01*
X1238815Y16178815D01*
X1335506Y16099463D01*
X1445820Y16040498D01*
X1565518Y16004188D01*
X1690000Y15991928D01*
X3390000Y15991928D01*
X3514482Y16004188D01*
X3634180Y16040498D01*
X3744494Y16099463D01*
X3841185Y16178815D01*
X3920537Y16275506D01*
X3979502Y16385820D01*
X4000393Y16454687D01*
X4024866Y16424866D01*
X4250986Y16239294D01*
X4508966Y16101401D01*
X4788889Y16016487D01*
X5007050Y15995000D01*
X5152950Y15995000D01*
X5371111Y16016487D01*
X5651034Y16101401D01*
X5909014Y16239294D01*
X6135134Y16424866D01*
X6320706Y16650986D01*
X6350000Y16705791D01*
X6379294Y16650986D01*
X6564866Y16424866D01*
X6790986Y16239294D01*
X7048966Y16101401D01*
X7328889Y16016487D01*
X7547050Y15995000D01*
X7692950Y15995000D01*
X7911111Y16016487D01*
X8191034Y16101401D01*
X8449014Y16239294D01*
X8675134Y16424866D01*
X8860706Y16650986D01*
X8890000Y16705791D01*
X8919294Y16650986D01*
X9104866Y16424866D01*
X9330986Y16239294D01*
X9588966Y16101401D01*
X9868889Y16016487D01*
X10087050Y15995000D01*
X10232950Y15995000D01*
X10451111Y16016487D01*
X10731034Y16101401D01*
X10989014Y16239294D01*
X11215134Y16424866D01*
X11400706Y16650986D01*
X11430000Y16705791D01*
X11459294Y16650986D01*
X11644866Y16424866D01*
X11870986Y16239294D01*
X12128966Y16101401D01*
X12408889Y16016487D01*
X12627050Y15995000D01*
X12772950Y15995000D01*
X12991111Y16016487D01*
X13271034Y16101401D01*
X13529014Y16239294D01*
X13755134Y16424866D01*
X13940706Y16650986D01*
X13970000Y16705791D01*
X13999294Y16650986D01*
X14184866Y16424866D01*
X14410986Y16239294D01*
X14668966Y16101401D01*
X14948889Y16016487D01*
X15167050Y15995000D01*
X15312950Y15995000D01*
X15531111Y16016487D01*
X15811034Y16101401D01*
X16069014Y16239294D01*
X16295134Y16424866D01*
X16480706Y16650986D01*
X16510000Y16705791D01*
X16539294Y16650986D01*
X16724866Y16424866D01*
X16950986Y16239294D01*
X17036970Y16193335D01*
X16965851Y16186330D01*
X16769545Y16126782D01*
X16588631Y16030081D01*
X16430057Y15899943D01*
X16299919Y15741369D01*
X16203218Y15560455D01*
X16143670Y15364149D01*
X16123563Y15160000D01*
X16143670Y14955851D01*
X16203218Y14759545D01*
X16299919Y14578631D01*
X16397450Y14459789D01*
X16399248Y14457991D01*
X16431857Y14418257D01*
X16590430Y14288119D01*
X16771346Y14191417D01*
X16967650Y14131869D01*
X17120648Y14116800D01*
X17120656Y14116800D01*
X17171800Y14111763D01*
X17222944Y14116800D01*
X33322197Y14116800D01*
X33356251Y14106470D01*
X33560399Y14086363D01*
X33764549Y14106470D01*
X33960855Y14166018D01*
X34141769Y14262719D01*
X34300343Y14392857D01*
X34430481Y14551431D01*
X34527182Y14732345D01*
X34586730Y14928651D01*
X34606837Y15132801D01*
X34586730Y15336949D01*
X34527182Y15533255D01*
X34430481Y15714169D01*
X34332950Y15833011D01*
X34307551Y15858410D01*
X34274943Y15898143D01*
X34116370Y16028281D01*
X33935454Y16124983D01*
X33743877Y16183097D01*
X33849014Y16239294D01*
X34075134Y16424866D01*
X34260706Y16650986D01*
X34290000Y16705791D01*
X34319294Y16650986D01*
X34504866Y16424866D01*
X34730986Y16239294D01*
X34988966Y16101401D01*
X35268889Y16016487D01*
X35487050Y15995000D01*
X35632950Y15995000D01*
X35851111Y16016487D01*
X36131034Y16101401D01*
X36389014Y16239294D01*
X36615134Y16424866D01*
X36800706Y16650986D01*
X36830000Y16705791D01*
X36859294Y16650986D01*
X37044866Y16424866D01*
X37270986Y16239294D01*
X37528966Y16101401D01*
X37808889Y16016487D01*
X38027050Y15995000D01*
X38172950Y15995000D01*
X38391111Y16016487D01*
X38582601Y16074575D01*
X38582601Y15968673D01*
X38578792Y15930000D01*
X38593995Y15775643D01*
X38639018Y15627218D01*
X38675667Y15558654D01*
X38712135Y15490428D01*
X38810532Y15370531D01*
X38840573Y15345877D01*
X39595877Y14590573D01*
X39620531Y14560531D01*
X39740428Y14462134D01*
X39877217Y14389018D01*
X40025643Y14343994D01*
X40141327Y14332600D01*
X40141337Y14332600D01*
X40180000Y14328792D01*
X40218663Y14332600D01*
X47303689Y14332600D01*
X47320226Y14316063D01*
X47489744Y14202795D01*
X47678102Y14124774D01*
X47878061Y14085000D01*
X48081939Y14085000D01*
X48281898Y14124774D01*
X48470256Y14202795D01*
X48639774Y14316063D01*
X48783937Y14460226D01*
X48897205Y14629744D01*
X48975226Y14818102D01*
X49015000Y15018061D01*
X49015000Y15221939D01*
X48975226Y15421898D01*
X48897205Y15610256D01*
X48783937Y15779774D01*
X48639774Y15923937D01*
X48507667Y16012208D01*
X48551111Y16016487D01*
X48831034Y16101401D01*
X49089014Y16239294D01*
X49315134Y16424866D01*
X49500706Y16650986D01*
X49530000Y16705791D01*
X49559294Y16650986D01*
X49744866Y16424866D01*
X49970986Y16239294D01*
X50228966Y16101401D01*
X50508889Y16016487D01*
X50727050Y15995000D01*
X50872950Y15995000D01*
X51091111Y16016487D01*
X51371034Y16101401D01*
X51629014Y16239294D01*
X51855134Y16424866D01*
X52040706Y16650986D01*
X52178599Y16908966D01*
X52263513Y17188889D01*
X52292185Y17480000D01*
X52263513Y17771111D01*
X52178599Y18051034D01*
X52040706Y18309014D01*
X51855134Y18535134D01*
X51629014Y18720706D01*
X51371034Y18858599D01*
X51091111Y18943513D01*
X50872950Y18965000D01*
X50727050Y18965000D01*
X50508889Y18943513D01*
X50228966Y18858599D01*
X49970986Y18720706D01*
X49744866Y18535134D01*
X49559294Y18309014D01*
X49530000Y18254209D01*
X49500706Y18309014D01*
X49315134Y18535134D01*
X49089014Y18720706D01*
X48831034Y18858599D01*
X48551111Y18943513D01*
X48332950Y18965000D01*
X48187050Y18965000D01*
X47968889Y18943513D01*
X47688966Y18858599D01*
X47430986Y18720706D01*
X47204866Y18535134D01*
X47019294Y18309014D01*
X46990000Y18254209D01*
X46960706Y18309014D01*
X46775134Y18535134D01*
X46549014Y18720706D01*
X46291034Y18858599D01*
X46011111Y18943513D01*
X45792950Y18965000D01*
X45647050Y18965000D01*
X45428889Y18943513D01*
X45148966Y18858599D01*
X44890986Y18720706D01*
X44664866Y18535134D01*
X44479294Y18309014D01*
X44450000Y18254209D01*
X44420706Y18309014D01*
X44235134Y18535134D01*
X44009014Y18720706D01*
X43751034Y18858599D01*
X43471111Y18943513D01*
X43252950Y18965000D01*
X43107050Y18965000D01*
X42888889Y18943513D01*
X42608966Y18858599D01*
X42350986Y18720706D01*
X42124866Y18535134D01*
X41939294Y18309014D01*
X41910000Y18254209D01*
X41880706Y18309014D01*
X41695134Y18535134D01*
X41469014Y18720706D01*
X41211034Y18858599D01*
X40931111Y18943513D01*
X40712950Y18965000D01*
X40567050Y18965000D01*
X40348889Y18943513D01*
X40068966Y18858599D01*
X40018135Y18831429D01*
X39954122Y18909430D01*
X39954119Y18909433D01*
X39929469Y18939469D01*
X39899434Y18964118D01*
X39314127Y19549423D01*
X39289469Y19579469D01*
X39169572Y19677866D01*
X39032783Y19750982D01*
X38884357Y19796006D01*
X38768673Y19807400D01*
X38768663Y19807400D01*
X38762684Y19807989D01*
X38929014Y19896894D01*
X39155134Y20082466D01*
X39340706Y20308586D01*
X39370000Y20363391D01*
X39399294Y20308586D01*
X39584866Y20082466D01*
X39810986Y19896894D01*
X40068966Y19759001D01*
X40348889Y19674087D01*
X40567050Y19652600D01*
X40712950Y19652600D01*
X40931111Y19674087D01*
X41211034Y19759001D01*
X41469014Y19896894D01*
X41695134Y20082466D01*
X41880706Y20308586D01*
X41910000Y20363391D01*
X41939294Y20308586D01*
X42124866Y20082466D01*
X42350986Y19896894D01*
X42608966Y19759001D01*
X42888889Y19674087D01*
X43107050Y19652600D01*
X43252950Y19652600D01*
X43471111Y19674087D01*
X43751034Y19759001D01*
X44009014Y19896894D01*
X44235134Y20082466D01*
X44420706Y20308586D01*
X44450000Y20363391D01*
X44479294Y20308586D01*
X44664866Y20082466D01*
X44890986Y19896894D01*
X45148966Y19759001D01*
X45428889Y19674087D01*
X45647050Y19652600D01*
X45792950Y19652600D01*
X46011111Y19674087D01*
X46291034Y19759001D01*
X46549014Y19896894D01*
X46775134Y20082466D01*
X46960706Y20308586D01*
X46990000Y20363391D01*
X47019294Y20308586D01*
X47204866Y20082466D01*
X47430986Y19896894D01*
X47688966Y19759001D01*
X47968889Y19674087D01*
X48187050Y19652600D01*
X48332950Y19652600D01*
X48551111Y19674087D01*
X48831034Y19759001D01*
X49089014Y19896894D01*
X49315134Y20082466D01*
X49500706Y20308586D01*
X49530000Y20363391D01*
X49559294Y20308586D01*
X49744866Y20082466D01*
X49970986Y19896894D01*
X50228966Y19759001D01*
X50508889Y19674087D01*
X50727050Y19652600D01*
X50872950Y19652600D01*
X51091111Y19674087D01*
X51371034Y19759001D01*
X51629014Y19896894D01*
X51855134Y20082466D01*
X52040706Y20308586D01*
X52178599Y20566566D01*
X52263513Y20846489D01*
X52292185Y21137600D01*
X52263513Y21428711D01*
X52178599Y21708634D01*
X52040706Y21966614D01*
X51855134Y22192734D01*
X51629014Y22378306D01*
X51371034Y22516199D01*
X51091111Y22601113D01*
X50872950Y22622600D01*
X50727050Y22622600D01*
X50508889Y22601113D01*
X50228966Y22516199D01*
X49970986Y22378306D01*
X49744866Y22192734D01*
X49559294Y21966614D01*
X49530000Y21911809D01*
X49500706Y21966614D01*
X49315134Y22192734D01*
X49089014Y22378306D01*
X48831034Y22516199D01*
X48551111Y22601113D01*
X48332950Y22622600D01*
X48187050Y22622600D01*
X47968889Y22601113D01*
X47688966Y22516199D01*
X47430986Y22378306D01*
X47204866Y22192734D01*
X47019294Y21966614D01*
X46990000Y21911809D01*
X46960706Y21966614D01*
X46775134Y22192734D01*
X46549014Y22378306D01*
X46291034Y22516199D01*
X46011111Y22601113D01*
X45792950Y22622600D01*
X45647050Y22622600D01*
X45428889Y22601113D01*
X45148966Y22516199D01*
X44890986Y22378306D01*
X44664866Y22192734D01*
X44479294Y21966614D01*
X44450000Y21911809D01*
X44420706Y21966614D01*
X44235134Y22192734D01*
X44009014Y22378306D01*
X43751034Y22516199D01*
X43471111Y22601113D01*
X43252950Y22622600D01*
X43107050Y22622600D01*
X42888889Y22601113D01*
X42608966Y22516199D01*
X42350986Y22378306D01*
X42124866Y22192734D01*
X41939294Y21966614D01*
X41910000Y21911809D01*
X41880706Y21966614D01*
X41695134Y22192734D01*
X41469014Y22378306D01*
X41211034Y22516199D01*
X40931111Y22601113D01*
X40712950Y22622600D01*
X40567050Y22622600D01*
X40348889Y22601113D01*
X40068966Y22516199D01*
X39810986Y22378306D01*
X39584866Y22192734D01*
X39399294Y21966614D01*
X39370000Y21911809D01*
X39340706Y21966614D01*
X39155134Y22192734D01*
X38929014Y22378306D01*
X38671034Y22516199D01*
X38391111Y22601113D01*
X38172950Y22622600D01*
X38027050Y22622600D01*
X37808889Y22601113D01*
X37528966Y22516199D01*
X37270986Y22378306D01*
X37044866Y22192734D01*
X36859294Y21966614D01*
X36830000Y21911809D01*
X36800706Y21966614D01*
X36615134Y22192734D01*
X36389014Y22378306D01*
X36131034Y22516199D01*
X35851111Y22601113D01*
X35632950Y22622600D01*
X35487050Y22622600D01*
X35268889Y22601113D01*
X34988966Y22516199D01*
X34730986Y22378306D01*
X34504866Y22192734D01*
X34319294Y21966614D01*
X34290000Y21911809D01*
X34260706Y21966614D01*
X34075134Y22192734D01*
X33849014Y22378306D01*
X33591034Y22516199D01*
X33311111Y22601113D01*
X33092950Y22622600D01*
X32947050Y22622600D01*
X32728889Y22601113D01*
X32448966Y22516199D01*
X32190986Y22378306D01*
X31964866Y22192734D01*
X31779294Y21966614D01*
X31750000Y21911809D01*
X31720706Y21966614D01*
X31535134Y22192734D01*
X31309014Y22378306D01*
X31051034Y22516199D01*
X30771111Y22601113D01*
X30552950Y22622600D01*
X30407050Y22622600D01*
X30188889Y22601113D01*
X29908966Y22516199D01*
X29650986Y22378306D01*
X29424866Y22192734D01*
X29239294Y21966614D01*
X29210000Y21911809D01*
X29180706Y21966614D01*
X28995134Y22192734D01*
X28769014Y22378306D01*
X28511034Y22516199D01*
X28231111Y22601113D01*
X28012950Y22622600D01*
X27867050Y22622600D01*
X27648889Y22601113D01*
X27368966Y22516199D01*
X27110986Y22378306D01*
X26884866Y22192734D01*
X26699294Y21966614D01*
X26670000Y21911809D01*
X26640706Y21966614D01*
X26455134Y22192734D01*
X26229014Y22378306D01*
X25971034Y22516199D01*
X25691111Y22601113D01*
X25472950Y22622600D01*
X25327050Y22622600D01*
X25108889Y22601113D01*
X24828966Y22516199D01*
X24570986Y22378306D01*
X24344866Y22192734D01*
X24159294Y21966614D01*
X24130000Y21911809D01*
X24100706Y21966614D01*
X23915134Y22192734D01*
X23689014Y22378306D01*
X23431034Y22516199D01*
X23151111Y22601113D01*
X22932950Y22622600D01*
X22787050Y22622600D01*
X22568889Y22601113D01*
X22288966Y22516199D01*
X22030986Y22378306D01*
X21804866Y22192734D01*
X21619294Y21966614D01*
X21590000Y21911809D01*
X21560706Y21966614D01*
X21375134Y22192734D01*
X21149014Y22378306D01*
X20891034Y22516199D01*
X20611111Y22601113D01*
X20392950Y22622600D01*
X20247050Y22622600D01*
X20028889Y22601113D01*
X19748966Y22516199D01*
X19490986Y22378306D01*
X19264866Y22192734D01*
X19079294Y21966614D01*
X19050000Y21911809D01*
X19020706Y21966614D01*
X18835134Y22192734D01*
X18609014Y22378306D01*
X18351034Y22516199D01*
X18071111Y22601113D01*
X17852950Y22622600D01*
X17707050Y22622600D01*
X17488889Y22601113D01*
X17208966Y22516199D01*
X16950986Y22378306D01*
X16724866Y22192734D01*
X16539294Y21966614D01*
X16510000Y21911809D01*
X16480706Y21966614D01*
X16295134Y22192734D01*
X16069014Y22378306D01*
X15811034Y22516199D01*
X15531111Y22601113D01*
X15312950Y22622600D01*
X15167050Y22622600D01*
X14948889Y22601113D01*
X14668966Y22516199D01*
X14410986Y22378306D01*
X14184866Y22192734D01*
X13999294Y21966614D01*
X13970000Y21911809D01*
X13940706Y21966614D01*
X13755134Y22192734D01*
X13529014Y22378306D01*
X13271034Y22516199D01*
X12991111Y22601113D01*
X12772950Y22622600D01*
X12627050Y22622600D01*
X12408889Y22601113D01*
X12128966Y22516199D01*
X11870986Y22378306D01*
X11644866Y22192734D01*
X11459294Y21966614D01*
X11430000Y21911809D01*
X11400706Y21966614D01*
X11215134Y22192734D01*
X10989014Y22378306D01*
X10731034Y22516199D01*
X10451111Y22601113D01*
X10232950Y22622600D01*
X10087050Y22622600D01*
X9868889Y22601113D01*
X9588966Y22516199D01*
X9330986Y22378306D01*
X9104866Y22192734D01*
X8919294Y21966614D01*
X8890000Y21911809D01*
X8860706Y21966614D01*
X8675134Y22192734D01*
X8449014Y22378306D01*
X8191034Y22516199D01*
X7911111Y22601113D01*
X7692950Y22622600D01*
X7547050Y22622600D01*
X7328889Y22601113D01*
X7048966Y22516199D01*
X6790986Y22378306D01*
X6564866Y22192734D01*
X6379294Y21966614D01*
X6350000Y21911809D01*
X6320706Y21966614D01*
X6135134Y22192734D01*
X5909014Y22378306D01*
X5651034Y22516199D01*
X5371111Y22601113D01*
X5152950Y22622600D01*
X5007050Y22622600D01*
X4788889Y22601113D01*
X4508966Y22516199D01*
X4250986Y22378306D01*
X4024866Y22192734D01*
X4000393Y22162913D01*
X3979502Y22231780D01*
X3920537Y22342094D01*
X3841185Y22438785D01*
X3744494Y22518137D01*
X3634180Y22577102D01*
X3514482Y22613412D01*
X3390000Y22625672D01*
X1690000Y22625672D01*
X1565518Y22613412D01*
X1445820Y22577102D01*
X1335506Y22518137D01*
X1238815Y22438785D01*
X1159463Y22342094D01*
X1100498Y22231780D01*
X1064188Y22112082D01*
X1051928Y21987600D01*
X660000Y21987600D01*
X660000Y22660000D01*
X52680000Y22660000D01*
X52680001Y660000D01*
M02*
