G04 #@! TF.GenerationSoftware,KiCad,Pcbnew,(5.1.0)-1*
G04 #@! TF.CreationDate,2021-01-17T14:15:07+01:00*
G04 #@! TF.ProjectId,GTIA Fix,47544941-2046-4697-982e-6b696361645f,rev?*
G04 #@! TF.SameCoordinates,PX989b620PY8062360*
G04 #@! TF.FileFunction,Copper,L1,Top*
G04 #@! TF.FilePolarity,Positive*
%FSLAX46Y46*%
G04 Gerber Fmt 4.6, Leading zero omitted, Abs format (unit mm)*
G04 Created by KiCad (PCBNEW (5.1.0)-1) date 2021-01-17 14:15:07*
%MOMM*%
%LPD*%
G04 APERTURE LIST*
%ADD10O,1.700000X1.700000*%
%ADD11R,1.700000X1.700000*%
%ADD12R,1.000000X1.200000*%
%ADD13R,0.600000X1.500000*%
%ADD14C,0.100000*%
%ADD15C,1.250000*%
%ADD16C,0.800000*%
%ADD17C,0.406400*%
%ADD18C,0.304800*%
%ADD19C,0.812800*%
%ADD20C,0.254000*%
G04 APERTURE END LIST*
D10*
X50800000Y2240000D03*
X48260000Y2240000D03*
X45720000Y2240000D03*
X43180000Y2240000D03*
X40640000Y2240000D03*
X38100000Y2240000D03*
X35560000Y2240000D03*
X33020000Y2240000D03*
X30480000Y2240000D03*
X27940000Y2240000D03*
X25400000Y2240000D03*
X22860000Y2240000D03*
X20320000Y2240000D03*
X17780000Y2240000D03*
X15240000Y2240000D03*
X12700000Y2240000D03*
X10160000Y2240000D03*
X7620000Y2240000D03*
X5080000Y2240000D03*
D11*
X2540000Y2240000D03*
D12*
X15110000Y13130000D03*
X15110000Y11150000D03*
D13*
X22562200Y14988000D03*
X23832200Y14988000D03*
X25102200Y14988000D03*
X26372200Y14988000D03*
X27642200Y14988000D03*
X28912200Y14988000D03*
X30182200Y14988000D03*
X30182200Y9588000D03*
X28912200Y9588000D03*
X27642200Y9588000D03*
X26372200Y9588000D03*
X25102200Y9588000D03*
X23832200Y9588000D03*
X22562200Y9588000D03*
D14*
G36*
X21103504Y12934196D02*
G01*
X21127773Y12930596D01*
X21151571Y12924635D01*
X21174671Y12916370D01*
X21196849Y12905880D01*
X21217893Y12893267D01*
X21237598Y12878653D01*
X21255777Y12862177D01*
X21272253Y12843998D01*
X21286867Y12824293D01*
X21299480Y12803249D01*
X21309970Y12781071D01*
X21318235Y12757971D01*
X21324196Y12734173D01*
X21327796Y12709904D01*
X21329000Y12685400D01*
X21329000Y11935400D01*
X21327796Y11910896D01*
X21324196Y11886627D01*
X21318235Y11862829D01*
X21309970Y11839729D01*
X21299480Y11817551D01*
X21286867Y11796507D01*
X21272253Y11776802D01*
X21255777Y11758623D01*
X21237598Y11742147D01*
X21217893Y11727533D01*
X21196849Y11714920D01*
X21174671Y11704430D01*
X21151571Y11696165D01*
X21127773Y11690204D01*
X21103504Y11686604D01*
X21079000Y11685400D01*
X19829000Y11685400D01*
X19804496Y11686604D01*
X19780227Y11690204D01*
X19756429Y11696165D01*
X19733329Y11704430D01*
X19711151Y11714920D01*
X19690107Y11727533D01*
X19670402Y11742147D01*
X19652223Y11758623D01*
X19635747Y11776802D01*
X19621133Y11796507D01*
X19608520Y11817551D01*
X19598030Y11839729D01*
X19589765Y11862829D01*
X19583804Y11886627D01*
X19580204Y11910896D01*
X19579000Y11935400D01*
X19579000Y12685400D01*
X19580204Y12709904D01*
X19583804Y12734173D01*
X19589765Y12757971D01*
X19598030Y12781071D01*
X19608520Y12803249D01*
X19621133Y12824293D01*
X19635747Y12843998D01*
X19652223Y12862177D01*
X19670402Y12878653D01*
X19690107Y12893267D01*
X19711151Y12905880D01*
X19733329Y12916370D01*
X19756429Y12924635D01*
X19780227Y12930596D01*
X19804496Y12934196D01*
X19829000Y12935400D01*
X21079000Y12935400D01*
X21103504Y12934196D01*
X21103504Y12934196D01*
G37*
D15*
X20454000Y12310400D03*
D14*
G36*
X21103504Y15734196D02*
G01*
X21127773Y15730596D01*
X21151571Y15724635D01*
X21174671Y15716370D01*
X21196849Y15705880D01*
X21217893Y15693267D01*
X21237598Y15678653D01*
X21255777Y15662177D01*
X21272253Y15643998D01*
X21286867Y15624293D01*
X21299480Y15603249D01*
X21309970Y15581071D01*
X21318235Y15557971D01*
X21324196Y15534173D01*
X21327796Y15509904D01*
X21329000Y15485400D01*
X21329000Y14735400D01*
X21327796Y14710896D01*
X21324196Y14686627D01*
X21318235Y14662829D01*
X21309970Y14639729D01*
X21299480Y14617551D01*
X21286867Y14596507D01*
X21272253Y14576802D01*
X21255777Y14558623D01*
X21237598Y14542147D01*
X21217893Y14527533D01*
X21196849Y14514920D01*
X21174671Y14504430D01*
X21151571Y14496165D01*
X21127773Y14490204D01*
X21103504Y14486604D01*
X21079000Y14485400D01*
X19829000Y14485400D01*
X19804496Y14486604D01*
X19780227Y14490204D01*
X19756429Y14496165D01*
X19733329Y14504430D01*
X19711151Y14514920D01*
X19690107Y14527533D01*
X19670402Y14542147D01*
X19652223Y14558623D01*
X19635747Y14576802D01*
X19621133Y14596507D01*
X19608520Y14617551D01*
X19598030Y14639729D01*
X19589765Y14662829D01*
X19583804Y14686627D01*
X19580204Y14710896D01*
X19579000Y14735400D01*
X19579000Y15485400D01*
X19580204Y15509904D01*
X19583804Y15534173D01*
X19589765Y15557971D01*
X19598030Y15581071D01*
X19608520Y15603249D01*
X19621133Y15624293D01*
X19635747Y15643998D01*
X19652223Y15662177D01*
X19670402Y15678653D01*
X19690107Y15693267D01*
X19711151Y15705880D01*
X19733329Y15716370D01*
X19756429Y15724635D01*
X19780227Y15730596D01*
X19804496Y15734196D01*
X19829000Y15735400D01*
X21079000Y15735400D01*
X21103504Y15734196D01*
X21103504Y15734196D01*
G37*
D15*
X20454000Y15110400D03*
D14*
G36*
X36267304Y12959596D02*
G01*
X36291573Y12955996D01*
X36315371Y12950035D01*
X36338471Y12941770D01*
X36360649Y12931280D01*
X36381693Y12918667D01*
X36401398Y12904053D01*
X36419577Y12887577D01*
X36436053Y12869398D01*
X36450667Y12849693D01*
X36463280Y12828649D01*
X36473770Y12806471D01*
X36482035Y12783371D01*
X36487996Y12759573D01*
X36491596Y12735304D01*
X36492800Y12710800D01*
X36492800Y11960800D01*
X36491596Y11936296D01*
X36487996Y11912027D01*
X36482035Y11888229D01*
X36473770Y11865129D01*
X36463280Y11842951D01*
X36450667Y11821907D01*
X36436053Y11802202D01*
X36419577Y11784023D01*
X36401398Y11767547D01*
X36381693Y11752933D01*
X36360649Y11740320D01*
X36338471Y11729830D01*
X36315371Y11721565D01*
X36291573Y11715604D01*
X36267304Y11712004D01*
X36242800Y11710800D01*
X34992800Y11710800D01*
X34968296Y11712004D01*
X34944027Y11715604D01*
X34920229Y11721565D01*
X34897129Y11729830D01*
X34874951Y11740320D01*
X34853907Y11752933D01*
X34834202Y11767547D01*
X34816023Y11784023D01*
X34799547Y11802202D01*
X34784933Y11821907D01*
X34772320Y11842951D01*
X34761830Y11865129D01*
X34753565Y11888229D01*
X34747604Y11912027D01*
X34744004Y11936296D01*
X34742800Y11960800D01*
X34742800Y12710800D01*
X34744004Y12735304D01*
X34747604Y12759573D01*
X34753565Y12783371D01*
X34761830Y12806471D01*
X34772320Y12828649D01*
X34784933Y12849693D01*
X34799547Y12869398D01*
X34816023Y12887577D01*
X34834202Y12904053D01*
X34853907Y12918667D01*
X34874951Y12931280D01*
X34897129Y12941770D01*
X34920229Y12950035D01*
X34944027Y12955996D01*
X34968296Y12959596D01*
X34992800Y12960800D01*
X36242800Y12960800D01*
X36267304Y12959596D01*
X36267304Y12959596D01*
G37*
D15*
X35617800Y12335800D03*
D14*
G36*
X36267304Y15759596D02*
G01*
X36291573Y15755996D01*
X36315371Y15750035D01*
X36338471Y15741770D01*
X36360649Y15731280D01*
X36381693Y15718667D01*
X36401398Y15704053D01*
X36419577Y15687577D01*
X36436053Y15669398D01*
X36450667Y15649693D01*
X36463280Y15628649D01*
X36473770Y15606471D01*
X36482035Y15583371D01*
X36487996Y15559573D01*
X36491596Y15535304D01*
X36492800Y15510800D01*
X36492800Y14760800D01*
X36491596Y14736296D01*
X36487996Y14712027D01*
X36482035Y14688229D01*
X36473770Y14665129D01*
X36463280Y14642951D01*
X36450667Y14621907D01*
X36436053Y14602202D01*
X36419577Y14584023D01*
X36401398Y14567547D01*
X36381693Y14552933D01*
X36360649Y14540320D01*
X36338471Y14529830D01*
X36315371Y14521565D01*
X36291573Y14515604D01*
X36267304Y14512004D01*
X36242800Y14510800D01*
X34992800Y14510800D01*
X34968296Y14512004D01*
X34944027Y14515604D01*
X34920229Y14521565D01*
X34897129Y14529830D01*
X34874951Y14540320D01*
X34853907Y14552933D01*
X34834202Y14567547D01*
X34816023Y14584023D01*
X34799547Y14602202D01*
X34784933Y14621907D01*
X34772320Y14642951D01*
X34761830Y14665129D01*
X34753565Y14688229D01*
X34747604Y14712027D01*
X34744004Y14736296D01*
X34742800Y14760800D01*
X34742800Y15510800D01*
X34744004Y15535304D01*
X34747604Y15559573D01*
X34753565Y15583371D01*
X34761830Y15606471D01*
X34772320Y15628649D01*
X34784933Y15649693D01*
X34799547Y15669398D01*
X34816023Y15687577D01*
X34834202Y15704053D01*
X34853907Y15718667D01*
X34874951Y15731280D01*
X34897129Y15741770D01*
X34920229Y15750035D01*
X34944027Y15755996D01*
X34968296Y15759596D01*
X34992800Y15760800D01*
X36242800Y15760800D01*
X36267304Y15759596D01*
X36267304Y15759596D01*
G37*
D15*
X35617800Y15135800D03*
D13*
X37675200Y15013400D03*
X38945200Y15013400D03*
X40215200Y15013400D03*
X41485200Y15013400D03*
X42755200Y15013400D03*
X44025200Y15013400D03*
X45295200Y15013400D03*
X46565200Y15013400D03*
X46565200Y9613400D03*
X45295200Y9613400D03*
X44025200Y9613400D03*
X42755200Y9613400D03*
X41485200Y9613400D03*
X40215200Y9613400D03*
X38945200Y9613400D03*
X37675200Y9613400D03*
D14*
G36*
X18030104Y11181596D02*
G01*
X18054373Y11177996D01*
X18078171Y11172035D01*
X18101271Y11163770D01*
X18123449Y11153280D01*
X18144493Y11140667D01*
X18164198Y11126053D01*
X18182377Y11109577D01*
X18198853Y11091398D01*
X18213467Y11071693D01*
X18226080Y11050649D01*
X18236570Y11028471D01*
X18244835Y11005371D01*
X18250796Y10981573D01*
X18254396Y10957304D01*
X18255600Y10932800D01*
X18255600Y10182800D01*
X18254396Y10158296D01*
X18250796Y10134027D01*
X18244835Y10110229D01*
X18236570Y10087129D01*
X18226080Y10064951D01*
X18213467Y10043907D01*
X18198853Y10024202D01*
X18182377Y10006023D01*
X18164198Y9989547D01*
X18144493Y9974933D01*
X18123449Y9962320D01*
X18101271Y9951830D01*
X18078171Y9943565D01*
X18054373Y9937604D01*
X18030104Y9934004D01*
X18005600Y9932800D01*
X16755600Y9932800D01*
X16731096Y9934004D01*
X16706827Y9937604D01*
X16683029Y9943565D01*
X16659929Y9951830D01*
X16637751Y9962320D01*
X16616707Y9974933D01*
X16597002Y9989547D01*
X16578823Y10006023D01*
X16562347Y10024202D01*
X16547733Y10043907D01*
X16535120Y10064951D01*
X16524630Y10087129D01*
X16516365Y10110229D01*
X16510404Y10134027D01*
X16506804Y10158296D01*
X16505600Y10182800D01*
X16505600Y10932800D01*
X16506804Y10957304D01*
X16510404Y10981573D01*
X16516365Y11005371D01*
X16524630Y11028471D01*
X16535120Y11050649D01*
X16547733Y11071693D01*
X16562347Y11091398D01*
X16578823Y11109577D01*
X16597002Y11126053D01*
X16616707Y11140667D01*
X16637751Y11153280D01*
X16659929Y11163770D01*
X16683029Y11172035D01*
X16706827Y11177996D01*
X16731096Y11181596D01*
X16755600Y11182800D01*
X18005600Y11182800D01*
X18030104Y11181596D01*
X18030104Y11181596D01*
G37*
D15*
X17380600Y10557800D03*
D14*
G36*
X18030104Y13981596D02*
G01*
X18054373Y13977996D01*
X18078171Y13972035D01*
X18101271Y13963770D01*
X18123449Y13953280D01*
X18144493Y13940667D01*
X18164198Y13926053D01*
X18182377Y13909577D01*
X18198853Y13891398D01*
X18213467Y13871693D01*
X18226080Y13850649D01*
X18236570Y13828471D01*
X18244835Y13805371D01*
X18250796Y13781573D01*
X18254396Y13757304D01*
X18255600Y13732800D01*
X18255600Y12982800D01*
X18254396Y12958296D01*
X18250796Y12934027D01*
X18244835Y12910229D01*
X18236570Y12887129D01*
X18226080Y12864951D01*
X18213467Y12843907D01*
X18198853Y12824202D01*
X18182377Y12806023D01*
X18164198Y12789547D01*
X18144493Y12774933D01*
X18123449Y12762320D01*
X18101271Y12751830D01*
X18078171Y12743565D01*
X18054373Y12737604D01*
X18030104Y12734004D01*
X18005600Y12732800D01*
X16755600Y12732800D01*
X16731096Y12734004D01*
X16706827Y12737604D01*
X16683029Y12743565D01*
X16659929Y12751830D01*
X16637751Y12762320D01*
X16616707Y12774933D01*
X16597002Y12789547D01*
X16578823Y12806023D01*
X16562347Y12824202D01*
X16547733Y12843907D01*
X16535120Y12864951D01*
X16524630Y12887129D01*
X16516365Y12910229D01*
X16510404Y12934027D01*
X16506804Y12958296D01*
X16505600Y12982800D01*
X16505600Y13732800D01*
X16506804Y13757304D01*
X16510404Y13781573D01*
X16516365Y13805371D01*
X16524630Y13828471D01*
X16535120Y13850649D01*
X16547733Y13871693D01*
X16562347Y13891398D01*
X16578823Y13909577D01*
X16597002Y13926053D01*
X16616707Y13940667D01*
X16637751Y13953280D01*
X16659929Y13963770D01*
X16683029Y13972035D01*
X16706827Y13977996D01*
X16731096Y13981596D01*
X16755600Y13982800D01*
X18005600Y13982800D01*
X18030104Y13981596D01*
X18030104Y13981596D01*
G37*
D15*
X17380600Y13357800D03*
D14*
G36*
X13407304Y11206996D02*
G01*
X13431573Y11203396D01*
X13455371Y11197435D01*
X13478471Y11189170D01*
X13500649Y11178680D01*
X13521693Y11166067D01*
X13541398Y11151453D01*
X13559577Y11134977D01*
X13576053Y11116798D01*
X13590667Y11097093D01*
X13603280Y11076049D01*
X13613770Y11053871D01*
X13622035Y11030771D01*
X13627996Y11006973D01*
X13631596Y10982704D01*
X13632800Y10958200D01*
X13632800Y10208200D01*
X13631596Y10183696D01*
X13627996Y10159427D01*
X13622035Y10135629D01*
X13613770Y10112529D01*
X13603280Y10090351D01*
X13590667Y10069307D01*
X13576053Y10049602D01*
X13559577Y10031423D01*
X13541398Y10014947D01*
X13521693Y10000333D01*
X13500649Y9987720D01*
X13478471Y9977230D01*
X13455371Y9968965D01*
X13431573Y9963004D01*
X13407304Y9959404D01*
X13382800Y9958200D01*
X12132800Y9958200D01*
X12108296Y9959404D01*
X12084027Y9963004D01*
X12060229Y9968965D01*
X12037129Y9977230D01*
X12014951Y9987720D01*
X11993907Y10000333D01*
X11974202Y10014947D01*
X11956023Y10031423D01*
X11939547Y10049602D01*
X11924933Y10069307D01*
X11912320Y10090351D01*
X11901830Y10112529D01*
X11893565Y10135629D01*
X11887604Y10159427D01*
X11884004Y10183696D01*
X11882800Y10208200D01*
X11882800Y10958200D01*
X11884004Y10982704D01*
X11887604Y11006973D01*
X11893565Y11030771D01*
X11901830Y11053871D01*
X11912320Y11076049D01*
X11924933Y11097093D01*
X11939547Y11116798D01*
X11956023Y11134977D01*
X11974202Y11151453D01*
X11993907Y11166067D01*
X12014951Y11178680D01*
X12037129Y11189170D01*
X12060229Y11197435D01*
X12084027Y11203396D01*
X12108296Y11206996D01*
X12132800Y11208200D01*
X13382800Y11208200D01*
X13407304Y11206996D01*
X13407304Y11206996D01*
G37*
D15*
X12757800Y10583200D03*
D14*
G36*
X13407304Y14006996D02*
G01*
X13431573Y14003396D01*
X13455371Y13997435D01*
X13478471Y13989170D01*
X13500649Y13978680D01*
X13521693Y13966067D01*
X13541398Y13951453D01*
X13559577Y13934977D01*
X13576053Y13916798D01*
X13590667Y13897093D01*
X13603280Y13876049D01*
X13613770Y13853871D01*
X13622035Y13830771D01*
X13627996Y13806973D01*
X13631596Y13782704D01*
X13632800Y13758200D01*
X13632800Y13008200D01*
X13631596Y12983696D01*
X13627996Y12959427D01*
X13622035Y12935629D01*
X13613770Y12912529D01*
X13603280Y12890351D01*
X13590667Y12869307D01*
X13576053Y12849602D01*
X13559577Y12831423D01*
X13541398Y12814947D01*
X13521693Y12800333D01*
X13500649Y12787720D01*
X13478471Y12777230D01*
X13455371Y12768965D01*
X13431573Y12763004D01*
X13407304Y12759404D01*
X13382800Y12758200D01*
X12132800Y12758200D01*
X12108296Y12759404D01*
X12084027Y12763004D01*
X12060229Y12768965D01*
X12037129Y12777230D01*
X12014951Y12787720D01*
X11993907Y12800333D01*
X11974202Y12814947D01*
X11956023Y12831423D01*
X11939547Y12849602D01*
X11924933Y12869307D01*
X11912320Y12890351D01*
X11901830Y12912529D01*
X11893565Y12935629D01*
X11887604Y12959427D01*
X11884004Y12983696D01*
X11882800Y13008200D01*
X11882800Y13758200D01*
X11884004Y13782704D01*
X11887604Y13806973D01*
X11893565Y13830771D01*
X11901830Y13853871D01*
X11912320Y13876049D01*
X11924933Y13897093D01*
X11939547Y13916798D01*
X11956023Y13934977D01*
X11974202Y13951453D01*
X11993907Y13966067D01*
X12014951Y13978680D01*
X12037129Y13989170D01*
X12060229Y13997435D01*
X12084027Y14003396D01*
X12108296Y14006996D01*
X12132800Y14008200D01*
X13382800Y14008200D01*
X13407304Y14006996D01*
X13407304Y14006996D01*
G37*
D15*
X12757800Y13383200D03*
D10*
X50800000Y20142200D03*
X48260000Y20142200D03*
X45720000Y20142200D03*
X43180000Y20142200D03*
X40640000Y20142200D03*
X38100000Y20142200D03*
X35560000Y20142200D03*
X33020000Y20142200D03*
X30480000Y20142200D03*
X27940000Y20142200D03*
X25400000Y20142200D03*
X22860000Y20142200D03*
X20320000Y20142200D03*
X17780000Y20142200D03*
X15240000Y20142200D03*
X12700000Y20142200D03*
X10160000Y20142200D03*
X7620000Y20142200D03*
X5080000Y20142200D03*
D11*
X2540000Y20142200D03*
D10*
X50800000Y4902200D03*
X48260000Y4902200D03*
X45720000Y4902200D03*
X43180000Y4902200D03*
X40640000Y4902200D03*
X38100000Y4902200D03*
X35560000Y4902200D03*
X33020000Y4902200D03*
X30480000Y4902200D03*
X27940000Y4902200D03*
X25400000Y4902200D03*
X22860000Y4902200D03*
X20320000Y4902200D03*
X17780000Y4902200D03*
X15240000Y4902200D03*
X12700000Y4902200D03*
X10160000Y4902200D03*
X7620000Y4902200D03*
X5080000Y4902200D03*
D11*
X2540000Y4902200D03*
D10*
X50800000Y17480000D03*
X48260000Y17480000D03*
X45720000Y17480000D03*
X43180000Y17480000D03*
X40640000Y17480000D03*
X38100000Y17480000D03*
X35560000Y17480000D03*
X33020000Y17480000D03*
X30480000Y17480000D03*
X27940000Y17480000D03*
X25400000Y17480000D03*
X22860000Y17480000D03*
X20320000Y17480000D03*
X17780000Y17480000D03*
X15240000Y17480000D03*
X12700000Y17480000D03*
X10160000Y17480000D03*
X7620000Y17480000D03*
X5080000Y17480000D03*
D11*
X2540000Y17480000D03*
D16*
X38996000Y12034000D03*
X24695800Y12338800D03*
X28582000Y11526000D03*
X22359000Y12338800D03*
X42080000Y12570000D03*
X2480000Y14820000D03*
X2480000Y12320000D03*
X5480000Y12320000D03*
X5480000Y14820000D03*
X8480000Y14820000D03*
X8480000Y12320000D03*
X51980000Y15320000D03*
X51980000Y10820000D03*
X49980000Y15320000D03*
X49980000Y12820000D03*
X48133000Y8615400D03*
X2480000Y9820000D03*
X5480000Y9820000D03*
X8480000Y9820000D03*
X14980000Y8820000D03*
X19980000Y8820000D03*
X31980000Y8820000D03*
X35480000Y8820000D03*
X31980000Y10820000D03*
X51980000Y12820000D03*
X44780200Y11404600D03*
X42722800Y11150600D03*
X47980000Y15120000D03*
X26390600Y13512800D03*
X24155400Y18770600D03*
X17170000Y15160000D03*
X18271800Y15158200D03*
X31521400Y15163800D03*
X32385000Y15163800D03*
D17*
X22359000Y12338800D02*
X20482400Y12338800D01*
X20482400Y12338800D02*
X20454000Y12310400D01*
X30182200Y10038000D02*
X30182200Y9588000D01*
X20454000Y12310400D02*
X20152200Y12008600D01*
X45720000Y11404600D02*
X44780200Y11404600D01*
X46565200Y9613400D02*
X46565200Y10559400D01*
X46565200Y10559400D02*
X45720000Y11404600D01*
D18*
X17380600Y13357800D02*
X17707800Y13685000D01*
D17*
X17380600Y13357800D02*
X15292200Y13357800D01*
X15292200Y13357800D02*
X15094600Y13160200D01*
X12757800Y13383200D02*
X14871600Y13383200D01*
X14871600Y13383200D02*
X15094600Y13160200D01*
X17507800Y13357800D02*
X17380600Y13357800D01*
X17870000Y13720000D02*
X17507800Y13357800D01*
X23360000Y13720000D02*
X17870000Y13720000D01*
X23832200Y14988000D02*
X23832200Y14192200D01*
X23832200Y14192200D02*
X23360000Y13720000D01*
D18*
X17380600Y10557800D02*
X17790000Y10967200D01*
D17*
X15752200Y10557800D02*
X15080000Y11230000D01*
X17380600Y10557800D02*
X15752200Y10557800D01*
X27642200Y12982200D02*
X27642200Y14988000D01*
X25600000Y10940000D02*
X27642200Y12982200D01*
X17380600Y10557800D02*
X17762800Y10940000D01*
X17762800Y10940000D02*
X25600000Y10940000D01*
X49950001Y3089999D02*
X50800000Y2240000D01*
X42755200Y13582000D02*
X43942000Y12395200D01*
X42755200Y15013400D02*
X42755200Y13582000D01*
X43942000Y12395200D02*
X46177200Y12395200D01*
X49530000Y9042400D02*
X49530000Y3510000D01*
X46177200Y12395200D02*
X49530000Y9042400D01*
X49530000Y3510000D02*
X49950001Y3089999D01*
X42755200Y9613400D02*
X42755200Y11118200D01*
X42755200Y11118200D02*
X42722800Y11150600D01*
X41485200Y7892400D02*
X41485200Y9613400D01*
X42011600Y7366000D02*
X41485200Y7892400D01*
X45288200Y7366000D02*
X42011600Y7366000D01*
X46990000Y5664200D02*
X45288200Y7366000D01*
X45720000Y2240000D02*
X46990000Y3510000D01*
X46990000Y3510000D02*
X46990000Y5664200D01*
X43180000Y4902200D02*
X43180000Y2240000D01*
X40640000Y4902200D02*
X40640000Y2240000D01*
X38100000Y4902200D02*
X38100000Y2240000D01*
X35560000Y4902200D02*
X35560000Y2240000D01*
X33020000Y4902200D02*
X33020000Y2240000D01*
X30480000Y4902200D02*
X30480000Y2240000D01*
X27940000Y4902200D02*
X27940000Y2240000D01*
X25400000Y4902200D02*
X25400000Y2240000D01*
X22860000Y4902200D02*
X22860000Y2240000D01*
X20320000Y4902200D02*
X20320000Y2240000D01*
X17780000Y4902200D02*
X17780000Y2240000D01*
X15240000Y2240000D02*
X15240000Y4902200D01*
X12700000Y4902200D02*
X12700000Y2240000D01*
X10160000Y4902200D02*
X10160000Y2240000D01*
X5080000Y4902200D02*
X5080000Y2240000D01*
X2540000Y4902200D02*
X2540000Y2240000D01*
X50800000Y20142200D02*
X50800000Y17480000D01*
X48260000Y20142200D02*
X48260000Y17480000D01*
X45720000Y20142200D02*
X45720000Y17480000D01*
X43180000Y20142200D02*
X43180000Y17480000D01*
X40640000Y20142200D02*
X40640000Y17480000D01*
X38100000Y20142200D02*
X38100000Y17480000D01*
X26372200Y14988000D02*
X26372200Y13531200D01*
X26372200Y13531200D02*
X26390600Y13512800D01*
X46671800Y15120000D02*
X46565200Y15013400D01*
X47980000Y15120000D02*
X46671800Y15120000D01*
X30480000Y20142200D02*
X30480000Y17480000D01*
X27940000Y20142200D02*
X27940000Y17480000D01*
X25400000Y20142200D02*
X25400000Y17480000D01*
X22860000Y20142200D02*
X22860000Y17480000D01*
X20320000Y20142200D02*
X20320000Y17480000D01*
X17780000Y20142200D02*
X17780000Y17480000D01*
X15240000Y20142200D02*
X15240000Y17480000D01*
X12700000Y20142200D02*
X12700000Y17480000D01*
X10160000Y20142200D02*
X10160000Y17480000D01*
X7620000Y20142200D02*
X7620000Y17480000D01*
X5080000Y20142200D02*
X5080000Y17480000D01*
X2540000Y20142200D02*
X2540000Y17480000D01*
X50800000Y6104281D02*
X50800000Y4902200D01*
X50800000Y9118600D02*
X50800000Y6104281D01*
X46786800Y13131800D02*
X50800000Y9118600D01*
X45720000Y13131800D02*
X46786800Y13131800D01*
X45295200Y15013400D02*
X45295200Y13556600D01*
X45295200Y13556600D02*
X45720000Y13131800D01*
X48260000Y5562600D02*
X48260000Y4902200D01*
X45295200Y9613400D02*
X45295200Y8527400D01*
X45295200Y8527400D02*
X48260000Y5562600D01*
X38945200Y9613400D02*
X38945200Y7638400D01*
X38945200Y7638400D02*
X40030400Y6553200D01*
X44069000Y6553200D02*
X45720000Y4902200D01*
X40030400Y6553200D02*
X44069000Y6553200D01*
X24130000Y18745200D02*
X24155400Y18770600D01*
X24130000Y16789400D02*
X24130000Y18745200D01*
X25102200Y14988000D02*
X25102200Y15817200D01*
X25102200Y15817200D02*
X24130000Y16789400D01*
D19*
X35614800Y15132800D02*
X35617800Y15135800D01*
D17*
X20454000Y15110400D02*
X22439800Y15110400D01*
X22439800Y15110400D02*
X22562200Y14988000D01*
X37675200Y13608800D02*
X41237000Y13608800D01*
X41237000Y13608800D02*
X41485200Y13857000D01*
X41485200Y13857000D02*
X41485200Y15013400D01*
X37675200Y13857000D02*
X37675200Y13608800D01*
X37675200Y13608800D02*
X37675200Y9613400D01*
X37675200Y15013400D02*
X35740200Y15013400D01*
X35740200Y15013400D02*
X35617800Y15135800D01*
X37675200Y15013400D02*
X37675200Y13857000D01*
D19*
X35560000Y15193600D02*
X35617800Y15135800D01*
X35560000Y17480000D02*
X35560000Y15193600D01*
X18270000Y15160000D02*
X18271800Y15158200D01*
X17170000Y15160000D02*
X18270000Y15160000D01*
X20406200Y15158200D02*
X20454000Y15110400D01*
X18271800Y15158200D02*
X20406200Y15158200D01*
X35589800Y15163800D02*
X35617800Y15135800D01*
X31521400Y15163800D02*
X35589800Y15163800D01*
X35560000Y20142200D02*
X35560000Y17480000D01*
D20*
G36*
X1159463Y21346694D02*
G01*
X1100498Y21236380D01*
X1064188Y21116682D01*
X1051928Y20992200D01*
X1051928Y19292200D01*
X1064188Y19167718D01*
X1100498Y19048020D01*
X1159463Y18937706D01*
X1238815Y18841015D01*
X1275267Y18811100D01*
X1238815Y18781185D01*
X1159463Y18684494D01*
X1100498Y18574180D01*
X1064188Y18454482D01*
X1051928Y18330000D01*
X1051928Y16630000D01*
X1064188Y16505518D01*
X1100498Y16385820D01*
X1159463Y16275506D01*
X1238815Y16178815D01*
X1335506Y16099463D01*
X1445820Y16040498D01*
X1565518Y16004188D01*
X1690000Y15991928D01*
X3390000Y15991928D01*
X3514482Y16004188D01*
X3634180Y16040498D01*
X3744494Y16099463D01*
X3841185Y16178815D01*
X3920537Y16275506D01*
X3979502Y16385820D01*
X4000393Y16454687D01*
X4024866Y16424866D01*
X4250986Y16239294D01*
X4508966Y16101401D01*
X4788889Y16016487D01*
X5007050Y15995000D01*
X5152950Y15995000D01*
X5371111Y16016487D01*
X5651034Y16101401D01*
X5909014Y16239294D01*
X6135134Y16424866D01*
X6320706Y16650986D01*
X6350000Y16705791D01*
X6379294Y16650986D01*
X6564866Y16424866D01*
X6790986Y16239294D01*
X7048966Y16101401D01*
X7328889Y16016487D01*
X7547050Y15995000D01*
X7692950Y15995000D01*
X7911111Y16016487D01*
X8191034Y16101401D01*
X8449014Y16239294D01*
X8675134Y16424866D01*
X8860706Y16650986D01*
X8890000Y16705791D01*
X8919294Y16650986D01*
X9104866Y16424866D01*
X9330986Y16239294D01*
X9588966Y16101401D01*
X9868889Y16016487D01*
X10087050Y15995000D01*
X10232950Y15995000D01*
X10451111Y16016487D01*
X10731034Y16101401D01*
X10989014Y16239294D01*
X11215134Y16424866D01*
X11400706Y16650986D01*
X11430000Y16705791D01*
X11459294Y16650986D01*
X11644866Y16424866D01*
X11870986Y16239294D01*
X12128966Y16101401D01*
X12408889Y16016487D01*
X12627050Y15995000D01*
X12772950Y15995000D01*
X12991111Y16016487D01*
X13271034Y16101401D01*
X13529014Y16239294D01*
X13755134Y16424866D01*
X13940706Y16650986D01*
X13970000Y16705791D01*
X13999294Y16650986D01*
X14184866Y16424866D01*
X14410986Y16239294D01*
X14668966Y16101401D01*
X14948889Y16016487D01*
X15167050Y15995000D01*
X15312950Y15995000D01*
X15531111Y16016487D01*
X15811034Y16101401D01*
X16069014Y16239294D01*
X16295134Y16424866D01*
X16480706Y16650986D01*
X16510000Y16705791D01*
X16539294Y16650986D01*
X16724866Y16424866D01*
X16950986Y16239294D01*
X17036968Y16193336D01*
X16965850Y16186331D01*
X16769546Y16126783D01*
X16588630Y16030081D01*
X16430057Y15899943D01*
X16299919Y15741370D01*
X16203217Y15560454D01*
X16143669Y15364150D01*
X16123562Y15160000D01*
X16143669Y14955850D01*
X16203217Y14759546D01*
X16299919Y14578630D01*
X16349703Y14517969D01*
X16262214Y14471205D01*
X16127638Y14360762D01*
X16017195Y14226186D01*
X16013889Y14220000D01*
X15964494Y14260537D01*
X15854180Y14319502D01*
X15734482Y14355812D01*
X15610000Y14368072D01*
X14610000Y14368072D01*
X14485518Y14355812D01*
X14365820Y14319502D01*
X14255506Y14260537D01*
X14207817Y14221400D01*
X14137340Y14221400D01*
X14121205Y14251586D01*
X14010762Y14386162D01*
X13876186Y14496605D01*
X13722650Y14578672D01*
X13556054Y14629208D01*
X13382800Y14646272D01*
X12132800Y14646272D01*
X11959546Y14629208D01*
X11792950Y14578672D01*
X11639414Y14496605D01*
X11504838Y14386162D01*
X11394395Y14251586D01*
X11312328Y14098050D01*
X11261792Y13931454D01*
X11244728Y13758200D01*
X11244728Y13008200D01*
X11261792Y12834946D01*
X11312328Y12668350D01*
X11394395Y12514814D01*
X11504838Y12380238D01*
X11639414Y12269795D01*
X11792950Y12187728D01*
X11959546Y12137192D01*
X12132800Y12120128D01*
X13382800Y12120128D01*
X13556054Y12137192D01*
X13722650Y12187728D01*
X13876186Y12269795D01*
X13995625Y12367815D01*
X14020498Y12285820D01*
X14079463Y12175506D01*
X14108602Y12140000D01*
X14079463Y12104494D01*
X14020498Y11994180D01*
X13984188Y11874482D01*
X13971928Y11750000D01*
X13971928Y11746950D01*
X13876980Y11797702D01*
X13757282Y11834012D01*
X13632800Y11846272D01*
X13043550Y11843200D01*
X12884800Y11684450D01*
X12884800Y10710200D01*
X12904800Y10710200D01*
X12904800Y10456200D01*
X12884800Y10456200D01*
X12884800Y9481950D01*
X13043550Y9323200D01*
X13632800Y9320128D01*
X13757282Y9332388D01*
X13876980Y9368698D01*
X13987294Y9427663D01*
X14083985Y9507015D01*
X14163337Y9603706D01*
X14222302Y9714020D01*
X14258612Y9833718D01*
X14270872Y9958200D01*
X14270389Y10011508D01*
X14365820Y9960498D01*
X14485518Y9924188D01*
X14610000Y9911928D01*
X15217936Y9911928D01*
X15264456Y9873750D01*
X15284268Y9857491D01*
X15429883Y9779658D01*
X15587884Y9731729D01*
X15711030Y9719600D01*
X15711039Y9719600D01*
X15752199Y9715546D01*
X15793359Y9719600D01*
X16001060Y9719600D01*
X16017195Y9689414D01*
X16127638Y9554838D01*
X16262214Y9444395D01*
X16415750Y9362328D01*
X16582346Y9311792D01*
X16755600Y9294728D01*
X18005600Y9294728D01*
X18178854Y9311792D01*
X18345450Y9362328D01*
X18498986Y9444395D01*
X18633562Y9554838D01*
X18744005Y9689414D01*
X18826072Y9842950D01*
X18876608Y10009546D01*
X18885694Y10101800D01*
X21625691Y10101800D01*
X21627200Y9873750D01*
X21785950Y9715000D01*
X22435200Y9715000D01*
X22435200Y9735000D01*
X22689200Y9735000D01*
X22689200Y9715000D01*
X22709200Y9715000D01*
X22709200Y9461000D01*
X22689200Y9461000D01*
X22689200Y8361750D01*
X22847950Y8203000D01*
X22862200Y8199928D01*
X22986682Y8212188D01*
X23106380Y8248498D01*
X23197200Y8297043D01*
X23288020Y8248498D01*
X23407718Y8212188D01*
X23532200Y8199928D01*
X24132200Y8199928D01*
X24256682Y8212188D01*
X24376380Y8248498D01*
X24467200Y8297043D01*
X24558020Y8248498D01*
X24677718Y8212188D01*
X24802200Y8199928D01*
X24816450Y8203000D01*
X24975200Y8361750D01*
X24975200Y9461000D01*
X24955200Y9461000D01*
X24955200Y9715000D01*
X24975200Y9715000D01*
X24975200Y9735000D01*
X25229200Y9735000D01*
X25229200Y9715000D01*
X25249200Y9715000D01*
X25249200Y9461000D01*
X25229200Y9461000D01*
X25229200Y8361750D01*
X25387950Y8203000D01*
X25402200Y8199928D01*
X25526682Y8212188D01*
X25646380Y8248498D01*
X25737200Y8297043D01*
X25828020Y8248498D01*
X25947718Y8212188D01*
X26072200Y8199928D01*
X26672200Y8199928D01*
X26796682Y8212188D01*
X26916380Y8248498D01*
X27007200Y8297043D01*
X27098020Y8248498D01*
X27217718Y8212188D01*
X27342200Y8199928D01*
X27356450Y8203000D01*
X27515200Y8361750D01*
X27515200Y9461000D01*
X27495200Y9461000D01*
X27495200Y9715000D01*
X27515200Y9715000D01*
X27515200Y10814250D01*
X27769200Y10814250D01*
X27769200Y9715000D01*
X27789200Y9715000D01*
X27789200Y9461000D01*
X27769200Y9461000D01*
X27769200Y8361750D01*
X27927950Y8203000D01*
X27942200Y8199928D01*
X28066682Y8212188D01*
X28186380Y8248498D01*
X28277200Y8297043D01*
X28368020Y8248498D01*
X28487718Y8212188D01*
X28612200Y8199928D01*
X29212200Y8199928D01*
X29336682Y8212188D01*
X29456380Y8248498D01*
X29547200Y8297043D01*
X29638020Y8248498D01*
X29757718Y8212188D01*
X29882200Y8199928D01*
X29896450Y8203000D01*
X30055200Y8361750D01*
X30055200Y9461000D01*
X30309200Y9461000D01*
X30309200Y8361750D01*
X30467950Y8203000D01*
X30482200Y8199928D01*
X30606682Y8212188D01*
X30726380Y8248498D01*
X30836694Y8307463D01*
X30933385Y8386815D01*
X31012737Y8483506D01*
X31071702Y8593820D01*
X31108012Y8713518D01*
X31120272Y8838000D01*
X31117200Y9302250D01*
X30958450Y9461000D01*
X30309200Y9461000D01*
X30055200Y9461000D01*
X30035200Y9461000D01*
X30035200Y9715000D01*
X30055200Y9715000D01*
X30055200Y10814250D01*
X30309200Y10814250D01*
X30309200Y9715000D01*
X30958450Y9715000D01*
X31117200Y9873750D01*
X31120272Y10338000D01*
X31108012Y10462482D01*
X31071702Y10582180D01*
X31012737Y10692494D01*
X30933385Y10789185D01*
X30836694Y10868537D01*
X30726380Y10927502D01*
X30606682Y10963812D01*
X30482200Y10976072D01*
X30467950Y10973000D01*
X30309200Y10814250D01*
X30055200Y10814250D01*
X29896450Y10973000D01*
X29882200Y10976072D01*
X29757718Y10963812D01*
X29638020Y10927502D01*
X29547200Y10878957D01*
X29456380Y10927502D01*
X29336682Y10963812D01*
X29212200Y10976072D01*
X28612200Y10976072D01*
X28487718Y10963812D01*
X28368020Y10927502D01*
X28277200Y10878957D01*
X28186380Y10927502D01*
X28066682Y10963812D01*
X27942200Y10976072D01*
X27927950Y10973000D01*
X27769200Y10814250D01*
X27515200Y10814250D01*
X27356450Y10973000D01*
X27342200Y10976072D01*
X27217718Y10963812D01*
X27098020Y10927502D01*
X27007200Y10878957D01*
X26916380Y10927502D01*
X26806291Y10960897D01*
X27556194Y11710800D01*
X34104728Y11710800D01*
X34116988Y11586318D01*
X34153298Y11466620D01*
X34212263Y11356306D01*
X34291615Y11259615D01*
X34388306Y11180263D01*
X34498620Y11121298D01*
X34618318Y11084988D01*
X34742800Y11072728D01*
X35332050Y11075800D01*
X35490800Y11234550D01*
X35490800Y12208800D01*
X34266550Y12208800D01*
X34107800Y12050050D01*
X34104728Y11710800D01*
X27556194Y11710800D01*
X28205789Y12360395D01*
X28237764Y12386636D01*
X28312581Y12477800D01*
X28342509Y12514268D01*
X28420342Y12659883D01*
X28468271Y12817884D01*
X28472054Y12856291D01*
X28480400Y12941030D01*
X28480400Y12941037D01*
X28482346Y12960800D01*
X34104728Y12960800D01*
X34107800Y12621550D01*
X34266550Y12462800D01*
X35490800Y12462800D01*
X35490800Y13437050D01*
X35332050Y13595800D01*
X34742800Y13598872D01*
X34618318Y13586612D01*
X34498620Y13550302D01*
X34388306Y13491337D01*
X34291615Y13411985D01*
X34212263Y13315294D01*
X34153298Y13204980D01*
X34116988Y13085282D01*
X34104728Y12960800D01*
X28482346Y12960800D01*
X28484454Y12982200D01*
X28480400Y13023363D01*
X28480400Y13614408D01*
X28487718Y13612188D01*
X28612200Y13599928D01*
X28626450Y13603000D01*
X28785200Y13761750D01*
X28785200Y14861000D01*
X28765200Y14861000D01*
X28765200Y15115000D01*
X28785200Y15115000D01*
X28785200Y15135000D01*
X29039200Y15135000D01*
X29039200Y15115000D01*
X29059200Y15115000D01*
X29059200Y14861000D01*
X29039200Y14861000D01*
X29039200Y13761750D01*
X29197950Y13603000D01*
X29212200Y13599928D01*
X29336682Y13612188D01*
X29456380Y13648498D01*
X29547200Y13697043D01*
X29638020Y13648498D01*
X29757718Y13612188D01*
X29882200Y13599928D01*
X30482200Y13599928D01*
X30606682Y13612188D01*
X30726380Y13648498D01*
X30836694Y13707463D01*
X30933385Y13786815D01*
X31012737Y13883506D01*
X31071702Y13993820D01*
X31108012Y14113518D01*
X31116471Y14199409D01*
X31120946Y14197017D01*
X31317250Y14137469D01*
X31470248Y14122400D01*
X34377557Y14122400D01*
X34499414Y14022395D01*
X34652950Y13940328D01*
X34819546Y13889792D01*
X34992800Y13872728D01*
X36242800Y13872728D01*
X36416054Y13889792D01*
X36582650Y13940328D01*
X36736186Y14022395D01*
X36775058Y14054296D01*
X36785698Y14019220D01*
X36837001Y13923241D01*
X36837001Y13898178D01*
X36837000Y13898169D01*
X36837000Y13649970D01*
X36832945Y13608800D01*
X36837000Y13567631D01*
X36837000Y13496839D01*
X36736980Y13550302D01*
X36617282Y13586612D01*
X36492800Y13598872D01*
X35903550Y13595800D01*
X35744800Y13437050D01*
X35744800Y12462800D01*
X35764800Y12462800D01*
X35764800Y12208800D01*
X35744800Y12208800D01*
X35744800Y11234550D01*
X35903550Y11075800D01*
X36492800Y11072728D01*
X36617282Y11084988D01*
X36736980Y11121298D01*
X36837001Y11174761D01*
X36837001Y10703559D01*
X36785698Y10607580D01*
X36749388Y10487882D01*
X36737128Y10363400D01*
X36737128Y8863400D01*
X36749388Y8738918D01*
X36785698Y8619220D01*
X36844663Y8508906D01*
X36924015Y8412215D01*
X37020706Y8332863D01*
X37131020Y8273898D01*
X37250718Y8237588D01*
X37375200Y8225328D01*
X37975200Y8225328D01*
X38099682Y8237588D01*
X38107001Y8239808D01*
X38107001Y7679572D01*
X38102946Y7638400D01*
X38119129Y7474085D01*
X38167058Y7316084D01*
X38244891Y7170469D01*
X38288948Y7116786D01*
X38349637Y7042836D01*
X38381613Y7016594D01*
X39408591Y5989615D01*
X39434836Y5957636D01*
X39524634Y5883941D01*
X39399294Y5731214D01*
X39370000Y5676409D01*
X39340706Y5731214D01*
X39155134Y5957334D01*
X38929014Y6142906D01*
X38671034Y6280799D01*
X38391111Y6365713D01*
X38172950Y6387200D01*
X38027050Y6387200D01*
X37808889Y6365713D01*
X37528966Y6280799D01*
X37270986Y6142906D01*
X37044866Y5957334D01*
X36859294Y5731214D01*
X36830000Y5676409D01*
X36800706Y5731214D01*
X36615134Y5957334D01*
X36389014Y6142906D01*
X36131034Y6280799D01*
X35851111Y6365713D01*
X35632950Y6387200D01*
X35487050Y6387200D01*
X35268889Y6365713D01*
X34988966Y6280799D01*
X34730986Y6142906D01*
X34504866Y5957334D01*
X34319294Y5731214D01*
X34290000Y5676409D01*
X34260706Y5731214D01*
X34075134Y5957334D01*
X33849014Y6142906D01*
X33591034Y6280799D01*
X33311111Y6365713D01*
X33092950Y6387200D01*
X32947050Y6387200D01*
X32728889Y6365713D01*
X32448966Y6280799D01*
X32190986Y6142906D01*
X31964866Y5957334D01*
X31779294Y5731214D01*
X31750000Y5676409D01*
X31720706Y5731214D01*
X31535134Y5957334D01*
X31309014Y6142906D01*
X31051034Y6280799D01*
X30771111Y6365713D01*
X30552950Y6387200D01*
X30407050Y6387200D01*
X30188889Y6365713D01*
X29908966Y6280799D01*
X29650986Y6142906D01*
X29424866Y5957334D01*
X29239294Y5731214D01*
X29210000Y5676409D01*
X29180706Y5731214D01*
X28995134Y5957334D01*
X28769014Y6142906D01*
X28511034Y6280799D01*
X28231111Y6365713D01*
X28012950Y6387200D01*
X27867050Y6387200D01*
X27648889Y6365713D01*
X27368966Y6280799D01*
X27110986Y6142906D01*
X26884866Y5957334D01*
X26699294Y5731214D01*
X26670000Y5676409D01*
X26640706Y5731214D01*
X26455134Y5957334D01*
X26229014Y6142906D01*
X25971034Y6280799D01*
X25691111Y6365713D01*
X25472950Y6387200D01*
X25327050Y6387200D01*
X25108889Y6365713D01*
X24828966Y6280799D01*
X24570986Y6142906D01*
X24344866Y5957334D01*
X24159294Y5731214D01*
X24130000Y5676409D01*
X24100706Y5731214D01*
X23915134Y5957334D01*
X23689014Y6142906D01*
X23431034Y6280799D01*
X23151111Y6365713D01*
X22932950Y6387200D01*
X22787050Y6387200D01*
X22568889Y6365713D01*
X22288966Y6280799D01*
X22030986Y6142906D01*
X21804866Y5957334D01*
X21619294Y5731214D01*
X21590000Y5676409D01*
X21560706Y5731214D01*
X21375134Y5957334D01*
X21149014Y6142906D01*
X20891034Y6280799D01*
X20611111Y6365713D01*
X20392950Y6387200D01*
X20247050Y6387200D01*
X20028889Y6365713D01*
X19748966Y6280799D01*
X19490986Y6142906D01*
X19264866Y5957334D01*
X19079294Y5731214D01*
X19050000Y5676409D01*
X19020706Y5731214D01*
X18835134Y5957334D01*
X18609014Y6142906D01*
X18351034Y6280799D01*
X18071111Y6365713D01*
X17852950Y6387200D01*
X17707050Y6387200D01*
X17488889Y6365713D01*
X17208966Y6280799D01*
X16950986Y6142906D01*
X16724866Y5957334D01*
X16539294Y5731214D01*
X16510000Y5676409D01*
X16480706Y5731214D01*
X16295134Y5957334D01*
X16069014Y6142906D01*
X15811034Y6280799D01*
X15531111Y6365713D01*
X15312950Y6387200D01*
X15167050Y6387200D01*
X14948889Y6365713D01*
X14668966Y6280799D01*
X14410986Y6142906D01*
X14184866Y5957334D01*
X13999294Y5731214D01*
X13970000Y5676409D01*
X13940706Y5731214D01*
X13755134Y5957334D01*
X13529014Y6142906D01*
X13271034Y6280799D01*
X12991111Y6365713D01*
X12772950Y6387200D01*
X12627050Y6387200D01*
X12408889Y6365713D01*
X12128966Y6280799D01*
X11870986Y6142906D01*
X11644866Y5957334D01*
X11459294Y5731214D01*
X11430000Y5676409D01*
X11400706Y5731214D01*
X11215134Y5957334D01*
X10989014Y6142906D01*
X10731034Y6280799D01*
X10451111Y6365713D01*
X10232950Y6387200D01*
X10087050Y6387200D01*
X9868889Y6365713D01*
X9588966Y6280799D01*
X9330986Y6142906D01*
X9104866Y5957334D01*
X8919294Y5731214D01*
X8884799Y5666677D01*
X8815178Y5783555D01*
X8620269Y5999788D01*
X8386920Y6173841D01*
X8124099Y6299025D01*
X7976890Y6343676D01*
X7747000Y6222355D01*
X7747000Y5029200D01*
X7767000Y5029200D01*
X7767000Y4775200D01*
X7747000Y4775200D01*
X7747000Y3582045D01*
X7767740Y3571100D01*
X7747000Y3560155D01*
X7747000Y2367000D01*
X7767000Y2367000D01*
X7767000Y2113000D01*
X7747000Y2113000D01*
X7747000Y2093000D01*
X7493000Y2093000D01*
X7493000Y2113000D01*
X7473000Y2113000D01*
X7473000Y2367000D01*
X7493000Y2367000D01*
X7493000Y3560155D01*
X7472260Y3571100D01*
X7493000Y3582045D01*
X7493000Y4775200D01*
X7473000Y4775200D01*
X7473000Y5029200D01*
X7493000Y5029200D01*
X7493000Y6222355D01*
X7263110Y6343676D01*
X7115901Y6299025D01*
X6853080Y6173841D01*
X6619731Y5999788D01*
X6424822Y5783555D01*
X6355201Y5666677D01*
X6320706Y5731214D01*
X6135134Y5957334D01*
X5909014Y6142906D01*
X5651034Y6280799D01*
X5371111Y6365713D01*
X5152950Y6387200D01*
X5007050Y6387200D01*
X4788889Y6365713D01*
X4508966Y6280799D01*
X4250986Y6142906D01*
X4024866Y5957334D01*
X4000393Y5927513D01*
X3979502Y5996380D01*
X3920537Y6106694D01*
X3841185Y6203385D01*
X3744494Y6282737D01*
X3634180Y6341702D01*
X3514482Y6378012D01*
X3390000Y6390272D01*
X1690000Y6390272D01*
X1565518Y6378012D01*
X1445820Y6341702D01*
X1335506Y6282737D01*
X1238815Y6203385D01*
X1159463Y6106694D01*
X1100498Y5996380D01*
X1064188Y5876682D01*
X1051928Y5752200D01*
X1051928Y4052200D01*
X1064188Y3927718D01*
X1100498Y3808020D01*
X1159463Y3697706D01*
X1238815Y3601015D01*
X1275267Y3571100D01*
X1238815Y3541185D01*
X1159463Y3444494D01*
X1100498Y3334180D01*
X1064188Y3214482D01*
X1051928Y3090000D01*
X1051928Y1390000D01*
X1064188Y1265518D01*
X1100498Y1145820D01*
X1159463Y1035506D01*
X1238335Y939400D01*
X660000Y939400D01*
X660000Y8838000D01*
X21624128Y8838000D01*
X21636388Y8713518D01*
X21672698Y8593820D01*
X21731663Y8483506D01*
X21811015Y8386815D01*
X21907706Y8307463D01*
X22018020Y8248498D01*
X22137718Y8212188D01*
X22262200Y8199928D01*
X22276450Y8203000D01*
X22435200Y8361750D01*
X22435200Y9461000D01*
X21785950Y9461000D01*
X21627200Y9302250D01*
X21624128Y8838000D01*
X660000Y8838000D01*
X660000Y9958200D01*
X11244728Y9958200D01*
X11256988Y9833718D01*
X11293298Y9714020D01*
X11352263Y9603706D01*
X11431615Y9507015D01*
X11528306Y9427663D01*
X11638620Y9368698D01*
X11758318Y9332388D01*
X11882800Y9320128D01*
X12472050Y9323200D01*
X12630800Y9481950D01*
X12630800Y10456200D01*
X11406550Y10456200D01*
X11247800Y10297450D01*
X11244728Y9958200D01*
X660000Y9958200D01*
X660000Y11208200D01*
X11244728Y11208200D01*
X11247800Y10868950D01*
X11406550Y10710200D01*
X12630800Y10710200D01*
X12630800Y11684450D01*
X12472050Y11843200D01*
X11882800Y11846272D01*
X11758318Y11834012D01*
X11638620Y11797702D01*
X11528306Y11738737D01*
X11431615Y11659385D01*
X11352263Y11562694D01*
X11293298Y11452380D01*
X11256988Y11332682D01*
X11244728Y11208200D01*
X660000Y11208200D01*
X660000Y21438000D01*
X1234396Y21438000D01*
X1159463Y21346694D01*
X1159463Y21346694D01*
G37*
X1159463Y21346694D02*
X1100498Y21236380D01*
X1064188Y21116682D01*
X1051928Y20992200D01*
X1051928Y19292200D01*
X1064188Y19167718D01*
X1100498Y19048020D01*
X1159463Y18937706D01*
X1238815Y18841015D01*
X1275267Y18811100D01*
X1238815Y18781185D01*
X1159463Y18684494D01*
X1100498Y18574180D01*
X1064188Y18454482D01*
X1051928Y18330000D01*
X1051928Y16630000D01*
X1064188Y16505518D01*
X1100498Y16385820D01*
X1159463Y16275506D01*
X1238815Y16178815D01*
X1335506Y16099463D01*
X1445820Y16040498D01*
X1565518Y16004188D01*
X1690000Y15991928D01*
X3390000Y15991928D01*
X3514482Y16004188D01*
X3634180Y16040498D01*
X3744494Y16099463D01*
X3841185Y16178815D01*
X3920537Y16275506D01*
X3979502Y16385820D01*
X4000393Y16454687D01*
X4024866Y16424866D01*
X4250986Y16239294D01*
X4508966Y16101401D01*
X4788889Y16016487D01*
X5007050Y15995000D01*
X5152950Y15995000D01*
X5371111Y16016487D01*
X5651034Y16101401D01*
X5909014Y16239294D01*
X6135134Y16424866D01*
X6320706Y16650986D01*
X6350000Y16705791D01*
X6379294Y16650986D01*
X6564866Y16424866D01*
X6790986Y16239294D01*
X7048966Y16101401D01*
X7328889Y16016487D01*
X7547050Y15995000D01*
X7692950Y15995000D01*
X7911111Y16016487D01*
X8191034Y16101401D01*
X8449014Y16239294D01*
X8675134Y16424866D01*
X8860706Y16650986D01*
X8890000Y16705791D01*
X8919294Y16650986D01*
X9104866Y16424866D01*
X9330986Y16239294D01*
X9588966Y16101401D01*
X9868889Y16016487D01*
X10087050Y15995000D01*
X10232950Y15995000D01*
X10451111Y16016487D01*
X10731034Y16101401D01*
X10989014Y16239294D01*
X11215134Y16424866D01*
X11400706Y16650986D01*
X11430000Y16705791D01*
X11459294Y16650986D01*
X11644866Y16424866D01*
X11870986Y16239294D01*
X12128966Y16101401D01*
X12408889Y16016487D01*
X12627050Y15995000D01*
X12772950Y15995000D01*
X12991111Y16016487D01*
X13271034Y16101401D01*
X13529014Y16239294D01*
X13755134Y16424866D01*
X13940706Y16650986D01*
X13970000Y16705791D01*
X13999294Y16650986D01*
X14184866Y16424866D01*
X14410986Y16239294D01*
X14668966Y16101401D01*
X14948889Y16016487D01*
X15167050Y15995000D01*
X15312950Y15995000D01*
X15531111Y16016487D01*
X15811034Y16101401D01*
X16069014Y16239294D01*
X16295134Y16424866D01*
X16480706Y16650986D01*
X16510000Y16705791D01*
X16539294Y16650986D01*
X16724866Y16424866D01*
X16950986Y16239294D01*
X17036968Y16193336D01*
X16965850Y16186331D01*
X16769546Y16126783D01*
X16588630Y16030081D01*
X16430057Y15899943D01*
X16299919Y15741370D01*
X16203217Y15560454D01*
X16143669Y15364150D01*
X16123562Y15160000D01*
X16143669Y14955850D01*
X16203217Y14759546D01*
X16299919Y14578630D01*
X16349703Y14517969D01*
X16262214Y14471205D01*
X16127638Y14360762D01*
X16017195Y14226186D01*
X16013889Y14220000D01*
X15964494Y14260537D01*
X15854180Y14319502D01*
X15734482Y14355812D01*
X15610000Y14368072D01*
X14610000Y14368072D01*
X14485518Y14355812D01*
X14365820Y14319502D01*
X14255506Y14260537D01*
X14207817Y14221400D01*
X14137340Y14221400D01*
X14121205Y14251586D01*
X14010762Y14386162D01*
X13876186Y14496605D01*
X13722650Y14578672D01*
X13556054Y14629208D01*
X13382800Y14646272D01*
X12132800Y14646272D01*
X11959546Y14629208D01*
X11792950Y14578672D01*
X11639414Y14496605D01*
X11504838Y14386162D01*
X11394395Y14251586D01*
X11312328Y14098050D01*
X11261792Y13931454D01*
X11244728Y13758200D01*
X11244728Y13008200D01*
X11261792Y12834946D01*
X11312328Y12668350D01*
X11394395Y12514814D01*
X11504838Y12380238D01*
X11639414Y12269795D01*
X11792950Y12187728D01*
X11959546Y12137192D01*
X12132800Y12120128D01*
X13382800Y12120128D01*
X13556054Y12137192D01*
X13722650Y12187728D01*
X13876186Y12269795D01*
X13995625Y12367815D01*
X14020498Y12285820D01*
X14079463Y12175506D01*
X14108602Y12140000D01*
X14079463Y12104494D01*
X14020498Y11994180D01*
X13984188Y11874482D01*
X13971928Y11750000D01*
X13971928Y11746950D01*
X13876980Y11797702D01*
X13757282Y11834012D01*
X13632800Y11846272D01*
X13043550Y11843200D01*
X12884800Y11684450D01*
X12884800Y10710200D01*
X12904800Y10710200D01*
X12904800Y10456200D01*
X12884800Y10456200D01*
X12884800Y9481950D01*
X13043550Y9323200D01*
X13632800Y9320128D01*
X13757282Y9332388D01*
X13876980Y9368698D01*
X13987294Y9427663D01*
X14083985Y9507015D01*
X14163337Y9603706D01*
X14222302Y9714020D01*
X14258612Y9833718D01*
X14270872Y9958200D01*
X14270389Y10011508D01*
X14365820Y9960498D01*
X14485518Y9924188D01*
X14610000Y9911928D01*
X15217936Y9911928D01*
X15264456Y9873750D01*
X15284268Y9857491D01*
X15429883Y9779658D01*
X15587884Y9731729D01*
X15711030Y9719600D01*
X15711039Y9719600D01*
X15752199Y9715546D01*
X15793359Y9719600D01*
X16001060Y9719600D01*
X16017195Y9689414D01*
X16127638Y9554838D01*
X16262214Y9444395D01*
X16415750Y9362328D01*
X16582346Y9311792D01*
X16755600Y9294728D01*
X18005600Y9294728D01*
X18178854Y9311792D01*
X18345450Y9362328D01*
X18498986Y9444395D01*
X18633562Y9554838D01*
X18744005Y9689414D01*
X18826072Y9842950D01*
X18876608Y10009546D01*
X18885694Y10101800D01*
X21625691Y10101800D01*
X21627200Y9873750D01*
X21785950Y9715000D01*
X22435200Y9715000D01*
X22435200Y9735000D01*
X22689200Y9735000D01*
X22689200Y9715000D01*
X22709200Y9715000D01*
X22709200Y9461000D01*
X22689200Y9461000D01*
X22689200Y8361750D01*
X22847950Y8203000D01*
X22862200Y8199928D01*
X22986682Y8212188D01*
X23106380Y8248498D01*
X23197200Y8297043D01*
X23288020Y8248498D01*
X23407718Y8212188D01*
X23532200Y8199928D01*
X24132200Y8199928D01*
X24256682Y8212188D01*
X24376380Y8248498D01*
X24467200Y8297043D01*
X24558020Y8248498D01*
X24677718Y8212188D01*
X24802200Y8199928D01*
X24816450Y8203000D01*
X24975200Y8361750D01*
X24975200Y9461000D01*
X24955200Y9461000D01*
X24955200Y9715000D01*
X24975200Y9715000D01*
X24975200Y9735000D01*
X25229200Y9735000D01*
X25229200Y9715000D01*
X25249200Y9715000D01*
X25249200Y9461000D01*
X25229200Y9461000D01*
X25229200Y8361750D01*
X25387950Y8203000D01*
X25402200Y8199928D01*
X25526682Y8212188D01*
X25646380Y8248498D01*
X25737200Y8297043D01*
X25828020Y8248498D01*
X25947718Y8212188D01*
X26072200Y8199928D01*
X26672200Y8199928D01*
X26796682Y8212188D01*
X26916380Y8248498D01*
X27007200Y8297043D01*
X27098020Y8248498D01*
X27217718Y8212188D01*
X27342200Y8199928D01*
X27356450Y8203000D01*
X27515200Y8361750D01*
X27515200Y9461000D01*
X27495200Y9461000D01*
X27495200Y9715000D01*
X27515200Y9715000D01*
X27515200Y10814250D01*
X27769200Y10814250D01*
X27769200Y9715000D01*
X27789200Y9715000D01*
X27789200Y9461000D01*
X27769200Y9461000D01*
X27769200Y8361750D01*
X27927950Y8203000D01*
X27942200Y8199928D01*
X28066682Y8212188D01*
X28186380Y8248498D01*
X28277200Y8297043D01*
X28368020Y8248498D01*
X28487718Y8212188D01*
X28612200Y8199928D01*
X29212200Y8199928D01*
X29336682Y8212188D01*
X29456380Y8248498D01*
X29547200Y8297043D01*
X29638020Y8248498D01*
X29757718Y8212188D01*
X29882200Y8199928D01*
X29896450Y8203000D01*
X30055200Y8361750D01*
X30055200Y9461000D01*
X30309200Y9461000D01*
X30309200Y8361750D01*
X30467950Y8203000D01*
X30482200Y8199928D01*
X30606682Y8212188D01*
X30726380Y8248498D01*
X30836694Y8307463D01*
X30933385Y8386815D01*
X31012737Y8483506D01*
X31071702Y8593820D01*
X31108012Y8713518D01*
X31120272Y8838000D01*
X31117200Y9302250D01*
X30958450Y9461000D01*
X30309200Y9461000D01*
X30055200Y9461000D01*
X30035200Y9461000D01*
X30035200Y9715000D01*
X30055200Y9715000D01*
X30055200Y10814250D01*
X30309200Y10814250D01*
X30309200Y9715000D01*
X30958450Y9715000D01*
X31117200Y9873750D01*
X31120272Y10338000D01*
X31108012Y10462482D01*
X31071702Y10582180D01*
X31012737Y10692494D01*
X30933385Y10789185D01*
X30836694Y10868537D01*
X30726380Y10927502D01*
X30606682Y10963812D01*
X30482200Y10976072D01*
X30467950Y10973000D01*
X30309200Y10814250D01*
X30055200Y10814250D01*
X29896450Y10973000D01*
X29882200Y10976072D01*
X29757718Y10963812D01*
X29638020Y10927502D01*
X29547200Y10878957D01*
X29456380Y10927502D01*
X29336682Y10963812D01*
X29212200Y10976072D01*
X28612200Y10976072D01*
X28487718Y10963812D01*
X28368020Y10927502D01*
X28277200Y10878957D01*
X28186380Y10927502D01*
X28066682Y10963812D01*
X27942200Y10976072D01*
X27927950Y10973000D01*
X27769200Y10814250D01*
X27515200Y10814250D01*
X27356450Y10973000D01*
X27342200Y10976072D01*
X27217718Y10963812D01*
X27098020Y10927502D01*
X27007200Y10878957D01*
X26916380Y10927502D01*
X26806291Y10960897D01*
X27556194Y11710800D01*
X34104728Y11710800D01*
X34116988Y11586318D01*
X34153298Y11466620D01*
X34212263Y11356306D01*
X34291615Y11259615D01*
X34388306Y11180263D01*
X34498620Y11121298D01*
X34618318Y11084988D01*
X34742800Y11072728D01*
X35332050Y11075800D01*
X35490800Y11234550D01*
X35490800Y12208800D01*
X34266550Y12208800D01*
X34107800Y12050050D01*
X34104728Y11710800D01*
X27556194Y11710800D01*
X28205789Y12360395D01*
X28237764Y12386636D01*
X28312581Y12477800D01*
X28342509Y12514268D01*
X28420342Y12659883D01*
X28468271Y12817884D01*
X28472054Y12856291D01*
X28480400Y12941030D01*
X28480400Y12941037D01*
X28482346Y12960800D01*
X34104728Y12960800D01*
X34107800Y12621550D01*
X34266550Y12462800D01*
X35490800Y12462800D01*
X35490800Y13437050D01*
X35332050Y13595800D01*
X34742800Y13598872D01*
X34618318Y13586612D01*
X34498620Y13550302D01*
X34388306Y13491337D01*
X34291615Y13411985D01*
X34212263Y13315294D01*
X34153298Y13204980D01*
X34116988Y13085282D01*
X34104728Y12960800D01*
X28482346Y12960800D01*
X28484454Y12982200D01*
X28480400Y13023363D01*
X28480400Y13614408D01*
X28487718Y13612188D01*
X28612200Y13599928D01*
X28626450Y13603000D01*
X28785200Y13761750D01*
X28785200Y14861000D01*
X28765200Y14861000D01*
X28765200Y15115000D01*
X28785200Y15115000D01*
X28785200Y15135000D01*
X29039200Y15135000D01*
X29039200Y15115000D01*
X29059200Y15115000D01*
X29059200Y14861000D01*
X29039200Y14861000D01*
X29039200Y13761750D01*
X29197950Y13603000D01*
X29212200Y13599928D01*
X29336682Y13612188D01*
X29456380Y13648498D01*
X29547200Y13697043D01*
X29638020Y13648498D01*
X29757718Y13612188D01*
X29882200Y13599928D01*
X30482200Y13599928D01*
X30606682Y13612188D01*
X30726380Y13648498D01*
X30836694Y13707463D01*
X30933385Y13786815D01*
X31012737Y13883506D01*
X31071702Y13993820D01*
X31108012Y14113518D01*
X31116471Y14199409D01*
X31120946Y14197017D01*
X31317250Y14137469D01*
X31470248Y14122400D01*
X34377557Y14122400D01*
X34499414Y14022395D01*
X34652950Y13940328D01*
X34819546Y13889792D01*
X34992800Y13872728D01*
X36242800Y13872728D01*
X36416054Y13889792D01*
X36582650Y13940328D01*
X36736186Y14022395D01*
X36775058Y14054296D01*
X36785698Y14019220D01*
X36837001Y13923241D01*
X36837001Y13898178D01*
X36837000Y13898169D01*
X36837000Y13649970D01*
X36832945Y13608800D01*
X36837000Y13567631D01*
X36837000Y13496839D01*
X36736980Y13550302D01*
X36617282Y13586612D01*
X36492800Y13598872D01*
X35903550Y13595800D01*
X35744800Y13437050D01*
X35744800Y12462800D01*
X35764800Y12462800D01*
X35764800Y12208800D01*
X35744800Y12208800D01*
X35744800Y11234550D01*
X35903550Y11075800D01*
X36492800Y11072728D01*
X36617282Y11084988D01*
X36736980Y11121298D01*
X36837001Y11174761D01*
X36837001Y10703559D01*
X36785698Y10607580D01*
X36749388Y10487882D01*
X36737128Y10363400D01*
X36737128Y8863400D01*
X36749388Y8738918D01*
X36785698Y8619220D01*
X36844663Y8508906D01*
X36924015Y8412215D01*
X37020706Y8332863D01*
X37131020Y8273898D01*
X37250718Y8237588D01*
X37375200Y8225328D01*
X37975200Y8225328D01*
X38099682Y8237588D01*
X38107001Y8239808D01*
X38107001Y7679572D01*
X38102946Y7638400D01*
X38119129Y7474085D01*
X38167058Y7316084D01*
X38244891Y7170469D01*
X38288948Y7116786D01*
X38349637Y7042836D01*
X38381613Y7016594D01*
X39408591Y5989615D01*
X39434836Y5957636D01*
X39524634Y5883941D01*
X39399294Y5731214D01*
X39370000Y5676409D01*
X39340706Y5731214D01*
X39155134Y5957334D01*
X38929014Y6142906D01*
X38671034Y6280799D01*
X38391111Y6365713D01*
X38172950Y6387200D01*
X38027050Y6387200D01*
X37808889Y6365713D01*
X37528966Y6280799D01*
X37270986Y6142906D01*
X37044866Y5957334D01*
X36859294Y5731214D01*
X36830000Y5676409D01*
X36800706Y5731214D01*
X36615134Y5957334D01*
X36389014Y6142906D01*
X36131034Y6280799D01*
X35851111Y6365713D01*
X35632950Y6387200D01*
X35487050Y6387200D01*
X35268889Y6365713D01*
X34988966Y6280799D01*
X34730986Y6142906D01*
X34504866Y5957334D01*
X34319294Y5731214D01*
X34290000Y5676409D01*
X34260706Y5731214D01*
X34075134Y5957334D01*
X33849014Y6142906D01*
X33591034Y6280799D01*
X33311111Y6365713D01*
X33092950Y6387200D01*
X32947050Y6387200D01*
X32728889Y6365713D01*
X32448966Y6280799D01*
X32190986Y6142906D01*
X31964866Y5957334D01*
X31779294Y5731214D01*
X31750000Y5676409D01*
X31720706Y5731214D01*
X31535134Y5957334D01*
X31309014Y6142906D01*
X31051034Y6280799D01*
X30771111Y6365713D01*
X30552950Y6387200D01*
X30407050Y6387200D01*
X30188889Y6365713D01*
X29908966Y6280799D01*
X29650986Y6142906D01*
X29424866Y5957334D01*
X29239294Y5731214D01*
X29210000Y5676409D01*
X29180706Y5731214D01*
X28995134Y5957334D01*
X28769014Y6142906D01*
X28511034Y6280799D01*
X28231111Y6365713D01*
X28012950Y6387200D01*
X27867050Y6387200D01*
X27648889Y6365713D01*
X27368966Y6280799D01*
X27110986Y6142906D01*
X26884866Y5957334D01*
X26699294Y5731214D01*
X26670000Y5676409D01*
X26640706Y5731214D01*
X26455134Y5957334D01*
X26229014Y6142906D01*
X25971034Y6280799D01*
X25691111Y6365713D01*
X25472950Y6387200D01*
X25327050Y6387200D01*
X25108889Y6365713D01*
X24828966Y6280799D01*
X24570986Y6142906D01*
X24344866Y5957334D01*
X24159294Y5731214D01*
X24130000Y5676409D01*
X24100706Y5731214D01*
X23915134Y5957334D01*
X23689014Y6142906D01*
X23431034Y6280799D01*
X23151111Y6365713D01*
X22932950Y6387200D01*
X22787050Y6387200D01*
X22568889Y6365713D01*
X22288966Y6280799D01*
X22030986Y6142906D01*
X21804866Y5957334D01*
X21619294Y5731214D01*
X21590000Y5676409D01*
X21560706Y5731214D01*
X21375134Y5957334D01*
X21149014Y6142906D01*
X20891034Y6280799D01*
X20611111Y6365713D01*
X20392950Y6387200D01*
X20247050Y6387200D01*
X20028889Y6365713D01*
X19748966Y6280799D01*
X19490986Y6142906D01*
X19264866Y5957334D01*
X19079294Y5731214D01*
X19050000Y5676409D01*
X19020706Y5731214D01*
X18835134Y5957334D01*
X18609014Y6142906D01*
X18351034Y6280799D01*
X18071111Y6365713D01*
X17852950Y6387200D01*
X17707050Y6387200D01*
X17488889Y6365713D01*
X17208966Y6280799D01*
X16950986Y6142906D01*
X16724866Y5957334D01*
X16539294Y5731214D01*
X16510000Y5676409D01*
X16480706Y5731214D01*
X16295134Y5957334D01*
X16069014Y6142906D01*
X15811034Y6280799D01*
X15531111Y6365713D01*
X15312950Y6387200D01*
X15167050Y6387200D01*
X14948889Y6365713D01*
X14668966Y6280799D01*
X14410986Y6142906D01*
X14184866Y5957334D01*
X13999294Y5731214D01*
X13970000Y5676409D01*
X13940706Y5731214D01*
X13755134Y5957334D01*
X13529014Y6142906D01*
X13271034Y6280799D01*
X12991111Y6365713D01*
X12772950Y6387200D01*
X12627050Y6387200D01*
X12408889Y6365713D01*
X12128966Y6280799D01*
X11870986Y6142906D01*
X11644866Y5957334D01*
X11459294Y5731214D01*
X11430000Y5676409D01*
X11400706Y5731214D01*
X11215134Y5957334D01*
X10989014Y6142906D01*
X10731034Y6280799D01*
X10451111Y6365713D01*
X10232950Y6387200D01*
X10087050Y6387200D01*
X9868889Y6365713D01*
X9588966Y6280799D01*
X9330986Y6142906D01*
X9104866Y5957334D01*
X8919294Y5731214D01*
X8884799Y5666677D01*
X8815178Y5783555D01*
X8620269Y5999788D01*
X8386920Y6173841D01*
X8124099Y6299025D01*
X7976890Y6343676D01*
X7747000Y6222355D01*
X7747000Y5029200D01*
X7767000Y5029200D01*
X7767000Y4775200D01*
X7747000Y4775200D01*
X7747000Y3582045D01*
X7767740Y3571100D01*
X7747000Y3560155D01*
X7747000Y2367000D01*
X7767000Y2367000D01*
X7767000Y2113000D01*
X7747000Y2113000D01*
X7747000Y2093000D01*
X7493000Y2093000D01*
X7493000Y2113000D01*
X7473000Y2113000D01*
X7473000Y2367000D01*
X7493000Y2367000D01*
X7493000Y3560155D01*
X7472260Y3571100D01*
X7493000Y3582045D01*
X7493000Y4775200D01*
X7473000Y4775200D01*
X7473000Y5029200D01*
X7493000Y5029200D01*
X7493000Y6222355D01*
X7263110Y6343676D01*
X7115901Y6299025D01*
X6853080Y6173841D01*
X6619731Y5999788D01*
X6424822Y5783555D01*
X6355201Y5666677D01*
X6320706Y5731214D01*
X6135134Y5957334D01*
X5909014Y6142906D01*
X5651034Y6280799D01*
X5371111Y6365713D01*
X5152950Y6387200D01*
X5007050Y6387200D01*
X4788889Y6365713D01*
X4508966Y6280799D01*
X4250986Y6142906D01*
X4024866Y5957334D01*
X4000393Y5927513D01*
X3979502Y5996380D01*
X3920537Y6106694D01*
X3841185Y6203385D01*
X3744494Y6282737D01*
X3634180Y6341702D01*
X3514482Y6378012D01*
X3390000Y6390272D01*
X1690000Y6390272D01*
X1565518Y6378012D01*
X1445820Y6341702D01*
X1335506Y6282737D01*
X1238815Y6203385D01*
X1159463Y6106694D01*
X1100498Y5996380D01*
X1064188Y5876682D01*
X1051928Y5752200D01*
X1051928Y4052200D01*
X1064188Y3927718D01*
X1100498Y3808020D01*
X1159463Y3697706D01*
X1238815Y3601015D01*
X1275267Y3571100D01*
X1238815Y3541185D01*
X1159463Y3444494D01*
X1100498Y3334180D01*
X1064188Y3214482D01*
X1051928Y3090000D01*
X1051928Y1390000D01*
X1064188Y1265518D01*
X1100498Y1145820D01*
X1159463Y1035506D01*
X1238335Y939400D01*
X660000Y939400D01*
X660000Y8838000D01*
X21624128Y8838000D01*
X21636388Y8713518D01*
X21672698Y8593820D01*
X21731663Y8483506D01*
X21811015Y8386815D01*
X21907706Y8307463D01*
X22018020Y8248498D01*
X22137718Y8212188D01*
X22262200Y8199928D01*
X22276450Y8203000D01*
X22435200Y8361750D01*
X22435200Y9461000D01*
X21785950Y9461000D01*
X21627200Y9302250D01*
X21624128Y8838000D01*
X660000Y8838000D01*
X660000Y9958200D01*
X11244728Y9958200D01*
X11256988Y9833718D01*
X11293298Y9714020D01*
X11352263Y9603706D01*
X11431615Y9507015D01*
X11528306Y9427663D01*
X11638620Y9368698D01*
X11758318Y9332388D01*
X11882800Y9320128D01*
X12472050Y9323200D01*
X12630800Y9481950D01*
X12630800Y10456200D01*
X11406550Y10456200D01*
X11247800Y10297450D01*
X11244728Y9958200D01*
X660000Y9958200D01*
X660000Y11208200D01*
X11244728Y11208200D01*
X11247800Y10868950D01*
X11406550Y10710200D01*
X12630800Y10710200D01*
X12630800Y11684450D01*
X12472050Y11843200D01*
X11882800Y11846272D01*
X11758318Y11834012D01*
X11638620Y11797702D01*
X11528306Y11738737D01*
X11431615Y11659385D01*
X11352263Y11562694D01*
X11293298Y11452380D01*
X11256988Y11332682D01*
X11244728Y11208200D01*
X660000Y11208200D01*
X660000Y21438000D01*
X1234396Y21438000D01*
X1159463Y21346694D01*
G36*
X52680001Y939400D02*
G01*
X51516960Y939400D01*
X51629014Y999294D01*
X51855134Y1184866D01*
X52040706Y1410986D01*
X52178599Y1668966D01*
X52263513Y1948889D01*
X52292185Y2240000D01*
X52263513Y2531111D01*
X52178599Y2811034D01*
X52040706Y3069014D01*
X51855134Y3295134D01*
X51629014Y3480706D01*
X51459898Y3571100D01*
X51629014Y3661494D01*
X51855134Y3847066D01*
X52040706Y4073186D01*
X52178599Y4331166D01*
X52263513Y4611089D01*
X52292185Y4902200D01*
X52263513Y5193311D01*
X52178599Y5473234D01*
X52040706Y5731214D01*
X51855134Y5957334D01*
X51638200Y6135367D01*
X51638200Y9077437D01*
X51642254Y9118600D01*
X51638200Y9159763D01*
X51638200Y9159770D01*
X51626071Y9282916D01*
X51578142Y9440917D01*
X51500309Y9586532D01*
X51486215Y9603706D01*
X51421808Y9682186D01*
X51421806Y9682188D01*
X51395564Y9714164D01*
X51363589Y9740405D01*
X47408611Y13695382D01*
X47382364Y13727364D01*
X47297679Y13796863D01*
X47316385Y13812215D01*
X47395737Y13908906D01*
X47454702Y14019220D01*
X47491012Y14138918D01*
X47497007Y14199787D01*
X47678102Y14124774D01*
X47878061Y14085000D01*
X48081939Y14085000D01*
X48281898Y14124774D01*
X48470256Y14202795D01*
X48639774Y14316063D01*
X48783937Y14460226D01*
X48897205Y14629744D01*
X48975226Y14818102D01*
X49015000Y15018061D01*
X49015000Y15221939D01*
X48975226Y15421898D01*
X48897205Y15610256D01*
X48783937Y15779774D01*
X48639774Y15923937D01*
X48507667Y16012208D01*
X48551111Y16016487D01*
X48831034Y16101401D01*
X49089014Y16239294D01*
X49315134Y16424866D01*
X49500706Y16650986D01*
X49530000Y16705791D01*
X49559294Y16650986D01*
X49744866Y16424866D01*
X49970986Y16239294D01*
X50228966Y16101401D01*
X50508889Y16016487D01*
X50727050Y15995000D01*
X50872950Y15995000D01*
X51091111Y16016487D01*
X51371034Y16101401D01*
X51629014Y16239294D01*
X51855134Y16424866D01*
X52040706Y16650986D01*
X52178599Y16908966D01*
X52263513Y17188889D01*
X52292185Y17480000D01*
X52263513Y17771111D01*
X52178599Y18051034D01*
X52040706Y18309014D01*
X51855134Y18535134D01*
X51638200Y18713167D01*
X51638200Y18909033D01*
X51855134Y19087066D01*
X52040706Y19313186D01*
X52178599Y19571166D01*
X52263513Y19851089D01*
X52292185Y20142200D01*
X52263513Y20433311D01*
X52178599Y20713234D01*
X52040706Y20971214D01*
X51855134Y21197334D01*
X51629014Y21382906D01*
X51525940Y21438000D01*
X52680000Y21438000D01*
X52680001Y939400D01*
X52680001Y939400D01*
G37*
X52680001Y939400D02*
X51516960Y939400D01*
X51629014Y999294D01*
X51855134Y1184866D01*
X52040706Y1410986D01*
X52178599Y1668966D01*
X52263513Y1948889D01*
X52292185Y2240000D01*
X52263513Y2531111D01*
X52178599Y2811034D01*
X52040706Y3069014D01*
X51855134Y3295134D01*
X51629014Y3480706D01*
X51459898Y3571100D01*
X51629014Y3661494D01*
X51855134Y3847066D01*
X52040706Y4073186D01*
X52178599Y4331166D01*
X52263513Y4611089D01*
X52292185Y4902200D01*
X52263513Y5193311D01*
X52178599Y5473234D01*
X52040706Y5731214D01*
X51855134Y5957334D01*
X51638200Y6135367D01*
X51638200Y9077437D01*
X51642254Y9118600D01*
X51638200Y9159763D01*
X51638200Y9159770D01*
X51626071Y9282916D01*
X51578142Y9440917D01*
X51500309Y9586532D01*
X51486215Y9603706D01*
X51421808Y9682186D01*
X51421806Y9682188D01*
X51395564Y9714164D01*
X51363589Y9740405D01*
X47408611Y13695382D01*
X47382364Y13727364D01*
X47297679Y13796863D01*
X47316385Y13812215D01*
X47395737Y13908906D01*
X47454702Y14019220D01*
X47491012Y14138918D01*
X47497007Y14199787D01*
X47678102Y14124774D01*
X47878061Y14085000D01*
X48081939Y14085000D01*
X48281898Y14124774D01*
X48470256Y14202795D01*
X48639774Y14316063D01*
X48783937Y14460226D01*
X48897205Y14629744D01*
X48975226Y14818102D01*
X49015000Y15018061D01*
X49015000Y15221939D01*
X48975226Y15421898D01*
X48897205Y15610256D01*
X48783937Y15779774D01*
X48639774Y15923937D01*
X48507667Y16012208D01*
X48551111Y16016487D01*
X48831034Y16101401D01*
X49089014Y16239294D01*
X49315134Y16424866D01*
X49500706Y16650986D01*
X49530000Y16705791D01*
X49559294Y16650986D01*
X49744866Y16424866D01*
X49970986Y16239294D01*
X50228966Y16101401D01*
X50508889Y16016487D01*
X50727050Y15995000D01*
X50872950Y15995000D01*
X51091111Y16016487D01*
X51371034Y16101401D01*
X51629014Y16239294D01*
X51855134Y16424866D01*
X52040706Y16650986D01*
X52178599Y16908966D01*
X52263513Y17188889D01*
X52292185Y17480000D01*
X52263513Y17771111D01*
X52178599Y18051034D01*
X52040706Y18309014D01*
X51855134Y18535134D01*
X51638200Y18713167D01*
X51638200Y18909033D01*
X51855134Y19087066D01*
X52040706Y19313186D01*
X52178599Y19571166D01*
X52263513Y19851089D01*
X52292185Y20142200D01*
X52263513Y20433311D01*
X52178599Y20713234D01*
X52040706Y20971214D01*
X51855134Y21197334D01*
X51629014Y21382906D01*
X51525940Y21438000D01*
X52680000Y21438000D01*
X52680001Y939400D01*
G36*
X48691800Y8695206D02*
G01*
X48691800Y6323035D01*
X48681980Y6326014D01*
X46692202Y8315791D01*
X46692202Y8387148D01*
X46850950Y8228400D01*
X46865200Y8225328D01*
X46989682Y8237588D01*
X47109380Y8273898D01*
X47219694Y8332863D01*
X47316385Y8412215D01*
X47395737Y8508906D01*
X47454702Y8619220D01*
X47491012Y8738918D01*
X47503272Y8863400D01*
X47500200Y9327650D01*
X47341450Y9486400D01*
X46692200Y9486400D01*
X46692200Y9466400D01*
X46438200Y9466400D01*
X46438200Y9486400D01*
X46418200Y9486400D01*
X46418200Y9740400D01*
X46438200Y9740400D01*
X46438200Y9760400D01*
X46692200Y9760400D01*
X46692200Y9740400D01*
X47341450Y9740400D01*
X47494028Y9892978D01*
X48691800Y8695206D01*
X48691800Y8695206D01*
G37*
X48691800Y8695206D02*
X48691800Y6323035D01*
X48681980Y6326014D01*
X46692202Y8315791D01*
X46692202Y8387148D01*
X46850950Y8228400D01*
X46865200Y8225328D01*
X46989682Y8237588D01*
X47109380Y8273898D01*
X47219694Y8332863D01*
X47316385Y8412215D01*
X47395737Y8508906D01*
X47454702Y8619220D01*
X47491012Y8738918D01*
X47503272Y8863400D01*
X47500200Y9327650D01*
X47341450Y9486400D01*
X46692200Y9486400D01*
X46692200Y9466400D01*
X46438200Y9466400D01*
X46438200Y9486400D01*
X46418200Y9486400D01*
X46418200Y9740400D01*
X46438200Y9740400D01*
X46438200Y9760400D01*
X46692200Y9760400D01*
X46692200Y9740400D01*
X47341450Y9740400D01*
X47494028Y9892978D01*
X48691800Y8695206D01*
G36*
X43777684Y11569129D02*
G01*
X43900830Y11557000D01*
X43900837Y11557000D01*
X43942000Y11552946D01*
X43983163Y11557000D01*
X45830007Y11557000D01*
X46438198Y10948809D01*
X46438198Y10839652D01*
X46279450Y10998400D01*
X46265200Y11001472D01*
X46140718Y10989212D01*
X46021020Y10952902D01*
X45930200Y10904357D01*
X45839380Y10952902D01*
X45719682Y10989212D01*
X45595200Y11001472D01*
X44995200Y11001472D01*
X44870718Y10989212D01*
X44751020Y10952902D01*
X44660200Y10904357D01*
X44569380Y10952902D01*
X44449682Y10989212D01*
X44325200Y11001472D01*
X43748414Y11001472D01*
X43757800Y11048661D01*
X43757800Y11252539D01*
X43718026Y11452498D01*
X43654200Y11606588D01*
X43777684Y11569129D01*
X43777684Y11569129D01*
G37*
X43777684Y11569129D02*
X43900830Y11557000D01*
X43900837Y11557000D01*
X43942000Y11552946D01*
X43983163Y11557000D01*
X45830007Y11557000D01*
X46438198Y10948809D01*
X46438198Y10839652D01*
X46279450Y10998400D01*
X46265200Y11001472D01*
X46140718Y10989212D01*
X46021020Y10952902D01*
X45930200Y10904357D01*
X45839380Y10952902D01*
X45719682Y10989212D01*
X45595200Y11001472D01*
X44995200Y11001472D01*
X44870718Y10989212D01*
X44751020Y10952902D01*
X44660200Y10904357D01*
X44569380Y10952902D01*
X44449682Y10989212D01*
X44325200Y11001472D01*
X43748414Y11001472D01*
X43757800Y11048661D01*
X43757800Y11252539D01*
X43718026Y11452498D01*
X43654200Y11606588D01*
X43777684Y11569129D01*
G36*
X42054891Y13114069D02*
G01*
X42130004Y13022544D01*
X42159637Y12986436D01*
X42191613Y12960194D01*
X43001333Y12150474D01*
X42824739Y12185600D01*
X42620861Y12185600D01*
X42420902Y12145826D01*
X42232544Y12067805D01*
X42063026Y11954537D01*
X41918863Y11810374D01*
X41805595Y11640856D01*
X41727574Y11452498D01*
X41687800Y11252539D01*
X41687800Y11048661D01*
X41697186Y11001472D01*
X41185200Y11001472D01*
X41060718Y10989212D01*
X40941020Y10952902D01*
X40850200Y10904357D01*
X40759380Y10952902D01*
X40639682Y10989212D01*
X40515200Y11001472D01*
X39915200Y11001472D01*
X39790718Y10989212D01*
X39671020Y10952902D01*
X39580200Y10904357D01*
X39489380Y10952902D01*
X39369682Y10989212D01*
X39245200Y11001472D01*
X38645200Y11001472D01*
X38520718Y10989212D01*
X38513400Y10986992D01*
X38513400Y12770600D01*
X41195837Y12770600D01*
X41237000Y12766546D01*
X41278163Y12770600D01*
X41278170Y12770600D01*
X41401316Y12782729D01*
X41559317Y12830658D01*
X41704932Y12908491D01*
X41832564Y13013236D01*
X41858811Y13045218D01*
X42010574Y13196981D01*
X42054891Y13114069D01*
X42054891Y13114069D01*
G37*
X42054891Y13114069D02*
X42130004Y13022544D01*
X42159637Y12986436D01*
X42191613Y12960194D01*
X43001333Y12150474D01*
X42824739Y12185600D01*
X42620861Y12185600D01*
X42420902Y12145826D01*
X42232544Y12067805D01*
X42063026Y11954537D01*
X41918863Y11810374D01*
X41805595Y11640856D01*
X41727574Y11452498D01*
X41687800Y11252539D01*
X41687800Y11048661D01*
X41697186Y11001472D01*
X41185200Y11001472D01*
X41060718Y10989212D01*
X40941020Y10952902D01*
X40850200Y10904357D01*
X40759380Y10952902D01*
X40639682Y10989212D01*
X40515200Y11001472D01*
X39915200Y11001472D01*
X39790718Y10989212D01*
X39671020Y10952902D01*
X39580200Y10904357D01*
X39489380Y10952902D01*
X39369682Y10989212D01*
X39245200Y11001472D01*
X38645200Y11001472D01*
X38520718Y10989212D01*
X38513400Y10986992D01*
X38513400Y12770600D01*
X41195837Y12770600D01*
X41237000Y12766546D01*
X41278163Y12770600D01*
X41278170Y12770600D01*
X41401316Y12782729D01*
X41559317Y12830658D01*
X41704932Y12908491D01*
X41832564Y13013236D01*
X41858811Y13045218D01*
X42010574Y13196981D01*
X42054891Y13114069D01*
G36*
X24558020Y13648498D02*
G01*
X24677718Y13612188D01*
X24802200Y13599928D01*
X25355600Y13599928D01*
X25355600Y13410861D01*
X25395374Y13210902D01*
X25473395Y13022544D01*
X25586663Y12853026D01*
X25730826Y12708863D01*
X25900344Y12595595D01*
X26020451Y12545845D01*
X25252807Y11778200D01*
X21966232Y11778200D01*
X21964000Y12024650D01*
X21805250Y12183400D01*
X20581000Y12183400D01*
X20581000Y12163400D01*
X20327000Y12163400D01*
X20327000Y12183400D01*
X19102750Y12183400D01*
X18944000Y12024650D01*
X18941768Y11778200D01*
X18263273Y11778200D01*
X18178854Y11803808D01*
X18005600Y11820872D01*
X16755600Y11820872D01*
X16582346Y11803808D01*
X16415750Y11753272D01*
X16262214Y11671205D01*
X16248072Y11659599D01*
X16248072Y11750000D01*
X16235812Y11874482D01*
X16199502Y11994180D01*
X16140537Y12104494D01*
X16111398Y12140000D01*
X16140537Y12175506D01*
X16199502Y12285820D01*
X16201941Y12293860D01*
X16262214Y12244395D01*
X16415750Y12162328D01*
X16582346Y12111792D01*
X16755600Y12094728D01*
X18005600Y12094728D01*
X18178854Y12111792D01*
X18345450Y12162328D01*
X18498986Y12244395D01*
X18633562Y12354838D01*
X18744005Y12489414D01*
X18826072Y12642950D01*
X18876608Y12809546D01*
X18883724Y12881800D01*
X18941413Y12881800D01*
X18944000Y12596150D01*
X19102750Y12437400D01*
X20327000Y12437400D01*
X20327000Y12457400D01*
X20581000Y12457400D01*
X20581000Y12437400D01*
X21805250Y12437400D01*
X21964000Y12596150D01*
X21966587Y12881800D01*
X23318837Y12881800D01*
X23360000Y12877746D01*
X23401163Y12881800D01*
X23401170Y12881800D01*
X23524316Y12893929D01*
X23682317Y12941858D01*
X23827932Y13019691D01*
X23955564Y13124436D01*
X23981811Y13156418D01*
X24395782Y13570389D01*
X24427764Y13596636D01*
X24497065Y13681080D01*
X24558020Y13648498D01*
X24558020Y13648498D01*
G37*
X24558020Y13648498D02*
X24677718Y13612188D01*
X24802200Y13599928D01*
X25355600Y13599928D01*
X25355600Y13410861D01*
X25395374Y13210902D01*
X25473395Y13022544D01*
X25586663Y12853026D01*
X25730826Y12708863D01*
X25900344Y12595595D01*
X26020451Y12545845D01*
X25252807Y11778200D01*
X21966232Y11778200D01*
X21964000Y12024650D01*
X21805250Y12183400D01*
X20581000Y12183400D01*
X20581000Y12163400D01*
X20327000Y12163400D01*
X20327000Y12183400D01*
X19102750Y12183400D01*
X18944000Y12024650D01*
X18941768Y11778200D01*
X18263273Y11778200D01*
X18178854Y11803808D01*
X18005600Y11820872D01*
X16755600Y11820872D01*
X16582346Y11803808D01*
X16415750Y11753272D01*
X16262214Y11671205D01*
X16248072Y11659599D01*
X16248072Y11750000D01*
X16235812Y11874482D01*
X16199502Y11994180D01*
X16140537Y12104494D01*
X16111398Y12140000D01*
X16140537Y12175506D01*
X16199502Y12285820D01*
X16201941Y12293860D01*
X16262214Y12244395D01*
X16415750Y12162328D01*
X16582346Y12111792D01*
X16755600Y12094728D01*
X18005600Y12094728D01*
X18178854Y12111792D01*
X18345450Y12162328D01*
X18498986Y12244395D01*
X18633562Y12354838D01*
X18744005Y12489414D01*
X18826072Y12642950D01*
X18876608Y12809546D01*
X18883724Y12881800D01*
X18941413Y12881800D01*
X18944000Y12596150D01*
X19102750Y12437400D01*
X20327000Y12437400D01*
X20327000Y12457400D01*
X20581000Y12457400D01*
X20581000Y12437400D01*
X21805250Y12437400D01*
X21964000Y12596150D01*
X21966587Y12881800D01*
X23318837Y12881800D01*
X23360000Y12877746D01*
X23401163Y12881800D01*
X23401170Y12881800D01*
X23524316Y12893929D01*
X23682317Y12941858D01*
X23827932Y13019691D01*
X23955564Y13124436D01*
X23981811Y13156418D01*
X24395782Y13570389D01*
X24427764Y13596636D01*
X24497065Y13681080D01*
X24558020Y13648498D01*
M02*
